<svg width="360" height="271" viewBox="0 0 360 271" fill="none" xmlns="http://www.w3.org/2000/svg">
<path opacity="0.16" fill-rule="evenodd" clip-rule="evenodd" d="M0 37.8779V39.6576C2.30461 36.3435 4.69744 33.0948 7.17898 29.919C3.7785 37.6095 3.80185 44.2075 3.98982 46.811C2.62596 46.5462 1.29361 46.2198 0 45.8267V46.7516C1.32367 47.1413 2.68593 47.4635 4.07881 47.7245C4.09895 47.8923 4.11405 47.9897 4.11573 47.9981L4.84756 47.8739C6.99771 48.2398 9.21668 48.458 11.4709 48.5654C11.4726 48.6267 11.4734 48.6867 11.4743 48.7467C11.4751 48.8067 11.4759 48.8667 11.4776 48.928L12.3756 48.8961C12.3734 48.8307 12.3726 48.7677 12.3719 48.7038C12.3715 48.6726 12.3711 48.6411 12.3706 48.609C13.1494 48.6359 13.9316 48.651 14.7188 48.651C17.2953 48.651 19.9003 48.51 22.4936 48.27L22.4566 48.4916L23.3429 48.6376L23.4184 48.181C26.2836 47.8873 29.1253 47.471 31.8881 46.9742L32.5679 47.3435L32.865 46.7979C45.1952 44.4833 55.7714 40.6698 59.3634 39.2951L59.5581 39.5418L60.2614 38.9846L60.2396 38.956C60.3389 38.9164 60.4234 38.8826 60.491 38.8555C60.5983 38.8126 60.6632 38.7866 60.6776 38.7815L60.8472 38.711L60.9193 38.5414C66.732 24.7425 69.7986 13.5638 71.2505 4.63752C71.3915 4.63584 71.4922 4.63416 71.5375 4.63081L71.4888 3.73449C71.4737 3.73449 71.4301 3.73449 71.4015 3.73617C71.5999 2.44201 71.7636 1.19698 71.8964 0H70.9038C70.7735 1.19718 70.6122 2.44274 70.4163 3.73785C67.9673 3.74456 61.9802 3.72106 58.2891 3.70259L58.0375 0H57.1359L57.4482 4.59723H57.8662C58.269 4.60059 65.5822 4.63584 69.3555 4.63584H70.2669C69.9513 6.59632 69.5552 8.66758 69.0701 10.8496L69.0718 10.8513L51.9495 10.8194L47.8813 0H46.9217L51.3268 11.7157L68.8737 11.7493C68.8712 11.7594 68.8691 11.769 68.867 11.7787C68.8649 11.7883 68.8628 11.798 68.8603 11.808L59.6252 15.0794L49.2337 14.2637L42.4861 6.34622L41.222 0H40.305L41.5999 6.504L38.0549 15.0677L34.4377 2.12145C34.9668 1.78381 36.2886 0.981884 38.3582 0H36.3514C34.6771 0.871665 33.7723 1.48218 33.6774 1.54741H33.6757C34.2531 1.02864 34.8333 0.512825 35.4161 0L33.9055 0C30.6493 2.89576 27.4654 5.89792 24.3584 9.00496C15.3448 18.0186 7.21278 27.6785 0 37.8779ZM326.095 0L324.573 0C327.41 2.49603 330.181 5.06447 332.886 7.70077C331.596 6.78596 325.518 2.75851 315.079 0H311.217C317.478 1.32659 322.413 3.18615 325.959 4.83894L324.112 12.2629L317.001 19.8531L306.581 20.1787L297.51 16.4776L297.5 16.4172L315.03 17.2111L321.183 2.92713L320.359 2.57129L314.453 16.2863L297.345 15.5108C296.964 13.3069 296.666 11.2206 296.442 9.24667C299.104 9.37835 305.163 9.63804 307.699 9.74673C308.331 9.77381 308.744 9.79151 308.831 9.79553L309.249 9.81232L310.383 0H309.477L308.452 8.88075C304.764 8.72465 298.782 8.46617 296.337 8.34532C296.021 5.28831 295.881 2.51185 295.873 0H294.874C294.888 2.49856 295.033 5.2566 295.353 8.28992C295.324 8.28824 295.281 8.28488 295.266 8.2832L295.175 9.17616C295.22 9.1812 295.319 9.18791 295.46 9.1963C296.491 18.1813 299.027 29.491 304.184 43.5484L304.246 43.7162L304.405 43.7968C304.427 43.8085 304.581 43.8841 304.835 44.0033L304.818 44.0217L305.496 44.6125L305.682 44.3994C309.244 46.0477 319.842 50.6921 332.085 53.668L332.089 53.6764L332.099 53.6714C333.112 53.9181 334.135 54.1565 335.167 54.3764L335.184 54.5224L335.632 54.472C340.904 55.5731 346.374 56.3033 351.646 56.3033C354.515 56.3033 357.317 56.0746 360 55.5893V44.5073C359.551 42.033 358.83 39.2877 357.696 36.4232C358.473 37.4978 359.241 38.5796 360 39.6686V37.881C352.789 27.6807 344.657 18.0205 335.644 9.00663C332.536 5.89912 329.352 2.8964 326.095 0ZM360 63.5332C355.671 64.5929 351.2 64.6907 346.683 64.1167L346.54 63.8817C346.438 63.9438 346.337 63.9992 346.237 64.0579C333.787 62.3542 321.005 55.5983 309.833 49.69L309.822 49.6839C307.802 48.6152 305.842 47.5783 303.947 46.6049C303.408 45.4719 302.858 44.3406 302.282 43.2194C301.758 42.2006 301.224 41.1666 300.682 40.1175L300.682 40.117C294.362 27.8908 287.054 13.7523 286.408 0H285.5C285.541 0.895923 285.61 1.79337 285.705 2.69214C283.144 7.49095 282.516 12.038 283.855 16.204C285.922 22.6394 291.91 25.9813 292.949 26.5201C293.945 28.7172 294.989 30.8858 296.046 33.0141L294.453 32.4955V32.4921C274.934 26.1323 276.24 13.834 276.775 11.1669C276.812 11.1698 276.848 11.1732 276.885 11.1766C276.975 11.1852 277.066 11.1937 277.158 11.1937C277.553 11.1937 277.95 11.1484 278.343 11.0578C279.711 10.7439 280.873 9.91638 281.616 8.72801C282.36 7.53963 282.596 6.13306 282.283 4.76676C282.212 4.46128 282.108 4.17089 281.989 3.8889L282.098 3.86876C281.816 2.36024 281.927 1.06245 282.424 0H281.449C281.17 0.735907 281.038 1.55255 281.052 2.44372C280.73 2.0862 280.374 1.75722 279.955 1.4937C279.35 1.11436 278.689 0.869298 278.004 0.758517C278.24 0.512926 278.453 0.259334 278.644 0H277.489C277.262 0.249097 277.009 0.489465 276.728 0.718235C276.485 0.740055 276.242 0.771942 276 0.829011C274.634 1.14289 273.472 1.97039 272.729 3.15708C271.985 4.34546 271.748 5.75203 272.062 7.11833C272.185 7.64873 272.405 8.13718 272.673 8.59373C270.845 9.98184 260.029 17.0282 245.649 2.10299L244.27 0.671232C246.197 0.563809 248.14 0.434564 250.084 0.27175L250.071 0.288541C250.311 0.473175 255.274 4.23971 261.469 4.23971C262.419 4.23962 263.398 4.15064 264.393 3.94598C267.078 3.39677 269.523 2.075 271.709 0L270.361 0C268.489 1.58351 266.438 2.60998 264.219 3.06645C258.624 4.21622 253.429 1.40642 251.459 0.150903H251.46C251.972 0.103306 252.483 0.0530817 252.994 0H239.353C237.872 0.0614813 236.408 0.115889 234.967 0.169364C232.68 0.253289 230.457 0.337214 228.324 0.442959C228.109 0.294913 227.894 0.14723 227.678 0H226.069C226.336 0.178293 226.603 0.357393 226.869 0.536955C225.254 0.634307 223.646 0.755159 222.046 0.914616L197.901 0.414428L197.868 0.835721C197.421 6.30258 190.68 8.35203 190.613 8.37217L190.623 8.40909C189.902 8.69108 189.187 8.98146 188.473 9.27688L186.392 5.70336C189.4 4.81593 193.608 1.59422 195.568 0H194.11C191.832 1.78223 188.056 4.49192 185.615 4.96482L184.994 5.08567L187.632 9.61593C186.603 10.0523 185.581 10.5005 184.571 10.9638C183.639 10.4787 182.698 10.007 181.747 9.54543L183.423 5.23842L182.879 5.14609L182.877 5.15114C180.236 4.70288 175.984 1.69399 173.758 0H172.284C173.946 1.31938 178.861 5.06031 182.194 5.9266L180.933 9.16945C179.56 8.51652 178.174 7.88373 176.764 7.28451L176.895 7.0193C171.301 4.25818 170.881 1.13617 170.879 1.10932L170.841 0.719905L153.3 0L147.099 5.74732e-09C148.556 0.206666 150.005 0.43936 151.444 0.698084L151.439 0.818941L152.256 0.852512C163.396 2.93385 173.964 6.53589 183.537 11.4539C170.24 17.7281 158.677 26.4462 149.898 37.0962C149.733 37.0211 149.568 36.9454 149.403 36.8696C148.96 36.6661 148.516 36.4625 148.065 36.2704C135.881 31.1023 122.26 28.7877 108.246 29.2359C116.246 18.1004 126.595 8.08769 138.766 0H137.168C136.341 0.559549 135.523 1.1276 134.716 1.70686L134.714 1.70518L112.822 13.176L113.003 13.5654C115.326 18.564 111.365 23.6062 111.325 23.6565L111.358 23.6834C109.881 25.513 108.461 27.3761 107.117 29.2728C105.864 29.3265 104.609 29.4087 103.352 29.5061L102.623 24.5327L102.105 24.7207C98.5987 25.9942 89.9255 24.4914 89.7871 24.4674L89.7861 24.4673L89.6401 24.4421L89.5075 24.5075C84.2269 27.1327 78.849 27.9182 75.6179 28.1415C92.992 21.837 92.042 9.70993 91.6425 7.20729C92.1561 7.09315 92.663 6.90684 93.1414 6.62821C93.6315 6.34286 94.0478 5.97024 94.4137 5.55733C96.7065 7.22239 107.274 13.594 121.223 1.60952C119.437 4.35721 115.937 8.82704 110.425 12.127L110.286 12.2092L110.232 12.362L110.23 12.3659C110.151 12.5872 107.21 20.797 104.391 23.2117L103.909 23.623L108.797 26.4663L109.248 25.6892L105.426 23.4669C108.102 20.6906 110.613 13.9515 111.024 12.8151C118.397 8.35253 122.239 1.84501 123.222 0H121.696C107.502 13.0277 97.1075 6.485 94.9492 4.84901C95.2194 4.41092 95.446 3.94598 95.5803 3.43404C95.8853 2.27705 95.7896 1.07853 95.3151 0H94.3112C94.8515 0.981655 94.9917 2.11404 94.7058 3.20241C94.4104 4.327 93.6936 5.26863 92.6899 5.85274C90.6186 7.06126 87.9498 6.35965 86.7413 4.28671C86.1555 3.28297 85.9961 2.11138 86.2915 0.98847H86.2898C86.3814 0.639659 86.5136 0.30845 86.6823 0H85.6349C85.6469 0.0377296 85.6588 0.0757193 85.6704 0.113971C85.6564 0.148288 85.6422 0.182518 85.6279 0.216745C85.5538 0.395128 85.4797 0.573429 85.4304 0.763547C85.0729 2.11977 85.2659 3.53307 85.9742 4.74326C86.9478 6.41336 88.7085 7.34661 90.5162 7.34661C90.5694 7.34661 90.6232 7.34189 90.6773 7.33716C90.7086 7.33441 90.74 7.33166 90.7714 7.32982C91.2044 9.66796 92.5606 22.3742 72.4607 28.2338L69.9362 28.9706L72.5614 29.115C72.647 29.1217 81.3147 29.543 89.7861 25.3837C90.9443 25.5784 98.1735 26.7366 101.9 25.7345L102.464 29.585C101.356 29.6807 100.246 29.7898 99.137 29.919L99.1336 29.8737C92.8343 30.2396 89.6652 27.1109 89.6334 27.079L89.3916 26.8339L72.6235 36.2335C69.4897 37.3749 66.3829 38.6606 63.3095 40.0739C64.127 38.4978 64.9746 36.8881 65.8524 35.2281C67.6081 31.908 69.4377 28.4453 71.1901 24.8936L71.1884 24.8902C72.4657 24.3397 80.6131 20.5698 82.9378 13.1408C84.2148 9.0624 83.4694 4.64673 80.7342 0H79.1688C77.1354 11.9375 70.7048 24.1048 65.0501 34.795C63.9792 36.8193 62.9403 38.7848 61.9634 40.6849C60.8304 41.2237 59.6991 41.7742 58.5779 42.3499C57.559 42.8736 56.525 43.4074 55.476 43.9495C51.7749 45.863 47.8976 47.8672 43.9078 49.7487L43.6913 49.3207L43.5771 49.9048C29.4839 56.5222 14.0244 61.5524 0 55.664V57.0083C14.0221 68.7323 14.8538 91.1569 15.5396 109.663C15.6235 111.95 15.7074 114.173 15.8132 116.306C15.1015 117.338 14.3982 118.381 13.7134 119.44C13.0923 120.402 12.4646 121.38 11.8284 122.374L11.8262 122.377C8.22656 127.992 4.35413 134.032 0 139.613V141.072C0.993918 139.824 1.96274 138.551 2.90889 137.262C2.60132 139.032 1.84161 142.011 0 145.008V146.642C3.49763 141.699 3.9621 136.412 4.00664 135.746C4.8056 134.629 5.58946 133.502 6.35821 132.373L6.4522 132.651C9.15794 140.663 9.22004 147.09 6.64019 151.753C4.59889 155.443 1.39397 156.979 0 157.497V162.681C0.0457258 162.589 0.0888584 162.497 0.129309 162.403C2.24086 163.237 12.384 168.435 8.15419 189.957L7.76646 191.931L8.95651 190.309C9.24689 189.913 16.0515 180.54 15.9894 171.055C16.6658 170.097 20.8335 164.076 21.5419 160.283L25.3806 161.476L25.6475 160.618L20.7815 159.106L20.7278 159.655C20.3628 163.335 15.3451 170.415 15.1791 170.649L15.1753 170.654L15.0897 170.775V170.923C15.1888 177.766 11.4121 184.775 9.42313 187.981C12.7079 167.544 2.63194 162.421 0.412972 161.553C0.537181 161.03 0.585859 160.479 0.540539 159.915C0.496899 159.38 0.372692 158.869 0.183022 158.393C1.63492 157.887 5.14968 156.298 7.42069 152.206C9.95354 147.644 10.0912 141.534 7.83863 134.029C9.50034 135.844 12.337 139.874 12.9698 146.707L12.9849 146.868L13.099 146.982C13.1628 147.046 19.39 153.324 20.3552 156.939L20.518 157.55L24.1788 155.061C24.8586 156.756 25.5753 158.43 26.3306 160.076C25.2698 162.109 24.2745 164.19 23.3345 166.308L23.2875 166.29C21.6963 170.53 17.9784 169.912 17.8206 169.882L17.3272 169.793L15.9861 188.973C14.9706 193.69 14.227 198.515 13.7738 203.42C12.8171 201.923 11.8469 200.385 10.8499 198.796C9.21164 196.187 7.51637 193.488 5.74555 190.784C5.821 189.026 6.01503 178.281 0 172.164V173.501C4.23645 178.472 4.81066 186.193 4.85427 189.44C3.29947 187.1 1.68541 184.768 0 182.499V184.005C3.65501 189.02 6.97569 194.309 10.0878 199.266C11.3047 201.204 12.4881 203.088 13.6445 204.882C13.5438 206.132 13.4566 207.386 13.3928 208.647C13.3455 209.593 13.3006 210.554 13.2551 211.526L13.2266 212.133C12.9748 217.541 12.7063 223.282 12.0903 229.002L11.9476 229.108C11.9476 229.108 11.9963 229.176 12.06 229.27C10.723 241.458 7.77972 253.524 0 262.041V263.366C2.18344 261.111 4.01012 258.598 5.54245 255.891L5.54413 255.89C5.95704 256.001 6.78958 256.18 7.85374 256.18C9.47853 256.18 11.627 255.747 13.5942 254.018C13.6932 254.733 13.9366 255.44 14.3445 256.091C14.744 256.726 15.2693 257.248 15.8753 257.652C12.0533 259.351 11.0748 262.897 10.8583 264C9.90822 263.933 8.95987 263.894 8.01488 263.894C5.3101 263.894 2.63116 264.178 0 264.805V265.732C10.5716 263.142 21.9815 266.272 32.8708 271H35.0509C28.7719 268.161 22.2892 265.777 15.8518 264.633C20.0648 261.916 24.1435 261.06 27.9822 262.137C32.9524 263.532 36.5504 267.859 38.591 271H39.6796C37.6469 267.719 33.8032 262.84 28.229 261.274C23.8683 260.046 19.2541 261.108 14.5174 264.425C13.5992 264.287 12.6845 264.176 11.7697 264.094C12.0097 262.993 13.0671 259.537 16.9747 258.201C17.0066 258.213 17.0385 258.225 17.0703 258.237C17.254 258.306 17.4364 258.375 17.631 258.419C18.0221 258.508 18.4165 258.552 18.8076 258.552C19.7845 258.552 20.7446 258.277 21.5922 257.744C23.2925 256.675 24.167 254.782 24.0277 252.905C26.1884 252.681 36.7057 252.596 43.0371 271H43.988C37.4444 251.643 26.2368 251.757 23.8834 252.011C23.7524 251.489 23.5409 250.98 23.2388 250.5C22.94 250.025 22.559 249.627 22.1411 249.276C23.8028 246.977 29.9511 236.584 17.1241 222.961C19.8382 224.378 24.5548 227.449 28.1602 233.044L28.2475 233.18L28.4002 233.228C28.4858 233.255 36.9102 235.946 39.438 238.707L39.866 239.174L41.8533 235.479C42.7731 236.174 43.6997 236.857 44.6346 237.52C44.6665 238.252 44.7084 238.987 44.7554 239.721L40.8211 240.432L41.0258 240.944H41.0242C42.4019 244.379 41.2204 252.984 41.1828 253.258L41.1819 253.265L41.1601 253.411L41.2306 253.54C44.3982 259.415 44.3695 267.133 44.1046 271H45.019C45.2985 267.05 45.3152 259.34 42.0917 253.251C42.2495 252.09 43.1626 244.823 42.0396 241.132L44.8142 240.631C44.982 242.977 45.2321 245.334 45.5527 247.692C45.6434 252.363 43.9531 253.236 43.9431 253.241L43.5218 253.417L50.9206 270.415L51.0112 270.375C51.0836 270.584 51.1567 270.792 51.2303 271H52.1836C49.4348 263.299 47.52 255.455 46.4507 247.645C46.4407 247.14 46.4138 246.603 46.3601 246.017L46.2325 246.029C46.0059 244.17 45.8297 242.316 45.6988 240.464L45.9925 240.411L45.833 239.526L45.6434 239.56C45.6148 239.095 45.5897 238.63 45.5662 238.165C57.648 246.544 70.9802 252.197 84.5928 254.473C84.6079 254.631 84.6225 254.788 84.637 254.945C84.6842 255.455 84.7314 255.965 84.7943 256.476C85.3955 261.357 86.4369 266.213 87.8878 271H88.8186C87.3427 266.179 86.2862 261.286 85.6805 256.368L85.6822 256.366C85.6329 255.962 85.5952 255.558 85.5574 255.155C85.5411 254.981 85.5248 254.807 85.5076 254.633C86.3905 254.77 87.2751 254.894 88.1596 255.003C91.3488 255.396 94.5144 255.583 97.665 255.583C107.749 255.583 117.6 253.669 126.993 250.51C128.057 257.47 129.739 264.362 132.208 271H133.172C130.639 264.274 128.926 257.276 127.856 250.206C138.795 246.428 149.102 240.98 158.421 234.909V234.91C163.165 245.099 169.097 255.455 176.46 264.796C174.574 266.941 172.602 269.014 170.542 271H171.828C173.629 269.231 175.362 267.396 177.029 265.506C178.533 267.383 180.095 269.218 181.718 271H182.934C181.088 269.005 179.32 266.94 177.627 264.819C185.21 256.078 191.409 246.207 196.443 236.29C205.644 242.742 215.962 248.746 227.011 253.152C225.792 259.236 224.056 265.229 221.689 271H222.659C224.957 265.328 226.655 259.448 227.859 253.483C238.774 257.741 250.386 260.427 262.33 260.427C264.511 260.427 266.704 260.331 268.905 260.145C268.285 263.79 267.42 267.415 266.323 271H267.26C268.354 267.386 269.215 263.733 269.83 260.059C270.498 259.995 271.166 259.926 271.834 259.844C284.97 258.226 297.923 253.421 309.833 246.027C309.771 246.643 309.706 247.261 309.634 247.877L309.602 247.872C309.59 247.949 309.525 248.425 309.476 249.137C308.539 256.437 306.864 263.773 304.459 271H305.416C307.289 265.327 308.714 259.59 309.692 253.855C310.066 256.11 310.936 258.518 312.828 260.148L306.328 271H307.375L314.003 259.937L313.687 259.693C310.265 257.05 310.236 251.467 310.392 249.11C310.416 248.926 310.444 248.741 310.466 248.556L314.666 249.939C313.607 253.357 315.344 258.396 315.755 259.502C313.181 263.737 312.085 267.863 311.64 271H312.57C313.023 267.913 314.112 263.867 316.636 259.782L316.754 259.591L316.672 259.381L316.67 259.376C316.594 259.178 314.294 253.195 315.661 249.822L315.841 249.377L310.569 247.64C310.652 246.905 310.735 246.168 310.804 245.434C312.249 244.516 313.677 243.554 315.09 242.561L314.966 242.717L317.947 245.077L318.229 244.771C320.764 242.019 329.197 239.355 329.282 239.328L329.423 239.283L329.51 239.164C332.773 234.702 336.933 231.286 339.783 229.244C328.003 242.668 334.21 253.448 335.598 255.504C335.185 255.849 334.808 256.242 334.511 256.711C334.21 257.186 333.995 257.696 333.859 258.225C331.208 257.743 320.522 256.813 313.624 271H314.617C321.327 257.5 331.313 258.609 333.712 259.101C333.67 259.621 333.707 260.148 333.824 260.672C334.131 262.04 334.954 263.206 336.139 263.957C336.99 264.494 337.953 264.772 338.937 264.772C339.323 264.772 339.712 264.729 340.098 264.643C340.338 264.589 340.562 264.5 340.788 264.416L340.778 264.447C344.513 265.675 345.676 268.755 346.015 270.105C345.097 270.118 344.177 270.162 343.256 270.232L343.252 270.231C335.032 265.794 328.611 267.907 324.317 271H325.767C329.568 268.601 334.888 267.243 341.585 270.39C340.262 270.541 338.937 270.746 337.613 271H345.872C346.34 270.992 346.807 270.992 347.273 271H354.845C352.233 270.401 349.589 270.12 346.93 270.096L346.928 270.095C346.636 268.787 345.538 265.474 341.824 263.884C342.436 263.48 342.969 262.96 343.373 262.32C343.774 261.686 344.026 260.987 344.13 260.266C346.072 261.924 348.18 262.335 349.775 262.335C350.243 262.335 350.663 262.298 351.025 262.251C352.687 265.478 354.737 268.433 357.287 271H358.585C355.873 268.422 353.708 265.406 351.969 262.087C352.175 262.035 352.311 261.993 352.34 261.983L352.054 261.13C352.019 261.142 351.839 261.199 351.546 261.263C347.506 253.107 345.924 243.217 345.169 233.428C345.245 233.322 345.3 233.247 345.305 233.242L345.146 233.119C344.954 230.58 344.815 228.049 344.704 225.558L345.743 224.567L344.686 225.16C344.603 223.285 344.535 221.432 344.467 219.619C344.384 217.331 344.3 215.109 344.194 212.976C344.906 211.943 345.609 210.901 346.294 209.842C346.915 208.88 347.542 207.9 348.18 206.906L348.26 206.783C349.85 204.303 351.492 201.742 353.206 199.175L353.624 199.682L353.407 198.878C355.488 195.771 357.676 192.661 360 189.681V188.217C359.508 188.836 359.022 189.46 358.542 190.089C358.508 188.616 358.675 185.951 360 183.314V181.526C357.232 185.662 357.59 190.223 357.707 191.199C356.111 193.341 354.579 195.529 353.1 197.72L353.088 197.673C348.218 179.588 356.602 173.186 360 171.395V170.413C356.872 171.999 347.891 178.17 351.625 195.466C350.053 192.834 347.665 187.792 347.422 181.158L347.415 181L347.311 180.881L347.305 180.875C347.097 180.632 341.525 174.13 340.788 170.496L340.676 169.939L335.122 172.516C334.653 171.403 334.173 170.3 333.673 169.209C334.113 168.366 334.543 167.517 334.962 166.659L340.494 168.252L340.57 167.744C341.117 164.069 346.357 157.238 346.539 157L346.544 156.995L346.631 156.88L346.638 156.736C346.864 150.866 348.674 145.784 349.991 142.813C347.422 160.256 357.085 165.607 360 166.807V165.857C356.755 164.482 347.396 158.791 351.437 139.894L352.001 137.259L350.612 139.568C350.567 139.642 346.158 147.085 345.75 156.56C345.045 157.481 340.649 163.343 339.783 167.111L335.357 165.837C336.152 164.175 336.909 162.487 337.628 160.771L337.668 160.79C340.243 155.18 344.05 155.598 344.209 155.616L344.684 155.682L346.74 127.51L346.08 127.463C346.136 126.933 346.188 126.401 346.237 125.867C347.193 127.364 348.164 128.902 349.162 130.491C351.079 133.546 353.076 136.725 355.181 139.889C355.131 141.478 355.101 150.027 360 155.801V154.346C356.773 149.888 356.178 144.006 356.088 141.247C357.35 143.114 358.652 144.97 360 146.784V145.259C356.346 140.247 353.027 134.961 349.916 130.006C348.699 128.067 347.516 126.184 346.357 124.388C346.458 123.138 346.545 121.884 346.609 120.623C346.656 119.688 346.7 118.741 346.745 117.782L346.775 117.14C346.911 114.225 347.052 111.214 347.249 108.16L347.873 108.355L347.276 107.752C348.038 96.2347 349.644 84.173 354.874 74.5216C355.131 74.5989 355.294 74.6626 355.326 74.6744L355.668 73.8435C355.64 73.8318 355.51 73.7814 355.312 73.7177C356.64 71.3924 358.189 69.2167 360 67.2333V65.9031C357.786 68.1878 355.94 70.7385 354.392 73.486C352.793 73.157 349.936 73.011 347.235 75.0873V75.0856C347.183 74.3672 346.987 73.6472 346.623 72.9741C346.26 72.3044 345.772 71.7505 345.203 71.314C349.068 69.889 350.295 66.4984 350.604 65.3621C353.779 65.471 356.921 65.2077 360 64.4727V63.5332ZM360 79.3914C359.033 81.462 358.073 83.7508 357.14 86.2778C357.129 86.2708 357.115 86.2629 357.102 86.2554C357.084 86.2449 357.067 86.235 357.06 86.2292L356.581 86.9895C356.62 87.013 356.705 87.0634 356.828 87.1339C353.734 95.7513 350.975 107.051 349.354 121.78L349.333 121.958L349.441 122.1C349.446 122.107 349.464 122.13 349.492 122.166C349.542 122.231 349.625 122.339 349.735 122.478L349.711 122.488L350.053 123.319L350.315 123.21C351.84 125.112 355.298 129.285 360 134.139V132.854C359.758 132.601 359.519 132.35 359.284 132.101L360 131.167V129.69L358.661 131.434C355.141 127.666 352.523 124.521 351.178 122.851L354.854 121.333H354.856L360 122.765V121.834L355.655 120.625L360 115.905V114.576L354.564 120.481L350.596 122.119C350.455 121.941 350.336 121.788 350.263 121.696C350.738 117.415 351.316 113.432 351.969 109.715L360 112.699V111.741L352.128 108.817C353.013 103.949 354.033 99.5614 355.139 95.6069V95.6052L360 101.124V99.7629L355.431 94.5763C355.435 94.5669 355.437 94.557 355.44 94.5472C355.443 94.5361 355.446 94.5249 355.45 94.5142L360 97.0373V96.0092L355.71 93.6296C356.346 91.4946 357.006 89.4888 357.682 87.6139C358.288 87.9531 359.096 88.4026 360 88.9036V87.8791C359.201 87.4354 358.509 87.0505 357.996 86.7629C358.653 84.9932 359.324 83.3399 360 81.7969V79.3914ZM360 197.619C355.875 201.913 351.512 206.993 346.957 213.006L346.846 213.152L346.869 213.333L346.87 213.338C346.875 213.376 346.897 213.537 346.933 213.801L346.901 213.796L346.77 214.684L347.071 214.73C347.657 218.587 349.592 229.902 353.625 241.774L353.509 241.962L353.734 242.099C354.045 243.007 354.371 243.919 354.706 244.828L354.47 245.023L355.039 245.718C355.656 247.35 356.316 248.978 357.018 250.584L357.001 250.597L357.048 250.656C357.958 252.735 358.941 254.777 360 256.744V254.831C359.337 253.53 358.707 252.201 358.107 250.854L360 249.3V248.136L357.729 250C357.031 248.39 356.376 246.76 355.764 245.126L360 241.665V240.507L355.435 244.238C355.149 243.457 354.872 242.675 354.606 241.896L359.54 233.834L360 233.614V232.622L359.696 232.767L359.963 222.612L352.962 215.252H352.961L360 213.169V212.232L352.095 214.572L347.86 213.944L347.85 213.874C347.821 213.674 347.798 213.514 347.784 213.405H347.783C350.388 209.975 352.93 206.858 355.405 204.014L360 209.741V208.303L356.004 203.323C357.358 201.785 358.69 200.331 360 198.957V197.619ZM0 243.055C6.59434 228.907 9.67648 213.024 10.4923 208.306L10.7726 208.274L10.6703 207.381L10.6468 207.385C10.6921 207.103 10.7173 206.938 10.7206 206.913L10.7458 206.735L10.6417 206.589C6.96262 201.373 3.40625 196.816 0 192.835V194.243C0.643334 195.002 1.29186 195.781 1.94544 196.582L0 198.844V200.22L2.51781 197.292C4.88785 200.229 7.31998 203.437 9.80583 206.955C9.78737 207.074 9.75883 207.255 9.72023 207.485V207.487L5.4535 207.972L0 206.153V207.101L4.56725 208.625L0 213.11V214.367L5.6096 208.86L9.56245 208.41C9.1915 210.528 8.42276 214.552 7.16556 219.544L0 216.416V217.395L6.94232 220.425C5.85466 224.65 4.42794 229.495 2.61349 234.428H2.61181L0 229.816V231.642L2.20057 235.528C1.92362 236.258 1.63827 236.99 1.34453 237.72L0 236.543V237.735L0.985345 238.598C0.666865 239.37 0.338417 240.14 8.78572e-10 240.906L0 243.055ZM0 131.802C6.66769 124.859 11.6013 118.449 13.4817 115.918L13.757 116.017L14.0642 115.173L14.0373 115.163C14.2035 114.935 14.3008 114.799 14.3159 114.777L14.42 114.629L14.3932 114.45C12.1104 99.6588 8.86588 88.5203 5.42496 80.158L5.48377 80.1206C5.56873 80.0664 5.62962 80.0276 5.65995 80.007L5.14969 79.2684C5.13626 79.2768 5.10101 79.3003 5.07584 79.3171C3.39485 75.3377 1.67345 72.0108 0 69.2365V71.1939C1.40751 73.6566 2.84053 76.5167 4.24498 79.8324C3.30189 80.4164 1.73029 81.3799 0 82.438V83.4916C1.76882 82.4103 3.51692 81.3391 4.59579 80.6717C5.35447 82.5079 6.10307 84.4768 6.83321 86.5917L0 90.7806V91.8348L7.13031 87.4645C7.13535 87.4813 7.14206 87.4998 7.14877 87.5165L0.990375 95.1537L0 95.6613V96.6688L0.830916 96.243L0.839316 106.401L8.03837 113.568H8.04005L0 116.188V117.134L8.87091 114.242L12.6005 115.594C11.3165 117.315 8.82559 120.553 5.47028 124.452L5.4686 124.454L0 117.936V119.332L4.87441 125.14C3.39592 126.841 1.7624 128.653 0 130.512V131.802ZM101.872 0C103.064 0.276069 104.256 0.390926 105.413 0.390926C106.756 0.390926 108.053 0.236443 109.251 0H101.872ZM358.725 222.612L351.908 215.448V215.45L347.999 214.869C348.326 216.992 349.009 221.012 350.142 226.013L358.725 222.612ZM358.78 233.354L359.042 223.453H359.04L350.346 226.899C351.317 231.078 352.593 235.874 354.23 240.787L358.78 233.354ZM15.5127 240.364C14.8229 244.802 12.097 248.776 7.41901 252.184H7.41734C6.97421 253.169 6.50087 254.136 5.99229 255.081C7.19745 255.361 10.6938 255.834 13.5623 252.833L13.5741 252.845C13.7134 251.265 14.5576 249.767 15.9995 248.859C17.1878 248.112 18.5928 247.873 19.9607 248.184C20.4827 248.303 20.9628 248.518 21.4126 248.778C23.0424 246.633 29.6121 236.115 14.7759 221.877L13.6714 220.816C13.5002 223.54 13.2837 226.3 12.9883 229.056C13.893 230.466 16.3604 234.905 15.5127 240.364ZM12.8187 230.568C12.0013 237.478 10.6333 244.318 8.14077 250.487C11.8469 247.457 14.034 244.016 14.6231 240.236C15.271 236.085 13.8275 232.478 12.8187 230.568ZM16.1623 102.939C16.268 105.211 16.352 107.455 16.4325 109.642V109.641C16.5013 111.517 16.5718 113.335 16.6524 115.109C18.9016 111.93 21.2834 108.884 23.7826 105.98L23.5258 105.809L33.8083 90.4271L34.1725 90.6369C34.3001 90.7091 37.4154 92.3758 42.3032 88.5639L42.33 88.5975C44.5742 86.919 46.8653 85.3345 49.2001 83.8507C49.4485 81.192 49.801 78.5249 50.2441 75.8577H50.2139C50.2106 75.7688 49.8497 67.0305 46.2795 65.7448L45.8028 65.5736L56.4277 44.4816C56.3245 44.5356 56.2224 44.588 56.1198 44.6406C56.0439 44.6795 55.9677 44.7186 55.8906 44.7586C52.1861 46.6737 48.3055 48.6779 44.314 50.5628C44.6312 51.2208 47.5585 57.7401 43.5453 66.6948C43.8524 67.8647 45.6132 74.8355 44.9888 78.6407L49.3965 78.2983L49.467 79.1929L43.8306 79.631L43.9917 79.02C44.9485 75.4029 42.659 66.8593 42.6355 66.7737L42.5935 66.6176L42.6607 66.4699C45.6232 59.9641 44.7219 54.7104 44.0018 52.3135C42.2125 60.2158 39.0301 65.6239 34.5301 68.4019C30.7383 70.7434 27.1615 70.4849 25.7398 70.2499C25.6693 70.7669 25.5434 71.2788 25.3151 71.7656C25.0751 72.2792 24.7562 72.729 24.3886 73.1218C25.8791 74.9681 32.0979 84.4181 19.0929 100.538C22.4113 98.7423 29.1706 94.5343 32.4823 88.5455L32.5545 88.4162L32.6887 88.3541C32.7693 88.3172 40.8009 84.6128 42.9695 81.5629L43.2884 81.1131L46.7629 84.8427L46.105 85.4554L43.3657 82.513C40.8681 85.4554 34.2598 88.6126 33.1973 89.1078C28.5429 97.3727 17.9851 102.13 17.5353 102.329L16.1623 102.939ZM37.6269 53.5354C36.9639 54.5862 32.301 61.4646 23.7961 61.4646V61.4663C21.2616 61.4663 18.3897 60.8553 15.1787 59.2977L15.2492 59.1533C10.6602 59.3531 6.10642 58.8227 1.67016 57.2835C4.88112 60.2259 7.35691 63.7474 9.28382 67.6449C10.4084 67.3981 13.0386 67.1396 15.3314 69.1991C15.3734 68.5529 15.5278 67.9134 15.8115 67.3092C16.1371 66.6159 16.597 66.0301 17.1442 65.5618C12.3622 64.1905 11.1906 59.7173 11.1402 59.5176L12.0131 59.3011C12.0601 59.4907 13.2316 63.9303 18.1312 64.882L18.1278 64.8972C19.531 64.162 21.2481 64.0613 22.7923 64.7847C24.0613 65.3806 25.0231 66.433 25.4998 67.7523C25.6877 68.2726 25.7666 68.8081 25.7868 69.3435C26.9986 69.5483 30.4715 69.8605 34.0769 67.6264C38.5584 64.8502 41.6788 59.2574 43.3606 51.0126C41.4706 51.8905 39.5572 52.7381 37.6269 53.5354ZM16.827 59.0526C23.2674 58.5424 29.7598 56.6608 36.0843 54.1581C33.8838 56.9898 27.4082 63.4772 16.827 59.0526ZM16.6256 67.6885C15.6067 69.8622 16.545 72.4571 18.717 73.4743C20.8872 74.4931 23.4839 73.5532 24.5027 71.3829C24.9962 70.3305 25.0516 69.1488 24.6555 68.0561C24.2593 66.9634 23.4637 66.0906 22.4113 65.5971C20.2377 64.5766 17.6427 65.5182 16.6256 67.6885ZM15.4573 70.6618C15.4534 70.6431 15.4495 70.6244 15.4456 70.6057L15.4473 70.6074C13.423 68.1484 10.8633 68.2558 9.68497 68.474C10.0962 69.3536 10.4856 70.2482 10.8465 71.163C15.8333 73.8889 18.8949 77.5295 19.9288 81.9893C21.7634 89.9 16.7011 97.6362 15.9357 98.7474C16.0163 100.047 16.0851 101.341 16.1472 102.625L17.0133 101.624C31.4232 84.9787 25.1338 75.4599 23.7205 73.7126C22.8091 74.3974 21.6996 74.7835 20.5549 74.7835C19.8097 74.7835 19.0543 74.624 18.3359 74.2883C17.067 73.6942 16.1052 72.6401 15.6285 71.3208C15.5496 71.1041 15.5035 70.8831 15.4573 70.6618ZM15.8367 97.2149C17.3272 94.7055 20.4978 88.4078 19.0527 82.1873C18.1446 78.2748 15.5412 75.0252 11.3467 72.4974C14.1028 80.111 15.2492 88.7368 15.8367 97.2149ZM82.0818 12.8689C83.2702 9.07042 82.5686 4.92789 80.0106 0.543665L80.0089 0.545345C78.6224 8.30671 75.4333 16.1352 71.8229 23.5911C74.3272 22.3121 80.2439 18.7503 82.0818 12.8689ZM332.181 67.2957C324.866 64.9643 321.155 57.4665 320.591 56.2395H320.593C316.753 54.3664 313.015 52.3897 309.441 50.4996L309.421 50.489C307.762 49.6111 306.152 48.7651 304.576 47.9477C305.543 50.0509 306.455 52.1675 307.294 54.3008L317.36 73.6136L317.021 73.8368C316.997 73.8536 314.429 75.6765 314.59 81.9154H314.496C314.698 83.4244 314.874 84.9317 315.012 86.4373L318.024 86.0949C317.143 82.3367 318.533 75.1477 318.766 73.998C314.884 65.3973 315.586 56.7481 315.594 56.6608L315.822 54.044L316.475 56.5903C321.615 76.6047 334.442 75.8712 336.77 75.5623C336.741 73.669 337.737 71.8193 339.516 70.8575C341.011 70.0485 342.73 70.0485 344.174 70.6997C347.97 69.6641 349.308 66.5337 349.689 65.3151C348.597 65.253 347.501 65.1489 346.403 65.0046C342.98 66.9718 339.684 67.9722 336.552 67.9722C335.056 67.9722 333.598 67.7472 332.181 67.2957ZM344.936 64.7897C337.206 63.5393 329.396 60.4542 321.939 56.8907C323.243 59.2658 326.724 64.6169 332.46 66.4414C336.298 67.665 340.489 67.1027 344.936 64.7897ZM343.813 225.645C343.721 223.614 343.645 221.606 343.573 219.646H343.574C343.506 217.769 343.435 215.952 343.355 214.177C342.149 215.881 340.906 217.548 339.627 219.176H339.63L328.534 237.106L328.163 236.914C328.139 236.903 325.603 235.708 320.819 238.242C319.136 239.597 317.427 240.901 315.686 242.143L317.865 243.865C320.65 241.226 327.745 238.878 328.874 238.516C334.469 230.931 342.561 226.345 342.643 226.3L343.813 225.645ZM340.921 246.069C339.836 240.169 343.145 234.773 344.251 233.171V233.17C344.08 230.89 343.95 228.618 343.845 226.373L343.172 227.016C328.171 241.327 334.977 252.998 336.333 254.992C336.788 254.73 337.27 254.515 337.795 254.398C339.165 254.089 340.568 254.335 341.753 255.084C342.938 255.834 343.759 257.001 344.066 258.369C344.12 258.604 344.15 258.839 344.17 259.074C346.409 261.353 349.011 261.555 350.599 261.402C349.735 259.624 348.988 257.768 348.333 255.853C344.133 253.241 341.634 249.953 340.921 246.069ZM341.804 245.913C342.418 249.241 344.471 252.113 347.88 254.475C345.931 248.246 344.939 241.448 344.37 234.669H344.368C343.064 236.859 340.949 241.283 341.804 245.913ZM44.6749 253.812L48.7536 263.186L48.7553 263.188C47.6508 259.225 46.7646 255.242 46.0932 251.26C45.7004 252.744 45.0777 253.478 44.6749 253.812ZM16.4795 249.612C14.4502 250.89 13.8376 253.582 15.1132 255.613H15.1116C15.7309 256.596 16.6961 257.28 17.829 257.538C18.962 257.796 20.1286 257.598 21.1105 256.979C22.0941 256.36 22.7789 255.395 23.0374 254.262C23.2959 253.129 23.0978 251.964 22.4785 250.98C21.8591 249.997 20.894 249.312 19.761 249.053C19.437 248.979 19.1097 248.944 18.7858 248.944C17.9767 248.944 17.1811 249.171 16.4795 249.612ZM41.5613 234.123L41.7526 233.769L42.5449 234.195L42.283 234.68C43.0484 235.261 43.8205 235.83 44.5977 236.389C44.1478 222.377 46.4642 208.754 51.6306 196.57C51.8337 196.088 52.0511 195.616 52.2684 195.144C52.3312 195.008 52.394 194.872 52.4564 194.735C41.8046 185.957 33.0866 174.394 26.8123 161.097C22.3811 169.721 19.0191 179.156 16.874 189.087L16.4258 195.497L15.6789 195.445C15.1938 198.479 14.8195 201.55 14.5627 204.652C15.3767 205.911 16.2177 207.146 17.0737 208.367L17.3389 208.215L18.8026 210.77C25.4343 219.76 33.1403 227.626 41.5613 234.123ZM35.4982 230.306C33.7801 229.587 31.6449 229.058 29.5315 229.507L21.9732 216.307C26.1533 221.4 30.684 226.086 35.4982 230.306ZM18.1513 170.809L17.255 183.647C18.5189 178.855 20.0681 174.196 21.8876 169.704C20.4676 170.74 18.9201 170.834 18.1513 170.809ZM24.5984 153.685L24.6874 153.624L25.1926 154.366L24.9341 154.541C25.5451 156.071 26.1896 157.582 26.8627 159.072C33.481 146.714 42.2964 136.074 52.8643 128.106C53.2655 127.804 53.6733 127.515 54.0814 127.225C54.2196 127.127 54.3578 127.029 54.4958 126.931C49.6617 114.003 47.8925 99.6319 49.1078 84.9787C36.7943 92.9179 25.6659 103.674 16.7196 116.576C17.3876 129.615 20.1168 142.187 24.5984 153.685ZM34.1104 91.5886L26.6428 102.761C30.3707 98.7289 34.332 95.0094 38.4779 91.6171C36.321 92.2365 34.7885 91.8487 34.1104 91.5886ZM259.663 33.7493C251.724 21.4359 240.97 10.3075 228.066 1.36109V1.35941C212.959 2.1332 198.477 5.67147 185.568 11.5026C197.926 18.1209 208.566 26.9363 216.534 37.5041C216.834 37.9029 217.12 38.3071 217.407 38.7114C217.507 38.8535 217.608 38.9955 217.709 39.1373C230.637 34.3016 245.01 32.5341 259.663 33.7493ZM195.71 6.55511C197.137 5.32652 198.403 3.62648 198.714 1.3292L215.903 1.68504C208.945 2.73731 202.182 4.37856 195.71 6.55511ZM236.305 6.44526C242.579 11.5731 248.233 17.238 253.172 23.3024C252.231 20.0511 253.136 17.7029 253.611 16.7915L236.305 6.44526ZM298.324 45.1295L297.06 44.3205V44.3188C285.443 39.1809 273.34 35.9935 261.389 34.8018C268.782 46.7123 273.588 59.667 275.206 72.8029C275.268 73.3096 275.315 73.8164 275.362 74.3224C275.377 74.4835 275.392 74.6444 275.407 74.8053C289.02 77.0814 302.352 82.7362 314.434 91.1152C314.375 89.89 314.291 88.663 314.189 87.4326L314.129 87.4393L314.026 86.5464L314.115 86.5363C312.908 73.3668 309.269 59.9909 303.265 47.2696C301.671 46.4555 300.063 45.6817 298.445 44.9415L298.324 45.1295ZM277.925 32.0675C276.163 34.1589 273.726 35.0401 271.601 35.3909H271.602C278.674 36.7488 285.737 38.7848 292.659 41.5023L277.925 32.0675ZM316.205 73.3467L309.583 60.6405H309.582C311.507 66.4565 312.959 72.3413 313.941 78.2211C314.461 75.2988 315.634 73.8805 316.205 73.3467ZM319.819 96.2313C319.676 96.1222 319.549 96.0198 319.436 95.9275V95.9258C318.11 94.8784 316.764 93.8697 315.403 92.8911C315.852 106.903 313.538 120.526 308.37 132.71C308.18 133.161 307.976 133.603 307.773 134.045C307.696 134.212 307.62 134.378 307.544 134.545C318.194 143.321 326.914 154.885 333.186 168.182C339.882 155.152 344.14 140.273 345.438 124.626C338.281 113.577 329.547 103.983 319.819 96.2313ZM323.957 98.506C329.38 103.202 334.461 108.472 339.083 114.262L329.804 98.5644C327.732 99.3289 325.698 99.0987 323.957 98.506ZM343.848 154.703L345.501 132.049C344.256 140.71 342.102 149.074 339.135 156.958C341.028 155.011 342.97 154.72 343.848 154.703ZM196.861 235.479C205.992 241.891 216.229 247.863 227.186 252.252V252.254C229.351 240.973 229.771 229.405 229.167 218.374C222.063 217.714 215.262 216.69 209.018 215.49L208.817 215.451L208.714 215.274L206.781 211.923C204.155 219.398 200.891 227.439 196.861 235.479ZM52.9651 195.789C52.7928 196.164 52.6203 196.539 52.4581 196.921C47.2581 209.182 44.972 222.917 45.5141 237.039C57.5624 245.51 70.8879 251.232 84.4988 253.548C83.2987 239.296 86.127 225.415 91.1625 212.507C78.4176 209.934 66.0656 205.109 55.2863 196.98C54.5746 196.442 53.8714 195.892 53.1748 195.331C53.1054 195.484 53.0353 195.637 52.9651 195.789ZM163.141 93.8025C154.009 87.389 143.773 81.4186 132.816 77.0293V77.031C130.652 88.3071 130.233 99.8703 130.835 110.896C137.942 111.558 144.737 112.592 150.984 113.793L151.185 113.832L151.288 114.01L153.221 117.359C155.848 109.884 159.113 101.843 163.141 93.8025ZM233.823 114.572C244.931 113.973 256.58 114.406 267.943 116.603C272.999 103.697 275.827 89.8144 274.583 75.5741C273.632 75.423 272.68 75.2854 271.727 75.1679C258.424 73.528 245.396 75.5287 233.143 79.6679C234.85 91.4409 234.81 103.377 233.823 114.572ZM188.636 169.107L226.615 191.034L230.454 193.25C236.344 191.202 242.608 188.75 248.953 185.839C243.889 178.169 238.422 171.181 233.156 165.088H181.677L188.636 169.107ZM233.564 164.19H233.566H237.997C242.074 159.472 246.274 154.215 250.312 148.523C242.093 144.413 233.865 141.094 226.258 138.451L181.675 164.19H233.564ZM181.227 163.413L226.165 137.467H226.167L230.004 135.251C231.176 129.126 232.185 122.475 232.836 115.526C223.661 116.074 214.876 117.317 206.967 118.831L200.105 130.716L181.227 163.413ZM184.468 156.004L206.394 118.025L206.396 118.027L208.612 114.188C206.564 108.298 204.112 102.034 201.201 95.6891C193.531 100.753 186.541 106.22 180.45 111.485V162.965L184.468 156.004ZM126.844 164.19H178.323L129.546 136.028C123.656 138.076 117.392 140.528 111.048 143.439C116.112 151.11 121.578 158.097 126.844 164.19ZM178.325 165.088H126.434H122.001C117.924 169.806 113.725 175.063 109.686 180.755C117.908 184.866 126.136 188.184 133.743 190.828L145.628 183.966L178.325 165.088ZM129.37 193.352L132.72 191.419H132.719C125.244 188.794 117.201 185.529 109.161 181.499C102.749 190.632 96.777 200.867 92.3878 211.824C103.666 213.988 115.229 214.407 126.256 213.805C126.918 206.698 127.952 199.904 129.154 193.656L129.192 193.455L129.37 193.352ZM171.816 169.884L129.998 194.027C128.826 200.152 127.817 206.804 127.166 213.753C136.341 213.202 145.126 211.962 153.035 210.448L178.775 165.865L171.816 169.884ZM179.552 166.318V217.795C173.459 223.06 166.473 228.529 158.802 233.593C155.892 227.248 153.438 220.984 151.392 215.092L179.552 166.318ZM234.339 165.087H238.412L238.546 164.93C242.71 160.122 247.002 154.754 251.128 148.929C260.979 153.921 270.783 160.066 279.468 167.579C270.187 174.874 259.898 180.754 249.779 185.455C244.831 177.946 239.499 171.098 234.339 165.087ZM251.647 148.189C258.099 138.987 264.103 128.671 268.509 117.622C281.188 120.163 293.471 124.945 304.174 133.016C304.941 133.595 305.696 134.189 306.445 134.795C300.402 147.749 291.011 158.357 280.178 167.007C271.437 159.422 261.565 153.224 251.647 148.189ZM227.283 137.858C234.758 140.483 242.799 143.748 250.839 147.778C257.251 138.647 263.223 128.41 267.613 117.453C256.335 115.289 244.772 114.869 233.744 115.472C233.084 122.579 232.05 129.373 230.848 135.621L230.81 135.822L230.632 135.924L227.283 137.858ZM207.558 117.805C215.344 116.341 223.941 115.148 232.918 114.618L232.916 114.616C233.903 103.501 233.959 91.6507 232.28 79.9667C221.434 83.7315 211.208 89.1497 201.96 95.1856C204.941 101.67 207.444 108.071 209.527 114.082L209.594 114.277L209.491 114.455L207.558 117.805ZM183.537 64.4775C190.902 73.82 196.834 84.1764 201.577 94.3648V94.3665C210.896 88.2937 221.201 82.8419 232.141 79.0637C230.066 65.3587 225.575 51.9207 217.377 40.2115C216.477 40.5556 215.584 40.9131 214.701 41.2874C202.361 46.521 192.077 54.7674 183.537 64.4775ZM200.818 94.8587C193.309 99.8068 186.461 105.139 180.45 110.3V106.227L180.294 106.092C175.485 101.928 170.117 97.6345 164.293 93.5105C169.285 83.6594 175.43 73.8553 182.943 65.1708C190.237 74.4508 196.115 84.7394 200.818 94.8587ZM179.55 162.96V106.636C174.832 102.559 169.577 98.3613 163.883 94.3229C159.773 102.544 156.454 110.772 153.811 118.377L179.55 162.96ZM152.827 118.47L150.611 114.633C144.487 113.459 137.835 112.451 130.886 111.799C131.436 120.974 132.677 129.759 134.191 137.668L178.773 163.408L152.827 118.47ZM133.165 137.078L129.817 135.146L129.639 135.043L129.444 135.11C123.433 137.193 117.031 139.694 110.547 142.675C104.512 133.427 99.0933 123.203 95.3285 112.355C107.012 110.676 118.863 110.73 129.978 111.719C130.508 120.696 131.701 129.292 133.165 137.078ZM79.841 161.098C89.1818 153.733 99.5398 147.801 109.728 143.058C103.655 133.739 98.2054 123.435 94.4271 112.494C80.7222 114.569 67.2859 119.061 55.575 127.258C55.9191 128.156 56.2766 129.049 56.6509 129.934C61.8845 142.274 70.1309 152.558 79.841 161.098ZM125.662 164.187C120.503 158.176 115.17 151.328 110.222 143.818C100.102 148.521 89.813 154.4 80.5326 161.694C89.2154 169.207 99.0212 175.352 108.872 180.344C112.998 174.52 117.29 169.152 121.454 164.343L121.589 164.187H125.662ZM91.4914 211.653C95.8975 200.603 101.901 190.287 108.354 181.086L108.352 181.088C98.4337 176.052 88.5608 169.853 79.8192 162.268C68.9879 170.918 59.5967 181.526 53.5541 194.48C54.3027 195.086 55.058 195.682 55.8251 196.26C66.5289 204.33 78.8121 209.112 91.4914 211.653ZM117.228 214.956C108.901 214.956 100.401 214.292 92.0554 212.677V212.675C86.9998 225.581 84.1715 239.462 85.4153 253.703C86.367 253.854 87.3187 253.991 88.2721 254.109C101.578 255.75 114.606 253.75 126.856 249.612C125.147 237.838 125.189 225.9 126.176 214.703C123.225 214.862 120.239 214.956 117.228 214.956ZM152.444 211.467C144.656 212.93 136.061 214.125 127.081 214.656H127.084C126.095 225.773 126.042 237.626 127.72 249.312C138.568 245.547 148.792 240.129 158.04 234.091C155.059 227.605 152.557 221.204 150.474 215.193L150.407 214.998L150.509 214.82L152.444 211.467ZM179.549 218.976C173.538 224.134 166.688 229.467 159.178 234.413C163.882 244.535 169.76 254.826 177.056 264.106C184.571 255.421 190.716 245.616 195.708 235.763C189.885 231.639 184.514 227.347 179.705 223.184L179.549 223.05V218.976ZM180.447 166.315V222.637C185.165 226.716 190.422 230.914 196.114 234.952C200.224 226.733 203.543 218.505 206.186 210.898L199.325 199.012L180.447 166.315ZM185.242 172.824L209.386 214.642V214.641C215.51 215.814 222.162 216.823 229.111 217.474C228.561 208.298 227.32 199.512 225.806 191.603L213.921 184.742L181.224 165.864L185.242 172.824ZM226.831 192.196C228.294 199.982 229.487 208.579 230.018 217.556C241.134 218.545 252.984 218.599 264.668 216.92C260.904 206.072 255.485 195.847 249.45 186.598C242.966 189.579 236.564 192.082 230.553 194.165L230.358 194.232L230.18 194.13L226.831 192.196ZM280.156 168.177C270.815 175.542 260.457 181.474 250.269 186.217C256.341 195.538 261.792 205.842 265.57 216.782C279.275 214.706 292.711 210.215 304.422 202.017C304.078 201.117 303.72 200.226 303.346 199.341C298.112 187.001 289.866 176.717 280.156 168.177ZM280.864 167.608C290.616 176.208 298.903 186.563 304.174 198.99C304.523 199.811 304.857 200.639 305.179 201.473C305.33 201.364 305.482 201.257 305.633 201.149C305.955 200.921 306.277 200.693 306.594 200.454C317.229 192.434 326.076 181.685 332.668 169.184C326.467 155.825 317.788 144.204 307.16 135.394C301.072 148.339 291.68 158.947 280.864 167.608ZM307.05 133.455C307.217 133.092 307.383 132.729 307.541 132.359V132.361C312.741 120.1 315.027 106.364 314.484 92.2432C302.435 83.7718 289.109 78.0498 275.498 75.7335C276.698 89.9873 273.87 103.868 268.833 116.778C281.579 119.351 293.933 124.173 304.711 132.3C305.424 132.838 306.127 133.388 306.824 133.949C306.899 133.784 306.974 133.619 307.05 133.455ZM274.438 74.1254C274.4 73.7219 274.362 73.3182 274.313 72.9137H274.315C272.687 59.6938 267.801 46.6553 260.269 34.6977C245.597 33.3868 231.196 35.0938 218.251 39.8926C226.419 51.6354 230.909 65.0734 233.002 78.7699C245.326 74.6257 258.436 72.6266 271.836 74.2766C272.72 74.3857 273.605 74.5099 274.488 74.6475C274.47 74.4735 274.454 74.2995 274.438 74.1254ZM216.508 39.0057C216.28 38.6839 216.051 38.3619 215.813 38.0446H215.814C207.794 27.4097 197.044 18.5623 184.544 11.9709C171.183 18.1712 159.564 26.8507 150.752 37.4789C163.697 43.5668 174.305 52.958 182.966 63.7742C191.567 54.0222 201.921 45.7355 214.349 40.465C215.17 40.1159 215.997 39.7818 216.831 39.4596C216.723 39.3086 216.615 39.1572 216.508 39.0057ZM163.548 92.9935C168.583 83.0752 174.782 73.2023 182.367 64.4607H182.365C173.716 53.6277 163.108 44.2366 150.153 38.194C149.547 38.9426 148.951 39.6979 148.374 40.465C140.304 51.1688 135.522 63.452 132.98 76.1313C144.03 80.5374 154.346 86.5413 163.548 92.9935ZM132.135 75.8023C134.708 63.0575 139.53 50.7021 147.657 39.9245L147.659 39.9228C148.196 39.2111 148.747 38.5079 149.307 37.8113C149.127 37.7304 148.948 37.6483 148.769 37.5662C148.421 37.4066 148.072 37.247 147.718 37.0962C135.455 31.8963 121.721 29.6085 107.6 30.1506C99.1286 42.2006 93.4066 55.5261 91.0903 69.137C105.344 67.9369 119.227 70.7669 132.135 75.8023ZM129.929 110.816C129.33 99.7108 129.763 88.0621 131.96 76.6987L131.962 76.697C119.054 71.6413 105.171 68.8114 90.9325 70.0552C90.7814 71.0069 90.6438 71.9586 90.5263 72.912C88.8881 86.2157 90.8889 99.2442 95.0264 111.496C106.798 109.787 118.733 109.829 129.929 110.816ZM94.1284 111.635C89.9842 99.3113 87.9834 86.2006 89.6334 72.8029V72.8012C89.7425 71.9166 89.8667 71.0321 90.0043 70.1492C89.8303 70.1664 89.6563 70.1826 89.4823 70.1989C89.0788 70.2367 88.675 70.2745 88.2704 70.3237C75.0506 71.9502 62.012 76.8363 50.0545 84.3677C48.7435 99.0377 50.4506 113.439 55.2494 126.385C66.9938 118.218 80.4302 113.728 94.1284 111.635ZM54.3622 128.129C54.0404 128.357 53.7186 128.586 53.4014 128.824L53.403 128.823C42.7681 136.842 33.9208 147.592 27.3293 160.093C33.5297 173.454 42.2092 185.072 52.8374 193.884C58.9236 180.94 68.3148 170.332 79.131 161.671C69.379 153.068 61.0922 142.716 55.8218 130.288C55.4743 129.467 55.1386 128.64 54.8163 127.805C54.6653 127.914 54.5138 128.022 54.3622 128.129ZM230.065 218.459C230.664 229.568 230.231 241.218 228.034 252.583V252.585C240.941 257.64 254.824 260.47 269.063 259.227C269.214 258.275 269.351 257.323 269.469 256.37C271.105 243.066 269.106 230.038 264.969 217.788C258.376 218.745 251.731 219.154 245.191 219.154C240.053 219.154 234.991 218.894 230.065 218.459ZM265.869 217.654C270.011 229.975 272.01 243.083 270.36 256.479H270.362C270.253 257.363 270.129 258.248 269.991 259.131C270.165 259.114 270.339 259.097 270.514 259.081C270.917 259.043 271.32 259.006 271.725 258.956C284.945 257.33 297.983 252.444 309.941 244.912C311.252 230.242 309.545 215.841 304.746 202.896C293.003 211.064 279.567 215.561 265.869 217.654ZM305.507 202.366C306.052 201.976 306.594 201.58 307.133 201.174C317.701 193.206 326.516 182.566 333.134 170.208C338.965 183.117 342.504 197.599 343.277 212.705C336.681 222.219 328.899 230.563 320.331 237.473C320.049 237.624 319.758 237.787 319.463 237.963L319.549 238.108C316.74 240.33 313.848 242.395 310.889 244.301C312.104 229.655 310.337 215.288 305.507 202.366ZM344.481 183.592C341.503 183.221 339.224 181.177 337.713 179.29C340.597 187.592 342.589 196.389 343.59 205.474L344.481 183.592ZM328.176 235.961L335.484 224.153C331.65 228.525 327.548 232.562 323.231 236.236C325.794 235.432 327.464 235.736 328.176 235.961ZM337.987 255.272C336.852 255.526 335.885 256.207 335.264 257.189C334.642 258.171 334.438 259.336 334.694 260.469C334.949 261.603 335.63 262.57 336.612 263.191C337.594 263.812 338.761 264.015 339.892 263.76C341.027 263.507 341.993 262.825 342.614 261.843C343.235 260.861 343.439 259.697 343.183 258.564C342.93 257.429 342.249 256.462 341.267 255.841C340.562 255.395 339.761 255.165 338.947 255.165C338.628 255.165 338.306 255.2 337.987 255.272ZM345.412 182.766L345.414 182.766L345.412 182.764L345.412 182.766ZM344.978 182.736L345.412 182.766L344.251 211.279C344.682 210.638 345.114 209.995 345.535 209.343C346.156 208.382 346.784 207.403 347.42 206.409C349.085 203.814 350.807 201.131 352.607 198.442L352.301 198.072C352.081 197.807 346.948 191.476 346.525 181.346C345.75 180.435 341.127 174.917 340.041 171.22L335.461 173.346C335.764 174.083 336.062 174.825 336.35 175.572L336.387 175.555L336.387 175.556C336.427 175.639 339.627 182.377 344.978 182.736ZM345.711 120.585C345.767 119.443 345.822 118.282 345.876 117.103L345.872 117.107C346.012 114.117 346.156 111.026 346.361 107.893L346.146 107.826C345.716 107.692 335.608 104.458 330.627 95.6421C329.505 95.1957 322.85 92.4664 320.163 89.7036L317.818 93.4517L317.056 92.975L320.054 88.1829L320.45 88.6764C322.791 91.5953 331.023 94.8331 331.105 94.865L331.256 94.9237L331.335 95.0664C334.873 101.44 341.392 104.886 344.573 106.257C331.656 92.1492 337.02 81.5931 338.455 79.3138C338.037 78.9277 337.666 78.4863 337.388 77.971C337.124 77.4825 336.946 76.9722 336.849 76.4536C334.316 76.7725 322.185 77.308 316.452 59.7593C316.571 62.9954 317.184 68.3951 319.636 73.7579L319.698 73.8922L319.668 74.0366C319.649 74.1222 317.853 82.7832 319.016 86.3399L319.188 86.8636L315.077 87.3302C315.201 88.809 315.302 90.2878 315.364 91.7598C316.752 92.7434 318.118 93.7689 319.471 94.823L319.5 94.7928C319.554 94.8432 324.759 99.7444 329.814 97.5909L330.177 97.4365L342.007 117.449L341.674 117.646C343.011 119.445 344.303 121.288 345.55 123.175C345.611 122.312 345.668 121.451 345.711 120.585ZM344.076 79.2986C346.186 78.1556 346.975 75.512 345.834 73.4004V73.4021C344.691 71.2922 342.044 70.505 339.937 71.6447C337.827 72.7878 337.038 75.4314 338.18 77.5413C338.732 78.5635 339.65 79.3087 340.765 79.6411C341.879 79.9751 343.058 79.8509 344.076 79.2986ZM344.54 88.6613C343.534 93.9737 346.314 98.6349 347.059 99.7662H347.061C347.863 92.4815 349.244 85.2405 351.878 78.7464C347.737 81.5495 345.256 84.8763 344.54 88.6613ZM352.237 77.4187L352.355 77.605V77.6067C352.843 76.4838 353.372 75.3861 353.944 74.3152C352.355 74.0399 349.649 74.0349 347.197 76.2841L347.185 76.2723C346.942 77.84 346.002 79.2802 344.503 80.0909C343.724 80.5122 342.871 80.7254 342.012 80.7254C341.508 80.7254 341.001 80.6515 340.505 80.5038C340.016 80.3578 339.575 80.1261 339.158 79.8576C337.685 82.1269 332.335 92.5269 346.428 106.901C346.581 104.677 346.77 102.437 347.01 100.198L346.515 100.565C346.347 100.34 342.433 94.9791 343.653 88.5052C344.464 84.2049 347.353 80.4753 352.237 77.4187ZM277.717 30.8707L297.476 43.5232L297.478 43.5215C299.21 44.2886 300.929 45.0993 302.636 45.952C302.258 45.1765 301.876 44.4011 301.481 43.6306C300.959 42.6135 300.425 41.5795 299.883 40.5305C298.648 38.1403 297.374 35.6746 296.12 33.1551L294.369 33.365C294.024 33.4069 285.853 34.315 277.214 29.0999C276.017 29.2627 268.89 30.1708 265.185 29.0915L265.001 34.3234C265.726 34.419 266.453 34.5181 267.18 34.6289L267.185 34.5919C267.255 34.6037 274.11 35.5906 277.465 31.1997L277.717 30.8707ZM273.481 3.63378C272.865 4.61738 272.668 5.78393 272.928 6.91691L272.93 6.9186C273.19 8.05158 273.875 9.01335 274.86 9.63104C275.844 10.247 277.01 10.4451 278.143 10.1833C279.276 9.92141 280.238 9.23659 280.856 8.25131C281.472 7.26603 281.668 6.09948 281.408 4.96817C281.146 3.83519 280.461 2.87342 279.476 2.25573C278.775 1.81597 277.982 1.59104 277.175 1.59104C276.849 1.59104 276.519 1.62798 276.193 1.70183C275.06 1.96368 274.097 2.6485 273.481 3.63378ZM285.901 4.31357C283.971 8.44099 283.558 12.3401 284.706 15.9187V15.917C286.262 20.7695 290.306 23.8328 292.318 25.1051C289.336 18.3391 286.877 11.3162 285.901 4.31357ZM244.032 0.684801L244.908 2.59982C244.943 2.67871 248.597 10.5509 256.216 16.1167C256.58 17.2329 258.915 24.1718 261.533 27.0068L258.283 29.3701L258.812 30.0969L262.935 27.1008L262.527 26.7299C259.762 24.2088 257.055 15.7878 257.028 15.7038L256.983 15.5628L256.862 15.4756C252.085 12.0195 248.891 7.62356 247.19 4.86579C260.865 17.337 271.174 10.8228 273.183 9.32219C273.529 9.72839 273.919 10.0977 274.384 10.3897C274.86 10.6868 275.372 10.8949 275.903 11.0275C275.404 13.8491 274.422 25.852 291.865 32.5291C288.805 32.4351 283.223 31.7183 277.544 28.2489L277.405 28.165L277.245 28.1885C277.156 28.2019 268.4 29.4423 264.925 28.0559L264.333 27.8192L264.108 34.2042C263.002 34.0666 261.896 33.9457 260.791 33.8416C259.087 31.1628 257.248 28.541 255.287 25.9813L255.324 25.9594C252.117 20.6235 254.487 17.0382 254.589 16.8888L254.859 16.4944L234.279 4.19104L234.019 4.62577C232.554 3.48607 231.058 2.37491 229.533 1.29396C231.307 1.21339 233.125 1.14289 235.001 1.07407L235.054 1.07211C237.969 0.963649 240.982 0.851565 244.032 0.684801ZM157.701 1.07574C163.094 2.33629 168.335 3.95605 173.372 5.90982C170.97 4.06347 170.26 2.33462 170.057 1.58265L157.701 1.07574ZM130.271 5.04875L113.988 13.5789C115.031 16.1285 114.675 18.6009 114 20.5245C118.834 14.9586 124.284 9.76196 130.271 5.04875ZM77.2662 34.6473C83.0973 32.7909 88.9905 31.4011 94.8753 30.4897C91.7533 29.8754 89.8851 28.4956 89.2372 27.9367L77.2662 34.6473ZM71.9826 37.4258L72.0612 37.5662L72.986 37.0476C84.0171 33.0377 95.3537 30.7499 106.47 30.206C98.0913 42.2878 92.4364 55.6201 90.1604 69.2327C89.9993 69.2481 89.8382 69.2631 89.6769 69.278C89.1711 69.3248 88.6645 69.3718 88.158 69.4341C75.0221 71.0522 62.0691 75.8577 50.1585 83.2515C51.5634 69.1555 55.7395 54.8463 62.6247 41.3747C65.7093 39.918 68.8325 38.6022 71.9826 37.4258ZM50.7906 72.7797C50.3588 70.0609 49.3548 66.3282 47.0399 65.0986L57.7 43.9361L57.5842 43.8774C57.8259 43.753 58.0693 43.6274 58.3118 43.5022C58.5375 43.3857 58.7623 43.2697 58.984 43.1556C59.7545 42.7612 60.5299 42.3785 61.3054 42.0008C56.3345 51.9595 52.8183 62.3561 50.7906 72.7797ZM21.186 146.7C18.3024 137.524 16.4963 127.79 15.8887 117.775C15.4607 118.408 15.036 119.045 14.6181 119.69L14.838 119.682L15.8081 144.127C18.3192 144.334 20.043 145.488 21.186 146.7ZM14.942 144.983L13.9769 120.68H13.9752L13.9658 120.695C13.504 121.413 13.0421 122.132 12.5703 122.867L12.5168 122.951C10.6634 125.841 8.73897 128.841 6.71405 131.834L7.13367 132.138C7.36866 132.309 12.854 136.389 13.8376 146.459C14.6852 147.321 19.6754 152.498 21.0215 156.11L23.828 154.201C23.2909 152.832 22.7823 151.445 22.2955 150.046L22.2636 150.056C22.1998 149.858 20.6321 145.203 15.3566 145L14.942 144.983ZM14.145 211.528L14.1145 212.178L14.1162 212.175C13.9903 214.909 13.8577 217.729 13.6798 220.586L15.229 221.118C15.558 221.23 23.311 223.968 28.8215 232.419C29.9713 232.794 36.7893 235.08 39.6528 237.661L41.1265 234.922C40.2873 234.276 39.4548 233.616 38.6306 232.945L38.5349 233.067L38.5325 233.065C38.3998 232.964 33.6605 229.333 29.419 230.454L29.085 230.541L18.0472 211.265C16.8068 209.583 15.605 207.863 14.4418 206.104C14.3814 206.967 14.3243 207.828 14.2807 208.694C14.2341 209.626 14.1898 210.572 14.145 211.528ZM359.68 54.7557C359.915 52.102 360.267 42.7813 355.076 32.8681V32.8648C348.462 24.0997 341.203 15.8499 333.376 8.17579L328.8 21.9999L343.457 19.7524L343.618 19.9168C343.663 19.9638 345.513 21.8992 347.584 25.7647L347.903 25.7362L347.974 26.5117C350.91 32.2739 354.08 41.8548 353.137 55.3969C355.376 55.3348 357.568 55.1317 359.68 54.7557ZM333.932 35.7199L335.989 53.6512H335.991C337.695 54.0054 339.419 54.3176 341.147 54.5794L339.748 42.6118L351.796 41.8464C351.262 38.2007 350.433 35.0367 349.49 32.3394L333.932 35.7199ZM332.719 52.9163L328.508 44.2131L329.799 33.9071L338.009 27.5423L347.084 26.7148C347.788 28.076 348.508 29.6672 349.184 31.4867L332.946 35.0132L335.061 53.4515C334.274 53.2804 333.494 53.1025 332.719 52.9163ZM301.157 31.5807C302.226 35.1928 303.479 39.0114 304.964 43.07V43.0683C305.072 43.1204 305.239 43.2009 305.449 43.3L308.276 40.0655L311.047 30.535L301.157 31.5807ZM329.672 22.7804L337.918 26.6493L346.626 25.8554C345.021 22.9314 343.59 21.2294 343.131 20.7158L329.672 22.7804ZM319.292 37.7928L327.693 43.5047L328.955 33.4254L336.983 27.2015L327.787 22.8861L324.347 13.3288L317.402 20.741L307.249 21.0582L312.153 29.9543L309.316 39.708L319.292 37.7928ZM326.788 5.23338L324.99 12.461L328.127 21.1824L332.35 8.42084C331.704 7.96261 329.828 6.71046 326.788 5.23338ZM310.953 29.6404L306.184 20.9877V20.9861L297.706 17.5267C298.473 21.545 299.511 25.9259 300.897 30.7029L310.953 29.6404ZM318.625 38.8368L308.917 40.7V40.7017L306.298 43.6978C308.252 44.5958 312 46.2474 316.824 48.0333L318.625 38.8368ZM327.694 44.5924L319.503 39.0232L317.677 48.3455C321.746 49.826 326.516 51.3702 331.587 52.6391L327.694 44.5924ZM340.75 43.4493L342.067 54.7121C345.48 55.1887 348.904 55.4539 352.237 55.417C352.571 50.7038 352.407 46.479 351.92 42.7393L340.75 43.4493ZM56.9984 34.8655L59.6571 38.2158V38.2175C59.877 38.1302 60.0516 38.0614 60.1657 38.0161C61.8392 34.033 63.2692 30.2799 64.5063 26.7232L54.677 25.2125L56.9984 34.8655ZM32.5914 28.6568L29.696 46.4488C30.5621 46.3078 31.4215 46.1584 32.2742 46.0007L36.5912 38.0547L35.7872 27.6984L27.8866 20.9542L18.8663 19.702C18.0993 21.028 17.3053 22.5857 16.5433 24.3699L32.5914 28.6568ZM24.4003 36.7152L13.2786 35.4799V35.4782C12.6341 39.0853 12.2715 43.1623 12.3538 47.7194C15.7376 47.8386 19.202 47.6959 22.643 47.367L24.4003 36.7152ZM25.4407 35.9263L25.441 35.9263V35.9247L25.4407 35.9263ZM13.4448 34.5936L25.4407 35.9263L23.5678 47.2713C25.3118 47.0883 27.0473 46.86 28.7611 46.5948L31.5725 29.3131L16.1975 25.2075C15.1283 27.8578 14.1498 30.9798 13.4448 34.5936ZM55.9762 34.4576L53.6011 24.5814H53.6028L58.9203 15.9254L48.7922 15.1315L42.2041 7.40032L38.3201 16.7865L28.9306 20.6638L36.6567 27.2586L37.4422 37.3849L46.1016 32.0742L55.9762 34.4576ZM19.3649 18.8644L28.0192 20.0662V20.0646L36.4385 16.5884L23.0911 13.8927C22.6111 14.3845 21.1038 16.0194 19.3649 18.8644ZM45.8314 33.2945L37.3869 38.4726V38.4709L33.4139 45.7841C38.4326 44.8123 43.1407 43.5987 47.1758 42.4188L45.8314 33.2945ZM46.7176 33.1484L48.047 42.1619C52.9582 40.6949 56.7735 39.3135 58.7776 38.5532L56.3287 35.4664L46.7176 33.1484ZM64.8068 25.8585L54.813 24.3229L59.9844 15.9053L68.6136 12.8487C67.6585 16.8267 66.4165 21.1521 64.8068 25.8585ZM37.3449 15.8549L33.4122 1.78239V1.78071C24.9845 9.3759 17.1492 17.6156 9.97871 26.4193C4.50346 35.8172 4.67635 44.3054 4.90463 46.9759C7.0296 47.3435 9.2234 47.5734 11.4558 47.6825C11.2275 34.3167 14.8077 25.0195 17.9818 19.4553L18.0875 18.6865L18.4031 18.7302C20.6539 14.967 22.5926 13.1206 22.6413 13.0753L22.8091 12.9192L37.3449 15.8549ZM9.12436 113.379L13.1544 114.842L13.1561 114.841C13.1931 114.79 13.2279 114.742 13.2606 114.697C13.3495 114.575 13.4218 114.475 13.4733 114.403C12.8103 110.136 12.0634 106.181 11.2544 102.506L2.08812 106.374L9.12436 113.379ZM1.73899 105.546L1.72892 95.6673L7.48279 88.5304C8.75341 92.4194 9.96026 96.76 11.0563 101.614L1.73899 105.546Z" fill="url(#paint0_linear_419_44462)"/>
<defs>
<linearGradient id="paint0_linear_419_44462" x1="157.613" y1="215.897" x2="178.817" y2="-66.6307" gradientUnits="userSpaceOnUse">
<stop stop-color="#DBDBDB" stop-opacity="0"/>
<stop offset="1" stop-color="#2A2932"/>
</linearGradient>
</defs>
</svg>
