<svg width="1280" height="833" viewBox="0 0 1280 833" fill="none" xmlns="http://www.w3.org/2000/svg">
<g clip-path="url(#clip0_419_42992)">
<path opacity="0.16" fill-rule="evenodd" clip-rule="evenodd" d="M345.266 1C316.883 32.2948 291.87 65.9141 270.387 101.401L263.686 98.4738L269.53 102.787C266.658 107.562 263.84 112.36 261.096 117.199C260.457 116.842 260.036 116.639 259.878 116.565L258.769 118.972C258.808 118.992 259.17 119.165 259.804 119.537C207.942 211.885 179.48 316.005 177.474 424.499L169.941 425.345L177.454 426.192C177.443 426.937 177.43 427.681 177.418 428.426C177.372 431.223 177.326 434.021 177.326 436.825C177.326 548.523 205.376 655.902 258.07 750.969L252.202 755.303L258.858 752.4C261.636 757.383 264.474 762.33 267.386 767.243C267.275 767.306 267.172 767.365 267.081 767.418C266.907 767.519 266.775 767.597 266.707 767.639L268.119 769.883C268.148 769.863 268.371 769.734 268.723 769.541C281.277 790.514 295.1 810.819 310.086 830.406C310.409 831.273 310.742 832.138 311.086 833H315.911C314.612 831.328 313.321 829.65 312.037 827.965C301.498 798.602 303.395 768.927 304.188 760.815C309.813 760.339 316.128 760.116 323.175 760.275C322.001 790.277 326.094 814.754 331.203 833H333.927C331.453 824.3 329.203 814.121 327.667 802.534L357.283 801.088L357.312 799.855L357.326 799.295C357.419 795.348 357.938 773.333 358.105 763.821C363.889 764.811 369.976 766.039 376.369 767.53L375.324 817.664L333.798 832.382L334.017 833H339.998L377.939 819.551L379.014 768.139C379.118 768.164 379.217 768.184 379.316 768.209L388.325 795.259L385.338 825.865L376.634 833H380.821L387.874 827.217L390.785 797.396L416.019 813.563L445.288 807.11L438.518 833H441.257L448.284 806.13L457.555 799.052C459.739 805.005 463.711 816.361 467.92 830.892L451.444 833H471.269C466.564 816.359 462.015 803.468 459.759 797.359L460.472 796.814L458.862 794.704L458.788 794.759C458.491 793.986 458.313 793.526 458.288 793.461L458.085 792.961L457.595 792.743C417.599 774.993 384.729 765.514 358.154 760.928C358.164 760.195 358.164 759.705 358.154 759.517L355.505 759.611V760.468C305.965 752.39 279.113 761.612 270.12 765.792C267.242 760.938 264.424 756.05 261.671 751.118L262.978 750.548C270.268 747.364 276.82 743.6 282.709 739.331C334.145 718.001 394.263 749.795 443.673 775.934C449.646 779.094 455.45 782.16 461.056 785.042C462.646 788.385 464.27 791.718 465.964 795.031C467.509 798.037 469.084 801.093 470.689 804.188C475.48 813.458 480.465 823.1 485.258 833H488.192C486.14 828.745 484.051 824.536 481.956 820.383L486.656 821.868C496.839 825.093 505.278 828.886 512.269 833H517.131C511.036 828.996 503.754 825.251 495.06 821.967C505.325 822.414 523.753 824.485 539.724 833H545.049C520.24 817.598 487.303 819.229 486.953 819.258L481.525 819.561C478.677 813.93 475.82 808.398 473.026 802.995C471.427 799.899 469.852 796.849 468.307 793.843C467.138 791.564 466.014 789.276 464.895 786.983C471.585 790.321 478.34 793.436 485.15 796.329L485.16 796.333L484.828 796.967L545.273 828.51L545.956 827.688C550.859 821.774 559.461 820.135 567.212 820.056C574.279 821.18 581.336 822.086 588.379 822.745C590.572 826.196 592.843 829.613 595.185 833H598.445C596.139 829.702 593.902 826.372 591.737 823.012C600.517 823.74 609.263 824.142 617.945 824.137C652.018 824.137 685.13 818.491 715.523 807.12C715.82 807.536 716.115 807.952 716.41 808.368C717.256 809.562 718.1 810.754 718.985 811.929C724.499 819.243 730.448 826.272 736.793 833H740.446C733.516 825.792 727.05 818.228 721.095 810.329L721.09 810.334C720.361 809.37 719.667 808.389 718.972 807.407C718.675 806.988 718.378 806.568 718.079 806.149C720.54 805.198 722.987 804.218 725.413 803.193C762.081 787.642 792.628 763.192 818.009 734.418C843.564 766.332 874.863 794.041 913.057 811.998C906.988 819.319 900.468 826.326 893.536 833H897.329C903.78 826.662 909.867 820.032 915.558 813.127C915.962 813.312 916.365 813.498 916.769 813.684C918.16 814.325 919.55 814.965 920.971 815.564C940.469 823.833 961.211 829.634 982.708 833H1005.72C976.363 830.771 948.062 824.179 922.011 813.132C920.884 812.654 919.778 812.145 918.672 811.636C918.222 811.429 917.772 811.222 917.321 811.018C918.975 808.962 920.599 806.887 922.184 804.782V804.787C946.159 772.993 960.392 736.548 967.984 698.944C1000.19 711.508 1034.45 719.432 1069.69 719.432C1076.13 719.432 1082.6 719.15 1089.09 718.6C1082.3 758.519 1065.57 797.611 1040.82 833H1044.02C1068.56 797.483 1085.13 758.325 1091.82 718.347C1093.79 718.159 1095.76 717.956 1097.73 717.713C1136.49 712.939 1174.71 698.76 1209.85 676.945C1209.67 678.762 1209.48 680.585 1209.26 682.402L1209.17 682.388C1209.13 682.615 1208.94 684.022 1208.8 686.122C1203.84 724.726 1191.89 763.677 1173.07 800.504C1133.62 819.125 1092.04 830.022 1051.26 833H1079.15C1078.73 832.869 1078.3 832.75 1077.88 832.64C1094.16 830.119 1110.48 826.355 1126.64 821.378L1102.47 833H1108.57L1147.99 814.039V814.029C1155.75 811.087 1163.45 807.838 1171.09 804.322C1168.67 808.982 1166.17 813.736 1163.58 818.639C1161.1 823.336 1158.56 828.128 1156.03 833H1159.01C1161.33 828.552 1163.64 824.172 1165.92 819.873L1166.2 819.342C1169.26 813.561 1172.22 807.944 1175.02 802.514C1178.36 800.925 1181.7 799.285 1185.01 797.586C1188.02 796.041 1191.07 794.466 1194.17 792.862L1194.18 792.853C1220.65 779.175 1250.14 763.928 1280 756.024V753.316C1266.14 756.94 1252.37 762.132 1238.95 768.03C1244.24 760.457 1258.27 743.926 1280 743.418V740.89C1252.59 741.691 1236.53 766.674 1234.52 770.006C1220.13 776.514 1206.18 783.72 1192.97 790.549C1189.88 792.149 1186.83 793.724 1183.82 795.269C1181.55 796.433 1179.27 797.562 1176.98 798.671C1181.47 789.663 1185.58 780.53 1189.26 771.314L1189.96 771.73L1222.15 717.986L1221.22 717.268C1211.12 709.468 1211.04 692.996 1211.5 686.042C1211.53 685.809 1211.56 685.576 1211.6 685.343C1211.64 685.031 1211.68 684.72 1211.72 684.408L1224.11 688.489C1220.99 698.572 1226.11 713.44 1227.32 716.703C1211.91 742.055 1214.46 766.084 1214.58 767.099L1215.27 773.072L1217.16 767.367C1235.95 710.668 1271.47 713.803 1280 715.458V712.808C1270.48 711.294 1236.49 709.79 1217.09 759.705C1217.42 750.667 1219.62 734.205 1229.92 717.53L1230.27 716.966L1230.03 716.346L1230.02 716.333C1229.8 715.749 1223.01 698.094 1227.05 688.142L1227.58 686.83L1212.02 681.704C1212.27 679.535 1212.51 677.361 1212.71 675.197C1216.98 672.488 1221.19 669.65 1225.36 666.718L1225 667.179L1233.79 674.142L1234.62 673.24C1242.1 665.118 1266.98 657.259 1267.24 657.18L1267.65 657.046L1267.91 656.694C1271.67 651.558 1275.82 646.892 1280 642.753V639.064C1275.21 643.638 1270.37 648.905 1266.03 654.783C1262.7 655.852 1241.77 662.781 1233.55 670.566L1227.12 665.485C1232.26 661.82 1237.3 657.972 1242.27 653.975C1256.38 646.497 1263.86 650.023 1263.93 650.058L1265.03 650.623L1280 626.43V621.348L1263.97 647.245C1261.87 646.581 1256.94 645.685 1249.38 648.057C1260.07 638.965 1270.3 629.121 1280 618.57V614.619C1267.76 628.16 1254.64 640.565 1240.82 651.707C1239.99 652.153 1239.14 652.633 1238.26 653.153L1238.52 653.579C1230.23 660.136 1221.7 666.228 1212.97 671.854C1216.55 628.64 1211.34 586.248 1197.09 548.121C1198.7 546.972 1200.29 545.804 1201.88 544.605C1233.06 521.096 1259.07 489.703 1278.6 453.238C1279.07 454.281 1279.54 455.327 1280 456.377V444.812C1279.59 445.63 1279.17 446.446 1278.76 447.26C1260.25 408.027 1234.52 373.909 1203.1 348.013C1203.32 347.522 1203.55 347.031 1203.77 346.541C1204.37 345.237 1204.97 343.931 1205.53 342.6C1220.78 306.65 1227.61 266.456 1226.28 225.113C1230.3 228 1234.27 230.977 1238.18 234.067V234.072C1238.52 234.344 1238.89 234.646 1239.31 234.968C1253.68 246.417 1267.32 259.229 1280 273.26V269.322C1270.95 259.484 1261.43 250.257 1251.52 241.68C1256.66 243.429 1262.66 244.108 1268.78 241.852L1280 260.84V255.651L1269.88 238.524L1268.81 238.98C1253.93 245.318 1238.61 230.942 1238.37 230.725L1238.37 230.724L1238.29 230.813C1234.3 227.703 1230.27 224.677 1226.17 221.775C1225.99 217.432 1225.69 213.069 1225.32 208.705L1237.45 207.329L1236.95 205.783C1233.51 195.289 1238.81 169.735 1238.87 169.482L1238.96 169.056L1238.77 168.66C1231.54 152.837 1229.73 136.905 1229.38 127.356C1242.26 166.764 1266.06 175.264 1280 176.661V174.018C1265.87 172.509 1241.04 163.128 1229.45 118.006L1227.52 110.493L1226.85 118.214C1226.82 118.472 1224.75 143.992 1236.21 169.368C1235.52 172.761 1231.42 193.972 1234.02 205.06L1225.13 206.071C1224.72 201.628 1224.2 197.181 1223.61 192.729H1223.89C1223.41 174.321 1230.99 168.942 1231.06 168.893L1232.06 168.234L1202.36 111.251C1199.88 104.957 1197.19 98.7115 1194.34 92.506C1198.99 94.9179 1203.74 97.4139 1208.63 100.004L1208.69 100.035C1219.24 105.612 1230.27 111.445 1241.6 116.971H1241.59C1243.26 120.591 1254.21 142.714 1275.79 149.593C1277.18 150.036 1278.58 150.405 1280 150.701V147.988C1278.86 147.734 1277.73 147.429 1276.61 147.072C1259.69 141.689 1249.42 125.9 1245.57 118.893C1256.83 124.274 1268.36 129.285 1280 133.391V130.542C1255.64 121.858 1231.7 109.203 1209.85 97.6467L1209.81 97.6258C1203.85 94.4735 1198.07 91.4151 1192.48 88.5441C1190.89 85.2012 1189.27 81.8632 1187.57 78.555C1186.03 75.5489 1184.45 72.4982 1182.85 69.4029L1182.85 69.4015C1171.84 48.1026 1159.81 24.8369 1151.42 1H1148.59C1151.42 9.12153 1154.68 17.1747 1158.17 25.1082C1152.66 21.6237 1141.99 13.5863 1136.81 1H1133.96C1140.64 18.5807 1157.09 27.7546 1160.04 29.2831C1162.97 35.7658 1166.05 42.1644 1169.17 48.4441L1164.47 46.9138V46.9039C1127.28 34.7858 1115.71 15.3604 1112.61 1H1110.18C1113.18 15.2714 1123.82 34.3752 1156.84 47.0128C1147.81 46.7355 1131.34 44.6208 1114.58 34.3841L1114.17 34.1365L1113.7 34.2058C1113.44 34.2454 1087.6 37.9053 1077.35 33.8146L1075.6 33.1163L1074.94 51.9554C1071.67 51.5493 1068.41 51.1927 1065.15 50.8857C1060.12 42.9815 1054.7 35.2458 1048.91 27.6933L1049.02 27.6289C1040.01 12.6449 1045.91 2.33976 1046.76 1H1043.75C1042.32 3.94667 1040.03 10.6619 1042.67 19.7892C1037.44 13.3681 1031.94 7.09877 1026.18 1H1022.53C1037.4 16.5134 1050.57 33.1599 1061.82 50.6133C1018.59 47.0277 976.181 52.2426 938.037 66.5107C937.738 66.0918 937.44 65.6722 937.143 65.2527C936.298 64.0602 935.453 62.868 934.57 61.6919C917.002 38.3915 895.032 17.9783 869.832 1H865.059C891.392 18.2414 914.29 39.2116 932.445 63.2866H932.44C933.144 64.2229 933.819 65.173 934.493 66.1229C934.81 66.5696 935.127 67.0163 935.447 67.4615C932.985 68.4124 930.544 69.3979 928.122 70.428C891.454 85.9787 860.902 110.429 835.526 139.203C809.971 107.289 778.672 79.5802 740.479 61.6176C760.147 37.8957 784.554 17.464 812.34 1H807.217C780.508 17.3445 757.01 37.3744 737.958 60.4885C737.47 60.2669 736.984 60.0435 736.498 59.8201C735.19 59.2195 733.882 58.6186 732.55 58.0519C696.6 42.8033 656.411 35.9738 615.063 37.2961C624.139 24.6628 634.24 12.5192 645.277 1H641.635C638.352 4.47675 635.152 8.00889 632.04 11.5929C633.134 8.47403 633.944 4.86607 633.941 1H631.251C631.22 11.8312 624.237 20.7195 624.145 20.8342L624.245 20.9134C619.886 26.3116 615.697 31.8088 611.73 37.4051C608.035 37.5636 604.331 37.8062 600.621 38.0935L598.472 23.4194L596.942 23.9741C586.597 27.7318 561.004 23.2971 560.599 23.2268L560.596 23.2262L560.165 23.1519L559.774 23.3451C544.193 31.0907 528.325 33.4084 518.792 34.0671C543.014 25.2777 555.165 12.6526 561.121 1H558.475C551.899 13.0174 538.02 26.0183 509.476 34.3395L502.028 36.5136L509.774 36.9396C510.026 36.9594 535.601 38.2024 560.596 25.9303C564.013 26.5047 585.343 29.9219 596.337 26.9653L598.002 38.3263C594.733 38.6086 591.459 38.9305 588.186 39.3118L588.176 39.1781C569.589 40.2577 560.239 31.0263 560.145 30.9323L559.432 30.2092L509.957 57.9429C500.711 61.3106 491.544 65.1041 482.476 69.2741C484.888 64.6238 487.389 59.8744 489.979 54.9764C495.159 45.1804 500.557 34.9635 505.727 24.4841L505.722 24.4742C508.785 23.1542 525.233 15.5616 534.971 1H531.695C524.154 11.3023 513.09 17.8344 507.595 20.641C510.724 14.178 513.747 7.61997 516.558 1H513.636C505.811 19.2841 496.394 37.0951 487.611 53.6986C484.452 59.6713 481.386 65.4706 478.504 71.0768C475.161 72.6665 471.823 74.2909 468.515 75.9896C465.509 77.5348 462.458 79.1097 459.363 80.7094C448.442 86.3551 437.002 92.2683 425.23 97.82L424.591 96.5572L424.255 98.2806C382.139 118.056 335.888 133.027 294.089 114.589C288.275 110.176 281.763 106.328 274.458 103.144L273.19 102.589C276.8 96.6315 280.52 90.7529 284.318 84.9239L284.323 84.909C291.633 88.0439 299.493 90.3072 307.714 91.8474C307.773 92.3426 307.818 92.6299 307.823 92.6546L309.982 92.2882C316.326 93.3678 322.873 94.0116 329.524 94.3286C329.529 94.5093 329.532 94.6864 329.534 94.8634C329.537 95.0405 329.539 95.2175 329.544 95.3983L332.194 95.3042C332.187 95.1111 332.185 94.9248 332.182 94.7361C332.181 94.6441 332.18 94.5515 332.179 94.4573C334.477 94.5365 336.784 94.5811 339.107 94.5811C346.709 94.5811 354.395 94.1651 362.047 93.4569L361.938 94.1107L364.553 94.5415L364.776 93.1945C373.23 92.3278 381.614 91.0996 389.766 89.6336L391.772 90.7232L392.648 89.1136C429.029 82.2842 460.234 71.0322 470.832 66.9762L471.407 67.7042L473.482 66.06L473.418 65.9758C473.71 65.8593 473.959 65.7597 474.158 65.6799C474.475 65.5528 474.668 65.4759 474.71 65.4607L475.21 65.2527L475.423 64.7525C485.46 40.9267 492.721 19.7483 497.877 1H495.024C492.75 9.29591 490.063 18.0631 486.894 27.3311L457.406 22.8003L470.8 1H467.696L453.836 23.563H453.831L460.838 52.7032L431.703 45.6707L406.153 61.3403L403.836 31.4622L381.04 12.004L407.687 1H400.72L378.35 10.2359V10.2409L352.816 6.69495C354.115 4.56859 355.371 2.67135 356.545 1H353.346C352.268 2.59518 351.137 4.36083 349.978 6.29877L349.047 6.17L348.735 8.43819C339.37 24.8556 328.806 52.2872 329.48 91.7236C322.893 91.4017 316.42 90.7232 310.15 89.6386C309.477 81.7592 308.967 56.7147 325.121 28.9859C332.906 19.428 340.957 10.0955 349.262 1H345.266ZM615.377 1C612.133 8.0521 607.865 15.9434 603.687 19.5218L602.266 20.7351L616.687 29.1246L618.019 26.8316L606.743 20.2746C611.052 15.8034 615.216 7.84861 618.307 1H615.377ZM1052.46 1C1054.73 7.53981 1060.73 23.5621 1067.34 30.7193L1057.75 37.6923L1059.31 39.8367L1071.48 30.9966L1070.27 29.9021C1064.01 24.1921 1057.85 8.22467 1055.29 1H1052.46ZM1170.91 1C1175.05 23.1593 1182.05 49.1714 1193.18 79.5257L1193.37 80.0209L1193.84 80.2586C1193.9 80.2933 1194.36 80.5162 1195.1 80.8678L1195.05 80.9223L1197.05 82.6655L1197.6 82.0366C1208.11 86.8999 1239.38 100.603 1275.51 109.384L1275.52 109.409L1275.55 109.394C1277.02 109.754 1278.51 110.107 1280 110.452V107.784C1279.12 107.581 1278.25 107.376 1277.38 107.166L1264.95 81.4868L1268.76 51.0788L1280 42.3655V39.0136L1266.27 49.6575L1262.55 79.3969L1237.76 62.5437L1208.33 68.1945L1216.7 39.4158L1202.23 13.1678L1232.18 12.2318L1242.71 1H1239.07L1231 9.61195L1200.25 10.5727L1176.79 1H1170.91ZM1207.15 1L1225.18 1.81677L1225.54 1H1207.15ZM1256.5 1L1262.82 18.561L1280 26.6211V23.6983L1268.39 18.249L1280 16.4674V13.7709L1265.81 15.9461L1270.76 1H1267.98L1263.83 13.5343L1259.32 1H1256.5ZM1280 53.9184L1278.05 54.3425L1280 71.3671V53.9184ZM1280 241.25C1277.54 238.305 1275.26 235.071 1273.29 231.531L1273.06 231.11L1272.61 230.937C1272.37 230.843 1248.08 221.29 1241.18 212.677L1240.01 211.221L1231.16 225.361L1233.41 226.767L1240.33 215.708C1248.26 223.86 1267.89 231.913 1271.2 233.23C1273.76 237.747 1276.76 241.767 1280 245.329V241.25ZM1280 658.561C1275.79 672.447 1277.34 684.166 1280 692.477V658.561ZM1173.07 833H1175.88C1178.53 825.603 1180.82 819.793 1182.31 816.114L1191.49 823.423L1193.78 833H1196.5L1194.46 824.473L1223.59 831.531L1249.15 815.886L1250.46 833H1253.13L1251.66 813.806L1261.36 786.577C1261.39 786.57 1261.42 786.564 1261.45 786.557C1261.48 786.551 1261.51 786.545 1261.54 786.538V833H1264.19V785.948C1269.7 784.736 1274.97 783.713 1280 782.866V779.986C1254.08 784.382 1221.9 793.334 1182.46 809.864L1181.97 810.067L1181.76 810.552C1181.73 810.617 1181.53 811.072 1181.21 811.85L1181.15 811.805L1179.49 813.875L1180.15 814.395C1178.59 818.191 1176.04 824.64 1173.07 833ZM584.786 833L585.655 822.537L583.015 822.319L582.125 833H584.786ZM378.969 721.933C402.682 728.594 415.781 755.575 417.554 759.448L417.559 759.453C426.944 764.143 436.111 768.981 444.931 773.646C449.824 776.237 454.574 778.737 459.229 781.149C454.326 770.492 449.978 759.685 446.189 748.785L445.922 748.904L424.091 698.75L425.334 698.23C425.364 698.216 430.351 695.64 430.084 681.858C429.138 674.899 428.4 667.946 427.905 661.023L419.718 662.503C423.031 673.394 420.337 694.833 419.872 698.26C432.966 722.993 427.939 756.793 427.716 758.229L426.81 764.093L425.136 758.403C406.862 696.304 373.239 696.547 366.573 697.24C366.985 702.777 364.404 708.363 359.387 711.518C356.887 713.088 354.054 713.9 351.171 713.9C350.017 713.9 348.854 713.771 347.7 713.509C347.125 713.378 346.587 713.175 346.045 712.971C345.951 712.935 345.857 712.9 345.763 712.865C334.234 716.807 331.114 727.004 330.406 730.253C333.105 730.496 335.804 730.823 338.513 731.229C352.489 721.443 366.103 718.308 378.969 721.933ZM342.45 731.843C366.445 736.107 390.652 746.21 413.592 757.482C409.308 749.444 397.135 729.783 378.241 724.478C366.915 721.299 354.881 723.825 342.45 731.843ZM341.45 660.235C339.414 673.33 331.371 685.057 317.569 695.11H317.564C316.257 698.018 314.86 700.87 313.359 703.658C316.915 704.485 327.231 705.882 335.695 697.027L335.73 697.062C336.141 692.401 338.632 687.979 342.886 685.3C346.392 683.096 350.537 682.393 354.574 683.309C356.114 683.66 357.53 684.294 358.858 685.062C363.666 678.733 383.05 647.701 339.276 605.689L336.017 602.559C335.512 610.597 334.873 618.739 334.001 626.871C336.671 631.031 343.951 644.13 341.45 660.235ZM333.501 631.333C331.089 651.722 327.053 671.903 319.699 690.104C330.634 681.164 337.087 671.012 338.825 659.859C340.737 647.611 336.477 636.969 333.501 631.333ZM292.574 459.701C284.234 451.92 273.042 448.597 259.308 449.707C278.786 465.951 295.293 487.845 310.002 509.983C309.863 499.662 307.907 474.013 292.574 459.701ZM256.381 447.31C272.12 445.443 284.927 448.929 294.392 457.769L294.401 457.764C313.453 475.558 312.859 508.641 312.631 513.95C317.856 521.928 322.858 529.892 327.692 537.588C330.634 542.278 333.496 546.814 336.319 551.232C337.656 536.761 339.85 522.522 342.846 508.606L346.803 452.014L348.259 452.277C348.725 452.366 359.695 454.189 364.389 441.679L364.528 441.733C367.301 435.483 370.238 429.342 373.368 423.345C371.14 418.486 369.025 413.549 367.019 408.547L356.218 415.891L355.738 414.089C352.89 403.421 334.516 384.899 334.328 384.711L333.991 384.374L333.947 383.898C332.08 363.737 323.71 351.846 318.807 346.492C325.453 368.635 325.047 386.662 317.574 400.123C310.873 412.197 300.503 416.887 296.219 418.377C296.779 419.784 297.145 421.289 297.274 422.869C297.408 424.533 297.264 426.158 296.897 427.703C303.445 430.263 333.174 445.378 323.482 505.679C329.351 496.22 340.494 475.539 340.202 455.347V454.912L340.454 454.555L340.466 454.539C340.957 453.845 355.76 432.959 356.837 422.102L356.995 420.482L371.353 424.944L370.565 427.475L359.239 423.954C357.149 435.146 344.852 452.911 342.856 455.739C343.039 483.725 322.962 511.379 322.105 512.548L318.594 517.332L319.738 511.508C332.218 448.008 302.291 432.67 296.06 430.209C293.867 435.31 288.998 439.074 283.09 439.554C282.659 439.589 282.233 439.604 281.807 439.604C278.138 439.604 274.626 438.321 271.803 435.919C271.352 435.535 270.962 435.1 270.572 434.665C270.509 434.594 270.446 434.523 270.382 434.453C259.274 432.769 252.068 439.079 249.334 442.09C251.721 443.749 254.074 445.482 256.381 447.31ZM307.501 351.559C307.268 355.036 303.147 401.301 252.286 408.923H252.281C250.557 410.067 248.814 411.181 247.041 412.236C250.622 414.921 258.491 419.264 268.772 415.762L268.782 415.797C269.159 415.208 269.56 414.633 270.021 414.093C272.7 410.939 276.449 409.017 280.569 408.685C286.567 408.16 292.029 411.186 294.991 415.98C298.631 414.732 308.882 410.335 315.271 398.785C322.883 385.028 322.7 366.065 314.716 342.427L314.439 341.604C312.171 344.937 309.858 348.261 307.501 351.559ZM257.585 405.219C275.31 392.189 290.588 374.657 304.262 356.031C302.236 367.684 293.564 397.121 257.585 405.219ZM343.366 254.758C343.678 261.464 343.926 268.085 344.164 274.538V274.533C344.367 280.07 344.575 285.434 344.812 290.669C351.449 281.289 358.476 272.3 365.85 263.732L365.093 263.227L395.431 217.843L396.506 218.462C396.882 218.675 406.074 223.592 420.496 212.345L420.575 212.445C427.196 207.492 433.957 202.817 440.845 198.439C441.578 190.594 442.618 182.725 443.926 174.855H443.837C443.827 174.593 442.762 148.81 432.228 145.017L430.822 144.512L462.171 82.2793C461.866 82.4385 461.565 82.5928 461.263 82.7479C461.039 82.8629 460.814 82.9783 460.586 83.0964C449.656 88.7472 438.206 94.6604 426.429 100.222C427.365 102.163 436.002 121.399 424.161 147.82C425.067 151.272 430.262 171.839 428.42 183.067L441.425 182.056L441.633 184.696L425.003 185.989L425.478 184.186C428.301 173.513 421.546 148.305 421.476 148.053L421.353 147.592L421.551 147.156C430.292 127.961 427.632 112.459 425.508 105.387C420.228 128.704 410.839 144.66 397.561 152.857C386.373 159.765 375.82 159.003 371.625 158.309C371.417 159.835 371.046 161.345 370.372 162.781C369.664 164.297 368.723 165.624 367.638 166.783C372.036 172.231 390.385 200.113 352.013 247.676C361.804 242.377 381.748 229.961 391.519 212.291L391.732 211.91L392.128 211.726C392.366 211.617 416.063 200.687 422.462 191.689L423.403 190.362L433.654 201.366L431.713 203.174L423.631 194.492C416.261 203.174 396.764 212.489 393.629 213.95C379.896 238.336 348.745 252.371 347.417 252.961L343.366 254.758ZM406.698 108.993C404.742 112.093 390.984 132.388 365.89 132.388V132.393C358.412 132.393 349.938 130.59 340.464 125.995L340.672 125.569C327.132 126.158 313.696 124.593 300.607 120.052C310.081 128.733 317.386 139.123 323.071 150.623C326.389 149.895 334.15 149.132 340.915 155.209C341.039 153.302 341.494 151.415 342.331 149.633C343.292 147.587 344.649 145.859 346.263 144.477C332.154 140.431 328.697 127.233 328.549 126.643L331.124 126.004C331.263 126.564 334.719 139.663 349.176 142.471L349.166 142.516C353.306 140.347 358.372 140.05 362.928 142.184C366.673 143.942 369.51 147.047 370.917 150.94C371.471 152.475 371.704 154.055 371.764 155.635C375.339 156.239 385.586 157.16 396.224 150.569C409.447 142.377 418.653 125.876 423.616 101.549C418.039 104.139 412.394 106.64 406.698 108.993ZM345.327 125.271C364.33 123.766 383.486 118.214 402.147 110.83C395.654 119.185 376.548 138.326 345.327 125.271ZM344.733 150.752C341.727 157.165 344.495 164.822 350.904 167.823C357.307 170.829 364.969 168.056 367.975 161.652C369.431 158.547 369.594 155.06 368.426 151.836C367.257 148.612 364.909 146.037 361.804 144.581C355.391 141.57 347.734 144.348 344.733 150.752ZM341.286 159.525L341.252 159.359L341.257 159.364C335.284 152.109 327.731 152.426 324.255 153.07C325.468 155.665 326.617 158.304 327.682 161.003C342.396 169.046 351.429 179.788 354.48 192.947C359.893 216.288 344.956 239.113 342.698 242.392C342.935 246.225 343.138 250.044 343.322 253.832L345.877 250.88C388.394 201.767 369.837 173.682 365.667 168.526C362.978 170.547 359.704 171.686 356.327 171.686C354.128 171.686 351.899 171.215 349.78 170.225C346.036 168.472 343.198 165.362 341.791 161.469C341.559 160.83 341.423 160.178 341.286 159.525ZM342.406 237.87C346.803 230.466 356.158 211.885 351.894 193.531C349.215 181.987 341.534 172.399 329.158 164.941C337.29 187.405 340.672 212.856 342.406 237.87ZM1209.43 700.043C1210.54 706.695 1213.1 713.799 1218.69 718.61L1193.09 761.34C1200.49 741.133 1205.93 720.581 1209.43 700.043ZM463.082 783.12C496.679 800.291 532.045 811.741 567.301 817.381V817.372C576.097 817.292 583.704 819.145 584.308 819.298L584.224 819.635C585.031 819.724 585.833 819.818 586.641 819.897C564.82 784.755 550.641 746.532 545.867 707.774C545.682 706.267 545.542 704.763 545.403 703.257C545.36 702.794 545.317 702.33 545.273 701.866C505.108 695.15 465.771 678.47 430.123 653.748C430.193 655.119 430.267 656.491 430.351 657.863L430.911 657.764L431.381 660.374L430.515 660.532C430.901 665.995 431.421 671.467 432.089 676.95L432.466 676.915C432.624 678.643 432.704 680.228 432.733 681.719C437.408 715.866 447.561 750.231 463.082 783.12ZM544.649 825.187C548.066 821.512 552.731 819.476 557.654 818.402C539.147 814.91 520.659 809.819 502.449 803.168L544.649 825.187ZM427.494 699.914L439.528 727.574L439.533 727.579C436.274 715.886 433.659 704.134 431.678 692.387C430.52 696.765 428.682 698.929 427.494 699.914ZM417.19 698.282C417.301 697.474 420.787 672.082 416.722 661.949H416.727L416.123 660.438L427.731 658.339C427.593 656.174 427.469 654.005 427.375 651.846C424.616 649.89 421.882 647.874 419.169 645.824L413.305 656.724L412.042 655.347C404.584 647.2 379.727 639.262 379.475 639.182L379.024 639.039L378.766 638.638C368.129 622.131 354.212 613.068 346.204 608.888C384.051 649.082 365.91 679.748 361.007 686.533C362.24 687.568 363.364 688.742 364.246 690.143C365.137 691.56 365.761 693.06 366.148 694.6C373.126 693.848 406.485 693.511 425.75 751.474C426.582 740.376 426.914 716.886 417.331 699.112L417.123 698.731L417.188 698.3L417.19 698.282ZM344.302 687.523C338.315 691.292 336.507 699.236 340.271 705.228H340.266C342.094 708.13 344.941 710.146 348.284 710.909C351.627 711.671 355.069 711.087 357.966 709.26C360.868 707.432 362.889 704.584 363.652 701.242C364.414 697.899 363.83 694.462 362.002 691.56C360.175 688.657 357.327 686.637 353.984 685.874C353.029 685.656 352.063 685.552 351.107 685.552C348.72 685.552 346.372 686.221 344.302 687.523ZM418.307 641.822L418.871 640.777L421.209 642.035L420.436 643.466C422.695 645.18 424.973 646.859 427.266 648.508C425.938 607.165 432.773 566.971 448.017 531.021C448.616 529.599 449.257 528.207 449.898 526.815C450.084 526.413 450.269 526.011 450.453 525.608C419.025 499.707 393.302 465.589 374.79 426.356C361.715 451.801 351.795 479.639 345.466 508.943L344.144 527.856L341.94 527.703C340.509 536.652 339.404 545.715 338.647 554.867C341.049 558.581 343.53 562.226 346.055 565.827L346.838 565.381L351.156 572.919C370.724 599.444 393.46 622.651 418.307 641.822ZM400.418 630.561C395.348 628.438 389.048 626.877 382.813 628.203L360.512 589.257C372.845 604.284 386.213 618.108 400.418 630.561ZM349.235 455.011L346.59 492.892C350.32 478.753 354.891 465.005 360.259 451.752C356.069 454.808 351.503 455.085 349.235 455.011ZM368.257 404.486L368.52 404.307L370.01 406.496L369.248 407.011C371.051 411.528 372.952 415.985 374.938 420.383C394.466 383.918 420.476 352.525 451.657 329.015C452.841 328.123 454.045 327.27 455.25 326.416C455.657 326.128 456.064 325.839 456.47 325.549C442.207 287.405 436.987 245.002 440.573 201.767C404.242 225.192 371.407 256.927 345.011 294.997C346.982 333.468 355.034 370.561 368.257 404.486ZM396.323 221.27L374.289 254.233C385.289 242.338 396.977 231.363 409.209 221.354C402.845 223.181 398.324 222.037 396.323 221.27ZM1175.89 84.1909L1172.16 81.8038V81.7989C1137.89 66.6394 1102.18 57.2347 1066.91 53.7185C1088.73 88.8611 1102.91 127.084 1107.68 165.842C1107.87 167.337 1108.01 168.832 1108.14 170.324C1108.19 170.8 1108.23 171.275 1108.28 171.75C1148.44 178.466 1187.78 195.151 1223.43 219.873C1223.25 216.258 1223.01 212.638 1222.7 209.008L1222.53 209.027L1222.22 206.393L1222.49 206.363C1218.92 167.506 1208.19 128.04 1190.47 90.5053C1185.77 88.1033 1181.02 85.8203 1176.25 83.6362L1175.89 84.1909ZM1115.71 45.6509C1110.51 51.8217 1103.31 54.4217 1097.05 55.4568H1097.05C1117.91 59.4633 1138.75 65.4706 1159.18 73.4886L1115.71 45.6509ZM1228.65 167.447L1209.11 129.957H1209.11C1214.79 147.117 1219.07 164.48 1221.97 181.828C1223.51 173.206 1226.97 169.021 1228.65 167.447ZM876.522 645.824C903.464 664.742 933.669 682.363 965.998 695.313V695.318C972.387 662.033 973.625 627.901 971.842 595.353C950.883 593.407 930.816 590.386 912.393 586.845L911.799 586.731L911.497 586.206L905.791 576.321C898.046 598.374 888.413 622.101 876.522 645.824ZM451.954 528.717C451.446 529.823 450.937 530.929 450.458 532.056C435.115 568.234 428.37 608.76 429.97 650.424C465.518 675.419 504.836 692.302 544.995 699.137C541.454 657.086 549.799 616.129 564.657 578.044C527.053 570.452 490.608 556.214 458.803 532.229C456.703 530.644 454.628 529.02 452.573 527.366C452.368 527.817 452.161 528.267 451.954 528.717ZM777.033 227.802C750.086 208.879 719.886 191.263 687.557 178.312V178.317C681.173 211.588 679.935 245.705 681.713 278.238C702.681 280.189 722.729 283.24 741.162 286.786L741.756 286.9L742.058 287.425L747.764 297.305C755.514 275.252 765.147 251.524 777.033 227.802ZM985.58 289.084C1018.36 287.316 1052.73 288.593 1086.25 295.076C1101.17 256.997 1109.52 216.035 1105.85 174.018C1103.04 173.573 1100.23 173.167 1097.42 172.82C1058.17 167.981 1019.73 173.885 983.575 186.098C988.611 220.834 988.492 256.051 985.58 289.084ZM852.255 449.989L964.314 514.688L975.641 521.225C993.019 515.183 1011.5 507.947 1030.22 499.36C1015.28 476.727 999.15 456.11 983.614 438.133H831.723L852.255 449.989ZM984.818 435.483H984.823H997.897C1009.93 421.562 1022.32 406.051 1034.23 389.257C1009.98 377.128 985.704 367.337 963.26 359.537L831.718 435.483H984.818ZM830.395 433.19L962.987 356.635H962.992L974.313 350.098C977.77 332.026 980.747 312.4 982.668 291.897C955.598 293.516 929.677 297.181 906.341 301.648L886.095 336.716L830.395 433.19ZM839.958 411.33L904.652 299.271L904.657 299.276L911.194 287.95C905.152 270.571 897.917 252.089 889.329 233.369C866.697 248.31 846.075 264.44 828.102 279.976V431.868L839.958 411.33ZM669.936 435.483H821.828L677.909 352.391C660.531 358.433 642.049 365.668 623.328 374.256C638.27 396.889 654.4 417.506 669.936 435.483ZM821.832 438.133H668.727H655.648C643.618 452.054 631.227 467.565 619.312 484.359C643.569 496.487 667.846 506.278 690.29 514.078L725.359 493.833L821.832 438.133ZM677.389 521.527L687.274 515.822H687.269C665.216 508.076 641.484 498.444 617.762 486.553C598.843 513.499 581.223 543.699 568.272 576.029C601.547 582.412 635.665 583.651 668.203 581.873C670.154 560.904 673.204 540.857 676.75 522.423L676.864 521.829L677.389 521.527ZM802.627 452.282L679.242 523.518C675.785 541.589 672.808 561.216 670.887 581.719C697.957 580.095 723.878 576.435 747.214 571.968L823.16 440.426L802.627 452.282ZM825.453 441.762V593.645C807.475 609.18 786.863 625.316 764.23 640.257C755.643 621.537 748.403 603.054 742.365 585.671L825.453 441.762ZM987.105 438.128H999.12L999.516 437.667C1011.8 423.478 1024.47 407.64 1036.64 390.455C1065.71 405.184 1094.63 423.315 1120.26 445.482C1092.88 467.005 1062.52 484.354 1032.66 498.226C1018.06 476.07 1002.33 455.866 987.105 438.128ZM1038.17 388.27C1057.21 361.121 1074.92 330.684 1087.92 298.082C1125.33 305.58 1161.58 319.69 1193.15 343.501C1195.42 345.21 1197.64 346.963 1199.85 348.751C1182.02 386.974 1154.32 418.273 1122.35 443.793C1096.56 421.415 1067.43 403.126 1038.17 388.27ZM966.286 357.789C988.339 365.535 1012.07 375.167 1035.79 387.058C1054.71 360.117 1072.33 329.912 1085.28 297.582C1052 291.198 1017.89 289.96 985.348 291.738C983.401 312.707 980.351 332.754 976.805 351.188L976.691 351.782L976.166 352.084L966.286 357.789ZM908.084 298.622C931.059 294.304 956.425 290.782 982.911 289.217L982.906 289.213C985.818 256.417 985.981 221.453 981.029 186.979C949.026 198.087 918.856 214.074 891.568 231.883C900.363 251.014 907.748 269.903 913.894 287.638L914.092 288.212L913.79 288.737L908.084 298.622ZM837.21 141.278C858.941 168.843 876.443 199.4 890.439 229.461V229.466C917.935 211.548 948.338 195.463 980.618 184.315C974.497 143.878 961.244 104.229 937.056 69.6802C934.402 70.6955 931.767 71.7503 929.162 72.8547C892.752 88.2965 862.408 112.628 837.21 141.278ZM888.198 230.918C866.042 245.518 845.837 261.251 828.102 276.48V264.46L827.642 264.064C813.453 251.777 797.615 239.109 780.43 226.94C795.159 197.874 813.289 168.947 835.457 143.323C856.979 170.704 874.322 201.061 888.198 230.918ZM825.448 431.853V265.669C811.526 253.639 796.02 241.253 779.222 229.337C767.093 253.594 757.302 277.871 749.502 300.311L825.448 431.853ZM746.6 300.583L740.063 289.262C721.991 285.8 702.365 282.824 681.861 280.902C683.486 307.972 687.146 333.893 691.613 357.229L823.155 433.175L746.6 300.583ZM688.585 355.487L678.707 349.786L678.182 349.484L677.607 349.682C659.872 355.828 640.984 363.207 621.852 372.003C604.043 344.715 588.057 314.549 576.949 282.541C611.423 277.589 646.387 277.748 679.182 280.665C680.747 307.152 684.267 332.515 688.585 355.487ZM531.252 426.361C558.813 404.629 589.374 387.127 619.436 373.132C601.518 345.636 585.437 315.233 574.289 282.953C533.852 289.074 494.208 302.327 459.655 326.514C460.67 329.164 461.725 331.799 462.829 334.409C478.271 370.819 502.602 401.163 531.252 426.361ZM666.449 435.473C651.225 417.738 635.492 397.533 620.892 375.375C591.033 389.252 560.675 406.595 533.293 428.119C558.912 450.286 587.844 468.417 616.91 483.146C629.083 465.961 641.746 450.123 654.033 435.934L654.43 435.473H666.449ZM565.627 575.524C578.628 542.922 596.342 512.484 615.38 485.335L615.375 485.339C586.111 470.482 556.98 452.193 531.188 429.813C499.23 455.333 471.521 486.632 453.692 524.855C455.901 526.643 458.129 528.401 460.393 530.105C491.974 553.916 528.216 568.026 565.627 575.524ZM641.563 585.27C616.994 585.27 591.915 583.309 567.291 578.545V578.54C552.375 616.619 544.03 657.576 547.699 699.592C550.507 700.038 553.315 700.444 556.129 700.791C595.387 705.634 633.828 699.731 669.97 687.523C664.929 652.782 665.053 617.56 667.965 584.522C659.258 584.993 650.448 585.27 641.563 585.27ZM745.471 574.974C722.491 579.292 697.13 582.819 670.634 584.384H670.644C667.727 617.184 667.569 652.158 672.521 686.637C704.529 675.528 734.694 659.542 761.982 641.728C753.187 622.592 745.802 603.703 739.656 585.968L739.458 585.394L739.76 584.869L745.471 574.974ZM816.33 732.323C794.604 704.763 777.102 674.206 763.106 644.145V644.14C735.61 662.053 705.197 678.128 672.922 689.276C679.043 729.718 692.296 769.367 716.484 803.921C719.133 802.905 721.768 801.851 724.378 800.746C760.789 785.304 791.132 760.973 816.33 732.323ZM825.443 597.131C807.708 612.35 787.497 628.084 765.34 642.679C779.217 672.542 796.56 702.906 818.088 730.288C840.26 704.664 858.391 675.732 873.12 646.661C855.94 634.492 840.092 621.829 825.903 609.547L825.443 609.151V597.131ZM828.092 441.753V607.932C842.014 619.967 857.525 632.353 874.319 644.269C886.447 620.016 896.238 595.74 904.038 573.295L883.793 538.227L828.092 441.753ZM842.242 460.958L913.478 584.344V584.339C931.549 587.801 951.176 590.777 971.679 592.699C970.054 565.624 966.394 539.702 961.927 516.367L926.859 496.121L830.385 440.421L842.242 460.958ZM964.949 518.115L974.833 523.82L975.358 524.122L975.933 523.924C993.668 517.778 1012.56 510.394 1031.69 501.598C1049.5 528.886 1065.48 559.057 1076.59 591.064C1042.12 596.017 1007.15 595.858 974.353 592.941C972.788 566.453 969.267 541.088 964.949 518.115ZM1122.29 447.245C1094.73 468.977 1064.17 486.478 1034.1 500.474C1052.02 527.975 1068.1 558.378 1079.25 590.658C1119.69 584.532 1159.33 571.279 1193.89 547.092C1192.87 544.437 1191.82 541.807 1190.71 539.197C1175.27 502.787 1150.94 472.443 1122.29 447.245ZM1124.38 445.566C1153.15 470.943 1177.6 501.494 1193.15 538.162C1194.18 540.584 1195.17 543.026 1196.12 545.487C1197.51 544.487 1198.92 543.516 1200.29 542.481C1231.67 518.818 1257.78 487.103 1277.23 450.217C1258.93 410.8 1233.32 376.514 1201.96 350.519C1184 388.712 1156.29 420.012 1124.38 445.566ZM1201.64 344.799C1202.13 343.727 1202.62 342.657 1203.09 341.565V341.57C1218.43 305.392 1225.17 264.866 1223.58 223.201C1188.02 198.206 1148.7 181.323 1108.54 174.489C1112.09 216.545 1103.74 257.502 1088.88 295.591C1126.49 303.183 1162.94 317.412 1194.74 341.392C1196.84 342.976 1198.92 344.601 1200.97 346.255C1201.19 345.768 1201.42 345.283 1201.64 344.799ZM1105.42 169.746C1105.31 168.555 1105.19 167.363 1105.05 166.169H1105.05C1100.25 127.163 1085.83 88.6927 1063.61 53.4114C1020.32 49.5436 977.83 54.5802 939.636 68.7392C963.735 103.387 976.983 143.036 983.159 183.448C1019.52 171.22 1058.2 165.322 1097.74 170.19C1100.35 170.512 1102.96 170.879 1105.56 171.285C1105.51 170.772 1105.46 170.259 1105.42 169.746ZM778.231 225.415C793.088 196.151 811.378 167.021 833.758 141.228H833.753C808.233 109.265 776.934 81.5562 738.711 63.7274C736.923 65.9361 735.165 68.1648 733.461 70.428C709.65 102.01 695.54 138.252 688.042 175.663C720.644 188.663 751.082 206.378 778.231 225.415ZM685.546 174.692C693.138 137.088 707.367 100.633 731.346 68.8333L731.351 68.8284C732.936 66.7285 734.56 64.6535 736.215 62.5982C735.683 62.3593 735.154 62.117 734.625 61.8747C733.598 61.4038 732.571 60.9332 731.525 60.4885C695.342 45.1458 654.821 38.3956 613.156 39.9952C588.161 75.5489 571.278 114.866 564.444 155.026C606.5 151.485 647.462 159.835 685.546 174.692ZM679.038 278C677.27 245.235 678.548 210.865 685.031 177.337L685.036 177.332C646.952 162.415 605.99 154.065 563.978 157.735C563.532 160.543 563.126 163.351 562.78 166.164C557.946 205.417 563.849 243.858 576.057 280.006C610.789 274.964 646.006 275.088 679.038 278ZM573.408 280.417C561.18 244.056 555.277 205.372 560.145 165.842V165.837C560.467 163.227 560.833 160.617 561.24 158.012C560.726 158.063 560.213 158.111 559.699 158.159C558.509 158.27 557.317 158.382 556.124 158.527C517.118 163.326 478.647 177.743 443.366 199.964C439.498 243.249 444.535 285.741 458.694 323.939C493.346 299.84 532.991 286.593 573.408 280.417ZM456.076 329.084C455.127 329.757 454.177 330.431 453.241 331.135L453.246 331.13C421.868 354.793 395.763 386.508 376.315 423.394C394.609 462.816 420.218 497.097 451.577 523.097C469.535 484.904 497.244 453.604 529.157 428.049C500.384 402.668 475.933 372.121 460.383 335.454C459.358 333.032 458.367 330.59 457.416 328.129C456.971 328.449 456.524 328.766 456.076 329.084ZM548.119 703.877C548.23 705.067 548.342 706.258 548.487 707.452L548.482 707.457C553.286 746.462 567.702 784.933 589.924 820.214C633.213 824.077 675.705 819.041 713.899 804.881C689.8 770.234 676.552 730.585 670.377 690.173C642.663 699.493 613.597 705.139 583.842 705.139C574.547 705.139 565.206 704.589 555.797 703.431C553.187 703.109 550.577 702.742 547.972 702.336C548.023 702.85 548.071 703.363 548.119 703.877ZM875.289 648.216C860.437 677.475 842.147 706.6 819.772 732.393C845.292 764.351 876.592 792.06 914.815 809.888C916.603 807.68 918.361 805.451 920.064 803.188C943.876 771.616 957.985 735.374 965.483 697.968C932.881 684.968 902.439 667.253 875.289 648.216ZM974.492 595.606C976.26 628.381 974.982 662.756 968.499 696.289V696.294C1006.58 711.211 1047.55 719.561 1089.56 715.891C1090 713.083 1090.41 710.275 1090.76 707.462C1095.58 668.209 1089.69 629.768 1077.48 593.625C1058.02 596.448 1038.42 597.656 1019.12 597.656C1003.96 597.656 989.027 596.888 974.492 595.606ZM1080.13 593.229C1092.36 629.585 1098.25 668.258 1093.39 707.784H1093.39C1093.07 710.394 1092.7 713.004 1092.3 715.609C1092.81 715.558 1093.32 715.51 1093.84 715.461C1095.03 715.35 1096.22 715.239 1097.41 715.094C1136.42 710.295 1174.89 695.878 1210.17 673.656C1214.04 630.372 1209 587.88 1194.84 549.687C1160.19 573.785 1120.55 587.053 1080.13 593.229ZM1115.09 42.1198L1173.39 79.4514L1173.4 79.4464C1178.51 81.7097 1183.58 84.1018 1188.62 86.6176C1187.5 84.3296 1186.37 82.0415 1185.21 79.7684C1183.67 76.7672 1182.09 73.7165 1180.49 70.6212C1176.85 63.5689 1173.09 56.2938 1169.39 48.8601L1164.23 49.4792C1163.2 49.603 1139.1 52.2823 1113.61 36.895C1110.07 37.3754 1089.05 40.0547 1078.12 36.8702L1077.57 52.307C1079.71 52.5893 1081.86 52.8815 1084 53.2084L1084.02 53.0994C1084.22 53.1341 1104.45 56.0461 1114.35 43.0905L1115.09 42.1198ZM523.655 53.2628C540.86 47.7854 558.248 43.6848 575.611 40.9956C566.4 39.183 560.888 35.1121 558.976 33.4629L523.655 53.2628ZM508.066 61.4607L508.298 61.8752L511.027 60.3448C543.574 48.5134 577.023 41.7633 609.823 40.1587C585.1 75.8064 568.416 115.144 561.7 155.308C561.225 155.354 560.75 155.398 560.275 155.442C558.782 155.58 557.287 155.718 555.792 155.902C517.034 160.677 478.816 174.855 443.673 196.671C447.818 155.08 460.14 112.861 480.455 73.1123C489.556 68.8142 498.771 64.932 508.066 61.4607ZM445.538 165.773C444.264 157.752 441.302 146.738 434.472 143.11L465.925 80.6697L465.583 80.4964C466.296 80.1295 467.014 79.7587 467.73 79.3894C468.396 79.0458 469.059 78.7034 469.713 78.3668C471.986 77.203 474.274 76.0738 476.562 74.9595C461.896 104.343 451.521 135.018 445.538 165.773ZM358.189 383.879C349.681 356.804 344.352 328.084 342.559 298.533C341.296 300.4 340.043 302.282 338.81 304.184L339.459 304.159L342.321 376.286C349.73 376.896 354.816 380.303 358.189 383.879ZM339.766 378.812L336.918 307.106H336.913L336.897 307.131C335.53 309.257 334.164 311.383 332.768 313.559L332.609 313.807C327.141 322.333 321.463 331.186 315.489 340.015L316.727 340.911C317.42 341.416 333.605 353.456 336.507 383.165C339.008 385.711 353.732 400.984 357.704 411.642L365.984 406.011C364.399 401.97 362.899 397.879 361.463 393.749L361.368 393.779C361.18 393.194 356.555 379.461 340.989 378.862L339.766 378.812ZM272.031 415.792C269.808 418.407 268.738 421.725 269.015 425.142H269.02C269.297 428.56 270.887 431.665 273.502 433.883C276.117 436.112 279.46 437.182 282.852 436.9C289.91 436.325 295.179 430.12 294.609 423.062C294.065 416.362 288.434 411.266 281.822 411.266C281.476 411.266 281.124 411.276 280.772 411.305C277.355 411.588 274.25 413.177 272.031 415.792ZM261.086 419.71C253.073 419.71 247.2 415.817 244.55 413.648C234.685 419.224 224.111 423.374 212.691 425.563C225.097 428.317 236.502 433.572 247.081 440.574C249.775 437.479 256.931 430.833 268.253 431.536C267.222 429.649 266.554 427.569 266.376 425.36C266.192 423.151 266.494 420.982 267.212 418.952C265.058 419.477 263.008 419.71 261.086 419.71ZM337.414 575.164C337.384 575.799 337.354 576.436 337.324 577.074L337.329 577.064C336.958 585.131 336.567 593.451 336.042 601.881L340.613 603.451C341.583 603.782 364.459 611.86 380.718 636.795C384.11 637.9 404.227 644.645 412.676 652.262L417.024 644.179C414.548 642.273 412.091 640.326 409.66 638.345L409.378 638.707L409.37 638.701C408.979 638.401 394.995 627.688 382.481 630.996L381.495 631.254L348.928 574.38C345.268 569.417 341.722 564.341 338.29 559.151C338.112 561.696 337.943 564.237 337.815 566.792C337.677 569.546 337.546 572.339 337.414 575.164ZM318.852 706.902C315.712 706.902 313.255 706.372 312.037 706.045L312.032 706.05C306.099 716.53 298.67 726.029 289.33 734.106C299.116 731.021 309.16 729.664 319.327 729.664C322.115 729.664 324.913 729.778 327.717 729.976C328.355 726.722 331.243 716.257 342.519 711.246C340.732 710.052 339.181 708.512 338.003 706.64C336.799 704.718 336.081 702.633 335.789 700.523C329.985 705.625 323.646 706.902 318.852 706.902ZM1184.25 44.2147C1187.41 54.8724 1191.1 66.1392 1195.48 78.1142V78.1093C1195.8 78.2628 1196.3 78.5006 1196.92 78.7928L1205.26 69.2494L1213.43 41.1293L1184.25 44.2147ZM1213.16 38.4897L1199.09 12.9598V12.9549L1174.07 2.74783C1176.33 14.604 1179.39 27.5299 1183.49 41.6246L1213.16 38.4897ZM1235.79 65.6242L1207.15 71.1214V71.1263L1199.42 79.9665C1205.19 82.616 1216.25 87.4892 1230.48 92.7586L1235.79 65.6242ZM1262.55 82.6061L1238.38 66.1739L1232.99 93.6798C1245 98.0479 1259.07 102.604 1274.04 106.348L1262.55 82.6061ZM463.854 53.9067L471.699 63.7917V63.7967C472.348 63.5392 472.863 63.3361 473.2 63.2024C478.137 51.4502 482.357 40.3766 486.007 29.8823L457.005 25.4251L463.854 53.9067ZM391.841 35.5875L383.298 88.0835C385.853 87.6675 388.389 87.2268 390.905 86.7612L403.643 63.3163L401.27 32.7597L377.959 12.8608L351.345 9.16621C349.081 13.0787 346.739 17.6745 344.49 22.939L391.841 35.5875ZM367.673 59.3643L334.858 55.7193V55.7143C332.956 66.3571 331.887 78.3866 332.129 91.8325C342.113 92.1841 352.335 91.7632 362.488 90.7925L367.673 59.3643ZM370.743 57.0365L370.743 57.0366V57.0317L370.743 57.0365ZM335.348 53.1043L370.743 57.0365L365.217 90.5102C370.362 89.9704 375.483 89.2969 380.539 88.5144L388.835 37.524L343.47 25.4102C340.316 33.2302 337.428 42.4417 335.348 53.1043ZM430.906 49.2711L405.99 64.5495V64.5445L394.268 86.1224C409.075 83.2549 422.967 79.6743 434.873 76.1927L430.906 49.2711ZM433.521 48.8403L437.443 75.435C451.934 71.1065 463.191 67.0307 469.104 64.7872L461.878 55.6796L433.521 48.8403ZM307.451 89.1523C299.851 87.6765 292.582 85.5522 285.789 82.6804C295.565 67.7933 305.921 53.3124 316.861 39.3118C306.828 62.003 306.896 81.4704 307.451 89.1523ZM322.601 285.563L334.492 289.881L334.496 289.876C334.622 289.703 334.739 289.542 334.848 289.393C335.091 289.059 335.289 288.786 335.432 288.584C333.476 275.994 331.272 264.326 328.885 253.481L301.84 264.896L322.601 285.563ZM213.696 354.733C217.95 365.53 223.834 377.183 231.921 389.425C240.336 384.409 248.576 378.589 256.51 372.325L243.55 340.634L213.696 354.733ZM258.672 370.594L244.946 337.038L212.745 352.247C208.927 342.075 206.555 332.72 205.143 324.405L250.131 310.939L270.545 360.543C266.688 363.969 262.722 367.336 258.672 370.594ZM225.095 222.016L240.048 238.118L244.387 265.119L215.276 238.182C216.291 236.078 219.351 230.166 225.095 222.016ZM290.905 295.408L319.401 286.122H319.396L298.155 264.975L298.131 235.003L271.457 248.672L242.945 239.435L247.7 269.026L230.104 293.288L259.719 297.909L277.36 322.141L290.905 295.408ZM203.291 303.565L226.9 293.199V293.194L242.673 271.443L204.97 285.31C204.519 287.291 203.261 293.729 203.291 303.565ZM251.674 307.716L251.677 307.715L251.672 307.71L251.674 307.716ZM204.722 321.765L251.674 307.716L272.64 358.666C274.394 357.091 276.112 355.501 277.816 353.906L276.261 325.138L258.224 300.36L227.94 295.636L203.336 306.442C203.465 310.959 203.876 316.104 204.722 321.765ZM278.91 324.959L280.346 351.514C291.579 340.797 301.667 329.922 310.061 320.264L292.118 298.885L278.91 324.959ZM294.119 297.151L311.814 318.239L311.819 318.234C321.719 306.729 329.069 297.176 332.857 292.1L321.853 288.108L294.119 297.151ZM300.81 262.452L300.78 233.304L317.757 212.246C321.506 223.721 325.067 236.528 328.301 250.851L300.81 262.452ZM316.717 209.102L272.551 236.172L236.279 208.062L237.904 205.967L272.725 232.958L315.841 206.526C313.686 200.286 311.477 194.477 309.239 189.059C300.914 194.21 279.083 207.507 277.974 208.18L276.924 208.824L259.705 184.691C244.436 197.622 233.764 210.087 226.672 219.819L242.029 236.355L271.234 245.814L298.601 231.789L316.772 209.255C316.752 209.206 316.732 209.151 316.717 209.102ZM261.755 182.987L277.652 205.273C286.963 199.598 302.078 190.376 308.204 186.583C303.826 176.247 299.354 167.412 294.976 159.874C282.109 167.382 271.11 175.247 261.755 182.987ZM212.082 238.836L212.453 237.974V237.969C212.646 237.524 232.238 193.412 293.634 157.586C289.974 151.465 286.388 146.255 283.001 141.828C277.657 143.977 251.389 155.63 231.52 183.814C212.092 229.362 197.769 277.584 189.216 327.747C189.642 367.521 211.889 398.384 212.112 398.691L209.972 400.256C209.764 399.974 191.257 374.281 187.3 339.45C183.937 361.632 181.728 384.186 180.688 407.041C196.917 406.279 213.558 400.038 229.638 390.763C207.006 356.462 201.385 326.569 200.736 307.195L199.815 305.095L200.676 304.719C200.513 291.805 202.522 284.172 202.578 283.959L202.578 283.958L202.761 283.304L243.822 268.199L212.082 238.836ZM235.918 173.785C243.959 155.796 252.808 138.244 262.399 121.161C266.346 123.9 273.19 129.496 281.302 139.668C275.147 142.243 254.201 152.117 235.918 173.785ZM273.522 361.39C245.788 386.231 212.463 408.294 180.589 409.706H180.609C180.411 414.509 180.257 419.328 180.163 424.157L181.664 423.989C189.573 423.097 197.15 423.171 204.386 424.088C262.86 417.729 300.042 359.734 330.573 312.113L330.579 312.103C332.456 309.171 334.308 306.284 336.141 303.446C338.161 300.321 340.236 297.245 342.336 294.2C342.024 287.905 341.777 281.348 341.529 274.598C339.459 218.734 336.938 150.767 292.747 116.892C286.106 113.93 279.569 110.142 273.165 105.417L272.031 104.58C269.208 109.275 266.45 114.01 263.746 118.779C272.056 124.306 292.183 141.332 310.655 185.062C310.703 185.03 310.763 184.99 310.811 184.959C310.837 184.942 310.859 184.928 310.873 184.919L312.379 187.098C312.33 187.131 312.253 187.181 312.153 187.246C312.03 187.324 311.873 187.424 311.685 187.544C321.838 212.217 331.411 245.081 338.146 288.722L338.226 289.252L337.919 289.688C337.874 289.752 337.587 290.154 337.097 290.827L337.176 290.857L336.269 293.348L335.457 293.056C327.999 303.094 304.262 333.814 273.7 361.231L273.73 361.305L273.522 361.39ZM311.77 564.663L324.359 563.232V563.227C324.473 562.548 324.557 562.013 324.611 561.662C317.277 551.281 310.101 541.817 303.108 533.15L283.981 555.392L311.77 564.663ZM225.26 671.616C241.173 703.178 258.427 712.89 262.24 714.727H262.245C266.628 710.21 270.739 705.194 274.592 699.8C239.548 679.253 221.397 655.208 212.26 638.266L212.112 638.142C215.875 649.602 219.926 660.934 224.304 672.101L225.26 671.616ZM248.576 726.425C252.662 723.602 256.555 720.343 260.259 716.723L260.264 716.718C255.569 714.321 242.614 706.149 229.197 684.161C235.16 698.518 241.628 712.612 248.576 726.425ZM216.727 558.908L196.165 551.138C194.649 560.993 194.55 567.649 194.575 569.987L232.63 581.155L216.727 558.908ZM280.723 557.1L267.361 530.273L249.557 554.382L219.912 558.799L237.339 583.185L232.377 612.746L260.958 603.708L287.537 617.56L287.77 587.588L309.155 566.589L280.723 557.1ZM212.939 633.878L229.465 614.083L233.912 587.583L206.317 616.782C206.793 618.754 208.536 625.083 212.939 633.878ZM204.817 614.509L233.491 584.166L194.397 572.696C197.423 586.805 200.879 600.756 204.817 614.509ZM245.026 675.063C253.484 682.7 263.731 690.381 276.117 697.626L276.122 697.631C281.659 689.593 286.641 680.808 291.108 671.685L265.489 649.152L245.026 675.063ZM265.137 645.313L292.302 669.209V669.204C294.525 664.534 296.62 659.79 298.586 655.025L258.164 619.63L223.869 651.707C228.831 658.527 235.121 665.851 243.064 673.26L265.137 645.313ZM258.11 616.064L299.646 652.435C300.513 650.281 301.355 648.122 302.172 645.967L287.879 620.73L260.7 606.566L231.476 615.812L214.256 636.434C216.381 640.425 219.035 644.843 222.314 649.538L258.11 616.064ZM290.172 619.387L303.385 642.723H303.39C308.744 628.168 312.953 613.87 316.163 601.405L290.4 590.163L290.172 619.387ZM291.415 587.717L316.821 598.805C320.531 584.076 322.799 572.205 323.893 565.955L312.23 567.283L291.415 587.717ZM268.976 527.574L281.971 553.668L281.976 553.663L301.419 531.056C292.188 519.749 283.298 509.874 274.795 501.237L268.976 527.574ZM272.437 498.865L244.966 542.709L244.961 542.714L199.968 533.675L200.493 531.075L243.688 539.747L270.501 496.953C265.811 492.342 261.245 488.108 256.822 484.23C251.642 492.575 238.057 514.118 237.364 515.218L236.705 516.263L210.542 502.311C202.623 520.69 198.611 536.602 196.591 548.468L217.713 556.447L248.071 551.925L266.346 527.183L272.571 498.998L272.437 498.865ZM211.626 499.875L235.784 512.761C241.589 503.56 250.988 488.628 254.802 482.477C246.363 475.212 238.454 469.234 231.154 464.311C222.943 476.792 216.569 488.757 211.626 499.875ZM184.66 514.49C186.596 530.575 189.122 546.477 192.222 562.182C193.47 545.546 199.686 507.323 228.945 462.845C223.081 458.997 217.629 455.833 212.636 453.243C209.65 456.526 190.172 479.099 184.848 514.519L184.66 514.49ZM180.039 441.684C180.203 463.455 181.436 484.973 183.709 506.184V506.179C190.256 476.128 206.169 456.561 210.19 452C195.149 444.521 184.64 442.322 180.039 441.684ZM249.512 728.311L249.834 728.782C302.122 692.971 322.814 587.756 326.637 565.648L327.464 565.554L327.162 562.92L327.093 562.93C327.226 562.097 327.301 561.612 327.31 561.538L327.385 561.013L327.078 560.582C301.88 524.855 278.633 499.612 258.348 481.769C258.565 481.412 258.714 481.16 258.783 481.041L256.466 479.763C256.456 479.78 256.441 479.806 256.423 479.836C256.392 479.888 256.353 479.953 256.322 480.006C216.47 445.586 188.414 439.901 180.01 438.965C180.01 438.603 180.002 438.242 179.995 437.88C179.987 437.519 179.98 437.157 179.98 436.796C179.98 434.166 180.026 431.545 180.072 428.924C180.086 428.104 180.101 427.285 180.114 426.465L181.644 426.638C189.548 427.525 197.101 427.539 204.336 426.787C259.546 434.027 295.719 491.629 325.443 538.974C329.034 544.695 332.525 550.251 335.938 555.545C335.641 559.235 335.383 562.934 335.195 566.654C335.056 569.439 334.923 572.264 334.79 575.124L334.704 576.94C333.962 592.897 333.169 609.834 331.352 626.712L330.931 627.024C330.931 627.024 331.074 627.227 331.263 627.505C326.587 670.12 315.256 712.231 281.406 737.008C274.681 739.836 268.089 743.555 261.676 748.285L260.551 749.112C256.755 742.251 253.066 735.32 249.512 728.311ZM301.513 761.052C286.032 762.642 276.251 766.084 271.521 768.159H271.526C282.535 786.543 294.421 804.337 307.149 821.482C299.324 794.783 300.75 769.308 301.513 761.052ZM417.935 810.423L446.541 804.119H446.536L456.584 796.452C456.445 796.08 456.32 795.753 456.215 795.478C456.137 795.275 456.07 795.1 456.015 794.957C444.381 789.806 433.382 785.404 422.927 781.585L417.935 810.423ZM390.781 794.244L415.325 809.973L420.402 780.654C406.708 775.741 394.065 771.933 382.367 768.981L390.781 794.244ZM327.345 799.899L354.693 798.562C354.945 787.944 355.336 770.908 355.465 763.37C344.481 761.597 334.61 760.666 325.82 760.349C325.25 774.88 325.919 788.088 327.345 799.899ZM1224.36 827.95L1249.22 812.741V812.736L1258.29 787.29C1246.55 790.083 1233.78 793.729 1219.88 798.453L1224.36 827.95ZM1221.74 828.351L1217.34 799.345C1206.84 802.98 1195.75 807.179 1183.98 812.097C1183.84 812.414 1183.62 812.939 1183.36 813.558L1193.27 821.453L1221.74 828.351Z" fill="url(#paint0_linear_419_42992)"/>
</g>
<defs>
<linearGradient id="paint0_linear_419_42992" x1="759.503" y1="586" x2="842.104" y2="-244.896" gradientUnits="userSpaceOnUse">
<stop stop-color="#DBDBDB" stop-opacity="0"/>
<stop offset="1" stop-color="#2A2932"/>
</linearGradient>
<clipPath id="clip0_419_42992">
<rect width="1280" height="832" fill="white" transform="translate(0 0.739502)"/>
</clipPath>
</defs>
</svg>
