<svg width="140" height="140" viewBox="0 0 140 140" fill="none" xmlns="http://www.w3.org/2000/svg">
<path d="M82.2506 5.06819C78.9985 1.82271 74.592 0 69.9978 0C65.4037 0 60.9971 1.82271 57.745 5.06819L5.06591 57.755C1.82199 61.0046 0 65.4088 0 70.0008C0 74.5927 1.82199 78.997 5.06591 82.2465L57.745 134.933C60.9941 138.178 65.3977 140 69.989 140C74.5802 140 78.9838 138.178 82.2329 134.933L134.912 82.2465C136.525 80.641 137.804 78.7327 138.677 76.6312C139.551 74.5298 140 72.2765 140 70.0008C140 67.7251 139.551 65.4718 138.677 63.3703C137.804 61.2688 136.525 59.3605 134.912 57.755L82.2506 5.06819ZM45.0404 21.6026L59.641 6.99985C62.3774 4.27382 66.0824 2.74326 69.9446 2.74326C73.8069 2.74326 77.5119 4.27382 80.2484 6.99985L94.849 21.6026V35.9572C94.8443 38.4123 93.8658 40.7652 92.1284 42.4996C90.391 44.2339 88.0366 45.208 85.5818 45.208H54.3429C51.8898 45.208 49.5372 44.2334 47.8026 42.4985C46.068 40.7637 45.0935 38.4107 45.0935 35.9572L45.0404 21.6026ZM94.849 118.381L94.6541 118.576L80.2484 132.984C78.8957 134.338 77.2895 135.412 75.5215 136.145C73.7535 136.878 71.8585 137.255 69.9446 137.255C68.0308 137.255 66.1358 136.878 64.3678 136.145C62.5999 135.412 60.9936 134.338 59.641 132.984L45.0404 118.381V102.609C45.0404 101.394 45.2796 100.191 45.7444 99.0687C46.2093 97.9464 46.8906 96.9266 47.7494 96.0675C48.6083 95.2085 49.628 94.5271 50.7502 94.0622C51.8724 93.5973 53.0751 93.3581 54.2898 93.3581H85.5818C88.0366 93.3581 90.391 94.3321 92.1284 96.0665C93.8658 97.8008 94.8443 100.154 94.849 102.609V118.381ZM132.927 80.2971L97.5954 115.634V102.609C97.5907 99.4252 96.323 96.3736 94.0705 94.1241C91.818 91.8747 88.765 90.6112 85.5818 90.6112H54.3429C51.169 90.6252 48.1296 91.8949 45.8886 94.1429C43.6476 96.3908 42.3871 99.4344 42.3825 102.609V115.634L6.94414 80.2971C4.22068 77.5663 2.69123 73.8667 2.69123 70.0096C2.69123 66.1526 4.22068 62.453 6.94414 59.7221L42.3825 24.2786V35.8864C42.3872 39.0669 43.6525 42.1158 45.9012 44.3648C48.1498 46.6138 51.1983 47.8793 54.3784 47.884H85.6704C88.8536 47.884 91.9066 46.6205 94.1591 44.371C96.4116 42.1216 97.6793 39.07 97.684 35.8864V24.2786L132.981 59.7221C134.335 61.075 135.409 62.6815 136.141 64.4497C136.874 66.2179 137.251 68.1133 137.251 70.0274C137.251 71.9414 136.874 73.8368 136.141 75.605C135.409 77.3732 134.335 78.9797 132.981 80.3326L132.927 80.2971Z" fill="url(#paint0_linear_801_39264)"/>
<path d="M70 66C69.2081 66 68.4341 66.235 67.7759 66.6753C67.1177 67.1156 66.605 67.7414 66.3028 68.4733C66.0006 69.2052 65.9224 70.0103 66.0781 70.7867C66.2339 71.5631 66.6166 72.2758 67.1777 72.8345C67.7388 73.3932 68.4532 73.7728 69.2302 73.9252C70.0073 74.0776 70.8121 73.9959 71.5427 73.6905C72.2733 73.3851 72.8968 72.8698 73.3343 72.2097C73.7717 71.5497 74.0034 70.7746 74 69.9828C73.9954 68.9249 73.572 67.9119 72.8223 67.1655C72.0727 66.419 71.0579 66 70 66Z" fill="url(#paint1_linear_801_39264)"/>
<defs>
<linearGradient id="paint0_linear_801_39264" x1="183.773" y1="-34.5779" x2="59.8927" y2="195.853" gradientUnits="userSpaceOnUse">
<stop stop-color="#745142" stop-opacity="0.9"/>
<stop offset="0.370743" stop-color="#F6D1A5"/>
<stop offset="0.669663" stop-color="#DDB085"/>
<stop offset="1" stop-color="#9E5F35"/>
</linearGradient>
<linearGradient id="paint1_linear_801_39264" x1="76.5013" y1="64.0241" x2="69.4224" y2="77.1916" gradientUnits="userSpaceOnUse">
<stop stop-color="#745142" stop-opacity="0.9"/>
<stop offset="0.370743" stop-color="#F6D1A5"/>
<stop offset="0.669663" stop-color="#DDB085"/>
<stop offset="1" stop-color="#9E5F35"/>
</linearGradient>
</defs>
</svg>
