<svg width="310" height="310" viewBox="0 0 310 310" fill="none" xmlns="http://www.w3.org/2000/svg">
<path d="M298.626 96.573C298.01 95.0577 297.376 93.5776 296.742 92.1681C281.074 56.9399 252.864 28.8028 217.602 13.2317C216.14 12.5798 214.66 11.9631 213.198 11.3641C175.86 -3.78802 134.089 -3.78802 96.7514 11.3641C95.2366 11.9807 93.757 12.5974 92.3302 13.2317C57.0901 28.8577 28.9149 57.0294 13.2783 92.2738C12.6441 93.701 12.01 95.181 11.3935 96.6963C-3.79785 134.111 -3.79785 175.977 11.3935 213.392C12.0277 214.925 12.6441 216.405 13.2783 217.814C29.1226 253.561 57.8702 282.01 93.7746 297.473C95.536 298.195 96.8571 298.777 98.2134 299.235C134.791 313.625 175.467 313.587 212.018 299.129C213.374 298.583 214.836 297.984 216.457 297.367C252.467 281.804 281.238 253.161 296.971 217.215C297.622 215.718 298.256 214.237 298.838 212.81C313.824 175.476 313.716 133.777 298.538 96.5201L298.626 96.573ZM297.006 209.938L296.724 210.678C296.231 211.929 295.738 213.233 295.192 214.484C279.61 251.048 250.42 280.114 213.797 295.535C212.3 296.169 210.785 296.751 209.235 297.297C174.445 310.581 135.989 310.618 101.173 297.403C99.7282 296.856 98.1781 296.257 96.6105 295.641C60.0956 280.346 30.9273 251.491 15.2334 215.136C14.5993 213.656 14.0004 212.141 13.472 210.678C-0.537961 175.004 -0.537961 135.348 13.472 99.6741C14.0885 98.1235 14.6698 96.6082 15.2334 95.1458C30.7197 59.2911 59.3126 30.7079 95.1661 15.2404C96.6281 14.6237 98.1253 14.0246 99.5872 13.4784C135.214 -0.534572 174.824 -0.534572 210.45 13.4784H210.697C212.124 14.0423 213.568 14.6237 214.977 15.2404C250.803 30.6825 279.382 59.2265 294.875 95.0401C295.509 96.4849 296.09 97.9473 296.724 99.5507C310.718 135.046 310.818 174.513 297.006 210.079V209.938Z" fill="url(#paint0_linear_801_39267)"/>
<path d="M289.465 104.108C288.778 102.348 288.232 100.94 287.704 99.6721C272.906 64.6 244.96 36.714 209.849 21.9853C208.475 21.4219 207.031 20.8586 205.411 20.2249C172.736 7.92505 136.702 7.92505 104.028 20.2249C102.39 20.841 100.946 21.4043 99.5903 21.9853C64.4673 36.7417 36.5336 64.6781 21.7878 99.7954C21.2419 101.08 20.696 102.489 20.0268 104.214C7.65253 136.949 7.65253 173.072 20.0268 205.807C20.6784 207.568 21.2243 208.941 21.7878 210.226C29.1923 227.857 40.0033 243.855 53.6016 257.303C67.2 270.752 83.3185 281.387 101.034 288.599L101.51 288.793C102.813 289.303 104.151 289.849 105.49 290.342C137.397 301.916 172.362 301.885 204.248 290.254C205.481 289.796 206.732 289.286 207.947 288.793L208.686 288.494C226.45 281.233 242.598 270.527 256.2 256.994C269.802 243.461 280.587 227.368 287.933 209.645C288.672 207.884 289.201 206.511 289.694 205.209C301.86 172.588 301.76 136.661 289.412 104.108H289.465ZM106.863 22.0909C137.797 10.9653 171.642 10.9653 202.575 22.0909L203.808 22.531L164.96 61.3656C163.615 62.7107 162.019 63.7777 160.262 64.5058C158.505 65.2338 156.621 65.6085 154.719 65.6085C152.817 65.6085 150.934 65.2338 149.177 64.5058C147.42 63.7777 145.823 62.7107 144.479 61.3656L105.631 22.4958L106.863 22.0909ZM21.7878 202.973C10.5982 171.958 10.5982 138.01 21.7878 106.995L22.2457 105.763L61.2173 144.721C63.9262 147.44 65.4472 151.121 65.4472 154.958C65.4472 158.795 63.9262 162.476 61.2173 165.195L22.2457 204.205L21.7878 202.973ZM201.413 288.318C171.322 298.821 138.557 298.821 108.466 288.318L107.198 287.877L108.149 286.944L144.743 250.363C146.088 249.018 147.684 247.951 149.441 247.223C151.198 246.495 153.081 246.12 154.984 246.12C156.886 246.12 158.769 246.495 160.526 247.223C162.283 247.951 163.88 249.018 165.224 250.363L202.664 287.789L201.413 288.318ZM286.26 206.74L285.608 206.599L286.225 206.846C279.026 224.928 268.188 241.34 254.384 255.064C240.579 268.788 224.103 279.531 205.974 286.628L205.569 286.786L205.164 286.522L167.073 248.55C163.841 245.326 159.461 243.515 154.896 243.515C150.33 243.515 145.95 245.326 142.718 248.55L104.31 286.962L103.905 286.804C85.8026 279.766 69.334 269.098 55.514 255.455C41.694 241.813 30.8154 225.485 23.5488 207.48L23.3727 207.075L23.6545 206.652L63.1369 167.184C66.3619 163.953 68.1732 159.575 68.1732 155.011C68.1732 150.446 66.3619 146.068 63.1369 142.837L23.3375 103.052L23.496 102.647C30.6615 84.886 41.3368 68.752 54.8835 55.2101C68.4302 41.6682 84.57 30.9966 102.337 23.8337L102.743 23.6753L103.165 23.9393L142.542 63.3021C145.771 66.5249 150.148 68.3351 154.711 68.3351C159.274 68.3351 163.65 66.5249 166.879 63.3021L206.573 23.6224L206.978 23.7985C224.753 30.9259 240.907 41.5635 254.475 55.0751C268.043 68.5866 278.745 84.6947 285.943 102.436L286.101 102.841L285.837 103.246L246.725 142.344C243.499 145.575 241.688 149.953 241.688 154.518C241.688 159.082 243.499 163.46 246.725 166.691L286.418 206.37L286.26 206.74ZM288.021 202.304L287.581 203.554L286.63 202.603L248.732 164.719C247.387 163.375 246.319 161.78 245.591 160.023C244.863 158.267 244.488 156.384 244.488 154.482C244.488 152.581 244.863 150.698 245.591 148.942C246.319 147.185 247.387 145.59 248.732 144.246L287.316 105.675L287.757 106.907C298.936 137.709 299.03 171.441 288.021 202.304Z" fill="url(#paint1_linear_801_39267)"/>
<defs>
<linearGradient id="paint0_linear_801_39267" x1="406.925" y1="-76.5653" x2="132.619" y2="433.675" gradientUnits="userSpaceOnUse">
<stop stop-color="#745142" stop-opacity="0.9"/>
<stop offset="0.370743" stop-color="#F6D1A5"/>
<stop offset="0.669663" stop-color="#DDB085"/>
<stop offset="1" stop-color="#9E5F35"/>
</linearGradient>
<linearGradient id="paint1_linear_801_39267" x1="388.793" y1="-60.1316" x2="133.954" y2="413.898" gradientUnits="userSpaceOnUse">
<stop stop-color="#745142" stop-opacity="0.9"/>
<stop offset="0.370743" stop-color="#F6D1A5"/>
<stop offset="0.669663" stop-color="#DDB085"/>
<stop offset="1" stop-color="#9E5F35"/>
</linearGradient>
</defs>
</svg>
