<svg width="140" height="140" viewBox="0 0 140 140" fill="none" xmlns="http://www.w3.org/2000/svg">
<path d="M63.2438 69.8174C63.2438 66.1872 66.1867 63.2443 69.817 63.2443C73.4472 63.2443 76.3901 66.1872 76.3901 69.8174C76.3901 73.4477 73.4472 76.3906 69.817 76.3906C66.1867 76.3906 63.2438 73.4477 63.2438 69.8174Z" fill="#F5CC9F"/>
<path fill-rule="evenodd" clip-rule="evenodd" d="M46.3816 116.175L59.8218 129.615C65.4431 135.236 74.5569 135.236 80.1782 129.615L93.6767 116.117V104.199C93.6767 98.5207 89.0735 93.9175 83.3951 93.9175L56.6632 93.9175C50.9848 93.9175 46.3816 98.5207 46.3816 104.199V116.175ZM40.2127 110.006V104.199C40.2127 95.1137 47.5778 87.7486 56.6631 87.7486L83.3951 87.7486C92.4805 87.7486 99.8456 95.1137 99.8456 104.199V109.948L129.615 80.1782C135.236 74.5569 135.236 65.4431 129.615 59.8218L99.8456 30.0522V35.7952C99.8456 44.8805 92.4805 52.2456 83.3951 52.2456H56.6631C47.5778 52.2456 40.2127 44.8805 40.2127 35.7952V29.994L10.3849 59.8218C4.76361 65.4431 4.76362 74.5569 10.3849 80.1782L40.2127 110.006ZM80.1782 10.3849L93.6766 23.8833V35.7952C93.6766 41.4735 89.0735 46.0767 83.3951 46.0767H56.6631C50.9848 46.0767 46.3816 41.4735 46.3816 35.7952V23.8251L59.8218 10.3849C65.4431 4.7636 74.5569 4.7636 80.1782 10.3849ZM55.4597 133.977C63.4901 142.008 76.5099 142.008 84.5403 133.977L133.977 84.5403C142.008 76.5099 142.008 63.4901 133.977 55.4597L84.5403 6.02277C76.5099 -2.00759 63.4901 -2.00759 55.4597 6.02277L6.02278 55.4597C-2.0076 63.4901 -2.00759 76.5099 6.02279 84.5403L55.4597 133.977Z" fill="url(#paint0_linear_704_39155)"/>
<defs>
<linearGradient id="paint0_linear_704_39155" x1="170.824" y1="-44.6674" x2="-61.1555" y2="128.971" gradientUnits="userSpaceOnUse">
<stop stop-color="#E2A269"/>
<stop offset="0.494792" stop-color="#F6D1A5"/>
<stop offset="1" stop-color="#9E5F35"/>
</linearGradient>
</defs>
</svg>
