<svg width="310" height="310" viewBox="0 0 310 310" fill="none" xmlns="http://www.w3.org/2000/svg">
<path fill-rule="evenodd" clip-rule="evenodd" d="M155 6.2C72.8201 6.19999 6.20003 72.82 6.20003 155C6.20002 237.18 72.82 303.8 155 303.8C237.18 303.8 303.8 237.18 303.8 155C303.8 72.82 237.18 6.20001 155 6.2ZM155 4.92691e-06C69.3959 -2.55684e-06 3.95117e-05 69.3958 3.2028e-05 155C2.45442e-05 240.604 69.3959 310 155 310C240.604 310 310 240.604 310 155C310 69.3959 240.604 1.24107e-05 155 4.92691e-06Z" fill="url(#paint0_linear_704_39153)"/>
<path fill-rule="evenodd" clip-rule="evenodd" d="M26.7671 110.591C21.8619 124.653 19.1957 139.765 19.1957 155.5C19.1957 171.237 21.8627 186.352 26.7696 200.416L61.4069 165.736C67.0501 160.085 67.0501 150.924 61.4069 145.274L26.7671 110.591ZM29.1685 104.226C43.2261 69.6245 71.0865 42.103 105.916 28.4951L141.086 63.7093C149.148 71.7812 162.219 71.7812 170.28 63.7093L205.347 28.5983C240.304 42.3401 268.209 70.1084 282.133 104.973L246.261 140.889C238.199 148.961 238.199 162.048 246.261 170.12L282.13 206.034C268.479 240.211 241.393 267.567 207.399 281.576L170.28 244.411C162.219 236.339 149.148 236.339 141.086 244.411L103.861 281.683C69.9938 267.808 42.9522 240.696 29.1712 206.781L65.786 170.12C73.8478 162.048 73.8478 148.961 65.786 140.889L29.1685 104.226ZM110.206 284.098C124.378 289.089 139.622 291.804 155.5 291.804C171.479 291.804 186.817 289.055 201.064 284.003L165.901 248.795C160.258 243.145 151.108 243.145 145.465 248.795L110.206 284.098ZM145.465 59.3247L112.349 26.1673C125.91 21.6449 140.419 19.1957 155.5 19.1957C170.683 19.1957 185.286 21.6781 198.925 26.2591L165.901 59.3247C160.258 64.975 151.108 64.975 145.465 59.3247ZM291.804 155.5C291.804 170.947 289.235 185.794 284.5 199.637L250.64 165.736C244.997 160.085 244.997 150.924 250.64 145.274L284.502 111.37C289.236 125.211 291.804 140.055 291.804 155.5ZM155.5 13C76.7995 13 13 76.7994 13 155.5C13 234.201 76.7994 298 155.5 298C234.201 298 298 234.201 298 155.5C298 76.7994 234.201 13 155.5 13Z" fill="url(#paint1_linear_704_39153)"/>
<defs>
<linearGradient id="paint0_linear_704_39153" x1="378.255" y1="-98.9045" x2="-135.413" y2="285.58" gradientUnits="userSpaceOnUse">
<stop stop-color="#E2A269"/>
<stop offset="0.494792" stop-color="#F6D1A5"/>
<stop offset="1" stop-color="#9E5F35"/>
</linearGradient>
<linearGradient id="paint1_linear_704_39153" x1="360.75" y1="-77.9284" x2="-111.493" y2="275.55" gradientUnits="userSpaceOnUse">
<stop stop-color="#E2A269"/>
<stop offset="0.494792" stop-color="#F6D1A5"/>
<stop offset="1" stop-color="#9E5F35"/>
</linearGradient>
</defs>
</svg>
