<svg width="554" height="419" viewBox="0 0 554 419" fill="none" xmlns="http://www.w3.org/2000/svg">
<path d="M335.564 317.699C186.436 411.594 39.2312 445.92 6.77248 394.368C-25.6862 342.816 68.893 224.907 218.021 131.012C367.149 37.117 514.354 2.79129 546.813 54.3435C579.271 105.896 484.692 223.804 335.564 317.699ZM218.544 131.844C70.7448 224.902 -22.9919 341.76 9.17764 392.853C41.3472 443.946 187.241 409.926 335.041 316.868C482.84 223.809 576.577 106.951 544.407 55.8578C512.238 4.76484 366.344 38.7848 218.544 131.844Z" fill="url(#paint0_linear_404_45730)"/>
<path d="M499.368 205.427C499.368 318.767 407.488 410.647 294.148 410.647C180.808 410.647 88.9277 318.767 88.9277 205.427C88.9277 92.0871 180.808 0.206787 294.148 0.206787C407.488 0.206787 499.368 92.0871 499.368 205.427ZM90.6117 205.427C90.6117 317.837 181.738 408.963 294.148 408.963C406.558 408.963 497.684 317.837 497.684 205.427C497.684 93.0171 406.558 1.89079 294.148 1.89079C181.738 1.89079 90.6117 93.0171 90.6117 205.427Z" fill="url(#paint1_linear_404_45730)"/>
<defs>
<linearGradient id="paint0_linear_404_45730" x1="155.44" y1="140.767" x2="453.271" y2="371.297" gradientUnits="userSpaceOnUse">
<stop stop-color="#E2A269" stop-opacity="0"/>
<stop offset="0.760282" stop-color="#F6D1A5"/>
<stop offset="1" stop-color="#9E5F35"/>
</linearGradient>
<linearGradient id="paint1_linear_404_45730" x1="459.881" y1="385.839" x2="325.357" y2="-38.201" gradientUnits="userSpaceOnUse">
<stop stop-color="#745142" stop-opacity="0.9"/>
<stop offset="0.760282" stop-color="#F6D1A5"/>
<stop offset="1" stop-color="#9E5F35"/>
</linearGradient>
</defs>
</svg>
