<svg width="83" height="83" viewBox="0 0 83 83" fill="none" xmlns="http://www.w3.org/2000/svg">
<circle cx="41.4684" cy="41.4684" r="40.933" fill="#1C1E27" stroke="url(#paint0_linear_433_53832)" stroke-width="1.07068"/>
<g filter="url(#filter0_i_433_53832)">
<circle cx="41.4351" cy="41.5831" r="26.5435" fill="#070B14"/>
<circle cx="41.4351" cy="41.5831" r="26.5435" fill="#A28467"/>
</g>
<path d="M26.7139 52.4999V39.3881L35.6537 33.4282L44.5935 39.3881V52.4999H38.6337V44.156H32.6738V52.4999H26.7139ZM55.3214 29.8523V52.4999H46.9775V38.1127L45.7855 37.326V34.6202H43.4016V35.7287L38.6337 32.5581V29.8523H55.3214ZM51.7454 44.156H49.3615V46.54H51.7454V44.156ZM51.7454 39.3881H49.3615V41.7721H51.7454V39.3881ZM51.7454 34.6202H49.3615V37.0042H51.7454V34.6202Z" fill="#1C1E27"/>
<defs>
<filter id="filter0_i_433_53832" x="14.8916" y="8.61544" width="53.0869" height="59.5113" filterUnits="userSpaceOnUse" color-interpolation-filters="sRGB">
<feFlood flood-opacity="0" result="BackgroundImageFix"/>
<feBlend mode="normal" in="SourceGraphic" in2="BackgroundImageFix" result="shape"/>
<feColorMatrix in="SourceAlpha" type="matrix" values="0 0 0 0 0 0 0 0 0 0 0 0 0 0 0 0 0 0 127 0" result="hardAlpha"/>
<feOffset dy="-6.42411"/>
<feGaussianBlur stdDeviation="9.63616"/>
<feComposite in2="hardAlpha" operator="arithmetic" k2="-1" k3="1"/>
<feColorMatrix type="matrix" values="0 0 0 0 0.35 0 0 0 0 0.211926 0 0 0 0 0.0816667 0 0 0 1 0"/>
<feBlend mode="normal" in2="shape" result="effect1_innerShadow_433_53832"/>
</filter>
<linearGradient id="paint0_linear_433_53832" x1="74.9576" y1="77.9237" x2="47.7747" y2="-7.76096" gradientUnits="userSpaceOnUse">
<stop stop-color="#745142" stop-opacity="0.9"/>
<stop offset="0.760282" stop-color="#F6D1A5"/>
<stop offset="1" stop-color="#9E5F35"/>
</linearGradient>
</defs>
</svg>
