<svg width="84" height="84" viewBox="0 0 84 84" fill="none" xmlns="http://www.w3.org/2000/svg">
<circle cx="42.1539" cy="42.1544" r="40.933" fill="#1C1E27" stroke="url(#paint0_linear_433_53838)" stroke-width="1.07068"/>
<g filter="url(#filter0_i_433_53838)">
<circle cx="41.4293" cy="41.9498" r="26.5435" fill="#070B14"/>
<circle cx="41.4293" cy="41.9498" r="26.5435" fill="#A28467"/>
</g>
<path d="M55.2364 33.1128C54.7868 33.1129 54.344 33.2228 53.9465 33.4329C53.5491 33.6431 53.2089 33.9471 52.9556 34.3185C52.7023 34.69 52.5436 35.1177 52.4931 35.5644C52.4427 36.0112 52.5021 36.4635 52.6662 36.8821L46.8555 42.6928C46.2078 42.4378 45.4874 42.4378 44.8397 42.6928L40.6858 38.539C40.8503 38.1203 40.91 37.6678 40.8598 37.2208C40.8095 36.7737 40.6508 36.3458 40.3975 35.9741C40.1442 35.6024 39.8039 35.2982 39.4062 35.0879C39.0085 34.8777 38.5655 34.7678 38.1156 34.7678C37.6658 34.7678 37.2228 34.8777 36.8251 35.0879C36.4274 35.2982 36.0871 35.6024 35.8338 35.9741C35.5805 36.3458 35.4218 36.7737 35.3715 37.2208C35.3213 37.6678 35.381 38.1203 35.5455 38.539L28.6302 45.4542C28.0396 45.2226 27.3873 45.2013 26.7829 45.394C26.1784 45.5868 25.6588 45.9817 25.3114 46.5125C24.9639 47.0433 24.8098 47.6775 24.875 48.3086C24.9401 48.9396 25.2206 49.529 25.6692 49.9775C26.1177 50.4261 26.7071 50.7066 27.3381 50.7717C27.9692 50.8369 28.6034 50.6828 29.1342 50.3353C29.665 49.9879 30.0599 49.4682 30.2527 48.8638C30.4454 48.2594 30.4241 47.6071 30.1925 47.0165L37.1077 40.1012C37.7555 40.3562 38.4758 40.3562 39.1236 40.1012L43.2774 44.2551C43.1129 44.6738 43.0532 45.1263 43.1035 45.5733C43.1537 46.0203 43.3124 46.4483 43.5657 46.82C43.8191 47.1917 44.1594 47.4959 44.5571 47.7061C44.9548 47.9163 45.3978 48.0262 45.8476 48.0262C46.2974 48.0262 46.7404 47.9163 47.1381 47.7061C47.5358 47.4959 47.8761 47.1917 48.1294 46.82C48.3828 46.4483 48.5415 46.0203 48.5917 45.5733C48.642 45.1263 48.5823 44.6738 48.4178 44.2551L54.2285 38.4444C54.6066 38.5929 55.0128 38.6562 55.4182 38.6297C55.8236 38.6033 56.2182 38.4877 56.5737 38.2912C56.9293 38.0947 57.2372 37.8222 57.4753 37.4931C57.7135 37.1639 57.8761 36.7863 57.9516 36.3872C58.027 35.988 58.0135 35.5771 57.9119 35.1837C57.8103 34.7904 57.6232 34.4243 57.3639 34.1116C57.1046 33.7988 56.7794 33.5472 56.4117 33.3745C56.044 33.2019 55.6426 33.1125 55.2364 33.1128Z" fill="#1C1E27"/>
<defs>
<filter id="filter0_i_433_53838" x="14.8857" y="8.98214" width="53.0869" height="59.5113" filterUnits="userSpaceOnUse" color-interpolation-filters="sRGB">
<feFlood flood-opacity="0" result="BackgroundImageFix"/>
<feBlend mode="normal" in="SourceGraphic" in2="BackgroundImageFix" result="shape"/>
<feColorMatrix in="SourceAlpha" type="matrix" values="0 0 0 0 0 0 0 0 0 0 0 0 0 0 0 0 0 0 127 0" result="hardAlpha"/>
<feOffset dy="-6.42411"/>
<feGaussianBlur stdDeviation="9.63616"/>
<feComposite in2="hardAlpha" operator="arithmetic" k2="-1" k3="1"/>
<feColorMatrix type="matrix" values="0 0 0 0 0.35 0 0 0 0 0.211926 0 0 0 0 0.0816667 0 0 0 1 0"/>
<feBlend mode="normal" in2="shape" result="effect1_innerShadow_433_53838"/>
</filter>
<linearGradient id="paint0_linear_433_53838" x1="75.6432" y1="78.6097" x2="48.4602" y2="-7.07493" gradientUnits="userSpaceOnUse">
<stop stop-color="#745142" stop-opacity="0.9"/>
<stop offset="0.760282" stop-color="#F6D1A5"/>
<stop offset="1" stop-color="#9E5F35"/>
</linearGradient>
</defs>
</svg>
