<svg width="84" height="84" viewBox="0 0 84 84" fill="none" xmlns="http://www.w3.org/2000/svg">
<circle cx="42.1549" cy="42.1542" r="40.933" fill="#1C1E27" stroke="url(#paint0_linear_433_53850)" stroke-width="1.07068"/>
<g filter="url(#filter0_i_433_53850)">
<circle cx="42.1873" cy="42.0405" r="26.5435" transform="rotate(15.7233 42.1873 42.0405)" fill="#070B14"/>
<circle cx="42.1873" cy="42.0405" r="26.5435" transform="rotate(15.7233 42.1873 42.0405)" fill="#A28467"/>
</g>
<path d="M29.0469 52.8888H55.2704V55.5111H29.0469V52.8888ZM31.6692 42.3994H34.2916V51.5776H31.6692V42.3994ZM38.2251 42.3994H40.8475V51.5776H38.2251V42.3994ZM43.4698 42.3994H46.0922V51.5776H43.4698V42.3994ZM50.0257 42.3994H52.648V51.5776H50.0257V42.3994ZM29.0469 35.8435L42.1586 29.2876L55.2704 35.8435V41.0882H29.0469V35.8435ZM42.1586 37.1547C42.5064 37.1547 42.8399 37.0165 43.0858 36.7706C43.3317 36.5247 43.4698 36.1912 43.4698 35.8435C43.4698 35.4957 43.3317 35.1622 43.0858 34.9163C42.8399 34.6704 42.5064 34.5323 42.1586 34.5323C41.8109 34.5323 41.4774 34.6704 41.2315 34.9163C40.9856 35.1622 40.8475 35.4957 40.8475 35.8435C40.8475 36.1912 40.9856 36.5247 41.2315 36.7706C41.4774 37.0165 41.8109 37.1547 42.1586 37.1547Z" fill="#1C1E27"/>
<defs>
<filter id="filter0_i_433_53850" x="15.6367" y="9.06612" width="53.1006" height="59.5247" filterUnits="userSpaceOnUse" color-interpolation-filters="sRGB">
<feFlood flood-opacity="0" result="BackgroundImageFix"/>
<feBlend mode="normal" in="SourceGraphic" in2="BackgroundImageFix" result="shape"/>
<feColorMatrix in="SourceAlpha" type="matrix" values="0 0 0 0 0 0 0 0 0 0 0 0 0 0 0 0 0 0 127 0" result="hardAlpha"/>
<feOffset dy="-6.42411"/>
<feGaussianBlur stdDeviation="9.63616"/>
<feComposite in2="hardAlpha" operator="arithmetic" k2="-1" k3="1"/>
<feColorMatrix type="matrix" values="0 0 0 0 0.35 0 0 0 0 0.211926 0 0 0 0 0.0816667 0 0 0 1 0"/>
<feBlend mode="normal" in2="shape" result="effect1_innerShadow_433_53850"/>
</filter>
<linearGradient id="paint0_linear_433_53850" x1="75.6442" y1="78.6095" x2="48.4612" y2="-7.07517" gradientUnits="userSpaceOnUse">
<stop stop-color="#745142" stop-opacity="0.9"/>
<stop offset="0.760282" stop-color="#F6D1A5"/>
<stop offset="1" stop-color="#9E5F35"/>
</linearGradient>
</defs>
</svg>
