<svg width="223" height="223" viewBox="0 0 223 223" fill="none" xmlns="http://www.w3.org/2000/svg">
<mask id="path-1-inside-1_433_53808" fill="white">
<path d="M222.498 111.004C222.498 172.308 172.802 222.004 111.498 222.004C50.1944 222.004 0.498047 172.308 0.498047 111.004C0.498047 49.7003 50.1944 0.00390625 111.498 0.00390625C172.802 0.00390625 222.498 49.7003 222.498 111.004ZM2.71805 111.004C2.71805 171.081 51.4205 219.784 111.498 219.784C171.576 219.784 220.278 171.081 220.278 111.004C220.278 50.9264 171.576 2.22391 111.498 2.22391C51.4205 2.22391 2.71805 50.9264 2.71805 111.004Z"/>
</mask>
<path d="M222.498 111.004C222.498 172.308 172.802 222.004 111.498 222.004C50.1944 222.004 0.498047 172.308 0.498047 111.004C0.498047 49.7003 50.1944 0.00390625 111.498 0.00390625C172.802 0.00390625 222.498 49.7003 222.498 111.004ZM2.71805 111.004C2.71805 171.081 51.4205 219.784 111.498 219.784C171.576 219.784 220.278 171.081 220.278 111.004C220.278 50.9264 171.576 2.22391 111.498 2.22391C51.4205 2.22391 2.71805 50.9264 2.71805 111.004Z" stroke="url(#paint0_linear_433_53808)" stroke-width="2" mask="url(#path-1-inside-1_433_53808)"/>
<defs>
<linearGradient id="paint0_linear_433_53808" x1="201.14" y1="208.585" x2="128.378" y2="-20.7702" gradientUnits="userSpaceOnUse">
<stop stop-color="#745142" stop-opacity="0.9"/>
<stop offset="0.760282" stop-color="#F6D1A5"/>
<stop offset="1" stop-color="#9E5F35"/>
</linearGradient>
</defs>
</svg>
