<svg width="376" height="376" viewBox="0 0 376 376" fill="none" xmlns="http://www.w3.org/2000/svg">
<mask id="path-1-inside-1_433_53809" fill="white">
<path d="M375.315 188.395C375.315 291.948 291.369 375.895 187.815 375.895C84.262 375.895 0.31543 291.948 0.31543 188.395C0.31543 84.8414 84.262 0.894775 187.815 0.894775C291.369 0.894775 375.315 84.8414 375.315 188.395ZM2.19043 188.395C2.19043 290.913 85.2976 374.02 187.815 374.02C290.333 374.02 373.44 290.913 373.44 188.395C373.44 85.8769 290.333 2.76978 187.815 2.76978C85.2976 2.76978 2.19043 85.8769 2.19043 188.395Z"/>
</mask>
<path d="M375.315 188.395C375.315 291.948 291.369 375.895 187.815 375.895C84.262 375.895 0.31543 291.948 0.31543 188.395C0.31543 84.8414 84.262 0.894775 187.815 0.894775C291.369 0.894775 375.315 84.8414 375.315 188.395ZM2.19043 188.395C2.19043 290.913 85.2976 374.02 187.815 374.02C290.333 374.02 373.44 290.913 373.44 188.395C373.44 85.8769 290.333 2.76978 187.815 2.76978C85.2976 2.76978 2.19043 85.8769 2.19043 188.395Z" fill="url(#paint0_linear_433_53809)" stroke="url(#paint1_linear_433_53809)" stroke-width="2" mask="url(#path-1-inside-1_433_53809)"/>
<defs>
<linearGradient id="paint0_linear_433_53809" x1="339.238" y1="353.228" x2="216.329" y2="-34.1966" gradientUnits="userSpaceOnUse">
<stop stop-color="#745142" stop-opacity="0.9"/>
<stop offset="0.760282" stop-color="#F6D1A5"/>
<stop offset="1" stop-color="#9E5F35"/>
</linearGradient>
<linearGradient id="paint1_linear_433_53809" x1="339.238" y1="353.228" x2="216.329" y2="-34.1966" gradientUnits="userSpaceOnUse">
<stop stop-color="#745142" stop-opacity="0.9"/>
<stop offset="0.760282" stop-color="#F6D1A5"/>
<stop offset="1" stop-color="#9E5F35"/>
</linearGradient>
</defs>
</svg>
