<svg width="530" height="530" viewBox="0 0 530 530" fill="none" xmlns="http://www.w3.org/2000/svg">
<mask id="path-1-inside-1_506_42919" fill="white">
<path d="M530 265C530 411.355 411.355 530 265 530C118.645 530 0 411.355 0 265C0 118.645 118.645 0 265 0C411.355 0 530 118.645 530 265ZM1.32501 265C1.32501 410.624 119.376 528.675 265 528.675C410.624 528.675 528.675 410.624 528.675 265C528.675 119.376 410.624 1.32501 265 1.32501C119.376 1.32501 1.32501 119.376 1.32501 265Z"/>
</mask>
<path d="M530 265C530 411.355 411.355 530 265 530C118.645 530 0 411.355 0 265C0 118.645 118.645 0 265 0C411.355 0 530 118.645 530 265ZM1.32501 265C1.32501 410.624 119.376 528.675 265 528.675C410.624 528.675 528.675 410.624 528.675 265C528.675 119.376 410.624 1.32501 265 1.32501C119.376 1.32501 1.32501 119.376 1.32501 265Z" stroke="url(#paint0_linear_506_42919)" stroke-width="2" mask="url(#path-1-inside-1_506_42919)"/>
<defs>
<linearGradient id="paint0_linear_506_42919" x1="125.849" y1="753.372" x2="473.472" y2="-137.731" gradientUnits="userSpaceOnUse">
<stop stop-color="#E2A269" stop-opacity="0"/>
<stop offset="0.760282" stop-color="#F6D1A5"/>
<stop offset="1" stop-color="#9E5F35"/>
</linearGradient>
</defs>
</svg>
