<svg width="1266" height="500" viewBox="0 0 1266 500" fill="none" xmlns="http://www.w3.org/2000/svg">
<path opacity="0.16" fill-rule="evenodd" clip-rule="evenodd" d="M17.3393 500H20.6905C17.2698 492.58 13.986 485.084 10.8425 477.515C17.0665 487.716 23.1915 494.943 28.4385 500H32.4245C25.2526 493.589 15.8661 482.744 6.9053 464.971L5.94947 465.456C3.89575 460.217 1.91396 454.942 0 449.635V458.245C5.28744 472.363 11.0703 486.289 17.3393 500ZM0 2.09336V10.6037C1.28362 7.05463 2.59753 3.51997 3.94144 0L0.787739 0C0.523947 0.697313 0.261367 1.3951 0 2.09336ZM1216.03 0L1212.89 0C1217.8 12.8554 1222.31 25.905 1226.41 39.1389C1220.56 30.3521 1209.26 15.6714 1190.63 0H1186.5C1199.93 10.9703 1209.69 21.5373 1216.45 30.0116L1201.83 47.2015L1173.07 57.9186L1145.11 45.0967L1126.04 23.4397C1126.05 23.41 1126.05 23.379 1126.06 23.348C1126.07 23.3171 1126.08 23.2861 1126.09 23.2564L1171.34 48.3456L1206.35 18.6853L1204.64 16.6597L1171.02 45.1413L1126.86 20.6465C1128.73 14.3469 1130.68 8.4288 1132.68 2.89691C1139.69 6.82243 1155.89 15.7584 1162.18 19.2253C1163.58 19.9967 1164.49 20.4973 1164.69 20.6118L1164.69 20.6167L1165.77 21.2111L1179.55 0H1176.39L1164.89 17.6998C1155.36 12.4502 1139.91 3.92201 1133.6 0.385956C1133.65 0.257095 1133.7 0.128443 1133.75 0L1130.09 0L1129.43 1.05453C1129.54 1.12387 1129.79 1.2725 1130.16 1.4805C1121.03 26.9064 1112.89 60.2463 1108.1 103.704L1108.04 104.229L1108.36 104.65C1108.38 104.67 1108.43 104.736 1108.51 104.844C1108.66 105.034 1108.9 105.353 1109.23 105.764L1109.16 105.794L1110.17 108.245L1110.94 107.924C1124.77 125.168 1192.43 205.69 1254.99 213.302C1255.14 218.903 1255.21 224.519 1255.21 230.15C1255.21 232.666 1255.17 235.172 1255.13 237.676C1255.11 238.613 1255.09 239.549 1255.08 240.486L1253.55 240.312C1245.65 239.426 1238.09 239.411 1230.86 240.164C1216 238.218 1202.54 232.597 1190.19 224.539L1188.84 223.534C1188.84 223.534 1188.8 223.588 1188.77 223.618C1186.42 222.038 1184.12 220.349 1181.85 218.601L1181.7 216.669C1181.23 216.706 1180.78 216.718 1180.33 216.73C1180.06 216.738 1179.78 216.745 1179.5 216.759C1151.21 193.967 1129.12 158.805 1109.76 127.976C1106.17 122.256 1102.68 116.699 1099.26 111.4C1099.56 107.711 1099.82 104.011 1100.01 100.292C1100.14 97.4997 1100.28 94.6703 1100.41 91.8064L1100.5 90.0154C1100.9 81.413 1101.31 72.5283 1101.89 63.5198L1103.73 64.0943L1101.97 62.3164C1103.35 41.4777 1105.67 20.0357 1110.81 0H1108.04C1104.86 12.5547 1102.78 25.6296 1101.34 38.7526H1101.33C1099.13 35.4146 1090.93 21.6617 1093.9 5.98721C1094.29 3.94591 1094.85 1.94978 1095.58 0H1092.75C1092.13 1.8046 1091.64 3.64713 1091.28 5.52661C1087.68 24.6282 1099.23 40.4463 1099.73 41.11L1101.19 40.0254C1100.48 46.632 1099.92 53.2435 1099.47 59.8055C1075.22 35.0711 1070.48 14.3253 1071.61 0H1069.23C1068.17 14.3071 1072.51 34.4406 1094 57.9037C1084.61 53.8576 1065.38 43.6902 1054.94 24.8857L1054.71 24.4648L1054.26 24.2915C1054.02 24.1974 1029.73 14.6441 1022.82 6.03177L1021.65 4.57578L1012.81 18.715L1015.06 20.1215L1021.97 9.06268C1029.9 17.2144 1049.54 25.2671 1052.85 26.5844C1067.55 52.5947 1097.37 62.1381 1098.64 62.5343L1099.27 62.7324C1098.67 71.9737 1098.24 81.0961 1097.83 89.9164L1097.84 89.9065C1097.68 93.3831 1097.52 96.8102 1097.36 100.178C1097.23 102.733 1097.06 105.274 1096.88 107.82C1093.2 102.253 1089.39 96.8152 1085.44 91.5062L1086.43 90.9268L1051.52 31.8787L1050.45 32.3342C1035.57 38.6718 1020.26 24.3019 1020.02 24.08L1020.02 24.0786L1019.93 24.1677C1015.94 21.0575 1011.91 18.0316 1007.82 15.1294C1007.63 10.7861 1007.33 6.42302 1006.97 2.05991L1019.1 0.683105L1018.87 0H1003.9L1004.17 2.38184L1004.35 2.362C1004.65 5.99215 1004.9 9.6124 1005.07 13.2277C998.288 8.52294 991.37 4.10927 984.339 0L979.033 0C987.952 5.03426 996.694 10.5617 1005.22 16.5557C1006.82 58.2207 1000.07 98.7467 984.732 134.924V134.919C984.268 136.01 983.777 137.08 983.284 138.151C983.061 138.636 982.838 139.121 982.617 139.609C980.562 137.955 978.487 136.331 976.382 134.746C944.582 110.766 908.132 96.5378 870.523 88.9457C881.569 60.639 889.014 30.7485 890.657 0L888.007 0C886.361 30.5597 878.925 60.2827 867.899 88.4307C834.371 81.9479 800.001 80.6702 767.225 82.4382C769.564 55.9075 770.101 27.968 767.613 0H764.957C767.465 28.0033 766.91 55.9971 764.551 82.567L764.556 82.572C738.07 84.1369 712.704 87.6581 689.729 91.9767L695.435 82.0915L695.737 81.5666L695.539 80.9921C689.393 63.2574 682.008 44.3687 673.213 25.2374C687.02 16.2264 701.565 7.682 716.712 0H710.928C697.453 7.04546 684.473 14.747 672.084 22.8206V22.8156C668.549 15.2233 664.791 7.59936 660.797 0L657.806 0C662.082 8.08164 666.089 16.1955 669.844 24.2728C647.687 38.8723 627.482 54.6058 609.747 69.8342V57.8146L609.287 57.4184C595.098 45.1314 579.26 32.463 562.075 20.2949C565.514 13.5089 569.138 6.73055 572.955 0H569.91C566.404 6.2293 563.061 12.4963 559.876 18.7695C550.674 12.317 541.094 6.01653 531.181 0L526.049 0C537.368 6.72785 548.266 13.8446 558.678 21.1566C546.792 44.8788 537.159 68.606 529.409 90.6593L523.703 80.7792L523.401 80.2542L522.807 80.1403C504.374 76.5943 484.326 73.5436 463.358 71.5923C462.082 48.2448 462.359 24.0811 464.977 0L462.298 0C459.708 24.01 459.428 48.0869 460.684 71.3546C427.651 68.4426 392.434 68.3187 357.702 73.3603C349.728 49.7477 344.444 25.1567 343.085 0L340.428 0C341.783 25.3066 347.07 50.034 355.053 73.7714C314.636 79.9471 274.991 93.195 240.339 117.294C226.909 81.0627 221.686 40.9689 224.484 0L221.851 0C219.038 41.5426 224.389 82.1951 238.115 118.903C237.708 119.194 237.301 119.483 236.893 119.771C235.689 120.625 234.486 121.478 233.302 122.37C202.121 145.879 176.111 177.273 156.583 213.738C154.597 209.34 152.696 204.883 150.893 200.366L151.656 199.851L150.165 197.662L149.902 197.84C136.679 163.916 128.627 126.822 126.656 88.3514C151.262 52.863 181.464 22.8789 214.878 0L210.218 0C207.53 1.88794 204.864 3.82136 202.22 5.79901L202.141 5.69995C187.719 16.947 178.528 12.0292 178.151 11.8163L177.076 11.1972L146.738 56.5814L147.495 57.0866C140.121 65.6543 133.094 74.6431 126.457 84.023C126.22 78.7883 126.012 73.4248 125.809 67.8879V67.8929C125.571 61.4398 125.323 54.8184 125.011 48.1127L129.062 46.315C130.39 45.7257 161.541 31.6904 175.274 7.30453C176.882 6.555 182.797 3.73807 189.172 0H183.764C178.268 3.00803 173.875 5.03427 173.773 5.08087L173.377 5.26413L173.164 5.64548C163.393 23.3158 143.449 35.7316 133.658 41.0308C146.497 25.116 152.986 11.4047 155.772 0L153.079 0C149.998 12.0436 142.601 26.8169 127.522 44.235L124.967 47.1866C124.784 43.398 124.58 39.5797 124.343 35.7465C126.152 33.1192 136.104 17.9389 137.2 0H134.512C133.593 13.5254 127.391 25.6004 124.051 31.2249C123.329 20.8098 122.321 10.3192 120.804 0H118.13C121.496 22.6699 122.369 46.2264 123.174 67.9523C123.422 74.7025 123.669 81.2595 123.981 87.5541C121.881 90.5998 119.806 93.6754 117.786 96.8004C115.953 99.6381 114.101 102.525 112.224 105.457L112.218 105.467C84.1916 149.182 50.5609 201.638 0 214.869V217.656C9.27602 215.3 17.981 211.645 26.1951 207.002C28.8446 209.171 34.7183 213.064 42.7313 213.064C44.6529 213.064 46.7032 212.831 48.8575 212.306C48.1394 214.337 47.8373 216.506 48.0205 218.715C48.1988 220.924 48.8674 223.004 49.8975 224.891C38.5762 224.187 31.4199 230.833 28.7258 233.929C19.7773 228.005 10.237 223.332 0 220.366V223.144C47.4514 237.351 79.9561 289.113 107.088 332.329C110.679 338.049 114.17 343.606 117.583 348.9C117.286 352.589 117.028 356.289 116.84 360.008C116.7 362.8 116.568 365.632 116.434 368.5C116.406 369.096 116.378 369.695 116.35 370.294C115.607 386.251 114.814 403.189 112.997 420.067L112.576 420.379C112.576 420.379 112.719 420.582 112.908 420.859C109.81 449.092 103.792 477.104 90.2388 500H93.338C93.4516 499.802 93.5647 499.604 93.6772 499.405L93.6821 499.4C94.3503 499.579 95.3907 499.819 96.7121 500H104.192C108.307 499.422 113.025 497.753 117.434 493.878C117.726 495.988 118.444 498.073 119.648 499.994C119.649 499.996 119.65 499.998 119.651 500H122.942C122.57 499.555 122.225 499.082 121.911 498.583H121.916C118.152 492.59 119.96 484.647 125.947 480.878C128.017 479.575 130.365 478.907 132.752 478.907C133.708 478.907 134.674 479.011 135.629 479.229C138.972 479.991 141.82 482.012 143.647 484.914C145.475 487.816 146.059 491.253 145.297 494.596C144.835 496.617 143.915 498.457 142.617 500H145.897C147.65 497.195 148.463 493.886 148.219 490.594C151.866 490.215 163.584 489.971 176.442 500H180.62C165.992 487.194 152.029 487.498 147.793 487.955C147.406 486.415 146.782 484.914 145.891 483.498C145.009 482.096 143.885 480.922 142.652 479.887C147.555 473.102 165.696 442.437 127.849 402.243C135.857 406.423 149.774 415.486 160.411 431.992L160.669 432.393L161.12 432.537C161.372 432.616 186.229 440.555 193.687 448.702L194.95 450.078L200.814 439.178C203.527 441.228 206.261 443.244 209.02 445.2C209.114 447.36 209.238 449.529 209.376 451.693L197.768 453.793L198.372 455.303H198.367C202.432 465.437 198.946 490.827 198.835 491.636L198.833 491.654L198.768 492.085L198.976 492.466C200.281 494.887 201.402 497.413 202.363 500H205.193C204.164 497.133 202.949 494.319 201.517 491.615C201.982 488.188 204.676 466.748 201.363 455.858L209.55 454.377C210.045 461.301 210.783 468.254 211.729 475.212C211.996 488.995 207.009 491.57 206.979 491.585L205.736 492.105L209.173 500H212.067L209.139 493.269C210.327 492.283 212.165 490.119 213.323 485.741C214.125 490.495 215.03 495.249 216.04 500H218.759C216.976 491.695 215.515 483.378 214.378 475.073C214.349 473.583 214.269 471.998 214.111 470.27L213.734 470.304C213.066 464.822 212.546 459.349 212.16 453.887L213.026 453.728L212.556 451.118L211.996 451.218C211.912 449.846 211.838 448.474 211.768 447.102C247.416 471.825 286.753 488.505 326.918 495.22C326.962 495.685 327.005 496.15 327.048 496.614C327.153 497.743 327.257 498.871 327.381 500H330.038C329.936 499.076 329.85 498.154 329.764 497.232C329.716 496.718 329.668 496.204 329.617 495.691C332.222 496.097 334.832 496.463 337.442 496.785C346.851 497.944 356.192 498.494 365.487 498.494C395.242 498.494 424.308 492.848 452.022 483.527C452.863 489.036 453.837 494.53 454.951 500H457.658C456.473 494.235 455.447 488.441 454.567 482.631C486.842 471.483 517.255 455.407 544.751 437.494V437.499C554.523 458.487 566.003 479.717 579.438 500H582.607C568.758 479.284 556.974 457.529 546.985 436.033C569.142 421.438 589.353 405.705 607.088 390.486V402.505L607.548 402.901C621.737 415.184 637.585 427.847 654.765 440.015C644.414 460.445 632.383 480.807 618.45 500H621.712C635.174 481.253 646.847 461.443 656.934 441.57C684.084 460.607 714.526 478.322 747.128 491.323C746.547 494.223 745.926 497.116 745.264 500H747.977C748.559 497.439 749.11 494.871 749.629 492.298C756.837 495.11 764.148 497.69 771.55 500H780.914C770.479 497.075 760.211 493.591 750.144 489.649V489.644C756.627 456.111 757.905 421.736 756.137 388.96C770.672 390.243 785.609 391.011 800.768 391.011C820.063 391.011 839.67 389.802 859.123 386.979C871.246 422.872 877.147 461.03 872.499 500H875.167C879.785 460.87 873.883 422.59 861.777 386.583C902.194 380.407 941.839 367.14 976.486 343.041C990.645 381.234 995.682 423.727 991.814 467.011C968.832 481.486 944.496 492.65 919.541 500H928.37C950.106 492.843 971.309 482.831 991.497 470.299C991.314 472.117 991.121 473.939 990.908 475.757L990.814 475.742C990.779 475.97 990.586 477.376 990.442 479.476C989.565 486.311 988.469 493.157 987.154 500H989.886C990.306 497.799 990.703 495.598 991.078 493.397C991.442 495.582 991.962 497.815 992.695 500H995.53C992.778 492.439 992.847 483.912 993.146 479.397C993.176 479.163 993.208 478.93 993.241 478.697C993.284 478.385 993.327 478.074 993.364 477.763L1005.76 481.844C1004.05 487.358 1004.8 494.304 1006.04 500H1008.78C1007.44 494.106 1006.57 486.735 1008.69 481.497L1009.22 480.184L993.666 475.059C993.914 472.889 994.156 470.715 994.359 468.551C998.624 465.842 1002.84 463.004 1007.01 460.073L1006.64 460.533L1015.44 467.496L1016.27 466.595C1023.75 458.473 1048.63 450.613 1048.88 450.534L1049.3 450.4L1049.55 450.049C1059.18 436.885 1071.45 426.807 1079.86 420.78C1045.11 460.389 1063.42 492.194 1067.52 498.261C1066.88 498.798 1066.26 499.374 1065.7 500H1069.44C1070.93 498.832 1072.67 498.002 1074.56 497.577C1075.51 497.365 1076.46 497.26 1077.4 497.26C1079.8 497.26 1082.16 497.939 1084.24 499.256C1084.61 499.488 1084.96 499.736 1085.3 500H1089.14C1088.15 498.857 1086.99 497.853 1085.68 497.023C1082.18 494.814 1078.04 494.086 1074 494.997C1072.45 495.344 1071.03 495.978 1069.69 496.75C1065.68 490.867 1045.6 456.432 1089.86 414.208L1091.85 412.311C1092.16 418.933 1092.54 425.638 1093.05 432.364V432.368C1089.78 437.093 1080.02 453.015 1083.22 470.423C1085.33 481.883 1092.7 491.585 1105.09 499.291C1105.17 499.528 1105.25 499.764 1105.34 500H1108.16C1100.86 479.346 1097.53 456.142 1095.76 433.126C1095.98 432.814 1096.14 432.591 1096.16 432.577L1095.69 432.215C1095.12 424.722 1094.71 417.254 1094.38 409.904L1097.45 406.982L1094.33 408.73C1094.09 403.199 1093.88 397.731 1093.69 392.382C1093.44 385.632 1093.19 379.075 1092.88 372.781C1094.98 369.735 1097.05 366.659 1099.07 363.534C1100.51 361.318 1101.95 359.069 1103.41 356.793L1104.64 354.873L1104.89 354.479C1109.58 347.173 1114.42 339.627 1119.47 332.062L1120.7 333.557L1120.06 331.185C1139.34 302.411 1161.69 273.538 1190 256.829C1190.08 256.918 1190.13 256.982 1190.15 257.007L1191.23 256.106C1203.28 249.187 1216.41 244.468 1230.82 242.903C1238.06 243.819 1245.64 243.893 1253.56 243.002L1255.06 242.833C1254.96 248.078 1254.78 253.303 1254.56 258.518C1247.81 258.584 1218.29 261.033 1174.78 295.245C1174.58 294.893 1174.43 294.611 1174.37 294.502L1172 295.706C1172.08 295.869 1172.32 296.295 1172.67 296.914C1151.64 313.777 1127.44 338.019 1101.03 372.87L1100.7 373.301L1100.77 373.836C1100.78 373.872 1100.8 374.01 1100.83 374.238C1100.86 374.472 1100.9 374.802 1100.96 375.217L1100.87 375.202L1100.48 377.822L1101.37 377.956C1103.1 389.337 1108.81 422.721 1120.71 457.75L1120.36 458.305L1121.03 458.711C1121.94 461.39 1122.91 464.079 1123.9 466.763L1123.2 467.338L1124.88 469.388C1126.7 474.202 1128.65 479.006 1130.72 483.745L1130.67 483.785L1130.8 483.958C1133.2 489.419 1135.76 494.793 1138.49 500H1141.46C1138.78 494.991 1136.28 489.814 1133.93 484.543L1159.57 463.495L1179.15 490.094C1175.2 493.415 1170.89 496.732 1166.19 500H1170.75C1192.67 484.094 1205.66 467.254 1213.14 454.442L1213.13 454.437L1214.95 453.025L1214.37 452.282C1217.26 447.087 1219.22 442.655 1220.49 439.366C1215.13 455.021 1209.17 470.398 1202.66 485.488C1199.6 490.917 1196.42 495.735 1193.23 500H1199.54C1236.08 420.045 1256.05 332.794 1257.72 242.521L1265.25 241.674L1257.74 240.828C1257.75 240.081 1257.76 239.335 1257.78 238.588C1257.82 235.793 1257.87 232.997 1257.87 230.195C1257.87 205.185 1256.42 180.398 1253.65 155.908C1253.65 155.603 1253.64 155.3 1253.64 154.997C1253.63 153.884 1253.62 152.776 1253.58 151.604L1253.17 151.619C1251.07 134.072 1248.26 116.694 1244.77 99.5043C1244.34 97.038 1243.92 95.2601 1243.65 94.2053C1236.83 62.0357 1227.59 30.5618 1216.03 0ZM54.401 500C90.0102 454.511 105.076 377.54 108.282 359.003L109.109 358.909L108.807 356.274L108.738 356.284C108.871 355.452 108.946 354.967 108.955 354.892L109.03 354.367L108.723 353.937C83.5247 318.21 60.2779 292.967 39.9926 275.123C40.2105 274.767 40.3591 274.514 40.4284 274.395L38.1107 273.117C38.0957 273.144 38.0645 273.197 38.0312 273.252C38.0094 273.289 37.9867 273.327 37.9671 273.36C23.6729 261.015 10.8964 252.366 0 246.307V249.708C3.35824 251.619 6.89236 253.773 10.5899 256.2C6.65854 262.176 3.14318 268.04 0 273.753V279.341C3.67201 272.345 7.90967 265.097 12.7987 257.666C20.0986 262.589 28.0077 268.566 36.4467 275.831C32.6333 281.982 23.2335 296.914 17.4293 306.116L0 296.819V299.832L18.3504 309.617L19.0091 308.572C19.7024 307.473 33.287 285.929 38.4673 277.585C42.8898 281.462 47.456 285.697 52.1459 290.307L25.3334 333.102L0 328.016V330.723L26.6061 336.068L26.6111 336.063L54.0823 292.219L54.2161 292.353L47.9908 320.537L29.7163 345.28L0 349.706V354.54L14.2745 374.509L0 370.32V373.079L15.1363 377.52L0 393.537V397.399L15.5572 380.937L11.1099 407.438L0 420.745V424.879L13.1206 409.166L42.345 399.92L69.5241 414.084L83.8168 439.322C82.9997 441.476 82.1578 443.635 81.2911 445.79L39.7549 409.419L3.95858 442.892C2.52186 440.835 1.20497 438.831 0 436.892V441.759C10.3901 457.399 27.7204 476.434 56.2366 493.155C54.5527 495.512 52.8196 497.797 51.0361 500H54.401ZM0 192.939C19.4 183.906 38.3156 169.838 55.1669 154.744L55.3749 154.66L55.3452 154.586C85.9068 127.169 109.644 96.4487 117.102 86.4101L117.914 86.7023L118.821 84.2112L118.742 84.1815C119.232 83.508 119.519 83.1068 119.564 83.0424L119.871 82.6066L119.791 82.0767C114.664 48.8519 107.891 21.8732 100.47 0L97.2911 0L54.3696 26.312L20.4247 0H19.0225L17.9245 1.41611L54.1962 29.5262L98.3622 2.45612C98.3771 2.50564 98.3969 2.56009 98.4167 2.60962L80.2461 25.1433L52.8789 39.1686L23.6743 29.7095L8.31675 13.1732C11.2206 9.18859 14.7247 4.74561 18.8988 0H15.4087C8.43017 8.11933 3.40889 15.2919 0 20.7179V25.819C1.61476 23.0445 3.83376 19.4938 6.73972 15.3702L21.6933 31.4725L26.0317 58.4733L0 34.3858V37.9939L25.4671 61.5537L0 70.9222V73.7416L24.3181 64.7976L8.54456 86.5487V86.5537L0 90.3053V93.2L9.58457 88.9903L39.8688 93.715L57.9056 118.492L59.4607 147.261C57.757 148.856 56.0385 150.445 54.2854 152.02L33.3191 101.07L33.3217 101.069L33.3167 101.064L33.3191 101.07L0 111.04V113.805L31.7765 104.293L52.1905 153.897C48.3332 157.324 44.3671 160.691 40.3167 163.949L26.5913 130.393L0 142.952V145.888L25.1947 133.988L38.1553 165.679C30.2214 171.944 21.9805 177.763 13.5663 182.78C8.09475 174.497 3.63194 166.484 0 158.824V164.806C3.18588 171.05 6.91817 177.502 11.2833 184.117C7.54831 186.271 3.78317 188.262 0 190.059V192.939ZM57.0147 0L58.5693 2.17874L59.6192 1.53497C59.8241 1.41054 60.7363 0.855221 62.14 0H57.0147ZM1125.96 346.339C1118.66 354.729 1111.15 363.926 1103.47 374.048H1103.47C1103.48 374.15 1103.5 374.267 1103.52 374.398C1103.56 374.727 1103.62 375.146 1103.69 375.638L1116.19 377.49L1144.28 369.175L1125.96 346.339ZM1246.16 338.203C1242.21 305.224 1224.77 277.897 1219.88 270.78V270.775C1214.73 273.078 1209.09 275.945 1203.01 279.486C1239.33 339.584 1235.8 387.138 1235.73 387.945C1239.84 371.602 1243.32 355.011 1246.16 338.203ZM1254.47 261.222C1250.75 261.365 1239.44 262.425 1222.36 269.7C1227.31 276.995 1242.09 300.623 1247.55 329.828C1251.05 307.319 1253.37 284.429 1254.47 261.222ZM1235.49 388.945L1193.77 399.653V399.658L1222.71 432.463L1222.56 433.121L1222.49 433.418C1227.33 418.814 1231.68 403.986 1235.49 388.945ZM1193.23 403.05L1196.77 429.689H1196.78L1212.62 450.044C1217.32 441.392 1219.27 435.127 1219.81 433.171L1193.23 403.05ZM1147.48 370.993L1118.75 379.496L1139.41 401.213L1138.62 431.175L1165.65 418.239L1193.91 428.253L1189.96 398.543L1208.21 374.767L1178.73 369.339L1161.76 344.636L1147.48 370.993ZM1232.19 367.917L1211.38 374.975V374.979L1194.73 396.671L1233.15 386.811C1233.25 384.473 1233.37 377.817 1232.19 367.917ZM1200.72 280.836C1208.24 293.266 1214.03 305.136 1218.49 316.154L1193.91 328.209C1188.56 319.047 1179.99 304.343 1176.23 297.796C1184.99 290.942 1193.18 285.367 1200.72 280.836ZM1192.86 331.67L1192.24 330.606V330.61C1191.6 329.511 1179.2 308.295 1174.12 299.455C1169.53 303.114 1164.79 307.136 1159.92 311.529L1185.08 354.907L1228.55 347.711L1228.98 350.326L1183.71 357.819L1157.91 313.351C1157.83 313.421 1157.76 313.49 1157.68 313.564L1162.87 341.57L1180.28 366.922L1210.47 372.479L1231.84 365.228C1230.23 353.298 1226.76 337.257 1219.48 318.621L1192.86 331.67ZM1160.23 341.867L1155.38 315.694H1155.37C1146.56 323.925 1137.33 333.394 1127.72 344.299L1146.35 367.506L1160.23 341.867ZM1135.75 401.213L1115.64 380.076V380.081L1104.11 378.367C1105.07 384.632 1107.09 396.493 1110.43 411.246L1135.75 401.213ZM1135.92 432.908L1136.69 403.694H1136.68L1111.03 413.861C1113.9 426.193 1117.66 440.342 1122.49 454.838L1135.92 432.908ZM1165.8 421.097L1138.16 434.325L1123.6 458.111C1124.39 460.409 1125.2 462.717 1126.05 465.02L1168.07 430.68L1202.71 465.367C1206.15 460.786 1208.95 456.457 1211.21 452.545L1194.7 431.333L1165.8 421.097ZM1201.08 467.486L1167.89 434.25V434.245L1127.02 467.64C1128.82 472.464 1130.76 477.272 1132.82 482.022L1160.05 459.671L1181.16 488.366C1189.36 481.234 1195.89 474.128 1201.08 467.486ZM123.095 453.59C121.059 466.684 113.016 478.411 99.214 488.465H99.2091C97.9016 491.372 96.505 494.225 95.0044 497.013C98.5603 497.84 108.876 499.237 117.34 490.382L117.375 490.416C117.786 485.756 120.277 481.333 124.531 478.654C128.037 476.45 132.182 475.747 136.219 476.663C137.759 477.015 139.175 477.649 140.503 478.416C145.311 472.087 164.695 441.055 120.921 399.043L117.662 395.914C117.157 403.951 116.518 412.093 115.646 420.225C118.316 424.385 125.596 437.484 123.095 453.59ZM115.146 424.687C112.734 445.077 108.698 465.258 101.344 483.458C112.279 474.519 118.732 464.366 120.47 453.213C122.382 440.966 118.122 430.323 115.146 424.687ZM74.219 253.055C65.8791 245.275 54.6865 241.952 40.9534 243.061C60.4314 259.305 76.9379 281.2 91.6467 303.337C91.508 293.016 89.5518 267.368 74.219 253.055ZM38.0265 240.664C53.7654 238.797 66.5724 242.284 76.0365 251.124L76.0464 251.119C95.0985 268.913 94.5042 301.995 94.2764 307.304C99.5013 315.283 104.503 323.246 109.337 330.942C112.279 335.632 115.141 340.169 117.964 344.586C119.301 330.115 121.495 315.877 124.491 301.961L128.448 245.369L129.904 245.631C130.37 245.721 141.34 247.543 146.034 235.033L146.173 235.088C148.947 228.838 151.883 222.697 155.013 216.699C152.785 211.841 150.67 206.903 148.664 201.901L137.863 209.246L137.383 207.443C134.535 196.775 116.161 178.253 115.973 178.065L115.636 177.728L115.592 177.253C113.725 157.091 105.355 145.201 100.452 139.847C107.098 161.989 106.692 180.016 99.219 193.477C92.5183 205.551 82.1479 210.241 77.864 211.732C78.4236 213.138 78.7901 214.644 78.9189 216.224C79.0526 217.888 78.909 219.512 78.5425 221.057C85.0896 223.618 114.819 238.733 105.127 299.034C110.996 289.575 122.139 268.893 121.847 248.702V248.266L122.099 247.91L122.111 247.894C122.601 247.202 137.405 226.314 138.482 215.456L138.64 213.837L152.998 218.299L152.21 220.829L140.884 217.308C138.794 228.501 126.497 246.265 124.501 249.093C124.684 277.079 104.607 304.734 103.75 305.903L100.239 310.687L101.383 304.863C113.863 241.362 83.9357 226.025 77.7055 223.563C75.5116 228.664 70.6433 232.428 64.7351 232.909C64.3042 232.943 63.8783 232.958 63.4524 232.958C59.7826 232.958 56.2713 231.675 53.4484 229.273C52.9966 228.89 52.6071 228.455 52.2168 228.019C52.1536 227.948 52.0905 227.878 52.0271 227.808C40.9187 226.124 33.7129 232.433 30.9791 235.444C33.3662 237.103 35.7186 238.837 38.0265 240.664ZM89.1457 144.913C88.9129 148.39 84.7925 194.656 33.9308 202.278H33.9259C32.2024 203.422 30.4592 204.536 28.6862 205.591C32.2668 208.275 40.1362 212.618 50.4175 209.117L50.4274 209.152C50.8038 208.562 51.205 207.988 51.6655 207.448C54.3448 204.293 58.0938 202.372 62.2143 202.04C68.2117 201.515 73.6742 204.541 76.6358 209.335C80.2758 208.087 90.5274 203.689 96.9161 192.14C104.528 178.382 104.345 159.419 96.3614 135.781L96.0841 134.959C93.8159 138.292 91.5031 141.615 89.1457 144.913ZM39.2299 198.573C56.9548 185.543 72.2331 168.012 85.9068 149.385C83.8812 161.039 75.2095 190.476 39.2299 198.573ZM1175.95 219.577C1162.1 219.582 1150.82 215.407 1142.35 207.141L1142.36 207.136C1125.05 190.238 1125.14 162.113 1125.3 157.136C1119.09 147.801 1113.19 138.421 1107.54 129.407C1104.59 124.717 1101.73 120.181 1098.91 115.763C1098.76 117.338 1098.61 118.908 1098.45 120.473L1100.39 120.612L1094.32 203.734L1092.92 203.541C1092.45 203.486 1081.22 202.253 1073.62 218.804L1073.5 218.75C1071.39 223.811 1069.15 228.793 1066.8 233.696L1079.86 237.455C1082.42 226.337 1095.39 209.043 1097.47 206.324C1098.67 178.367 1111.68 156.408 1111.82 156.19L1115.91 149.376L1114.25 157.151C1101.32 217.62 1134.89 232.26 1141.52 234.528C1143.91 229.477 1148.87 225.911 1154.69 225.742C1158.67 225.673 1162.41 227.08 1165.31 229.828C1165.88 230.363 1166.38 230.947 1166.86 231.552C1176.72 233.612 1183.73 228.635 1186.91 225.628C1184.06 223.697 1181.27 221.642 1178.55 219.468C1178.25 219.48 1177.94 219.496 1177.64 219.513C1177.07 219.545 1176.5 219.577 1175.95 219.577ZM1175.43 216.907C1157.36 201.723 1141.86 181.68 1127.97 161.143C1128.28 170.473 1130.54 191.912 1144.21 205.249C1152.05 212.901 1162.53 216.803 1175.43 216.907ZM1190.38 253.476C1200.32 247.83 1210.97 243.631 1222.49 241.422H1222.49C1210.5 238.762 1199.45 233.755 1189.17 227.109C1186.33 229.917 1180.18 234.716 1171.45 234.716C1170.56 234.716 1169.65 234.667 1168.71 234.558C1169.61 236.504 1170.12 238.634 1170.18 240.862C1170.24 243.13 1169.81 245.295 1169.01 247.266C1179.43 245.275 1187.07 250.539 1190.38 253.476ZM1135.21 305.252C1135.09 299.793 1135.9 288.783 1143.24 279.358C1150.09 270.562 1161.03 265.169 1175.69 263.208C1160.59 274.701 1147.27 289.447 1135.21 305.252ZM1178.82 260.902L1178.75 260.137C1161.62 261.761 1148.96 267.69 1141.13 277.758C1131.22 290.501 1132.38 305.472 1132.75 308.528C1128.04 314.847 1123.52 321.305 1119.16 327.768L1119.12 327.629C1103.38 269.185 1134.56 252.094 1141.93 248.94C1142.7 250.346 1143.69 251.639 1144.87 252.763C1147.67 255.412 1151.28 256.854 1155.07 256.854C1155.22 256.854 1155.36 256.854 1155.5 256.849C1160.4 256.705 1164.68 254.15 1167.34 250.336L1167.35 250.371C1177.28 247.469 1184.56 251.975 1187.98 254.868C1184.86 256.739 1181.81 258.758 1178.82 260.902ZM1091.75 410.162C1091.48 404.169 1091.26 398.246 1091.05 392.462H1091.05C1090.85 386.925 1090.64 381.561 1090.4 376.327C1086.85 381.353 1083.18 386.271 1079.4 391.075H1079.41L1046.67 443.977L1045.58 443.412C1045.51 443.378 1038.03 439.852 1023.91 447.33C1018.94 451.326 1013.9 455.175 1008.77 458.839L1015.19 463.921C1023.41 456.135 1044.34 449.207 1047.68 448.137C1064.18 425.757 1088.06 412.227 1088.3 412.093L1091.75 410.162ZM1103.75 495.225C1098 476.846 1095.08 456.789 1093.4 436.786H1093.39C1089.55 443.249 1083.31 456.304 1085.83 469.963C1087.64 479.783 1093.7 488.257 1103.75 495.225ZM199.952 435.177L200.516 434.132L202.854 435.389L202.081 436.821C204.34 438.534 206.618 440.213 208.911 441.862C207.584 400.519 214.418 360.325 229.662 324.375C230.261 322.954 230.902 321.562 231.543 320.17C231.729 319.767 231.914 319.365 232.098 318.962C200.67 293.061 174.947 258.944 156.435 219.71C143.36 245.156 133.44 272.994 127.111 302.297L125.789 321.211L123.585 321.057C122.154 330.006 121.049 339.069 120.292 348.221C122.694 351.936 125.175 355.581 127.701 359.181L128.483 358.735L132.802 366.273C152.369 392.798 175.105 416.006 199.952 435.177ZM182.063 423.915C176.993 421.793 170.693 420.231 164.458 421.557L142.157 382.611C154.49 397.638 167.858 411.462 182.063 423.915ZM130.88 248.365L128.235 286.246C131.965 272.107 136.536 258.359 141.904 245.106C137.714 248.162 133.148 248.439 130.88 248.365ZM177.968 14.6243L155.934 47.5878C166.934 35.692 178.622 24.7174 190.854 14.7085C184.49 16.5359 179.969 15.3919 177.968 14.6243ZM1020.96 28.3228C1020.54 28.0008 1020.16 27.6987 1019.83 27.4263V27.4214C1015.92 24.3311 1011.95 21.3547 1007.93 18.4674C1009.26 59.8104 1002.43 100.005 987.178 135.954C986.617 137.286 986.017 138.591 985.417 139.895C985.191 140.385 984.965 140.876 984.742 141.367C1016.17 167.264 1041.89 201.381 1060.4 240.615C1080.16 202.169 1092.72 158.27 1096.55 112.103C1075.43 79.5015 1049.66 51.1932 1020.96 28.3228ZM1033.17 35.0345C1038.31 36.7831 1044.31 37.4624 1050.42 35.2067L1077.8 81.522C1064.16 64.4406 1049.17 48.8886 1033.17 35.0345ZM1091.86 200.846L1096.74 134.003C1093.06 159.558 1086.71 184.236 1077.95 207.498C1083.54 201.753 1089.27 200.896 1091.86 200.846ZM1139.99 241.729C1139.95 240.08 1140.16 238.485 1140.59 236.979H1140.59C1133.68 234.424 1102.05 219.651 1109.98 165.763C1106.1 174.529 1100.76 189.525 1100.09 206.844L1100.07 207.27L1099.81 207.607L1099.8 207.624C1099.26 208.331 1083.8 228.481 1082.19 239.322L1081.96 240.823L1065.64 236.123C1064.4 238.653 1063.13 241.159 1061.84 243.645C1063.31 246.865 1064.73 250.118 1066.11 253.402L1082.5 245.8L1082.83 247.444C1085 258.163 1101.44 277.343 1102.06 278.065L1102.08 278.085L1102.38 278.436L1102.4 278.902C1103.12 298.474 1110.17 313.351 1114.8 321.117C1103.18 267.288 1133.3 249.98 1140.87 246.548C1140.34 245.022 1140.04 243.403 1139.99 241.729ZM1155.42 254.194C1162.28 253.996 1167.72 248.038 1167.53 240.922C1167.44 237.391 1166 234.132 1163.48 231.75C1161.09 229.486 1158.01 228.238 1154.75 228.387C1147.89 228.585 1142.46 234.543 1142.65 241.66C1142.73 245.191 1144.17 248.449 1146.69 250.831C1149.08 253.095 1152.25 254.343 1155.42 254.194ZM658.167 439.178C685.109 458.096 715.314 475.717 747.643 488.668V488.673C754.032 455.387 755.27 421.255 753.487 388.708C732.528 386.761 712.461 383.74 694.038 380.199L693.444 380.086L693.142 379.56L687.436 369.675C679.691 391.729 670.058 415.456 658.167 439.178ZM233.599 322.071C233.091 323.177 232.582 324.284 232.103 325.41C216.76 361.588 210.015 402.114 211.615 443.779C247.164 468.774 286.481 485.657 326.64 492.491C323.099 450.44 331.444 409.483 346.302 371.399C308.698 363.807 272.253 349.568 240.448 325.584C238.348 323.999 236.273 322.375 234.218 320.72C234.013 321.172 233.806 321.621 233.599 322.071ZM633.9 243.343L745.959 308.042L757.286 314.579C774.664 308.537 793.146 301.302 811.867 292.714C796.925 270.082 780.795 249.465 765.259 231.487H613.368L633.9 243.343ZM766.463 228.838H766.468H779.542C791.572 214.916 803.963 199.405 815.878 182.611C791.626 170.483 767.349 160.692 744.905 152.892L613.363 228.838H766.463ZM612.04 226.545L744.632 149.99H744.637L755.958 143.452C759.415 125.381 762.392 105.754 764.313 85.2512C737.243 86.8706 711.322 90.5355 687.986 95.0026L667.74 130.071L612.04 226.545ZM621.603 204.685L686.297 92.6254L686.302 92.6304L692.839 81.3041C686.797 63.926 679.562 45.4434 670.974 26.7231C648.342 41.6647 627.72 57.7948 609.747 73.3306V225.222L621.603 204.685ZM451.581 228.838H603.473L459.554 145.745C442.176 151.787 423.694 159.023 404.973 167.61C419.915 190.243 436.045 210.86 451.581 228.838ZM603.477 231.487H450.372H437.293C425.263 245.409 412.872 260.92 400.957 277.713C425.214 289.842 449.491 299.633 471.935 307.433L507.004 287.187L603.477 231.487ZM459.034 314.882L468.919 309.176H468.914C446.861 301.431 423.129 291.798 399.407 279.907C380.488 306.854 362.868 337.054 349.917 369.383C383.192 375.767 417.31 377.005 449.848 375.227C451.799 354.258 454.849 334.211 458.395 315.778L458.509 315.184L459.034 314.882ZM584.272 245.636L460.887 316.872C457.43 334.944 454.453 354.57 452.532 375.074C479.602 373.449 505.523 369.789 528.859 365.322L604.805 233.78L584.272 245.636ZM607.098 235.116V386.999C589.12 402.535 568.508 418.67 545.875 433.612C537.288 414.891 530.048 396.409 524.01 379.026L607.098 235.116ZM768.75 231.482H780.765L781.161 231.022C793.449 216.833 806.112 200.995 818.285 183.81C847.351 198.539 876.278 216.669 901.902 238.837C874.52 260.36 844.162 277.708 814.303 291.58C799.705 269.425 783.972 249.221 768.75 231.482ZM819.817 181.624C838.853 154.475 856.568 124.038 869.568 91.4368C906.979 98.9348 943.221 113.044 974.797 136.856C977.061 138.564 979.289 140.318 981.498 142.105C963.669 180.328 935.96 211.628 903.997 237.148C878.207 214.769 849.079 196.481 819.817 181.624ZM747.931 151.144C769.984 158.889 793.711 168.522 817.433 180.413C836.352 153.471 853.972 123.266 866.923 90.9366C833.648 84.5529 799.53 83.3148 766.993 85.0927C765.046 106.061 761.996 126.109 758.45 144.542L758.336 145.136L757.811 145.438L747.931 151.144ZM607.093 225.208V59.023C593.172 46.9935 577.665 34.6074 560.867 22.6918C548.738 46.9489 538.947 71.2258 531.147 93.6654L607.093 225.208ZM528.245 93.9378L521.708 82.6165C503.636 79.1548 484.01 76.1783 463.506 74.2567C465.131 101.327 468.791 127.248 473.258 150.584L604.8 226.53L528.245 93.9378ZM470.23 148.842L460.352 143.14L459.827 142.838L459.252 143.036C441.518 149.182 422.629 156.562 403.497 165.357C385.688 138.069 369.702 107.904 358.594 75.896C393.068 70.9435 428.032 71.1021 460.827 74.019C462.392 100.506 465.912 125.87 470.23 148.842ZM312.897 219.715C340.458 197.984 371.019 180.482 401.081 166.486C383.163 138.99 367.082 108.587 355.934 76.3071C315.497 82.4283 275.853 95.6811 241.3 119.869C242.315 122.518 243.37 125.153 244.474 127.763C259.916 164.173 284.247 194.517 312.897 219.715ZM448.094 228.828C432.87 211.093 417.137 190.887 402.537 168.73C372.678 182.607 342.32 199.95 314.938 221.473C340.557 243.641 369.489 261.771 398.555 276.5C410.728 259.315 423.391 243.477 435.678 229.288L436.075 228.828H448.094ZM347.272 368.878C360.273 336.276 377.987 305.838 397.025 278.689L397.02 278.694C367.756 263.837 338.625 245.547 312.833 223.167C280.875 248.687 253.166 279.987 235.337 318.21C237.546 319.997 239.774 321.755 242.038 323.459C273.62 347.271 309.862 361.38 347.272 368.878ZM423.208 378.625C398.639 378.625 373.56 376.663 348.936 371.899V371.894C334.02 409.974 325.675 450.93 329.344 492.947C332.152 493.393 334.961 493.799 337.774 494.145C377.032 498.989 415.473 493.086 451.616 480.878C446.574 446.136 446.698 410.914 449.61 377.877C440.903 378.347 432.093 378.625 423.208 378.625ZM527.116 368.328C504.136 372.647 478.775 376.173 452.279 377.738H452.289C449.372 410.538 449.214 445.512 454.166 479.991C486.174 468.883 516.339 452.896 543.627 435.082C534.832 415.946 527.447 397.058 521.301 379.323L521.103 378.748L521.406 378.223L527.116 368.328ZM609.737 235.107V401.287C623.659 413.321 639.17 425.707 655.964 437.623C668.092 413.371 677.883 389.094 685.683 366.649L665.438 331.581L609.737 235.107ZM623.887 254.313L695.123 377.698V377.693C713.194 381.155 732.821 384.132 753.324 386.053C751.699 358.978 748.039 333.057 743.572 309.721L708.504 289.475L612.03 233.775L623.887 254.313ZM746.594 311.47L756.478 317.174L757.003 317.477L757.578 317.279C775.313 311.133 794.201 303.748 813.333 294.953C831.142 322.241 847.128 352.411 858.237 384.419C823.763 389.371 788.798 389.213 755.998 386.296C754.433 359.807 750.912 334.443 746.594 311.47ZM903.933 240.6C876.372 262.331 845.811 279.833 815.749 293.829C833.667 321.33 849.748 351.733 860.896 384.013C901.333 377.887 940.977 364.634 975.53 340.446C974.515 337.792 973.46 335.162 972.356 332.552C956.914 296.141 932.583 265.798 903.933 240.6ZM906.023 238.921C934.796 264.297 959.247 294.849 974.797 331.517C975.827 333.939 976.813 336.38 977.764 338.841C978.209 338.521 978.656 338.204 979.103 337.887C980.052 337.213 981.002 336.539 981.939 335.835C1013.32 312.173 1039.42 280.457 1058.87 243.571C1040.58 204.155 1014.97 169.869 983.608 143.873C965.645 182.067 937.936 213.366 906.023 238.921ZM237.721 122.438C236.772 123.112 235.822 123.786 234.886 124.49L234.891 124.485C203.513 148.147 177.408 179.863 157.96 216.749C176.254 256.17 201.863 290.451 233.222 316.451C251.18 278.258 278.889 246.959 310.802 221.404C282.029 196.023 257.578 165.476 242.028 128.808C241.003 126.386 240.012 123.945 239.061 121.483C238.616 121.804 238.169 122.121 237.721 122.438ZM978.731 341.475C980.34 340.326 981.939 339.158 983.528 337.96C1014.71 314.451 1040.72 283.057 1060.25 246.592C1077.45 284.681 1087.89 327.411 1090.17 371.983C1070.71 400.054 1047.75 424.672 1022.47 445.062C1021.64 445.507 1020.78 445.988 1019.91 446.508L1020.16 446.934C1011.88 453.491 1003.34 459.582 994.612 465.208C998.198 421.995 992.983 379.603 978.731 341.475ZM1093.73 286.083C1084.94 284.989 1078.21 278.956 1073.76 273.39C1082.27 297.885 1088.14 323.84 1091.1 350.648L1093.73 286.083ZM1045.62 440.599L1067.18 405.759C1055.87 418.66 1043.77 430.571 1031.03 441.412C1038.59 439.039 1043.52 439.936 1045.62 440.599ZM1096.47 283.646L1096.48 283.646L1096.47 283.641L1096.47 283.646ZM1095.19 283.557L1096.47 283.646L1093.05 367.774C1094.32 365.882 1095.59 363.985 1096.84 362.064C1098.67 359.226 1100.52 356.338 1102.4 353.407L1102.4 353.399C1107.31 345.745 1112.39 337.829 1117.7 329.897L1116.8 328.808C1116.15 328.025 1101.01 309.345 1099.76 279.457C1097.47 276.767 1083.83 260.489 1080.63 249.578L1067.11 255.853C1068.01 258.027 1068.88 260.216 1069.74 262.42L1069.84 262.371L1069.85 262.372C1069.96 262.624 1079.41 282.499 1095.19 283.557ZM139.834 177.233C131.326 150.158 125.997 121.439 124.204 91.8875C122.941 93.7546 121.688 95.6365 120.455 97.5383L121.104 97.5135L123.966 169.641C131.375 170.25 136.461 173.657 139.834 177.233ZM121.411 172.167L118.563 100.46H118.558L118.497 100.555C117.146 102.658 115.794 104.761 114.413 106.913L114.256 107.158C108.787 115.685 103.109 124.539 97.134 133.369L98.3721 134.266C99.0655 134.771 115.25 146.81 118.152 176.52C120.653 179.066 135.377 194.339 139.349 204.997L147.629 199.366C146.044 195.324 144.544 191.234 143.108 187.103L143.013 187.133C142.825 186.549 138.2 172.816 122.634 172.216L121.411 172.167ZM53.6762 209.147C51.4526 211.762 50.3829 215.08 50.6602 218.497H50.6651C50.9425 221.914 52.5322 225.019 55.1471 227.238C57.762 229.467 61.1049 230.536 64.4973 230.254C71.5546 229.68 76.824 223.474 76.2545 216.417C75.7097 209.716 70.0787 204.62 63.4672 204.62C63.1206 204.62 62.7689 204.63 62.4173 204.66C59.0001 204.942 55.8949 206.532 53.6762 209.147ZM119.059 368.516C119.029 369.152 118.999 369.789 118.969 370.428L118.974 370.418C118.603 378.486 118.212 386.806 117.687 395.235L122.258 396.805C123.228 397.137 146.104 405.214 162.363 430.15C165.755 431.254 185.872 437.999 194.321 445.616L198.669 437.534C196.193 435.627 193.736 433.681 191.305 431.7L191.023 432.061L191.015 432.056C190.624 431.756 176.64 421.043 164.126 424.351L163.14 424.608L130.573 367.734C126.913 362.772 123.367 357.695 119.935 352.505C119.757 355.051 119.588 357.591 119.46 360.147C119.322 362.9 119.191 365.692 119.059 368.516ZM1110.79 103.456L1110.79 103.456L1110.86 103.553C1111.08 103.83 1111.4 104.238 1111.77 104.704L1123.47 99.8708L1143.31 78.3227L1115.82 68.1058C1113.89 79.0738 1112.19 90.824 1110.79 103.456ZM1219.42 103.343L1243.47 112.678C1243.32 108.961 1243 105.753 1242.64 103.075C1242.07 100.198 1241.46 97.3303 1240.84 94.4628L1202.71 82.2946L1219.42 103.343ZM1155.57 108.335L1170.27 134.454L1170.27 134.449L1186.84 109.474L1216.22 103.57L1197.59 80.0957L1201.05 50.3265L1172.96 60.796L1145.72 48.3009L1147 78.2435L1126.69 100.297L1155.57 108.335ZM1218.13 32.1411L1203.88 48.8804H1203.89L1200.73 76.0446L1228.64 47.8651C1227.53 45.8049 1224.22 40.0353 1218.13 32.1411ZM1229.79 50.4701L1201.43 79.0953L1240.19 91.4666C1237.15 77.6344 1233.7 63.9606 1229.79 50.4701ZM1143 46.7112L1125.17 26.4755V26.4805C1121.91 38.1484 1118.9 51.0941 1116.29 65.4562L1144.24 75.8415L1143 46.7112ZM1152.44 110.207L1124.34 102.387H1124.33L1113.49 106.864C1117.45 111.791 1125.18 121.072 1135.56 132.191L1152.44 110.207ZM1168.84 137.331L1154.52 111.861H1154.51L1137.4 134.157C1146.24 143.507 1156.84 153.976 1168.56 164.124L1168.84 137.331ZM1188.44 111.861L1171.5 137.396H1171.49L1171.19 166.392C1172.95 167.883 1174.73 169.364 1176.53 170.83L1195.3 118.918L1242.84 130.918C1243.44 125.222 1243.63 120.067 1243.55 115.55L1218.49 105.819L1188.44 111.861ZM1242.53 133.572L1196.98 122.078V122.083L1178.72 172.593C1182.75 175.817 1186.88 178.947 1191.08 181.958L1203.29 147.929L1236.14 161.722C1239.52 151.391 1241.48 141.937 1242.53 133.572ZM1235.3 164.238L1204.85 151.451L1193.33 183.543C1201.65 189.367 1210.26 194.661 1218.99 199.014C1226.32 186.682 1231.58 175.009 1235.3 164.238ZM1251 156.557C1249.68 144.899 1248.04 133.34 1246.1 121.88C1245.43 141.075 1240.16 168.522 1221.38 200.163C1227.36 203.02 1233.39 205.437 1239.41 207.27C1241.74 203.981 1251.24 188.515 1251 156.557ZM1254.89 210.618C1254.53 198.395 1253.8 186.261 1252.77 174.217C1250.51 193.68 1244.67 204.249 1242.12 208.032C1246.39 209.206 1250.65 210.078 1254.89 210.618ZM104.246 78.917L116.137 83.2356L116.142 83.2306C116.25 83.0812 116.352 82.9402 116.448 82.8082C116.711 82.4462 116.925 82.1522 117.077 81.938C115.121 69.3489 112.917 57.6809 110.53 46.835L83.485 58.2505L104.246 78.917ZM72.55 88.7625L101.046 79.4767H101.041L79.8004 58.3297L79.7756 28.3574L53.1018 42.0262L24.5905 32.7899L29.3448 62.3808L11.7488 86.6429L41.3644 91.2635L59.0051 115.496L72.55 88.7625ZM60.5552 118.314L61.9914 144.874V144.869C73.2236 134.152 83.3117 123.276 91.7061 113.619L73.7634 92.2391L60.5552 118.314ZM75.7642 90.5057L93.4593 111.593L93.4642 111.588C103.364 100.084 110.714 90.5305 114.502 85.4543L103.498 81.4626L75.7642 90.5057ZM82.4549 55.8068L82.4252 26.6588L99.4022 5.60092C103.151 17.0758 106.712 29.8828 109.946 44.2053L82.4549 55.8068ZM93.4147 358.017L106.004 356.586V356.581C106.118 355.903 106.202 355.368 106.256 355.016C98.9218 344.636 91.7457 335.172 84.7529 326.505L65.6265 348.746L93.4147 358.017ZM62.3678 350.455L49.0061 323.628L31.202 347.736L1.55664 352.154L18.9843 376.54L14.022 406.101L42.6026 397.062L69.1824 410.914L69.4151 380.942L90.7998 359.944L62.3678 350.455ZM26.6705 468.417C35.1293 476.054 45.3759 483.735 57.762 490.981L57.767 490.986C63.3038 482.948 68.286 474.162 72.7531 465.04L47.1341 442.506L26.6705 468.417ZM46.7824 438.668L73.9466 462.564V462.559C76.1703 457.888 78.2652 453.144 80.2313 448.38L39.8094 412.985L5.51366 445.062C10.476 451.881 16.7656 459.206 24.7093 466.615L46.7824 438.668ZM71.8171 412.742L85.0302 436.078H85.0352C90.3888 421.523 94.5983 407.225 97.8075 394.76L72.0449 383.518L71.8171 412.742ZM73.0601 381.071L98.4662 392.16C102.176 377.431 104.444 365.56 105.538 359.31L93.8753 360.637L73.0601 381.071ZM50.6206 320.928L63.6158 347.023L63.6208 347.018L83.0641 324.41C73.8327 313.104 64.9431 303.228 56.4397 294.591L50.6206 320.928Z" fill="url(#paint0_linear_413_42978)"/>
<defs>
<linearGradient id="paint0_linear_413_42978" x1="542.367" y1="381.4" x2="604.93" y2="-452.207" gradientUnits="userSpaceOnUse">
<stop stop-color="#DBDBDB" stop-opacity="0"/>
<stop offset="1" stop-color="#2A2932"/>
</linearGradient>
</defs>
</svg>
