<svg width="332" height="332" viewBox="0 0 332 332" fill="none" xmlns="http://www.w3.org/2000/svg">
<path d="M163.992 12.228L161.597 15.72L165.089 13.325L165.865 22.686L166.641 13.325L170.133 15.72L167.737 12.228L177.098 11.4522L167.737 10.6765L170.133 7.18419L166.641 9.57959L165.865 0.218689L165.089 9.57959L161.597 7.18419L163.992 10.6765L154.631 11.4522L163.992 12.228ZM125.329 7.55659L127.655 14.659L129.916 12.161L128.706 15.305L136.094 14.18L128.992 16.506L131.49 18.767L128.345 17.557L129.471 24.945L127.145 17.843L124.884 20.34L126.094 17.196L118.706 18.322L125.808 15.996L123.31 13.735L126.455 14.945L125.329 7.55659ZM89.306 23.901L92.341 28.645L93.52 26.397L93.23 28.919L98.408 26.706L93.664 29.741L95.912 30.92L93.39 30.63L95.603 35.808L92.568 31.064L91.389 33.312L91.679 30.79L86.501 33.003L91.245 29.968L88.997 28.789L91.519 29.079L89.306 23.901ZM144.186 13.369C144.186 12.31 145.044 11.4522 146.103 11.4522C147.161 11.4522 148.019 12.31 148.019 13.369C148.019 14.427 147.161 15.285 146.103 15.285C145.044 15.285 144.186 14.427 144.186 13.369ZM106.136 23.367C106.136 22.362 106.951 21.549 107.954 21.549C108.957 21.549 109.771 22.364 109.771 23.367C109.771 24.37 108.957 25.184 107.954 25.184C106.951 25.184 106.136 24.37 106.136 23.367ZM74.623 40.489C74.623 39.64 75.311 38.95 76.162 38.95C77.012 38.95 77.7 39.639 77.7 40.489C77.7 41.339 77.012 42.028 76.162 42.028C75.311 42.028 74.623 41.339 74.623 40.489ZM205.273 14.944L208.418 13.734L205.92 15.995L213.022 18.321L205.634 17.195L206.844 20.339L204.583 17.842L202.257 24.944L203.382 17.556L200.238 18.766L202.736 16.505L195.634 14.178L203.022 15.304L201.812 12.16L204.073 14.658L206.399 7.55549L205.273 14.944ZM240.208 29.079L242.731 28.789L240.482 29.968L245.226 33.003L240.048 30.79L240.338 33.312L239.159 31.064L236.125 35.808L238.338 30.63L235.815 30.92L238.064 29.741L233.32 26.706L238.498 28.919L238.208 26.397L239.387 28.645L242.421 23.901L240.208 29.079ZM185.626 15.284C184.568 15.284 183.71 14.426 183.71 13.368C183.71 12.309 184.568 11.4512 185.626 11.4512C186.685 11.4512 187.542 12.309 187.542 13.368C187.542 14.426 186.685 15.284 185.626 15.284ZM223.774 25.184C222.77 25.184 221.957 24.37 221.957 23.367C221.957 22.364 222.771 21.549 223.774 21.549C224.777 21.549 225.591 22.364 225.591 23.367C225.591 24.37 224.777 25.184 223.774 25.184ZM255.567 42.028C254.718 42.028 254.028 41.339 254.028 40.489C254.028 39.639 254.716 38.95 255.567 38.95C256.417 38.95 257.106 39.639 257.106 40.489C257.106 41.339 256.417 42.028 255.567 42.028ZM154.631 320.548L163.992 321.324L161.597 324.816L165.089 322.42L165.865 331.781L166.641 322.42L170.133 324.816L167.737 321.324L177.098 320.548L167.737 319.772L170.133 316.28L166.641 318.675L165.865 309.314L165.089 318.675L161.597 316.28L163.992 319.772L154.631 320.548ZM126.455 317.056L123.31 318.266L125.808 316.005L118.706 313.678L126.094 314.804L124.884 311.66L127.145 314.157L129.471 307.055L128.345 314.443L131.49 313.233L128.992 315.494L136.094 317.821L128.706 316.695L129.916 319.839L127.655 317.341L125.329 324.444L126.455 317.056ZM91.519 302.92L88.997 303.21L91.245 302.031L86.501 298.996L91.679 301.209L91.389 298.687L92.568 300.935L95.603 296.191L93.39 301.369L95.912 301.079L93.664 302.258L98.408 305.293L93.23 303.08L93.52 305.602L92.341 303.354L89.306 308.098L91.519 302.92ZM146.102 316.715C147.16 316.715 148.018 317.573 148.018 318.631C148.018 319.69 147.16 320.548 146.102 320.548C145.043 320.548 144.185 319.69 144.185 318.631C144.185 317.573 145.043 316.715 146.102 316.715ZM107.954 306.815C108.958 306.815 109.771 307.629 109.771 308.632C109.771 309.635 108.957 310.45 107.954 310.45C106.951 310.45 106.136 309.635 106.136 308.632C106.136 307.629 106.951 306.815 107.954 306.815ZM76.161 289.971C77.01 289.971 77.699 290.66 77.699 291.51C77.699 292.36 77.011 293.049 76.161 293.049C75.31 293.049 74.622 292.36 74.622 291.51C74.622 290.66 75.31 289.971 76.161 289.971ZM206.399 324.442L204.073 317.34L201.812 319.838L203.022 316.694L195.634 317.82L202.736 315.493L200.238 313.232L203.382 314.442L202.257 307.054L204.583 314.156L206.844 311.659L205.634 314.803L213.022 313.677L205.92 316.003L208.418 318.264L205.273 317.054L206.399 324.442ZM242.421 308.098L239.387 303.354L238.208 305.602L238.498 303.08L233.32 305.293L238.064 302.258L235.815 301.079L238.338 301.369L236.125 296.191L239.159 300.935L240.338 298.687L240.048 301.209L245.226 298.996L240.482 302.031L242.731 303.21L240.208 302.92L242.421 308.098ZM187.541 318.63C187.541 319.689 186.683 320.547 185.625 320.547C184.566 320.547 183.709 319.689 183.709 318.63C183.709 317.572 184.566 316.714 185.625 316.714C186.683 316.714 187.541 317.572 187.541 318.63ZM225.591 308.632C225.591 309.637 224.777 310.45 223.774 310.45C222.771 310.45 221.957 309.635 221.957 308.632C221.957 307.629 222.771 306.815 223.774 306.815C224.777 306.815 225.591 307.629 225.591 308.632ZM257.104 291.51C257.104 292.359 256.416 293.049 255.566 293.049C254.715 293.049 254.027 292.36 254.027 291.51C254.027 290.66 254.715 289.971 255.566 289.971C256.416 289.971 257.104 290.66 257.104 291.51ZM319.636 164.127L316.144 161.732L318.539 165.224L309.178 166L318.539 166.776L316.144 170.268L319.636 167.873L320.412 177.234L321.187 167.873L324.68 170.268L322.284 166.776L331.645 166L322.284 165.224L324.68 161.732L321.187 164.127L320.412 154.767L319.636 164.127ZM324.307 125.464L317.205 127.79L319.703 130.051L316.559 128.841L317.684 136.229L315.358 129.127L313.097 131.625L314.307 128.481L306.919 129.606L314.021 127.28L311.523 125.019L314.668 126.229L313.542 118.841L315.868 125.943L318.129 123.445L316.919 126.59L324.307 125.464ZM307.963 89.442L303.219 92.476L305.467 93.655L302.945 93.365L305.158 98.544L302.123 93.8L300.944 96.049L301.234 93.526L296.056 95.739L300.8 92.705L298.552 91.525L301.074 91.816L298.861 86.637L301.896 91.381L303.075 89.133L302.785 91.656L307.963 89.442ZM318.495 144.321C319.554 144.321 320.412 145.179 320.412 146.238C320.412 147.296 319.554 148.154 318.495 148.154C317.437 148.154 316.579 147.296 316.579 146.238C316.579 145.179 317.437 144.321 318.495 144.321ZM308.497 106.272C309.501 106.272 310.314 107.086 310.314 108.089C310.314 109.092 309.5 109.906 308.497 109.906C307.494 109.906 306.68 109.092 306.68 108.089C306.68 107.086 307.494 106.272 308.497 106.272ZM291.375 74.758C292.224 74.758 292.914 75.447 292.914 76.297C292.914 77.147 292.225 77.836 291.375 77.836C290.524 77.836 289.836 77.147 289.836 76.297C289.836 75.447 290.524 74.758 291.375 74.758ZM316.92 205.408L318.13 208.553L315.869 206.055L313.543 213.157L314.669 205.769L311.524 206.979L314.022 204.718L306.92 202.392L314.308 203.517L313.098 200.373L315.359 202.871L317.685 195.769L316.56 203.157L319.704 201.947L317.206 204.208L324.308 206.534L316.92 205.408ZM302.785 240.343L303.075 242.866L301.896 240.618L298.861 245.362L301.074 240.183L298.552 240.474L300.8 239.295L296.056 236.26L301.234 238.473L300.944 235.95L302.123 238.199L305.158 233.455L302.945 238.633L305.467 238.343L303.219 239.522L307.963 242.556L302.785 240.343ZM316.58 185.761C316.58 184.703 317.438 183.845 318.496 183.845C319.555 183.845 320.413 184.703 320.413 185.761C320.413 186.82 319.555 187.678 318.496 187.678C317.438 187.678 316.58 186.82 316.58 185.761ZM306.68 223.909C306.68 222.905 307.494 222.092 308.497 222.092C309.5 222.092 310.314 222.906 310.314 223.909C310.314 224.912 309.5 225.726 308.497 225.726C307.494 225.726 306.68 224.912 306.68 223.909ZM289.836 255.702C289.836 254.853 290.524 254.163 291.375 254.163C292.225 254.163 292.914 254.852 292.914 255.702C292.914 256.552 292.225 257.241 291.375 257.241C290.524 257.241 289.836 256.552 289.836 255.702ZM11.317 154.768L10.541 164.129L7.049 161.733L9.44399 165.225L0.0834961 166.001L9.44399 166.777L7.049 170.269L10.541 167.874L11.317 177.235L12.093 167.874L15.585 170.269L13.19 166.777L22.551 166.001L13.19 165.225L15.585 161.733L12.093 164.129L11.317 154.768ZM14.809 126.591L13.599 123.446L15.86 125.944L18.187 118.842L17.061 126.23L20.205 125.02L17.707 127.281L24.809 129.607L17.421 128.482L18.631 131.626L16.37 129.128L14.044 136.23L15.17 128.842L12.026 130.052L14.523 127.791L7.42139 125.465L14.809 126.591ZM28.945 91.656L28.655 89.133L29.834 91.381L32.869 86.637L30.656 91.816L33.178 91.525L30.93 92.705L35.674 95.739L30.496 93.526L30.786 96.049L29.607 93.8L26.572 98.544L28.785 93.365L26.263 93.655L28.511 92.476L23.767 89.442L28.945 91.655V91.656ZM15.15 146.238C15.15 147.296 14.292 148.154 13.233 148.154C12.175 148.154 11.317 147.296 11.317 146.238C11.317 145.179 12.175 144.321 13.233 144.321C14.292 144.321 15.15 145.179 15.15 146.238ZM25.05 108.09C25.05 109.094 24.235 109.907 23.232 109.907C22.229 109.907 21.415 109.093 21.415 108.09C21.415 107.087 22.229 106.273 23.232 106.273C24.235 106.273 25.05 107.087 25.05 108.09ZM41.893 76.297C41.893 77.146 41.205 77.836 40.355 77.836C39.504 77.836 38.816 77.147 38.816 76.297C38.816 75.447 39.504 74.758 40.355 74.758C41.205 74.758 41.893 75.447 41.893 76.297ZM7.42239 206.535L14.525 204.209L12.027 201.948L15.171 203.158L14.045 195.77L16.372 202.872L18.633 200.374L17.423 203.519L24.811 202.393L17.708 204.719L20.206 206.98L17.062 205.77L18.188 213.158L15.861 206.056L13.6 208.554L14.81 205.409L7.42239 206.535ZM23.767 242.557L28.511 239.523L26.263 238.344L28.785 238.634L26.572 233.456L29.607 238.2L30.786 235.952L30.496 238.474L35.674 236.261L30.93 239.296L33.178 240.475L30.656 240.184L32.869 245.363L29.834 240.619L28.655 242.867L28.945 240.344L23.767 242.557ZM13.234 187.678C12.176 187.678 11.318 186.82 11.318 185.761C11.318 184.703 12.176 183.845 13.234 183.845C14.293 183.845 15.151 184.703 15.151 185.761C15.151 186.82 14.293 187.678 13.234 187.678ZM23.232 225.727C22.228 225.727 21.415 224.913 21.415 223.91C21.415 222.907 22.229 222.093 23.232 222.093C24.235 222.093 25.05 222.907 25.05 223.91C25.05 224.913 24.235 225.727 23.232 225.727ZM40.355 257.241C39.506 257.241 38.816 256.552 38.816 255.702C38.816 254.852 39.504 254.163 40.355 254.163C41.205 254.163 41.893 254.852 41.893 255.702C41.893 256.552 41.205 257.241 40.355 257.241ZM65.395 50.792C64.367 50.792 63.535 49.96 63.535 48.932C63.535 47.905 64.367 47.072 65.395 47.072C66.422 47.072 67.254 47.905 67.254 48.932C67.254 49.96 66.422 50.792 65.395 50.792ZM56.739 61.822C54.018 61.822 51.812 59.616 51.812 56.895C51.812 54.175 54.018 51.969 56.739 51.969C59.46 51.969 61.664 54.175 61.664 56.895C61.664 59.616 59.459 61.822 56.739 61.822ZM48.709 67.322C47.697 67.322 46.876 66.502 46.876 65.49C46.876 64.479 47.697 63.658 48.709 63.658C49.72 63.658 50.541 64.479 50.541 65.49C50.541 66.502 49.72 67.322 48.709 67.322ZM264.476 48.932C264.476 47.905 265.309 47.072 266.336 47.072C267.364 47.072 268.196 47.905 268.196 48.932C268.196 49.96 267.364 50.792 266.336 50.792C265.309 50.792 264.476 49.96 264.476 48.932ZM270.067 56.896C270.067 54.176 272.272 51.97 274.993 51.97C277.714 51.97 279.919 54.176 279.919 56.896C279.919 59.617 277.714 61.823 274.993 61.823C272.272 61.823 270.067 59.617 270.067 56.896ZM281.19 65.49C281.19 64.479 282.011 63.658 283.022 63.658C284.034 63.658 284.854 64.479 284.854 65.49C284.854 66.502 284.034 67.322 283.022 67.322C282.011 67.322 281.19 66.502 281.19 65.49ZM67.255 283.069C67.255 284.096 66.423 284.929 65.396 284.929C64.368 284.929 63.536 284.096 63.536 283.069C63.536 282.041 64.368 281.209 65.396 281.209C66.423 281.209 67.255 282.041 67.255 283.069ZM61.665 275.105C61.665 277.826 59.46 280.031 56.74 280.031C54.02 280.031 51.814 277.826 51.814 275.105C51.814 272.384 54.019 270.178 56.74 270.178C59.461 270.178 61.665 272.384 61.665 275.105ZM50.542 266.511C50.542 267.522 49.721 268.343 48.71 268.343C47.698 268.343 46.878 267.522 46.878 266.511C46.878 265.499 47.698 264.679 48.71 264.679C49.721 264.679 50.542 265.499 50.542 266.511ZM266.336 281.209C267.364 281.209 268.196 282.041 268.196 283.069C268.196 284.096 267.364 284.929 266.336 284.929C265.309 284.929 264.476 284.096 264.476 283.069C264.476 282.041 265.309 281.209 266.336 281.209ZM274.992 270.179C277.713 270.179 279.918 272.385 279.918 275.106C279.918 277.827 277.713 280.032 274.992 280.032C272.271 280.032 270.065 277.827 270.065 275.106C270.065 272.385 272.271 270.179 274.992 270.179ZM283.022 264.679C284.034 264.679 284.854 265.499 284.854 266.511C284.854 267.522 284.034 268.343 283.022 268.343C282.011 268.343 281.19 267.522 281.19 266.511C281.19 265.499 282.011 264.679 283.022 264.679Z" fill="url(#paint0_linear_413_42985)"/>
<defs>
<linearGradient id="paint0_linear_413_42985" x1="299.747" y1="311.74" x2="191.075" y2="-30.8077" gradientUnits="userSpaceOnUse">
<stop stop-color="#745142" stop-opacity="0.9"/>
<stop offset="0.760282" stop-color="#F6D1A5"/>
<stop offset="1" stop-color="#9E5F35"/>
</linearGradient>
</defs>
</svg>
