<svg width="350" height="350" viewBox="0 0 350 350" fill="none" xmlns="http://www.w3.org/2000/svg">
<path d="M174.863 303.653C157.496 303.653 140.646 300.252 124.785 293.544C117.162 290.319 109.81 286.328 102.932 281.681C96.1186 277.079 89.7133 271.793 83.8917 265.972C78.07 260.15 72.784 253.744 68.182 246.932C63.5351 240.054 59.5445 232.701 56.3199 225.078C49.6116 209.217 46.21 192.369 46.21 175C46.21 157.631 49.6116 140.783 56.3199 124.922C59.5445 117.299 63.5351 109.946 68.182 103.068C72.784 96.2553 78.07 89.85 83.8917 84.0283C89.7133 78.2067 96.1197 72.9207 102.932 68.3186C109.81 63.6718 117.162 59.6811 124.785 56.4566C140.646 49.7483 157.494 46.3466 174.863 46.3466C192.232 46.3466 209.081 49.7483 224.942 56.4566C232.564 59.6811 239.917 63.6718 246.795 68.3186C253.607 72.9207 260.014 78.2067 265.835 84.0283C271.657 89.85 276.943 96.2563 281.545 103.068C286.192 109.946 290.182 117.299 293.407 124.922C300.115 140.783 303.517 157.631 303.517 175C303.517 192.369 300.115 209.217 293.407 225.078C290.182 232.701 286.192 240.054 281.545 246.932C276.943 253.744 271.657 260.15 265.835 265.972C260.014 271.793 253.607 277.079 246.795 281.681C239.917 286.328 232.564 290.319 224.942 293.544C209.081 300.252 192.232 303.653 174.863 303.653ZM174.863 46.9623C104.263 46.9623 46.8256 104.4 46.8256 175C46.8256 245.6 104.263 303.038 174.863 303.038C245.464 303.038 302.901 245.6 302.901 175C302.901 104.4 245.465 46.9623 174.863 46.9623Z" fill="url(#paint0_linear_413_42914)"/>
<path d="M174.102 308.868C174.101 308.328 174.536 307.891 175.077 307.889C175.617 307.887 176.053 308.325 176.054 308.864C176.055 309.404 175.618 309.841 175.079 309.842H175.078C174.538 309.842 174.102 309.405 174.102 308.867V308.868ZM167.242 309.632C166.702 309.602 166.291 309.14 166.321 308.602C166.351 308.062 166.812 307.651 167.351 307.682C167.891 307.711 168.301 308.171 168.272 308.711C168.242 309.231 167.811 309.633 167.296 309.633C167.279 309.633 167.261 309.633 167.242 309.632ZM181.886 308.689C181.854 308.151 182.266 307.689 182.803 307.657C183.341 307.625 183.804 308.036 183.836 308.575C183.867 309.112 183.457 309.575 182.919 309.608C182.899 309.609 182.879 309.609 182.86 309.609C182.347 309.609 181.917 309.208 181.886 308.689ZM159.429 308.969C158.893 308.909 158.508 308.425 158.568 307.889C158.63 307.353 159.113 306.968 159.649 307.029C160.185 307.088 160.57 307.574 160.51 308.109C160.452 308.607 160.03 308.975 159.54 308.975C159.503 308.975 159.467 308.974 159.429 308.968V308.969ZM189.645 308.062C189.582 307.527 189.966 307.041 190.502 306.978C191.037 306.915 191.523 307.298 191.586 307.835C191.649 308.371 191.266 308.856 190.73 308.919C190.691 308.925 190.652 308.926 190.614 308.926C190.126 308.926 189.704 308.56 189.645 308.062ZM151.668 307.855C151.135 307.763 150.78 307.257 150.872 306.724C150.962 306.194 151.469 305.837 152.001 305.928C152.531 306.021 152.888 306.527 152.797 307.057C152.714 307.532 152.302 307.867 151.835 307.867C151.78 307.867 151.723 307.864 151.668 307.853V307.855ZM197.356 306.988C197.262 306.456 197.618 305.95 198.148 305.856C198.68 305.761 199.186 306.116 199.281 306.648C199.375 307.178 199.02 307.686 198.489 307.78H198.488C198.432 307.789 198.375 307.795 198.319 307.795C197.854 307.795 197.441 307.462 197.357 306.988H197.356ZM143.983 306.29C143.457 306.167 143.131 305.641 143.254 305.115C143.377 304.59 143.903 304.264 144.429 304.388C144.954 304.51 145.281 305.036 145.157 305.561C145.051 306.012 144.649 306.316 144.206 306.316C144.132 306.316 144.058 306.307 143.983 306.29ZM204.992 305.466C204.866 304.941 205.191 304.414 205.716 304.291C206.241 304.165 206.768 304.489 206.892 305.015C207.018 305.54 206.693 306.067 206.168 306.191C206.091 306.209 206.016 306.218 205.942 306.218C205.5 306.218 205.098 305.915 204.992 305.466ZM136.404 304.278C135.887 304.124 135.591 303.581 135.746 303.062C135.899 302.546 136.444 302.25 136.961 302.405C137.477 302.559 137.773 303.102 137.618 303.619C137.492 304.044 137.104 304.319 136.683 304.319C136.59 304.319 136.497 304.306 136.404 304.279V304.278ZM212.525 303.5C212.368 302.982 212.662 302.438 213.179 302.284C213.697 302.129 214.241 302.421 214.396 302.938C214.55 303.455 214.258 303.999 213.741 304.156C213.646 304.183 213.553 304.197 213.46 304.197C213.039 304.197 212.652 303.925 212.525 303.501V303.5ZM128.954 301.825C128.446 301.641 128.185 301.081 128.368 300.573C128.552 300.065 129.112 299.804 129.62 299.988C130.128 300.172 130.389 300.731 130.205 301.238C130.062 301.636 129.686 301.883 129.287 301.883C129.176 301.883 129.064 301.864 128.954 301.825ZM219.93 301.096C219.744 300.588 220.004 300.028 220.512 299.842C221.02 299.658 221.58 299.917 221.764 300.425C221.95 300.931 221.69 301.493 221.183 301.677C221.072 301.718 220.959 301.738 220.848 301.738C220.449 301.738 220.074 301.492 219.93 301.097V301.096ZM121.648 298.934C121.152 298.721 120.923 298.148 121.136 297.651C121.35 297.155 121.925 296.926 122.42 297.139C122.916 297.353 123.145 297.926 122.932 298.423C122.772 298.792 122.412 299.014 122.035 299.014C121.905 299.014 121.774 298.989 121.649 298.934H121.648ZM227.168 298.266C226.952 297.771 227.179 297.196 227.675 296.981C228.17 296.767 228.745 296.993 228.959 297.489C229.175 297.984 228.946 298.56 228.451 298.774C228.324 298.83 228.193 298.855 228.063 298.855C227.685 298.855 227.326 298.634 227.167 298.266H227.168ZM114.527 295.622C114.045 295.381 113.849 294.793 114.091 294.311C114.333 293.828 114.92 293.633 115.402 293.875C115.884 294.118 116.08 294.704 115.838 295.187C115.668 295.529 115.322 295.727 114.964 295.727C114.818 295.727 114.668 295.694 114.527 295.623V295.622ZM234.23 295.018C233.988 294.537 234.181 293.949 234.662 293.707C235.144 293.462 235.732 293.657 235.975 294.139C236.217 294.62 236.024 295.208 235.543 295.45C235.401 295.522 235.25 295.555 235.103 295.555C234.746 295.555 234.402 295.36 234.23 295.018ZM107.613 291.9C107.146 291.63 106.984 291.033 107.254 290.567C107.524 290.098 108.122 289.938 108.589 290.208C109.055 290.477 109.218 291.076 108.948 291.542C108.766 291.856 108.438 292.031 108.1 292.031C107.934 292.031 107.766 291.989 107.613 291.9ZM241.094 291.365C240.823 290.898 240.982 290.3 241.449 290.029C241.915 289.759 242.512 289.918 242.785 290.385C243.055 290.851 242.896 291.449 242.428 291.72C242.275 291.81 242.106 291.851 241.939 291.851C241.602 291.851 241.275 291.676 241.093 291.365H241.094ZM100.929 287.784C100.479 287.488 100.353 286.882 100.649 286.432C100.945 285.979 101.551 285.855 102.001 286.151C102.454 286.448 102.577 287.054 102.282 287.504C102.095 287.79 101.781 287.945 101.465 287.945C101.281 287.945 101.094 287.892 100.929 287.784ZM247.738 287.315C247.44 286.865 247.564 286.259 248.014 285.962C248.464 285.665 249.07 285.788 249.367 286.238C249.665 286.688 249.541 287.294 249.091 287.593C248.924 287.702 248.737 287.754 248.553 287.754C248.236 287.754 247.924 287.6 247.738 287.315ZM94.498 283.287C94.0659 282.965 93.9741 282.353 94.2974 281.921C94.6186 281.487 95.2311 281.397 95.6643 281.719C96.0964 282.041 96.1861 282.654 95.8649 283.086C95.6728 283.344 95.3783 283.479 95.0806 283.479C94.8779 283.479 94.673 283.417 94.498 283.287ZM254.135 282.887C253.811 282.455 253.901 281.843 254.333 281.52C254.765 281.196 255.377 281.286 255.701 281.718C256.023 282.15 255.934 282.762 255.502 283.086C255.327 283.216 255.121 283.279 254.919 283.279C254.621 283.279 254.326 283.144 254.135 282.887ZM88.3392 278.425C87.9252 278.079 87.8708 277.464 88.2176 277.05C88.5644 276.636 89.1811 276.581 89.594 276.928C90.008 277.274 90.0624 277.889 89.7157 278.304C89.5225 278.535 89.2451 278.653 88.9656 278.653C88.7447 278.653 88.5217 278.58 88.3381 278.426L88.3392 278.425ZM260.267 278.093C259.919 277.68 259.972 277.063 260.385 276.717C260.798 276.369 261.415 276.422 261.761 276.835C262.109 277.249 262.056 277.865 261.643 278.212C261.46 278.365 261.236 278.441 261.013 278.441C260.735 278.441 260.46 278.323 260.266 278.093H260.267ZM82.4728 273.217C82.0801 272.848 82.062 272.229 82.4311 271.836C82.8014 271.444 83.4203 271.423 83.8129 271.795C84.2056 272.164 84.2248 272.783 83.8545 273.175C83.6625 273.379 83.4021 273.484 83.1428 273.484C82.9028 273.484 82.6627 273.395 82.4728 273.218V273.217ZM266.112 272.953C265.741 272.561 265.759 271.942 266.15 271.572C266.543 271.201 267.162 271.218 267.532 271.611C267.902 272.003 267.885 272.62 267.493 272.992C267.304 273.17 267.062 273.259 266.822 273.259C266.562 273.259 266.304 273.156 266.112 272.953ZM76.9189 267.68C76.5465 267.289 76.5647 266.669 76.9563 266.298C77.3489 265.928 77.9678 265.945 78.3381 266.337C78.7083 266.728 78.6913 267.346 78.2997 267.719C78.1108 267.897 77.8696 267.985 77.6285 267.985C77.3703 267.985 77.111 267.883 76.9189 267.68ZM271.652 267.483C271.259 267.112 271.241 266.494 271.61 266.101C271.98 265.708 272.599 265.69 272.992 266.06C273.384 266.43 273.403 267.048 273.032 267.441C272.84 267.646 272.582 267.747 272.322 267.747C272.082 267.747 271.84 267.66 271.652 267.483ZM71.6948 261.832C71.347 261.419 71.4003 260.803 71.8133 260.455C72.2262 260.108 72.8419 260.161 73.1897 260.574C73.5376 260.987 73.4842 261.602 73.0713 261.95C72.8877 262.104 72.6647 262.18 72.4417 262.18C72.1643 262.18 71.8879 262.061 71.6938 261.832H71.6948ZM276.867 261.698C276.454 261.353 276.401 260.735 276.747 260.323C277.094 259.909 277.71 259.855 278.123 260.202C278.536 260.548 278.589 261.164 278.244 261.578C278.051 261.808 277.773 261.928 277.495 261.928C277.273 261.928 277.05 261.853 276.866 261.698H276.867ZM66.8185 255.693C66.4963 255.261 66.5838 254.649 67.0159 254.325C67.4481 254.003 68.0606 254.091 68.3839 254.523C68.7061 254.955 68.6186 255.567 68.1865 255.891C68.0104 256.021 67.8045 256.085 67.6017 256.085C67.304 256.085 67.0106 255.949 66.8185 255.693ZM281.741 255.622C281.309 255.301 281.22 254.688 281.541 254.255C281.863 253.823 282.475 253.733 282.908 254.054C283.341 254.377 283.432 254.989 283.108 255.421C282.916 255.679 282.622 255.815 282.324 255.815C282.121 255.815 281.916 255.752 281.741 255.622ZM62.3083 249.284C62.0116 248.834 62.1343 248.227 62.5846 247.931C63.0349 247.633 63.641 247.756 63.9397 248.207C64.2364 248.656 64.1137 249.262 63.6634 249.56C63.4969 249.67 63.3102 249.722 63.1256 249.722C62.8076 249.722 62.4971 249.569 62.3093 249.284H62.3083ZM286.257 249.273C285.807 248.976 285.681 248.37 285.977 247.92C286.273 247.47 286.879 247.345 287.329 247.642C287.78 247.937 287.906 248.543 287.609 248.993C287.422 249.279 287.111 249.434 286.793 249.434C286.608 249.434 286.422 249.381 286.257 249.273ZM58.1778 242.627C57.9068 242.16 58.0658 241.562 58.5321 241.291C58.9984 241.02 59.5959 241.179 59.8669 241.645C60.138 242.11 59.979 242.709 59.5137 242.98C59.359 243.069 59.1894 243.112 59.024 243.112C58.6879 243.112 58.3592 242.938 58.1778 242.627ZM290.395 242.669C289.929 242.399 289.769 241.802 290.037 241.335C290.307 240.867 290.905 240.707 291.372 240.977C291.839 241.247 291.999 241.844 291.73 242.312C291.548 242.626 291.221 242.801 290.883 242.801C290.717 242.801 290.549 242.758 290.395 242.669ZM54.4433 235.741C54.1989 235.259 54.3931 234.671 54.8744 234.429C55.3556 234.185 55.9435 234.379 56.1868 234.86C56.4311 235.341 56.2369 235.929 55.7557 236.172C55.6138 236.244 55.4634 236.277 55.3161 236.277C54.9587 236.277 54.6151 236.08 54.4433 235.741ZM294.144 235.836C293.663 235.594 293.467 235.007 293.71 234.525C293.951 234.042 294.539 233.847 295.021 234.09C295.503 234.332 295.698 234.92 295.456 235.402C295.284 235.743 294.939 235.94 294.581 235.94C294.435 235.94 294.284 235.907 294.143 235.836H294.144ZM51.1174 228.652C50.9019 228.157 51.1281 227.582 51.6232 227.367C52.1183 227.152 52.6934 227.378 52.9089 227.875C53.1234 228.369 52.8961 228.944 52.401 229.16C52.274 229.215 52.1428 229.241 52.0126 229.241C51.6349 229.241 51.2753 229.02 51.1163 228.652H51.1174ZM297.488 228.793C296.993 228.579 296.764 228.004 296.977 227.509C297.191 227.014 297.766 226.785 298.261 226.998C298.757 227.212 298.986 227.787 298.772 228.283H298.773C298.613 228.652 298.253 228.873 297.874 228.873C297.746 228.873 297.613 228.847 297.488 228.793ZM48.2119 221.383C48.0262 220.878 48.2855 220.315 48.7934 220.13C49.2992 219.945 49.8615 220.204 50.0461 220.712C50.2318 221.218 49.9725 221.779 49.4646 221.965C49.3536 222.005 49.2405 222.026 49.1295 222.026C48.7305 222.026 48.356 221.78 48.2119 221.384V221.383ZM300.415 221.564C299.907 221.38 299.647 220.82 299.83 220.312C300.014 219.804 300.574 219.543 301.082 219.727C301.59 219.911 301.851 220.471 301.668 220.979H301.667C301.523 221.377 301.148 221.623 300.749 221.623C300.638 221.623 300.525 221.605 300.415 221.565V221.564ZM45.7311 213.944C45.5764 213.427 45.8687 212.882 46.3852 212.728C46.9027 212.571 47.4469 212.864 47.6016 213.382C47.7584 213.898 47.465 214.442 46.9486 214.598C46.8536 214.626 46.7586 214.64 46.6658 214.64C46.2454 214.64 45.8591 214.367 45.7311 213.944ZM302.91 214.188C302.392 214.035 302.098 213.491 302.253 212.973C302.406 212.457 302.949 212.161 303.467 212.316C303.984 212.469 304.279 213.014 304.124 213.531C303.998 213.955 303.609 214.229 303.188 214.229C303.096 214.229 303.003 214.215 302.91 214.188ZM43.691 206.371C43.5661 205.846 43.8905 205.319 44.4155 205.196C44.9404 205.07 45.4675 205.394 45.5924 205.92C45.7172 206.445 45.3928 206.971 44.8679 207.096C44.791 207.114 44.7153 207.123 44.6406 207.123C44.1999 207.123 43.7987 206.821 43.691 206.371ZM304.967 206.678C304.441 206.556 304.116 206.029 304.239 205.504C304.362 204.978 304.888 204.653 305.414 204.776C305.939 204.899 306.266 205.425 306.142 205.951C306.036 206.4 305.634 206.704 305.191 206.704C305.118 206.704 305.042 206.696 304.967 206.678ZM42.0979 198.693C42.0029 198.161 42.3583 197.654 42.8896 197.56C43.4199 197.465 43.9278 197.819 44.0217 198.352C44.1167 198.882 43.7614 199.39 43.2311 199.484C43.1735 199.493 43.1158 199.499 43.0582 199.499C42.5941 199.499 42.1811 199.166 42.0979 198.693ZM306.58 199.061C306.05 198.968 305.694 198.463 305.787 197.932C305.879 197.4 306.385 197.045 306.916 197.136C307.446 197.229 307.803 197.735 307.711 198.266C307.629 198.74 307.215 199.075 306.75 199.075C306.695 199.075 306.638 199.07 306.582 199.06L306.58 199.061ZM40.9551 190.935C40.8922 190.399 41.2752 189.914 41.8109 189.851C42.3465 189.787 42.832 190.171 42.896 190.707C42.959 191.242 42.5759 191.728 42.0392 191.791C42.0008 191.796 41.9624 191.798 41.925 191.798C41.4364 191.798 41.0138 191.432 40.9562 190.935H40.9551ZM307.747 191.365C307.211 191.303 306.826 190.82 306.887 190.284H306.888C306.949 189.747 307.432 189.363 307.969 189.424C308.504 189.486 308.888 189.969 308.829 190.505C308.771 191.003 308.348 191.37 307.858 191.37C307.82 191.37 307.784 191.369 307.746 191.364L307.747 191.365ZM40.2637 183.124C40.2317 182.587 40.6414 182.123 41.1813 182.091C41.7191 182.059 42.1811 182.471 42.2142 183.009C42.2451 183.547 41.8354 184.01 41.2966 184.042C41.2774 184.043 41.2571 184.043 41.2379 184.043C40.7247 184.043 40.2946 183.643 40.2637 183.124ZM308.464 183.613C307.924 183.582 307.513 183.12 307.543 182.582C307.574 182.042 308.036 181.632 308.574 181.661C309.114 181.692 309.524 182.153 309.494 182.692C309.465 183.212 309.034 183.615 308.519 183.615C308.501 183.615 308.482 183.615 308.464 183.614V183.613ZM40.0215 175.285C40.0215 175.236 40.0247 175.188 40.0322 175.141C40.0247 175.094 40.0215 175.047 40.0215 174.998C40.0215 174.458 40.459 174.022 40.9989 174.022C41.5388 174.022 41.9752 174.459 41.9752 174.998C41.9752 175.046 41.972 175.093 41.9656 175.14C41.972 175.186 41.9752 175.234 41.9752 175.282C41.9763 175.822 41.5409 176.259 40.9999 176.261H40.9989C40.459 176.261 40.0226 175.824 40.0215 175.286V175.285ZM307.755 174.856C307.755 174.316 308.193 173.879 308.73 173.879C309.271 173.878 309.708 174.315 309.709 174.854C309.709 175.394 309.271 175.831 308.733 175.831C308.193 175.832 307.756 175.395 307.755 174.856ZM41.1653 168.191C40.6254 168.161 40.2146 167.698 40.2456 167.161C40.2765 166.623 40.7385 166.21 41.2763 166.242C41.8162 166.273 42.227 166.735 42.1961 167.273C42.1662 167.792 41.7351 168.194 41.2219 168.194C41.2037 168.194 41.1835 168.193 41.1653 168.191ZM307.526 167.129C307.495 166.591 307.907 166.129 308.445 166.097C308.982 166.065 309.445 166.477 309.476 167.016C309.508 167.553 309.098 168.015 308.558 168.047C308.539 168.048 308.519 168.048 308.5 168.048C307.987 168.048 307.557 167.648 307.526 167.129ZM41.7789 160.432C41.2422 160.369 40.858 159.886 40.921 159.349C40.9829 158.812 41.4673 158.428 42.004 158.491C42.5396 158.553 42.9238 159.038 42.8619 159.574C42.8043 160.071 42.3817 160.439 41.893 160.439C41.8546 160.439 41.8183 160.436 41.7799 160.432H41.7789ZM306.854 159.431C306.791 158.896 307.175 158.41 307.71 158.347C308.246 158.284 308.732 158.668 308.795 159.204C308.856 159.74 308.473 160.225 307.938 160.288C307.898 160.291 307.86 160.294 307.824 160.294C307.335 160.294 306.912 159.928 306.855 159.431H306.854ZM42.8405 152.72C42.3102 152.627 41.9538 152.121 42.0467 151.589C42.1406 151.058 42.6463 150.702 43.1788 150.796C43.7091 150.889 44.0655 151.394 43.9716 151.927C43.8894 152.401 43.4765 152.735 43.0113 152.735C42.9547 152.735 42.8982 152.729 42.8416 152.72H42.8405ZM305.735 151.785C305.641 151.255 305.997 150.747 306.527 150.653C307.06 150.559 307.565 150.914 307.659 151.446C307.753 151.976 307.398 152.484 306.866 152.578C306.81 152.587 306.753 152.593 306.697 152.593C306.232 152.593 305.819 152.259 305.736 151.785H305.735ZM44.3504 145.083C43.8254 144.958 43.501 144.433 43.6237 143.907C43.7486 143.382 44.2735 143.058 44.7985 143.181C45.3246 143.305 45.65 143.833 45.5252 144.356C45.4195 144.806 45.0194 145.109 44.5755 145.109C44.5019 145.109 44.4251 145.1 44.3504 145.083ZM304.173 144.218C304.048 143.692 304.373 143.166 304.898 143.042C305.424 142.917 305.95 143.241 306.074 143.767C306.2 144.292 305.874 144.818 305.349 144.942C305.272 144.96 305.197 144.969 305.123 144.969C304.681 144.969 304.279 144.666 304.173 144.218ZM46.3051 137.547C45.7876 137.393 45.4931 136.849 45.6489 136.331C45.8026 135.814 46.3468 135.519 46.8643 135.675C47.3818 135.829 47.6763 136.373 47.5205 136.891C47.3935 137.314 47.0062 137.587 46.5847 137.587C46.4919 137.587 46.399 137.574 46.3051 137.547ZM302.17 136.754H302.169C302.016 136.236 302.308 135.692 302.825 135.538C303.342 135.383 303.886 135.675 304.041 136.193C304.196 136.71 303.903 137.254 303.386 137.409C303.292 137.438 303.197 137.45 303.105 137.45C302.685 137.45 302.297 137.176 302.17 136.754ZM48.6974 130.138C48.1895 129.954 47.9291 129.394 48.1137 128.886C48.2973 128.378 48.8575 128.117 49.3654 128.302C49.8733 128.487 50.1336 129.047 49.949 129.555C49.805 129.952 49.4304 130.197 49.0314 130.197C48.9204 130.197 48.8073 130.178 48.6974 130.138ZM299.733 129.42C299.549 128.913 299.808 128.352 300.316 128.168C300.822 127.982 301.384 128.242 301.569 128.75C301.753 129.256 301.494 129.818 300.986 130.003C300.875 130.043 300.763 130.062 300.651 130.062C300.253 130.062 299.877 129.816 299.733 129.42ZM51.5239 122.87C51.0288 122.655 50.8005 122.08 51.015 121.585C51.2284 121.09 51.8035 120.861 52.2996 121.075C52.7947 121.29 53.0231 121.865 52.8086 122.36C52.6496 122.729 52.29 122.95 51.9123 122.95C51.7832 122.95 51.6509 122.924 51.5239 122.87ZM296.876 122.255H296.877C296.663 121.759 296.891 121.185 297.384 120.97C297.88 120.755 298.455 120.983 298.67 121.479C298.884 121.974 298.656 122.549 298.161 122.763C298.034 122.819 297.902 122.844 297.772 122.844C297.394 122.844 297.035 122.623 296.875 122.255H296.876ZM54.773 115.781C54.2907 115.538 54.0965 114.951 54.3387 114.469C54.5809 113.987 55.1689 113.793 55.6511 114.036C56.1324 114.278 56.3276 114.866 56.0844 115.347C55.9136 115.689 55.5679 115.885 55.2115 115.885C55.0632 115.885 54.9138 115.852 54.773 115.781ZM293.607 115.264C293.363 114.783 293.558 114.195 294.039 113.953C294.52 113.711 295.108 113.904 295.35 114.385C295.593 114.866 295.399 115.454 294.918 115.697C294.777 115.768 294.628 115.802 294.479 115.802C294.121 115.802 293.777 115.605 293.607 115.264ZM58.4286 108.896C57.9602 108.625 57.8012 108.028 58.0711 107.561C58.3422 107.095 58.9397 106.935 59.406 107.205C59.8723 107.475 60.0323 108.073 59.7634 108.539C59.582 108.853 59.2534 109.027 58.9162 109.027C58.7498 109.027 58.5822 108.985 58.4286 108.895V108.896ZM289.932 108.475C289.662 108.008 289.821 107.411 290.288 107.14C290.754 106.87 291.352 107.029 291.623 107.496C291.894 107.963 291.735 108.56 291.267 108.831C291.113 108.921 290.944 108.962 290.779 108.962C290.442 108.962 290.113 108.787 289.932 108.475ZM62.4769 102.237C62.0266 101.94 61.9017 101.334 62.1984 100.884C62.495 100.435 63.1011 100.309 63.5513 100.607C64.0016 100.903 64.1265 101.508 63.8298 101.959C63.641 102.244 63.3294 102.398 63.0125 102.398C62.829 102.398 62.6422 102.347 62.4769 102.237ZM285.869 101.909H285.868C285.571 101.459 285.695 100.853 286.146 100.556C286.595 100.259 287.202 100.383 287.499 100.834C287.796 101.283 287.672 101.89 287.222 102.187C287.055 102.297 286.868 102.348 286.684 102.348C286.367 102.348 286.055 102.194 285.869 101.909ZM66.9039 95.8274C66.4718 95.5052 66.3832 94.8927 66.7054 94.4606C67.0277 94.0284 67.6402 93.9388 68.0723 94.261C68.5044 94.5833 68.5941 95.1958 68.2718 95.6279C68.0798 95.8851 67.7853 96.0216 67.4876 96.0216C67.2848 96.0216 67.08 95.9576 66.9039 95.8274ZM281.429 95.5884C281.106 95.1563 281.195 94.5427 281.627 94.2205C282.059 93.8983 282.672 93.9868 282.994 94.42C283.316 94.8522 283.228 95.4646 282.796 95.7869C282.621 95.9171 282.415 95.98 282.212 95.98C281.914 95.98 281.621 95.8445 281.429 95.5884ZM71.6959 89.6857C71.283 89.3378 71.2296 88.7222 71.5764 88.3092C71.9232 87.8963 72.5399 87.844 72.9528 88.1897C73.3658 88.5376 73.4191 89.1543 73.0723 89.5662C72.8792 89.7966 72.6018 89.9151 72.3233 89.9151C72.1014 89.9151 71.8783 89.8404 71.6948 89.6857H71.6959ZM276.629 89.5331C276.281 89.1191 276.336 88.5034 276.749 88.1566C277.162 87.8099 277.778 87.8621 278.125 88.2761C278.473 88.6891 278.419 89.3048 278.006 89.6515C277.822 89.8052 277.599 89.882 277.377 89.882C277.099 89.882 276.821 89.7625 276.628 89.5331H276.629ZM76.8336 83.8342C76.4409 83.4639 76.4238 82.845 76.7941 82.4524C77.1633 82.0608 77.7832 82.0426 78.1748 82.4129C78.5675 82.7831 78.5845 83.402 78.2143 83.7936C78.0222 83.9985 77.764 84.0998 77.5037 84.0998C77.2636 84.0998 77.0224 84.0113 76.8336 83.8342ZM271.487 83.7637C271.116 83.3721 271.134 82.7543 271.527 82.383C271.918 82.0128 272.536 82.0298 272.908 82.4225C273.278 82.8141 273.261 83.4319 272.868 83.8032C272.679 83.9814 272.438 84.07 272.198 84.07C271.939 84.07 271.679 83.9665 271.487 83.7637ZM82.2999 78.2889C81.9296 77.8962 81.9478 77.2773 82.3394 76.9081C82.732 76.5379 83.3509 76.556 83.7212 76.9476C84.0903 77.3403 84.0733 77.9592 83.6806 78.3294C83.4918 78.5065 83.2506 78.5951 83.0105 78.5951C82.7502 78.5951 82.492 78.4916 82.2999 78.2889ZM266.019 78.3017C265.626 77.9314 265.608 77.3125 265.978 76.9209C266.349 76.5283 266.967 76.5101 267.359 76.8804C267.752 77.2496 267.77 77.8685 267.4 78.2611C267.208 78.4639 266.949 78.5674 266.689 78.5674C266.449 78.5674 266.208 78.4788 266.019 78.3017ZM88.0757 73.0701C87.7278 72.6572 87.7822 72.0415 88.1952 71.6947C88.6092 71.3479 89.2248 71.4013 89.5716 71.8142C89.9184 72.2282 89.865 72.8439 89.4521 73.1907C89.2686 73.3432 89.0456 73.419 88.8236 73.419C88.5452 73.419 88.2688 73.3006 88.0746 73.0701H88.0757ZM260.243 73.1629C259.829 72.8161 259.775 72.1994 260.123 71.7865C260.47 71.3735 261.086 71.3202 261.499 71.6659C261.912 72.0137 261.965 72.6305 261.619 73.0423C261.425 73.2728 261.149 73.3913 260.869 73.3913C260.648 73.3913 260.424 73.3166 260.243 73.1629ZM94.1427 68.1959C93.8205 67.7638 93.909 67.1513 94.3412 66.8291C94.7744 66.5069 95.3869 66.5954 95.7091 67.0276C96.0303 67.4608 95.9417 68.0732 95.5096 68.3955C95.3335 68.5257 95.1286 68.5886 94.9259 68.5886C94.6282 68.5886 94.3337 68.4531 94.1427 68.1959ZM254.177 68.3645C253.745 68.0423 253.655 67.4298 253.978 66.9977C254.3 66.5655 254.912 66.4759 255.344 66.7982C255.777 67.1193 255.866 67.7329 255.544 68.165C255.353 68.4222 255.058 68.5577 254.761 68.5577C254.558 68.5577 254.353 68.4947 254.177 68.3645ZM100.48 63.6814C100.183 63.2311 100.307 62.6251 100.758 62.3284C101.207 62.0318 101.813 62.1556 102.11 62.6069C102.408 63.0572 102.284 63.6633 101.833 63.9599C101.666 64.0687 101.481 64.121 101.296 64.121C100.978 64.121 100.666 63.9663 100.48 63.6814ZM247.843 63.9268C247.393 63.6302 247.268 63.0241 247.565 62.5738C247.861 62.1236 248.468 61.9987 248.918 62.2953C249.368 62.592 249.493 63.198 249.196 63.6473C249.01 63.9332 248.698 64.0879 248.38 64.0879C248.195 64.0879 248.01 64.0346 247.843 63.9268ZM107.065 59.5435C106.795 59.0751 106.954 58.4786 107.423 58.2087C107.889 57.9376 108.487 58.0977 108.758 58.5651C109.028 59.0313 108.868 59.6289 108.4 59.8999C108.247 59.9885 108.078 60.0322 107.913 60.0322C107.575 60.0322 107.247 59.8572 107.065 59.5446V59.5435ZM241.262 59.8625C240.794 59.5915 240.635 58.994 240.904 58.5277C241.174 58.0614 241.772 57.9003 242.238 58.1703H242.239C242.706 58.4402 242.866 59.0367 242.597 59.5051C242.414 59.8177 242.087 59.9927 241.75 59.9927C241.583 59.9927 241.416 59.9511 241.262 59.8625ZM113.879 55.7961C113.637 55.3139 113.831 54.7259 114.313 54.4837C114.795 54.2415 115.383 54.4357 115.625 54.9169C115.867 55.3992 115.673 55.9861 115.192 56.2294C115.05 56.2998 114.899 56.3329 114.753 56.3329C114.395 56.3329 114.051 56.1365 113.879 55.7961ZM234.451 56.1877H234.452C233.97 55.9455 233.775 55.3576 234.018 54.8764C234.259 54.3952 234.847 54.1988 235.329 54.4421C235.811 54.6843 236.006 55.2722 235.763 55.7535C235.592 56.0949 235.246 56.2912 234.89 56.2912C234.741 56.2912 234.593 56.2582 234.451 56.1877ZM120.898 52.4521C120.684 51.957 120.913 51.3819 121.408 51.1674C121.903 50.953 122.478 51.1813 122.693 51.6764C122.907 52.1726 122.678 52.7466 122.183 52.9621C122.057 53.0166 121.926 53.0422 121.797 53.0422C121.419 53.0422 121.059 52.8213 120.899 52.4521H120.898ZM227.439 52.9163C226.944 52.7018 226.714 52.1267 226.929 51.6316C227.142 51.1365 227.717 50.9071 228.212 51.1215C228.707 51.3349 228.937 51.9101 228.723 52.4052C228.563 52.7744 228.204 52.9963 227.826 52.9963C227.697 52.9952 227.565 52.9707 227.44 52.9163H227.439ZM128.098 49.5264C127.914 49.0195 128.175 48.4583 128.681 48.2737C129.189 48.0891 129.749 48.3505 129.934 48.8563C130.119 49.3642 129.857 49.9244 129.351 50.1089C129.24 50.1495 129.127 50.1698 129.016 50.1698C128.617 50.1698 128.242 49.9233 128.098 49.5264ZM220.243 50.0609C219.735 49.8763 219.475 49.3162 219.658 48.8083C219.843 48.3004 220.403 48.04 220.911 48.2235C221.419 48.4081 221.679 48.9683 221.495 49.4762C221.35 49.8731 220.976 50.1207 220.577 50.1207C220.466 50.1207 220.354 50.1015 220.243 50.062V50.0609ZM135.469 47.021C135.315 46.5035 135.607 45.9593 136.124 45.8046C136.642 45.6499 137.186 45.9433 137.34 46.4597C137.495 46.9772 137.202 47.5214 136.685 47.6761C136.591 47.705 136.498 47.7178 136.404 47.7178C135.984 47.7178 135.596 47.4435 135.469 47.021ZM212.905 47.6356C212.386 47.4809 212.093 46.9356 212.248 46.4203C212.401 45.9028 212.945 45.6083 213.463 45.763C213.98 45.9166 214.275 46.4608 214.119 46.9783C213.993 47.4019 213.605 47.6761 213.183 47.6761C213.091 47.6761 212.998 47.6623 212.905 47.6356ZM142.975 44.9521C142.85 44.426 143.175 43.9 143.7 43.7762C144.226 43.6514 144.752 43.9768 144.876 44.5018C145.001 45.0278 144.676 45.5538 144.151 45.6776C144.074 45.6947 143.999 45.7032 143.924 45.7032C143.483 45.7032 143.08 45.4013 142.975 44.9521ZM205.438 45.6445C204.913 45.5218 204.586 44.9958 204.711 44.4698C204.834 43.9448 205.36 43.6183 205.886 43.7431C206.411 43.8658 206.735 44.3919 206.613 44.9179C206.507 45.3671 206.105 45.6702 205.663 45.6702C205.588 45.6702 205.513 45.6616 205.438 45.6445ZM150.589 43.3259C150.495 42.7956 150.851 42.2888 151.382 42.1949C151.914 42.101 152.42 42.4563 152.514 42.9877C152.607 43.518 152.251 44.0259 151.721 44.1187C151.663 44.1294 151.607 44.1337 151.55 44.1337C151.085 44.1337 150.673 43.7997 150.59 43.3259H150.589ZM197.867 44.0942H197.868C197.336 44.0013 196.981 43.4956 197.072 42.9631C197.166 42.4328 197.671 42.0764 198.202 42.1693C198.735 42.2632 199.09 42.7689 198.996 43.3003C198.914 43.7751 198.501 44.1091 198.036 44.1091C197.979 44.1091 197.923 44.1038 197.866 44.0942H197.867ZM158.285 42.1469C158.222 41.6112 158.607 41.1257 159.142 41.0638C159.678 41.0009 160.163 41.385 160.225 41.9207C160.288 42.4563 159.904 42.9418 159.368 43.0047C159.33 43.0079 159.292 43.0111 159.255 43.0111C158.766 43.0111 158.343 42.6441 158.286 42.1469H158.285ZM190.22 42.9877C189.683 42.9258 189.299 42.4424 189.36 41.9047C189.422 41.369 189.906 40.9849 190.443 41.0468C190.979 41.1087 191.364 41.592 191.301 42.1298C191.244 42.627 190.822 42.9941 190.332 42.9941C190.295 42.9941 190.257 42.993 190.22 42.9877ZM166.035 41.416C166.003 40.8782 166.416 40.4162 166.954 40.3852C167.492 40.3532 167.954 40.7651 167.986 41.3039C168.017 41.8417 167.605 42.3037 167.067 42.3347C167.048 42.3357 167.029 42.3368 167.009 42.3368C166.496 42.3368 166.065 41.9356 166.035 41.416ZM182.519 42.3272C181.982 42.2962 181.569 41.8342 181.6 41.2964C181.631 40.7565 182.093 40.3457 182.63 40.3767C183.17 40.4076 183.581 40.8686 183.55 41.4074C183.52 41.9271 183.091 42.3283 182.576 42.3283C182.558 42.3283 182.539 42.3283 182.519 42.3272ZM173.818 41.1343C173.817 40.5943 174.254 40.1569 174.793 40.1569C175.333 40.1569 175.771 40.5944 175.771 41.1332C175.771 41.6731 175.333 42.1106 174.794 42.1106C174.254 42.1106 173.818 41.6731 173.818 41.1343Z" fill="url(#paint1_linear_413_42914)"/>
<path d="M174.864 315.218C155.935 315.218 137.571 311.51 120.285 304.199C111.976 300.685 103.963 296.335 96.4668 291.271C89.0424 286.255 82.0599 280.494 75.7154 274.149C69.3698 267.804 63.6101 260.822 58.594 253.398C53.53 245.902 49.1797 237.888 45.6661 229.58C38.3549 212.293 34.647 193.93 34.647 175.001C34.647 156.072 38.3549 137.709 45.6661 120.422C49.1797 112.113 53.53 104.1 58.594 96.6042C63.6101 89.1799 69.3709 82.1973 75.7154 75.8529C82.0609 69.5073 89.0424 63.7476 96.4668 58.7315C103.963 53.6674 111.977 49.3172 120.285 45.8035C137.571 38.4913 155.935 34.7844 174.864 34.7844C193.793 34.7844 212.156 38.4923 229.443 45.8035C237.752 49.3183 245.765 53.6674 253.261 58.7315C260.685 63.7476 267.668 69.5084 274.012 75.8529C280.356 82.1984 286.117 89.1799 291.133 96.6042C296.197 104.1 300.548 112.113 304.061 120.422C311.374 137.709 315.08 156.072 315.08 175.001C315.08 193.93 311.373 212.293 304.061 229.58C300.548 237.889 296.197 245.902 291.133 253.398C286.117 260.822 280.356 267.805 274.012 274.149C267.666 280.494 260.685 286.255 253.261 291.271C245.765 296.335 237.751 300.685 229.443 304.199C212.156 311.511 193.793 315.218 174.864 315.218ZM174.864 35.3969C97.887 35.3969 35.2616 98.0223 35.2616 174.999C35.2616 251.976 97.887 314.601 174.864 314.601C251.84 314.601 314.466 251.976 314.466 174.999C314.466 98.0223 251.842 35.3969 174.864 35.3969Z" fill="url(#paint2_linear_413_42914)"/>
<path d="M174.864 343.44C163.436 343.44 152.015 342.289 140.918 340.018C130.103 337.806 119.465 334.503 109.299 330.203C99.3183 325.982 89.6917 320.757 80.6872 314.673C71.768 308.647 63.3812 301.726 55.7584 294.105C48.1367 286.483 41.2161 278.095 35.1906 269.176C29.1075 260.171 23.8824 250.545 19.6602 240.564C15.3601 230.398 12.0587 219.76 9.84575 208.945C7.57514 197.848 6.42383 186.427 6.42383 174.999C6.42383 163.571 7.57514 152.15 9.84575 141.053C12.0587 130.238 15.3612 119.599 19.6602 109.434C23.8813 99.4531 29.1065 89.8265 35.1906 80.8219C41.2161 71.9027 48.1367 63.516 55.7584 55.8932C63.3801 48.2715 71.768 41.3508 80.6872 35.3254C89.6917 29.2423 99.3183 24.0171 109.299 19.7949C119.465 15.4949 130.103 12.1935 140.918 9.98052C152.015 7.70991 163.436 6.55859 174.864 6.55859C186.292 6.55859 197.713 7.70991 208.81 9.98052C219.626 12.1935 230.264 15.4959 240.429 19.7949C250.41 24.0161 260.037 29.2412 269.041 35.3254C277.96 41.3508 286.347 48.2715 293.97 55.8932C301.592 63.516 308.512 71.9027 314.538 80.8219C320.621 89.8265 325.846 99.4531 330.068 109.434C334.368 119.599 337.67 130.238 339.884 141.053C342.154 152.15 343.306 163.571 343.306 174.999C343.306 186.427 342.154 197.848 339.884 208.945C337.671 219.76 334.368 230.398 330.068 240.564C325.847 250.545 320.622 260.171 314.538 269.176C308.512 278.095 301.592 286.482 293.97 294.105C286.348 301.726 277.96 308.647 269.041 314.673C260.037 320.756 250.41 325.981 240.429 330.203C230.264 334.503 219.626 337.804 208.81 340.018C197.713 342.289 186.292 343.44 174.864 343.44ZM174.864 7.17106C82.3229 7.17106 7.03523 82.4587 7.03523 175C7.03523 267.541 82.3229 342.829 174.864 342.829C267.406 342.829 342.693 267.541 342.693 175C342.693 82.4587 267.406 7.17106 174.864 7.17106Z" fill="url(#paint3_linear_413_42914)"/>
<path d="M174.171 348.307C174.169 347.644 174.705 347.106 175.369 347.103C176.031 347.101 176.57 347.637 176.573 348.301C176.574 348.963 176.039 349.502 175.375 349.504H175.372C174.71 349.504 174.173 348.97 174.172 348.307H174.171ZM170.542 349.452C169.879 349.436 169.354 348.885 169.371 348.223C169.387 347.56 169.937 347.035 170.6 347.051C171.263 347.067 171.788 347.618 171.772 348.28C171.756 348.934 171.221 349.453 170.572 349.453C170.563 349.453 170.553 349.453 170.542 349.452ZM178.972 348.261C178.953 347.597 179.473 347.045 180.136 347.024C180.799 347.005 181.351 347.526 181.372 348.189C181.393 348.851 180.871 349.405 180.209 349.425C180.197 349.425 180.184 349.426 180.171 349.426C179.525 349.425 178.991 348.912 178.972 348.261ZM165.711 349.268C165.049 349.235 164.539 348.67 164.575 348.008C164.609 347.346 165.173 346.836 165.836 346.871C166.498 346.905 167.007 347.469 166.972 348.132C166.939 348.773 166.41 349.272 165.774 349.272C165.753 349.272 165.732 349.271 165.711 349.269V349.268ZM183.77 348.084C183.732 347.421 184.239 346.855 184.899 346.816C185.562 346.778 186.129 347.283 186.168 347.945C186.206 348.607 185.699 349.175 185.037 349.213C185.013 349.214 184.991 349.215 184.967 349.215C184.336 349.215 183.807 348.721 183.769 348.083L183.77 348.084ZM160.887 348.954C160.226 348.9 159.734 348.323 159.786 347.662C159.837 347 160.416 346.508 161.077 346.559C161.738 346.613 162.232 347.191 162.179 347.851C162.13 348.481 161.604 348.957 160.983 348.957C160.951 348.957 160.919 348.956 160.887 348.954ZM188.562 347.775C188.506 347.114 188.995 346.534 189.656 346.476C190.317 346.421 190.899 346.91 190.956 347.571C191.011 348.231 190.521 348.814 189.861 348.869C189.827 348.873 189.791 348.875 189.757 348.875C189.141 348.875 188.616 348.402 188.562 347.775ZM156.075 348.504C155.414 348.434 154.938 347.842 155.008 347.183C155.078 346.523 155.67 346.047 156.329 346.116C156.989 346.188 157.465 346.779 157.396 347.437C157.33 348.053 156.81 348.511 156.204 348.511C156.161 348.511 156.117 348.509 156.075 348.503V348.504ZM193.344 347.335C193.269 346.676 193.743 346.081 194.401 346.008C195.059 345.933 195.655 346.407 195.728 347.065C195.803 347.724 195.329 348.319 194.67 348.393C194.624 348.399 194.579 348.401 194.533 348.401C193.931 348.401 193.412 347.947 193.342 347.334L193.344 347.335ZM151.276 347.924C150.619 347.835 150.158 347.23 150.247 346.574C150.335 345.917 150.94 345.456 151.598 345.545C152.254 345.633 152.715 346.238 152.626 346.895C152.545 347.497 152.03 347.935 151.437 347.935C151.384 347.935 151.331 347.931 151.276 347.924ZM198.11 346.764C198.017 346.108 198.475 345.5 199.131 345.407C199.788 345.314 200.395 345.772 200.488 346.428C200.581 347.084 200.123 347.692 199.467 347.785C199.411 347.793 199.354 347.796 199.299 347.796C198.708 347.796 198.195 347.364 198.11 346.764ZM146.494 347.211C145.839 347.105 145.395 346.486 145.503 345.832C145.609 345.177 146.227 344.733 146.882 344.84C147.536 344.947 147.979 345.565 147.873 346.22C147.777 346.809 147.267 347.226 146.689 347.226C146.625 347.226 146.56 347.221 146.495 347.211H146.494ZM202.859 346.06C202.748 345.406 203.188 344.787 203.842 344.676C204.496 344.565 205.115 345.005 205.226 345.659C205.337 346.313 204.897 346.934 204.243 347.043C204.176 347.054 204.108 347.06 204.041 347.06C203.466 347.06 202.957 346.646 202.859 346.06ZM141.734 346.364C141.082 346.238 140.656 345.611 140.781 344.959C140.907 344.308 141.536 343.881 142.188 344.006C142.837 344.132 143.265 344.76 143.139 345.412C143.028 345.986 142.526 346.386 141.962 346.386C141.888 346.386 141.811 346.379 141.734 346.364ZM207.587 345.224C207.458 344.575 207.881 343.942 208.53 343.813C209.182 343.684 209.814 344.106 209.943 344.757C210.071 345.407 209.649 346.039 208.999 346.169C208.92 346.184 208.841 346.191 208.764 346.191C208.203 346.191 207.701 345.796 207.588 345.224H207.587ZM136.999 345.386C136.351 345.242 135.942 344.601 136.086 343.954C136.229 343.306 136.869 342.897 137.517 343.041C138.165 343.184 138.574 343.826 138.431 344.472C138.306 345.032 137.81 345.414 137.258 345.414C137.173 345.414 137.085 345.405 136.998 345.387L136.999 345.386ZM212.291 344.258C212.142 343.611 212.548 342.967 213.194 342.82C213.841 342.674 214.485 343.078 214.632 343.725C214.778 344.372 214.373 345.014 213.728 345.161C213.638 345.183 213.547 345.192 213.461 345.192C212.913 345.192 212.416 344.815 212.292 344.258H212.291ZM132.293 344.275C131.65 344.114 131.26 343.461 131.42 342.818C131.581 342.176 132.234 341.785 132.877 341.947C133.519 342.108 133.911 342.76 133.75 343.403C133.613 343.947 133.123 344.312 132.584 344.312C132.488 344.311 132.39 344.3 132.293 344.275ZM216.964 343.161C216.799 342.518 217.186 341.864 217.827 341.699C218.47 341.534 219.124 341.921 219.29 342.563C219.454 343.205 219.067 343.86 218.426 344.025C218.326 344.05 218.225 344.062 218.127 344.062C217.591 344.062 217.104 343.703 216.964 343.161ZM127.62 343.034C126.981 342.856 126.61 342.193 126.788 341.554C126.969 340.916 127.63 340.542 128.268 340.723C128.907 340.901 129.28 341.565 129.099 342.203C128.951 342.732 128.469 343.08 127.944 343.08C127.837 343.08 127.728 343.065 127.618 343.034H127.62ZM221.606 341.933C221.423 341.296 221.791 340.631 222.428 340.447C223.066 340.265 223.731 340.633 223.914 341.271C224.097 341.908 223.728 342.573 223.091 342.756C222.98 342.787 222.869 342.803 222.759 342.803C222.237 342.803 221.757 342.46 221.606 341.933ZM122.983 341.663C122.351 341.465 121.996 340.793 122.194 340.16C122.391 339.527 123.063 339.172 123.696 339.37C124.33 339.567 124.684 340.239 124.487 340.873C124.327 341.386 123.853 341.717 123.34 341.717C123.221 341.717 123.102 341.7 122.982 341.663H122.983ZM226.212 340.576C226.011 339.945 226.361 339.268 226.993 339.069C227.625 338.868 228.3 339.218 228.501 339.85C228.701 340.482 228.351 341.157 227.72 341.358C227.599 341.396 227.477 341.414 227.357 341.414C226.847 341.414 226.375 341.088 226.213 340.576H226.212ZM118.372 340.156C117.745 339.942 117.41 339.26 117.624 338.632C117.838 338.004 118.521 337.669 119.148 337.884C119.777 338.099 120.11 338.781 119.896 339.409C119.727 339.906 119.259 340.221 118.761 340.221C118.632 340.221 118.501 340.2 118.372 340.156ZM230.778 339.092C230.56 338.466 230.891 337.781 231.516 337.563C232.142 337.346 232.826 337.675 233.045 338.303C233.263 338.928 232.932 339.613 232.307 339.831C232.176 339.877 232.042 339.898 231.912 339.898C231.416 339.898 230.952 339.587 230.778 339.092ZM113.805 338.524C113.184 338.292 112.868 337.6 113.101 336.98C113.332 336.358 114.025 336.043 114.645 336.274C115.267 336.507 115.581 337.199 115.349 337.819C115.168 338.302 114.711 338.6 114.224 338.6C114.085 338.6 113.942 338.576 113.804 338.524H113.805ZM235.301 337.48C235.066 336.86 235.378 336.167 235.996 335.931C236.616 335.696 237.31 336.008 237.546 336.626C237.78 337.246 237.469 337.94 236.85 338.176C236.709 338.229 236.565 338.255 236.424 338.255C235.94 338.255 235.483 337.959 235.301 337.48ZM109.287 336.762C108.672 336.513 108.377 335.813 108.626 335.198C108.875 334.584 109.575 334.288 110.19 334.537C110.804 334.786 111.101 335.487 110.851 336.101C110.661 336.568 110.212 336.85 109.738 336.85C109.588 336.85 109.435 336.822 109.288 336.762H109.287ZM239.778 335.742C239.524 335.129 239.816 334.426 240.43 334.175C241.043 333.922 241.746 334.214 241.997 334.827C242.25 335.441 241.958 336.143 241.345 336.395C241.195 336.457 241.04 336.486 240.889 336.486C240.416 336.486 239.969 336.206 239.778 335.742ZM104.822 334.878C104.213 334.611 103.937 333.902 104.205 333.295C104.471 332.688 105.179 332.412 105.786 332.678C106.393 332.946 106.67 333.653 106.403 334.261C106.206 334.71 105.765 334.979 105.303 334.979C105.142 334.979 104.977 334.946 104.822 334.878ZM244.189 333.887C243.919 333.281 244.191 332.572 244.797 332.303C245.403 332.033 246.113 332.305 246.382 332.911C246.652 333.517 246.38 334.227 245.774 334.496C245.615 334.567 245.449 334.6 245.286 334.6C244.827 334.6 244.389 334.334 244.189 333.887ZM100.411 332.867C99.8109 332.585 99.5548 331.869 99.8376 331.269C100.12 330.67 100.836 330.413 101.436 330.696C102.036 330.979 102.292 331.696 102.009 332.294C101.804 332.729 101.372 332.983 100.923 332.983C100.752 332.983 100.577 332.945 100.411 332.866V332.867ZM248.549 331.909C248.263 331.312 248.516 330.596 249.113 330.309C249.712 330.022 250.429 330.276 250.716 330.873C251.002 331.472 250.749 332.189 250.151 332.476C249.984 332.556 249.807 332.594 249.633 332.594C249.186 332.594 248.756 332.341 248.549 331.91V331.909ZM96.0593 330.736C95.4682 330.438 95.2313 329.714 95.5311 329.123C95.832 328.532 96.5533 328.295 97.1444 328.595C97.7366 328.896 97.9735 329.617 97.6726 330.208C97.4613 330.627 97.0399 330.868 96.6013 330.868C96.4189 330.868 96.2332 330.826 96.0593 330.738V330.736ZM252.854 329.811C252.55 329.221 252.784 328.498 253.373 328.195C253.963 327.892 254.686 328.124 254.989 328.714C255.292 329.305 255.06 330.028 254.47 330.331C254.295 330.421 254.108 330.463 253.923 330.463C253.487 330.463 253.067 330.225 252.854 329.811ZM91.7699 328.486C91.1862 328.169 90.9707 327.44 91.2876 326.858C91.6024 326.275 92.3322 326.059 92.9159 326.376C93.4984 326.692 93.714 327.421 93.3971 328.004C93.1805 328.404 92.7675 328.632 92.3418 328.632C92.1487 328.632 91.9513 328.585 91.771 328.487L91.7699 328.486ZM257.099 327.593C256.78 327.012 256.993 326.283 257.575 325.963H257.574C258.156 325.644 258.885 325.857 259.204 326.439C259.523 327.02 259.311 327.749 258.73 328.069C258.547 328.169 258.348 328.217 258.153 328.217C257.729 328.217 257.32 327.992 257.1 327.594L257.099 327.593ZM87.5445 326.117C86.9715 325.784 86.7752 325.049 87.107 324.475C87.4399 323.901 88.1751 323.706 88.747 324.038C89.3211 324.371 89.5163 325.105 89.1856 325.68C88.9626 326.064 88.5582 326.278 88.1452 326.278C87.9403 326.278 87.7344 326.227 87.5445 326.117ZM261.283 325.257C260.948 324.685 261.14 323.949 261.713 323.614C262.286 323.279 263.021 323.471 263.356 324.044C263.691 324.617 263.499 325.352 262.926 325.687C262.735 325.799 262.527 325.853 262.32 325.853C261.909 325.853 261.507 325.639 261.283 325.258V325.257ZM83.3895 323.631C82.824 323.283 82.649 322.544 82.9979 321.979C83.3447 321.414 84.0852 321.239 84.6497 321.588C85.2152 321.935 85.3902 322.675 85.0413 323.24C84.8151 323.608 84.4213 323.81 84.018 323.81C83.8035 323.81 83.5859 323.753 83.3895 323.63V323.631ZM265.402 322.807C265.051 322.245 265.223 321.504 265.785 321.154C266.348 320.803 267.089 320.973 267.439 321.537C267.79 322.099 267.619 322.839 267.056 323.191C266.859 323.313 266.639 323.373 266.422 323.373C266.022 323.373 265.631 323.172 265.402 322.807ZM79.305 321.034C78.7512 320.669 78.5954 319.925 78.9593 319.372C79.3221 318.818 80.0679 318.662 80.6217 319.026C81.1755 319.39 81.3313 320.135 80.9674 320.688C80.7369 321.04 80.3528 321.231 79.9623 321.231C79.7361 321.231 79.5077 321.167 79.305 321.034ZM269.453 320.243C269.086 319.691 269.237 318.945 269.79 318.58C270.343 318.213 271.087 318.364 271.453 318.917C271.819 319.47 271.669 320.216 271.116 320.581C270.911 320.716 270.682 320.78 270.454 320.78C270.064 320.78 269.683 320.591 269.453 320.243ZM75.2951 318.324C74.751 317.946 74.6165 317.197 74.9942 316.653C75.373 316.109 76.121 315.974 76.6652 316.353C77.2094 316.733 77.3438 317.481 76.964 318.024C76.7313 318.359 76.3579 318.538 75.978 318.538C75.7412 318.538 75.5021 318.469 75.2941 318.323L75.2951 318.324ZM273.432 317.567C273.05 317.025 273.181 316.276 273.724 315.895C274.266 315.513 275.015 315.645 275.396 316.188C275.777 316.731 275.646 317.48 275.104 317.86C274.893 318.008 274.653 318.078 274.414 318.078C274.037 318.078 273.664 317.9 273.432 317.567ZM71.361 315.506C70.8275 315.112 70.7134 314.36 71.1071 313.826C71.5008 313.293 72.252 313.18 72.7866 313.572C73.3201 313.966 73.4332 314.717 73.0395 315.252C72.8047 315.571 72.4409 315.74 72.0727 315.74C71.8252 315.74 71.5755 315.663 71.361 315.506ZM277.335 314.782C276.938 314.25 277.048 313.498 277.58 313.103C278.113 312.706 278.865 312.816 279.261 313.348C279.656 313.881 279.547 314.633 279.014 315.028C278.799 315.189 278.548 315.267 278.297 315.267C277.931 315.267 277.57 315.099 277.334 314.782H277.335ZM67.507 312.578C66.9852 312.17 66.8924 311.415 67.3 310.893C67.7086 310.371 68.463 310.279 68.9859 310.686C69.5076 311.094 69.6005 311.849 69.1929 312.372C68.9549 312.675 68.6028 312.833 68.2454 312.833C67.9871 312.833 67.7257 312.751 67.5059 312.578H67.507ZM281.161 311.891C280.751 311.37 280.84 310.615 281.361 310.205C281.881 309.794 282.637 309.883 283.047 310.403C283.457 310.924 283.368 311.68 282.847 312.089C282.628 312.263 282.366 312.347 282.104 312.347C281.75 312.347 281.399 312.191 281.161 311.891ZM63.7372 309.548C63.2261 309.125 63.1546 308.37 63.5772 307.859C63.9997 307.347 64.7562 307.276 65.2662 307.699C65.7773 308.121 65.8499 308.876 65.4263 309.388C65.1894 309.676 64.8458 309.824 64.5012 309.824C64.2312 309.824 63.9602 309.734 63.7361 309.548H63.7372ZM284.907 308.894C284.483 308.385 284.551 307.627 285.06 307.202C285.57 306.778 286.326 306.845 286.752 307.355C287.176 307.865 287.109 308.621 286.599 309.046C286.375 309.233 286.102 309.325 285.83 309.325C285.487 309.325 285.145 309.178 284.907 308.894ZM60.0528 306.416C59.5545 305.978 59.5022 305.22 59.9397 304.722C60.3761 304.221 61.1347 304.171 61.633 304.607H61.6341C62.1324 305.045 62.1836 305.803 61.7472 306.302C61.5093 306.574 61.1774 306.713 60.8424 306.712C60.5628 306.712 60.2811 306.614 60.0528 306.416ZM288.572 305.794C288.133 305.298 288.18 304.539 288.677 304.099C289.174 303.661 289.933 303.709 290.372 304.206C290.81 304.702 290.762 305.461 290.266 305.9C290.037 306.101 289.754 306.2 289.472 306.2C289.139 306.2 288.81 306.064 288.572 305.794ZM56.457 303.183C55.9704 302.733 55.9394 301.972 56.3908 301.486C56.84 301 57.5997 300.969 58.0863 301.42C58.5739 301.869 58.6038 302.629 58.1546 303.116C57.9177 303.372 57.5955 303.501 57.2732 303.501C56.9809 303.501 56.6896 303.396 56.458 303.183H56.457ZM292.148 302.594C291.696 302.108 291.724 301.349 292.208 300.897C292.692 300.445 293.452 300.473 293.903 300.956C294.357 301.442 294.329 302.201 293.845 302.653C293.613 302.868 293.32 302.975 293.026 302.975C292.706 302.975 292.385 302.847 292.148 302.593V302.594ZM52.9529 299.853C52.4791 299.389 52.4684 298.629 52.9337 298.154C53.3967 297.68 54.1565 297.67 54.6302 298.135C55.105 298.598 55.1146 299.358 54.6516 299.831C54.4168 300.073 54.1031 300.193 53.7915 300.193C53.4885 300.193 53.1865 300.08 52.9529 299.852V299.853ZM295.637 299.296C295.172 298.824 295.176 298.063 295.649 297.599C296.122 297.134 296.881 297.138 297.348 297.611C297.813 298.083 297.808 298.843 297.336 299.31C297.102 299.54 296.796 299.654 296.492 299.654C296.182 299.654 295.872 299.535 295.637 299.296ZM49.5416 296.428C49.0796 295.951 49.0924 295.191 49.5672 294.729C50.0442 294.268 50.8039 294.28 51.2659 294.756C51.7279 295.233 51.7151 295.992 51.2403 296.454C51.0066 296.679 50.7047 296.791 50.4038 296.791C50.0901 296.791 49.7774 296.67 49.5416 296.427V296.428ZM299.035 295.903C298.557 295.444 298.541 294.683 299.001 294.206C299.459 293.728 300.22 293.712 300.699 294.172C301.177 294.631 301.192 295.392 300.732 295.871C300.498 296.116 300.182 296.239 299.867 296.239C299.567 296.239 299.268 296.128 299.036 295.904L299.035 295.903ZM46.2264 292.91C45.7782 292.422 45.8103 291.662 46.2989 291.214C46.7876 290.766 47.5474 290.798 47.9955 291.287C48.4436 291.775 48.4106 292.535 47.9219 292.983C47.6914 293.196 47.4012 293.299 47.112 293.299C46.7866 293.299 46.4633 293.169 46.2264 292.91ZM302.337 292.417C301.845 291.971 301.81 291.211 302.256 290.721C302.702 290.229 303.462 290.194 303.952 290.64C304.443 291.086 304.479 291.846 304.033 292.336C303.795 292.597 303.47 292.728 303.144 292.728C302.856 292.728 302.567 292.625 302.337 292.417ZM43.0093 289.303C42.5751 288.803 42.6273 288.044 43.1288 287.61C43.6303 287.176 44.389 287.229 44.8233 287.73C45.2565 288.231 45.2042 288.989 44.7027 289.424C44.4765 289.621 44.1948 289.718 43.9174 289.717C43.5813 289.717 43.2473 289.578 43.0093 289.303ZM305.542 288.84C305.04 288.408 304.982 287.649 305.416 287.147H305.414C305.847 286.644 306.605 286.587 307.108 287.019C307.61 287.451 307.668 288.209 307.236 288.712C306.998 288.989 306.663 289.13 306.325 289.13C306.047 289.13 305.769 289.034 305.542 288.84ZM39.8936 285.611C39.4722 285.099 39.5479 284.343 40.0601 283.922C40.5733 283.501 41.3298 283.576 41.7503 284.089C42.1717 284.602 42.096 285.358 41.5838 285.778C41.3608 285.961 41.0908 286.051 40.823 286.051C40.4762 286.051 40.1327 285.9 39.8947 285.611H39.8936ZM308.65 285.177C308.135 284.759 308.056 284.002 308.475 283.488C308.893 282.975 309.649 282.896 310.165 283.314C310.678 283.732 310.757 284.489 310.339 285.002C310.101 285.294 309.755 285.445 309.406 285.445C309.14 285.445 308.872 285.357 308.65 285.176V285.177ZM36.8815 281.836C36.4749 281.311 36.571 280.558 37.0949 280.151C37.6198 279.745 38.3731 279.841 38.7797 280.365C39.1862 280.89 39.0902 281.643 38.5663 282.05C38.3475 282.219 38.0883 282.302 37.8311 282.302C37.4726 282.302 37.1183 282.142 36.8815 281.837V281.836ZM311.654 281.429C311.128 281.024 311.03 280.271 311.433 279.745C311.838 279.219 312.591 279.121 313.116 279.525C313.642 279.928 313.741 280.683 313.338 281.208C313.101 281.517 312.746 281.678 312.385 281.678C312.13 281.678 311.873 281.597 311.655 281.43L311.654 281.429ZM33.9749 277.979C33.5833 277.444 33.6996 276.693 34.2353 276.302C34.7698 275.91 35.521 276.026 35.9126 276.562C36.3042 277.096 36.189 277.848 35.6544 278.239C35.4399 278.396 35.1913 278.471 34.9448 278.471C34.5756 278.471 34.2107 278.301 33.976 277.979H33.9749ZM314.555 277.597C314.019 277.207 313.898 276.456 314.289 275.921C314.678 275.384 315.428 275.264 315.965 275.654C316.502 276.043 316.621 276.793 316.232 277.33C315.997 277.655 315.631 277.826 315.259 277.826C315.013 277.826 314.767 277.753 314.555 277.597ZM31.1772 274.044C30.8005 273.498 30.9371 272.751 31.4823 272.374C32.0276 271.997 32.7756 272.134 33.1522 272.679C33.5289 273.224 33.3923 273.972 32.8471 274.349C32.639 274.493 32.401 274.562 32.1663 274.562C31.7843 274.562 31.4098 274.381 31.1772 274.044ZM317.35 273.686C316.802 273.312 316.662 272.565 317.036 272.017C317.411 271.47 318.157 271.33 318.705 271.705C319.253 272.078 319.393 272.825 319.019 273.374C318.786 273.714 318.41 273.895 318.027 273.895C317.793 273.895 317.557 273.828 317.35 273.686ZM28.4883 270.035C28.1266 269.478 28.2834 268.734 28.8393 268.374C29.3963 268.012 30.14 268.169 30.5007 268.725C30.8624 269.282 30.7056 270.024 30.1496 270.386C29.948 270.517 29.7196 270.58 29.4956 270.58C29.1029 270.58 28.7188 270.388 28.4883 270.035ZM320.035 269.7C319.478 269.34 319.317 268.598 319.676 268.04C320.035 267.483 320.777 267.322 321.335 267.68C321.893 268.04 322.054 268.782 321.695 269.34C321.466 269.697 321.079 269.891 320.683 269.891C320.46 269.891 320.236 269.829 320.035 269.7ZM25.9115 265.953C25.5657 265.387 25.7439 264.649 26.3094 264.302C26.875 263.956 27.6133 264.133 27.9601 264.7H27.9612C28.3069 265.265 28.1287 266.004 27.5632 266.351C27.3679 266.47 27.1503 266.527 26.9379 266.527C26.5335 266.527 26.1387 266.324 25.9125 265.953H25.9115ZM322.609 265.64C322.042 265.296 321.86 264.557 322.204 263.99C322.548 263.423 323.285 263.241 323.854 263.584C324.42 263.927 324.603 264.667 324.259 265.233C324.034 265.607 323.637 265.814 323.23 265.814C323.019 265.814 322.805 265.757 322.609 265.64ZM23.4509 261.803C23.1201 261.228 23.3186 260.495 23.8927 260.164C24.4678 259.834 25.2019 260.033 25.5316 260.608C25.8624 261.183 25.6628 261.917 25.0898 262.247C24.901 262.356 24.6961 262.407 24.4923 262.407C24.0762 262.407 23.6718 262.19 23.4509 261.803ZM325.071 261.508C324.495 261.181 324.293 260.448 324.621 259.872C324.948 259.295 325.681 259.094 326.258 259.421C326.834 259.749 327.035 260.482 326.708 261.058C326.487 261.448 326.081 261.665 325.663 261.665C325.463 261.665 325.258 261.615 325.071 261.508ZM21.1045 257.587C20.7908 257.003 21.0096 256.276 21.5932 255.962C22.1769 255.648 22.9046 255.866 23.2183 256.45C23.5331 257.033 23.3143 257.761 22.7307 258.075C22.5493 258.173 22.3551 258.219 22.163 258.219C21.7362 258.219 21.3211 257.989 21.1035 257.587H21.1045ZM327.418 257.309C326.833 256.998 326.611 256.27 326.921 255.686C327.233 255.101 327.959 254.878 328.545 255.19C329.13 255.501 329.353 256.228 329.041 256.812C328.826 257.219 328.41 257.451 327.98 257.451C327.79 257.451 327.597 257.405 327.418 257.309ZM18.8777 253.308C18.58 252.716 18.819 251.994 19.4112 251.696C20.0034 251.398 20.7247 251.637 21.0234 252.23C21.3211 252.822 21.0821 253.543 20.4899 253.842C20.3171 253.929 20.1325 253.97 19.9522 253.97C19.5125 253.97 19.09 253.729 18.8787 253.308H18.8777ZM329.647 253.045C329.053 252.75 328.81 252.03 329.105 251.437C329.4 250.844 330.12 250.6 330.716 250.895C331.309 251.19 331.552 251.911 331.257 252.505C331.047 252.927 330.623 253.171 330.18 253.171C330.002 253.171 329.819 253.131 329.647 253.045ZM16.7724 248.972C16.4908 248.371 16.749 247.656 17.3497 247.375C17.9494 247.094 18.6653 247.352 18.946 247.952C19.2277 248.553 18.9694 249.268 18.3687 249.549C18.2033 249.627 18.0315 249.662 17.8597 249.662C17.4095 249.662 16.9752 249.407 16.7724 248.972ZM331.757 248.721C331.155 248.443 330.893 247.729 331.171 247.127C331.45 246.525 332.162 246.263 332.764 246.541C333.366 246.82 333.629 247.533 333.35 248.134C333.147 248.573 332.713 248.831 332.258 248.831C332.09 248.831 331.918 248.796 331.756 248.72L331.757 248.721ZM14.7867 244.58C14.5221 243.973 14.8006 243.265 15.4088 243C16.0159 242.735 16.7244 243.014 16.9891 243.622C17.2526 244.23 16.9752 244.938 16.367 245.202C16.2101 245.269 16.0479 245.301 15.8879 245.301C15.4248 245.301 14.9841 245.032 14.7867 244.58ZM333.746 244.338C333.137 244.077 332.854 243.371 333.115 242.762C333.377 242.153 334.082 241.87 334.691 242.131C335.301 242.394 335.583 243.099 335.322 243.71C335.128 244.164 334.684 244.437 334.219 244.437C334.061 244.437 333.9 244.405 333.746 244.339V244.338ZM12.9248 240.136C12.6772 239.521 12.9749 238.821 13.5895 238.575C14.2052 238.327 14.9052 238.625 15.1527 239.24C15.4003 239.854 15.1026 240.553 14.488 240.803C14.3407 240.862 14.1892 240.889 14.0398 240.889C13.5639 240.889 13.1136 240.604 12.9248 240.137V240.136ZM335.613 239.901C334.996 239.656 334.694 238.959 334.939 238.342C335.182 237.726 335.881 237.424 336.497 237.669C337.113 237.913 337.415 238.611 337.172 239.227C336.985 239.699 336.533 239.986 336.055 239.986C335.909 239.986 335.758 239.959 335.614 239.902L335.613 239.901ZM11.1823 235.627C10.9519 235.005 11.2688 234.315 11.8908 234.085C12.5129 233.853 13.2033 234.171 13.4338 234.794C13.6642 235.416 13.3473 236.106 12.7253 236.336C12.5876 236.387 12.4468 236.411 12.308 236.411C11.8204 236.411 11.3627 236.11 11.1823 235.627ZM337.355 235.411C336.731 235.185 336.41 234.495 336.636 233.872C336.864 233.248 337.553 232.927 338.176 233.155C338.799 233.381 339.12 234.07 338.893 234.693H338.894C338.717 235.181 338.256 235.484 337.765 235.484C337.63 235.484 337.491 235.46 337.356 235.411H337.355ZM9.56582 231.072C9.35241 230.443 9.69066 229.761 10.317 229.548C10.9455 229.335 11.6273 229.671 11.8407 230.299C12.0541 230.928 11.718 231.61 11.0895 231.823C10.9615 231.866 10.8313 231.887 10.7033 231.887C10.2028 231.887 9.73654 231.57 9.56688 231.072H9.56582ZM338.971 230.873C338.342 230.664 338.002 229.984 338.211 229.355C338.42 228.725 339.1 228.386 339.73 228.595C340.358 228.804 340.699 229.483 340.489 230.113C340.322 230.616 339.852 230.935 339.35 230.935C339.224 230.935 339.096 230.916 338.971 230.873ZM8.07839 226.471C7.88313 225.838 8.23845 225.166 8.87119 224.971C9.50499 224.775 10.1761 225.13 10.3725 225.763C10.5667 226.397 10.2124 227.068 9.57862 227.265C9.46125 227.3 9.34174 227.318 9.22544 227.318C8.7122 227.318 8.23738 226.987 8.07839 226.471ZM340.46 226.289C339.826 226.098 339.466 225.428 339.656 224.793C339.848 224.16 340.518 223.8 341.152 223.992C341.788 224.183 342.145 224.853 341.954 225.488C341.798 226.007 341.322 226.342 340.805 226.342C340.691 226.342 340.574 226.326 340.458 226.29L340.46 226.289ZM6.71901 221.831H6.71795C6.54082 221.192 6.91534 220.531 7.55449 220.354C8.19363 220.175 8.85518 220.549 9.03231 221.189C9.20943 221.828 8.83597 222.49 8.19683 222.667C8.09013 222.698 7.98129 222.711 7.87459 222.711C7.34855 222.711 6.86626 222.364 6.71901 221.831ZM341.815 221.683C341.176 221.509 340.798 220.85 340.971 220.208C341.145 219.569 341.804 219.192 342.443 219.364C343.083 219.538 343.462 220.198 343.288 220.837C343.143 221.373 342.659 221.724 342.129 221.724C342.026 221.724 341.92 221.71 341.815 221.682V221.683ZM5.48874 217.155C5.32869 216.511 5.72135 215.86 6.36583 215.7C7.00818 215.541 7.66012 215.933 7.82017 216.577C7.97916 217.222 7.58756 217.872 6.94309 218.032C6.84599 218.056 6.74889 218.067 6.65392 218.067C6.11401 218.067 5.62426 217.701 5.48874 217.155ZM343.042 217.04C342.397 216.886 342.001 216.236 342.157 215.591C342.313 214.947 342.962 214.552 343.605 214.707C344.25 214.862 344.645 215.511 344.491 216.156C344.357 216.705 343.867 217.075 343.324 217.075C343.231 217.075 343.136 217.064 343.042 217.04ZM4.39078 212.447C4.24887 211.799 4.65967 211.16 5.30735 211.018C5.95503 210.876 6.59524 211.287 6.73715 211.935C6.87907 212.582 6.46826 213.223 5.82058 213.364C5.73416 213.383 5.64666 213.391 5.56237 213.391C5.01072 213.391 4.51456 213.008 4.39078 212.447ZM344.138 212.366C343.489 212.228 343.075 211.591 343.212 210.942C343.35 210.294 343.987 209.88 344.636 210.017C345.285 210.155 345.699 210.793 345.561 211.441C345.441 212.006 344.943 212.393 344.387 212.393C344.305 212.393 344.221 212.384 344.138 212.366ZM3.42407 207.71C3.30136 207.059 3.72816 206.431 4.38011 206.307C5.03206 206.183 5.65947 206.611 5.78431 207.263C5.90701 207.915 5.48021 208.543 4.82719 208.667C4.7525 208.681 4.67674 208.689 4.60312 208.689C4.0376 208.689 3.53397 208.288 3.42407 207.712V207.71ZM345.102 207.662C344.45 207.543 344.018 206.918 344.138 206.265C344.258 205.612 344.883 205.181 345.536 205.3C346.188 205.421 346.621 206.046 346.5 206.698C346.394 207.276 345.89 207.682 345.32 207.682C345.248 207.682 345.176 207.675 345.102 207.662ZM2.58966 202.949C2.48402 202.294 2.93003 201.679 3.58518 201.573C4.23926 201.468 4.856 201.913 4.96057 202.569C5.0662 203.223 4.62019 203.839 3.96718 203.944C3.90209 203.955 3.83807 203.96 3.77511 203.96C3.19465 203.96 2.68569 203.54 2.59073 202.951L2.58966 202.949ZM345.938 202.933C345.282 202.832 344.833 202.22 344.934 201.564C345.036 200.909 345.65 200.46 346.305 200.563C346.96 200.664 347.409 201.276 347.308 201.934C347.217 202.526 346.704 202.949 346.123 202.949C346.061 202.949 346.001 202.944 345.939 202.935L345.938 202.933ZM1.88756 198.166C1.80007 197.509 2.26315 196.905 2.91937 196.817C3.57665 196.73 4.18058 197.193 4.26808 197.849C4.35557 198.506 3.89248 199.11 3.23627 199.198C3.18185 199.205 3.12957 199.207 3.07622 199.207C2.48402 199.207 1.96759 198.769 1.88756 198.166ZM346.64 198.184C345.982 198.1 345.515 197.499 345.599 196.842C345.683 196.185 346.284 195.718 346.942 195.801C347.599 195.886 348.065 196.487 347.982 197.144C347.904 197.751 347.388 198.195 346.792 198.195C346.742 198.195 346.69 198.192 346.64 198.185V198.184ZM1.31884 193.366C1.24948 192.705 1.72751 192.115 2.38799 192.047C3.04634 191.977 3.63747 192.455 3.70682 193.116C3.77618 193.776 3.29709 194.366 2.63767 194.435C2.59499 194.44 2.55231 194.442 2.5107 194.442C1.90357 194.442 1.38286 193.983 1.31884 193.366ZM347.21 193.417C346.549 193.352 346.068 192.763 346.132 192.104H346.133C346.198 191.444 346.786 190.962 347.444 191.027C348.105 191.092 348.587 191.68 348.522 192.339C348.46 192.96 347.938 193.422 347.329 193.422C347.29 193.422 347.25 193.421 347.21 193.417ZM0.881362 188.551C0.831212 187.89 1.32631 187.312 1.98573 187.262C2.64728 187.212 3.22453 187.706 3.27468 188.367C3.32483 189.028 2.83187 189.605 2.17032 189.655C2.13831 189.658 2.10737 189.659 2.07642 189.659C1.45542 189.659 0.928313 189.18 0.880297 188.55L0.881362 188.551ZM347.648 188.635C346.986 188.588 346.489 188.014 346.536 187.353C346.583 186.691 347.157 186.193 347.818 186.24C348.479 186.287 348.976 186.862 348.931 187.524C348.885 188.155 348.358 188.64 347.733 188.64C347.706 188.64 347.677 188.639 347.647 188.636L347.648 188.635ZM0.577264 183.726C0.545254 183.063 1.05529 182.501 1.7179 182.467C2.38052 182.435 2.94284 182.945 2.97698 183.608C3.009 184.27 2.49896 184.833 1.83634 184.867C1.815 184.868 1.7958 184.868 1.77552 184.868C1.13958 184.868 0.609275 184.367 0.577264 183.726ZM347.954 183.845C347.292 183.815 346.778 183.254 346.808 182.592C346.836 181.929 347.397 181.416 348.06 181.444C348.723 181.474 349.236 182.034 349.208 182.696H349.207C349.18 183.341 348.648 183.845 348.009 183.845H347.955H347.954ZM0.405473 178.895C0.390535 178.231 0.916574 177.683 1.57919 177.668C2.24181 177.653 2.79132 178.179 2.80626 178.841C2.8212 179.504 2.29516 180.053 1.63254 180.068C1.62401 180.068 1.6144 180.069 1.60587 180.069C0.956054 180.068 0.420412 179.549 0.406541 178.895H0.405473ZM348.13 179.046C347.468 179.035 346.938 178.488 346.949 177.825C346.96 177.163 347.506 176.634 348.169 176.644C348.832 176.655 349.361 177.201 349.35 177.864C349.34 178.52 348.805 179.046 348.151 179.046H348.131H348.13ZM0.362793 174.996C0.362793 174.333 0.899503 173.795 1.56319 173.795C2.2258 173.795 2.76358 174.333 2.76358 174.996C2.76358 175.658 2.2258 176.196 1.56319 176.196C0.899503 176.196 0.362793 175.658 0.362793 174.996ZM346.961 173.057H346.962C346.954 172.393 347.486 171.85 348.15 171.843C348.812 171.835 349.355 172.368 349.363 173.03C349.37 173.693 348.839 174.237 348.175 174.245H348.161C347.505 174.245 346.968 173.715 346.961 173.057ZM1.59626 171.395C0.933647 171.377 0.411875 170.825 0.428948 170.162C0.447087 169.5 0.998733 168.978 1.66135 168.995C2.32504 169.013 2.84681 169.565 2.82867 170.227C2.8116 170.88 2.27702 171.396 1.62934 171.396C1.61867 171.396 1.60693 171.396 1.59626 171.395ZM346.845 168.295C346.82 167.632 347.335 167.074 347.998 167.049C348.661 167.024 349.219 167.54 349.244 168.202C349.269 168.865 348.753 169.423 348.091 169.448C348.075 169.448 348.059 169.449 348.044 169.449C347.403 169.449 346.869 168.94 346.845 168.294V168.295ZM1.76059 166.596C1.09797 166.561 0.591135 165.994 0.626346 165.333C0.663692 164.67 1.23028 164.163 1.89076 164.199C2.55338 164.236 3.06021 164.8 3.02393 165.463C2.98979 166.102 2.45948 166.598 1.82674 166.598C1.80433 166.598 1.78193 166.597 1.76059 166.596ZM346.597 163.532C346.554 162.87 347.055 162.298 347.716 162.254C348.378 162.212 348.95 162.712 348.994 163.374C349.036 164.035 348.536 164.606 347.874 164.651C347.848 164.652 347.82 164.653 347.794 164.653C347.167 164.653 346.639 164.166 346.597 163.532ZM2.05402 161.804C1.39247 161.75 0.901635 161.17 0.954986 160.509C1.0094 159.848 1.5888 159.356 2.25035 159.41C2.91083 159.465 3.40272 160.044 3.34724 160.705C3.29709 161.333 2.77105 161.807 2.15218 161.807C2.1191 161.807 2.08603 161.806 2.05295 161.804H2.05402ZM346.218 158.779C346.156 158.119 346.642 157.533 347.302 157.471C347.963 157.409 348.548 157.895 348.609 158.555C348.672 159.216 348.187 159.801 347.526 159.863C347.488 159.867 347.45 159.869 347.413 159.869C346.8 159.869 346.277 159.402 346.219 158.78L346.218 158.779ZM2.47975 157.022C1.8214 156.948 1.34551 156.356 1.41807 155.697C1.48956 155.038 2.08282 154.562 2.74224 154.634C3.40272 154.706 3.87755 155.3 3.80499 155.959C3.7367 156.574 3.216 157.028 2.61313 157.028C2.56832 157.028 2.52457 157.027 2.47975 157.022ZM345.709 154.037C345.629 153.38 346.099 152.782 346.756 152.701C347.414 152.621 348.013 153.091 348.092 153.748C348.172 154.407 347.704 155.005 347.045 155.085C346.996 155.091 346.947 155.094 346.899 155.094C346.3 155.094 345.783 154.647 345.709 154.037ZM3.03781 152.251C2.38159 152.161 1.92171 151.556 2.01347 150.898C2.10416 150.242 2.70916 149.782 3.36645 149.874C4.02266 149.964 4.48255 150.571 4.39078 151.227H4.39185C4.30862 151.828 3.79325 152.264 3.20319 152.264C3.14771 152.264 3.09222 152.261 3.03674 152.251H3.03781ZM345.069 149.313C344.971 148.656 345.422 148.045 346.078 147.948C346.734 147.85 347.346 148.301 347.444 148.956C347.541 149.612 347.09 150.224 346.433 150.322C346.374 150.331 346.313 150.336 346.255 150.336C345.671 150.336 345.159 149.909 345.069 149.313ZM3.7271 147.5C3.07302 147.39 2.63127 146.772 2.74011 146.118C2.84894 145.464 3.46781 145.022 4.12189 145.132C4.77597 145.241 5.21772 145.859 5.10782 146.513C5.01072 147.101 4.50175 147.517 3.92556 147.517C3.86047 147.517 3.79432 147.512 3.72603 147.501L3.7271 147.5ZM344.298 144.608C344.181 143.954 344.617 143.331 345.27 143.216C345.923 143.098 346.546 143.534 346.662 144.188C346.778 144.841 346.343 145.464 345.69 145.579C345.619 145.593 345.548 145.598 345.479 145.598C344.907 145.598 344.401 145.19 344.298 144.608ZM4.54977 142.77C3.89782 142.643 3.47315 142.012 3.60012 141.361H3.60119C3.72817 140.711 4.35877 140.286 5.00859 140.413C5.66053 140.54 6.08414 141.17 5.95716 141.821C5.84513 142.394 5.34363 142.792 4.78024 142.792C4.70555 142.792 4.62766 142.785 4.54977 142.77ZM343.397 139.926C343.263 139.277 343.68 138.641 344.33 138.507C344.979 138.373 345.614 138.789 345.75 139.44C345.884 140.088 345.467 140.724 344.817 140.859C344.735 140.876 344.652 140.883 344.572 140.883C344.014 140.883 343.516 140.494 343.397 139.926ZM5.50261 138.063C4.856 137.918 4.44947 137.277 4.59352 136.63C4.73863 135.982 5.38204 135.576 6.02865 135.721C6.67633 135.866 7.08287 136.508 6.93775 137.156C6.81184 137.714 6.31675 138.093 5.7683 138.093C5.68081 138.093 5.59224 138.083 5.50368 138.063H5.50261ZM342.366 135.272C342.214 134.626 342.613 133.98 343.258 133.827C343.904 133.674 344.552 134.075 344.703 134.72C344.856 135.366 344.457 136.012 343.811 136.165C343.717 136.187 343.625 136.197 343.534 136.197C342.989 136.197 342.496 135.824 342.366 135.272ZM6.58564 133.386C5.94329 133.224 5.5549 132.57 5.71708 131.927C5.8814 131.284 6.53335 130.896 7.17676 131.058C7.82017 131.222 8.2075 131.874 8.04532 132.518C7.90767 133.061 7.41898 133.423 6.88227 133.423C6.7841 133.423 6.68487 133.41 6.58564 133.385V133.386ZM341.204 130.647C341.035 130.007 341.416 129.35 342.057 129.179C342.697 129.008 343.354 129.389 343.526 130.03C343.696 130.671 343.315 131.329 342.674 131.499C342.57 131.525 342.467 131.539 342.364 131.539C341.833 131.539 341.347 131.185 341.204 130.646V130.647ZM7.7999 128.741C7.16182 128.559 6.79157 127.895 6.9719 127.257C7.15329 126.619 7.81697 126.249 8.45505 126.429C9.09313 126.611 9.46338 127.274 9.28306 127.913C9.13261 128.441 8.65245 128.785 8.12961 128.785C8.02078 128.785 7.91087 128.77 7.80097 128.739L7.7999 128.741ZM339.915 126.058C339.729 125.421 340.09 124.754 340.725 124.565C341.362 124.376 342.029 124.74 342.218 125.375C342.407 126.011 342.043 126.679 341.408 126.868C341.294 126.901 341.179 126.917 341.067 126.917C340.548 126.917 340.07 126.579 339.915 126.057V126.058ZM9.14328 124.13C8.51054 123.932 8.15842 123.258 8.35795 122.625C8.55642 121.993 9.2297 121.642 9.86245 121.84C10.4952 122.04 10.8462 122.713 10.6478 123.347C10.4866 123.859 10.014 124.188 9.50286 124.188C9.38336 124.187 9.26278 124.169 9.14328 124.131V124.13ZM338.498 121.505C338.291 120.875 338.636 120.197 339.267 119.99C339.896 119.784 340.575 120.129 340.78 120.759C340.986 121.389 340.642 122.067 340.011 122.272C339.887 122.313 339.762 122.331 339.638 122.331C339.133 122.331 338.663 122.01 338.497 121.503L338.498 121.505ZM10.6179 119.543C9.99049 119.327 9.65865 118.642 9.87525 118.017C10.0919 117.391 10.7758 117.058 11.4022 117.273C12.0296 117.49 12.3614 118.174 12.1448 118.8C11.9741 119.297 11.5078 119.609 11.0106 119.609C10.8804 119.609 10.7481 119.588 10.6179 119.543ZM336.953 116.994C336.73 116.37 337.056 115.682 337.68 115.459C338.304 115.235 338.99 115.561 339.214 116.185C339.437 116.809 339.113 117.496 338.488 117.72C338.354 117.767 338.218 117.791 338.084 117.791C337.591 117.791 337.13 117.486 336.953 116.994ZM12.2227 115.002C11.6017 114.768 11.288 114.075 11.5217 113.454C11.7553 112.835 12.4489 112.521 13.0688 112.755C13.6898 112.988 14.0035 113.681 13.7699 114.302C13.5885 114.782 13.1318 115.078 12.6452 115.078C12.5044 115.078 12.3625 115.054 12.2227 115.001V115.002ZM335.285 112.528C335.043 111.91 335.35 111.215 335.966 110.973C336.584 110.733 337.28 111.038 337.522 111.657C337.762 112.273 337.457 112.97 336.838 113.211C336.695 113.267 336.548 113.293 336.404 113.293C335.923 113.293 335.469 113.003 335.285 112.528ZM13.9523 110.507C13.3377 110.257 13.0443 109.556 13.295 108.942C13.5458 108.327 14.2479 108.034 14.8614 108.286C15.475 108.537 15.7695 109.238 15.5176 109.851C15.3277 110.316 14.8796 110.597 14.4058 110.597C14.2543 110.597 14.1006 110.568 13.9523 110.507ZM333.497 108.126C333.24 107.515 333.525 106.81 334.136 106.552C334.747 106.295 335.452 106.582 335.71 107.192C335.967 107.802 335.683 108.506 335.071 108.765C334.919 108.829 334.76 108.86 334.605 108.86C334.136 108.86 333.691 108.585 333.497 108.126ZM15.8057 106.065C15.1997 105.797 14.9265 105.088 15.1933 104.482C15.4622 103.875 16.1707 103.602 16.7767 103.869C17.3839 104.136 17.657 104.846 17.3892 105.453C17.1907 105.901 16.7511 106.167 16.2902 106.167C16.129 106.167 15.9637 106.134 15.8047 106.064L15.8057 106.065ZM331.588 103.772C331.314 103.168 331.581 102.457 332.185 102.183C332.789 101.908 333.5 102.174 333.775 102.777C334.049 103.381 333.783 104.094 333.18 104.368C333.019 104.44 332.849 104.477 332.683 104.477C332.228 104.477 331.791 104.214 331.589 103.772H331.588ZM17.7829 101.678C17.1843 101.392 16.9293 100.675 17.2153 100.077C17.5002 99.4787 18.2161 99.2247 18.8147 99.5096C19.4133 99.7956 19.6683 100.51 19.3824 101.11C19.1764 101.541 18.7475 101.795 18.2972 101.795C18.1244 101.795 17.9483 101.757 17.7829 101.678ZM329.558 99.4734C329.268 98.8769 329.514 98.1577 330.109 97.8675C330.706 97.5751 331.425 97.8227 331.715 98.4181C332.008 99.0145 331.76 99.7337 331.164 100.025C330.995 100.107 330.815 100.147 330.638 100.147C330.193 100.147 329.767 99.8991 329.558 99.4734ZM19.8807 97.3479C19.2906 97.0459 19.0559 96.3235 19.3568 95.7324C19.6587 95.1423 20.3811 94.9076 20.9722 95.2085C21.5623 95.5105 21.797 96.2328 21.4961 96.824C21.2849 97.239 20.8623 97.4791 20.4259 97.4791C20.2424 97.4791 20.0557 97.4364 19.8807 97.3479ZM327.41 95.2309C327.102 94.643 327.329 93.9185 327.916 93.6101C328.503 93.3017 329.228 93.529 329.537 94.1159C329.845 94.7038 329.618 95.4283 329.031 95.7367C328.854 95.8306 328.663 95.8743 328.474 95.8743C328.042 95.8743 327.624 95.6406 327.41 95.2298V95.2309ZM22.099 93.0787C21.5175 92.7608 21.303 92.032 21.621 91.4494C21.9389 90.8679 22.6677 90.6534 23.2503 90.9714C23.8318 91.2893 24.0463 92.0192 23.7283 92.6007C23.5107 92.9998 23.0988 93.226 22.6741 93.226C22.4799 93.226 22.2815 93.178 22.099 93.0777V93.0787ZM325.145 91.0493C324.82 90.4709 325.026 89.739 325.606 89.4146C326.184 89.0902 326.916 89.2972 327.24 89.8755C327.565 90.4539 327.358 91.1858 326.779 91.5102C326.594 91.6148 326.393 91.6639 326.194 91.6639C325.773 91.6639 325.366 91.4419 325.146 91.0493H325.145ZM24.4347 88.8747C23.8617 88.5407 23.6686 87.8055 24.0026 87.2325C24.3365 86.6596 25.0717 86.4664 25.6447 86.8004C26.2177 87.1344 26.4119 87.8695 26.0779 88.4425C25.8538 88.8256 25.4526 89.039 25.0386 89.039C24.8338 89.039 24.6257 88.9857 24.4347 88.8747ZM322.763 86.9306C322.423 86.3608 322.609 85.6235 323.179 85.2842C323.748 84.9438 324.486 85.1305 324.825 85.7003C325.165 86.269 324.978 87.0074 324.409 87.3456C324.216 87.4609 324.004 87.5153 323.795 87.5153C323.386 87.5153 322.987 87.3072 322.763 86.9306ZM26.8856 84.7389C26.3233 84.3889 26.1494 83.6495 26.4994 83.085C26.8494 82.5227 27.5888 82.3488 28.1533 82.6988C28.7156 83.0488 28.8895 83.7882 28.5395 84.3516C28.3112 84.7187 27.9196 84.9192 27.5173 84.9192C27.3018 84.9192 27.083 84.8616 26.8856 84.7389ZM320.268 82.878C319.912 82.3179 320.078 81.5763 320.639 81.2199C321.198 80.8657 321.94 81.03 322.295 81.5902C322.651 82.1493 322.485 82.8919 321.925 83.2462C321.726 83.3731 321.503 83.4329 321.283 83.4329C320.885 83.4329 320.498 83.2355 320.268 82.8759V82.878ZM29.4497 80.6715C28.897 80.3065 28.7444 79.5618 29.1082 79.009H29.1093C29.4742 78.4553 30.219 78.3016 30.7717 78.6676C31.3244 79.0325 31.477 79.7773 31.1132 80.3311C30.8816 80.6811 30.4996 80.871 30.1091 80.871C29.8829 80.871 29.6535 80.8059 29.4486 80.6715H29.4497ZM317.662 78.8949C317.291 78.3454 317.437 77.5995 317.987 77.2282C318.537 76.8579 319.282 77.0031 319.654 77.5526C320.024 78.1021 319.879 78.8479 319.329 79.2203C319.122 79.358 318.89 79.4252 318.658 79.4252C318.273 79.4252 317.893 79.2395 317.662 78.8959V78.8949ZM32.1247 76.6776C31.5816 76.2988 31.4503 75.5498 31.8302 75.0067C32.2111 74.4636 32.9591 74.3312 33.5022 74.7111C34.0453 75.092 34.1766 75.84 33.7967 76.3831C33.563 76.7171 33.1906 76.8953 32.8129 76.8953C32.575 76.8953 32.3338 76.8249 32.1247 76.6776ZM314.945 74.9843C314.56 74.4443 314.684 73.6953 315.224 73.309C315.763 72.9228 316.512 73.0466 316.899 73.5865C317.285 74.1264 317.16 74.8754 316.62 75.2617C316.408 75.4132 316.165 75.4868 315.924 75.4868C315.549 75.4868 315.181 75.3118 314.946 74.9843H314.945ZM34.9096 72.7617C34.3772 72.3669 34.2651 71.6136 34.661 71.0822C35.0558 70.5497 35.8091 70.4377 36.3405 70.8336C36.874 71.2284 36.985 71.9817 36.5891 72.513C36.3543 72.831 35.9905 72.9985 35.6234 72.9985C35.3748 72.9985 35.1251 72.9206 34.9096 72.7617ZM312.122 71.1483C311.722 70.6202 311.825 69.8679 312.354 69.4678C312.882 69.0666 313.635 69.1701 314.035 69.6993C314.436 70.2275 314.332 70.9797 313.803 71.382C313.587 71.5463 313.332 71.6264 313.079 71.6264C312.716 71.6264 312.358 71.461 312.121 71.1494L312.122 71.1483ZM37.8002 68.9225C37.2794 68.5128 37.1877 67.7573 37.5985 67.2366C38.0082 66.7159 38.7637 66.6242 39.2844 67.035C39.8061 67.4447 39.8968 68.2002 39.486 68.7209C39.2492 69.0228 38.897 69.1808 38.5417 69.1808C38.2814 69.1808 38.021 69.0954 37.8002 68.9236V68.9225ZM309.193 67.3914C308.778 66.8739 308.86 66.1184 309.377 65.7033C309.895 65.2893 310.65 65.3715 311.065 65.889C311.48 66.4065 311.397 67.1609 310.88 67.577C310.658 67.7541 310.393 67.8406 310.13 67.8406C309.777 67.8406 309.429 67.6869 309.193 67.3914ZM40.7953 65.1656C40.2852 64.742 40.2169 63.9844 40.6406 63.4743C41.0642 62.9643 41.8217 62.896 42.3318 63.3196C42.8418 63.7432 42.9122 64.5008 42.4865 65.0108C42.2485 65.2968 41.9082 65.443 41.5625 65.443C41.2914 65.443 41.0193 65.3523 40.7953 65.1656ZM306.16 63.7144C305.73 63.2097 305.792 62.4521 306.298 62.0221C306.804 61.5932 307.561 61.6551 307.991 62.1608H307.99C308.42 62.6666 308.357 63.4242 307.853 63.8531C307.626 64.0452 307.35 64.1391 307.077 64.1391C306.735 64.1391 306.398 63.995 306.16 63.7144ZM43.8918 61.4929C43.3945 61.0554 43.3454 60.2968 43.7829 59.7995C44.2204 59.3012 44.979 59.2532 45.4773 59.6896C45.9746 60.1282 46.0226 60.8868 45.5862 61.3841C45.3482 61.654 45.0175 61.7917 44.6835 61.7917C44.4029 61.7917 44.119 61.6935 43.8918 61.4929ZM303.028 60.1239C302.584 59.6309 302.626 58.8712 303.12 58.4295C303.613 57.9856 304.373 58.0283 304.815 58.5223C305.259 59.0153 305.216 59.775 304.722 60.2167C304.493 60.4227 304.208 60.523 303.922 60.523C303.593 60.523 303.264 60.3885 303.028 60.1239ZM47.0896 57.9099C46.603 57.4596 46.5764 56.6988 47.0267 56.2133C47.4791 55.7278 48.2377 55.7001 48.7232 56.1514C49.2087 56.6038 49.2364 57.3625 48.7851 57.848C48.5482 58.1019 48.227 58.231 47.9059 58.231C47.6124 58.231 47.3201 58.1254 47.0896 57.9099ZM299.797 56.6209C299.341 56.1397 299.36 55.38 299.843 54.9243C300.324 54.4677 301.083 54.4879 301.539 54.9702C301.996 55.4514 301.975 56.2112 301.493 56.6668C301.262 56.8876 300.965 56.9954 300.668 56.9954C300.35 56.9954 300.032 56.8695 299.797 56.6209ZM50.3824 54.4164C49.9087 53.9512 49.9023 53.1915 50.3664 52.7177C50.8306 52.2451 51.5913 52.2387 52.0651 52.7028C52.5378 53.167 52.5453 53.9267 52.08 54.3994C51.8453 54.6394 51.5348 54.7589 51.2243 54.7589C50.9202 54.7589 50.6161 54.6448 50.3835 54.4154L50.3824 54.4164ZM296.47 53.2064C296 52.738 295.999 51.9783 296.469 51.5099C296.937 51.0404 297.697 51.0393 298.165 51.5088C298.635 51.9772 298.636 52.7369 298.166 53.2054C297.933 53.4401 297.624 53.5575 297.317 53.5575C297.011 53.5575 296.703 53.4401 296.47 53.2064ZM53.7691 51.0159C53.3093 50.5378 53.3231 49.7781 53.8011 49.3172C54.2781 48.8573 55.0389 48.8712 55.4977 49.3492C55.9586 49.8261 55.9437 50.5869 55.4668 51.0457C55.2341 51.2698 54.9332 51.3818 54.6334 51.3818C54.3197 51.3818 54.0049 51.2591 53.7691 51.0148V51.0159ZM293.049 49.8848C292.568 49.4292 292.546 48.6695 293.001 48.1883C293.456 47.7049 294.216 47.6846 294.697 48.1392H294.698C295.18 48.5948 295.201 49.3545 294.746 49.8379C294.51 50.0875 294.193 50.2135 293.874 50.2135C293.578 50.2135 293.281 50.1046 293.049 49.8859V49.8848ZM57.2497 47.7092C56.8027 47.2194 56.8368 46.4597 57.3276 46.0126C57.8174 45.5666 58.5771 45.6018 59.0231 46.0916C59.4702 46.5813 59.4361 47.34 58.9452 47.7871C58.7148 47.9973 58.4256 48.1008 58.1364 48.1008C57.811 48.1008 57.4866 47.9695 57.2497 47.7092ZM289.538 46.6571C289.044 46.2153 289.003 45.4567 289.443 44.9616C289.885 44.4676 290.646 44.426 291.139 44.8666C291.633 45.3084 291.676 46.0681 291.234 46.5621C290.996 46.8267 290.668 46.9623 290.339 46.9623C290.054 46.9623 289.767 46.8609 289.538 46.6571ZM60.8178 44.4996C60.3846 43.997 60.4412 43.2394 60.9438 42.8062C61.4453 42.373 62.2039 42.4296 62.6371 42.9311C63.0693 43.4336 63.0138 44.1923 62.5112 44.6244C62.285 44.8208 62.0054 44.9168 61.728 44.9168C61.3908 44.9168 61.0558 44.7749 60.8178 44.5007V44.4996ZM285.94 43.5265C285.435 43.0986 285.371 42.3421 285.798 41.8352C286.225 41.3273 286.984 41.2655 287.491 41.6933C287.996 42.1201 288.059 42.8777 287.633 43.3845C287.395 43.6662 287.056 43.8103 286.715 43.8103C286.441 43.8103 286.165 43.7164 285.94 43.5254V43.5265ZM64.4734 41.3914C64.053 40.8771 64.1309 40.1205 64.6442 39.7023C65.1574 39.284 65.9139 39.3598 66.3333 39.873C66.7515 40.3862 66.6758 41.1427 66.1604 41.5621C65.9374 41.7435 65.6696 41.832 65.4028 41.832C65.0539 41.832 64.7082 41.6816 64.4713 41.3914H64.4734ZM282.256 40.4972C281.737 40.0832 281.654 39.3278 282.067 38.8102C282.481 38.2917 283.236 38.2084 283.754 38.6214C284.273 39.0354 284.356 39.7908 283.943 40.3083C283.705 40.605 283.357 40.7586 283.004 40.7586C282.74 40.7586 282.476 40.6733 282.255 40.4961L282.256 40.4972ZM68.2112 38.3834C67.8057 37.8585 67.905 37.1052 68.4289 36.6997C68.9549 36.2942 69.7082 36.3913 70.1126 36.9174C70.5181 37.4423 70.421 38.1956 69.895 38.6011C69.6773 38.7697 69.4201 38.8508 69.163 38.8508C68.8034 38.8508 68.447 38.6897 68.2112 38.3824V38.3834ZM278.488 37.5693C277.959 37.1692 277.853 36.4169 278.254 35.8866C278.653 35.3584 279.406 35.2528 279.935 35.6529C280.463 36.052 280.568 36.8053 280.169 37.3335C279.932 37.6461 279.572 37.8115 279.21 37.8115C278.959 37.8115 278.704 37.7315 278.488 37.5693ZM72.0301 35.4822C71.6395 34.9466 71.758 34.1954 72.2947 33.8049C72.8303 33.4143 73.5815 33.5328 73.972 34.0695C74.3626 34.6051 74.2431 35.3563 73.7074 35.7458C73.494 35.9005 73.2465 35.9763 73.0021 35.9763C72.6319 35.9763 72.2659 35.8055 72.0301 35.4822ZM274.64 34.746C274.1 34.3619 273.974 33.6117 274.359 33.0718C274.743 32.5308 275.493 32.406 276.034 32.7901C276.574 33.1753 276.699 33.9254 276.315 34.4654C276.081 34.794 275.711 34.969 275.335 34.969C275.094 34.969 274.851 34.8964 274.64 34.746ZM75.9268 32.6866C75.5512 32.1403 75.6899 31.3934 76.2373 31.0178C76.7836 30.6422 77.5316 30.7809 77.9072 31.3283C78.2817 31.8746 78.1441 32.6226 77.5967 32.9982C77.3886 33.1401 77.1517 33.2084 76.9181 33.2084C76.535 33.2084 76.1594 33.0259 75.9268 32.6866ZM270.715 32.0304C270.164 31.6602 270.018 30.9143 270.387 30.3637C270.757 29.8132 271.504 29.667 272.054 30.0362C272.605 30.4054 272.751 31.1523 272.382 31.7028C272.15 32.0475 271.771 32.2332 271.384 32.2332C271.154 32.2332 270.921 32.1681 270.715 32.0304ZM79.8982 30.002C79.5376 29.444 79.6976 28.7013 80.2546 28.3417C80.8116 27.9811 81.5553 28.1411 81.9149 28.6981C82.2756 29.2551 82.1155 29.9988 81.5585 30.3584C81.3569 30.4886 81.1307 30.5505 80.9087 30.5505C80.515 30.5505 80.1277 30.3573 79.8993 30.002H79.8982ZM266.715 29.4237C266.155 29.0694 265.988 28.3279 266.341 27.7677C266.696 27.2075 267.437 27.04 267.999 27.3942C268.56 27.7485 268.726 28.4901 268.372 29.0502C268.144 29.4109 267.755 29.6094 267.356 29.6094C267.137 29.6094 266.915 29.5485 266.716 29.4237H266.715ZM83.9412 27.4273C83.5965 26.8607 83.7758 26.1223 84.3424 25.7788C84.909 25.4341 85.6473 25.6134 85.9931 26.18C86.3377 26.7466 86.1574 27.4849 85.5908 27.8306C85.3966 27.9491 85.1811 28.0056 84.9687 28.0056C84.5633 28.0056 84.1674 27.7997 83.9412 27.4284V27.4273ZM262.645 26.9269C262.075 26.5886 261.888 25.8513 262.227 25.2815C262.565 24.7118 263.302 24.524 263.872 24.8633C264.442 25.2015 264.63 25.9388 264.291 26.5086C264.066 26.8863 263.667 27.0965 263.258 27.0965C263.05 27.0965 262.837 27.0421 262.645 26.9279V26.9269ZM88.0535 24.9668C87.7248 24.3906 87.9244 23.6575 88.5005 23.3289C89.0767 23.0003 89.8098 23.2009 90.1384 23.776C90.4671 24.3522 90.2665 25.0863 89.6913 25.4138C89.5025 25.5206 89.2987 25.5728 89.097 25.5728C88.6809 25.5728 88.2743 25.3552 88.0535 24.9668ZM258.506 24.5453C257.926 24.2231 257.718 23.4922 258.041 22.9128C258.363 22.3344 259.095 22.1253 259.675 22.4486H259.676C260.254 22.7708 260.462 23.5028 260.14 24.0811C259.919 24.4749 259.51 24.6979 259.09 24.6979C258.893 24.6979 258.692 24.6488 258.507 24.5453H258.506ZM92.2308 22.6204C91.9182 22.0357 92.138 21.308 92.7238 20.9964C93.3085 20.6838 94.0352 20.9036 94.3478 21.4894C94.6604 22.0741 94.4406 22.8007 93.8548 23.1134C93.6756 23.2105 93.4803 23.2563 93.2893 23.2563C92.8604 23.2563 92.4453 23.0259 92.2298 22.6204H92.2308ZM254.3 22.279C253.712 21.9727 253.485 21.2471 253.79 20.6592C254.096 20.0702 254.822 19.843 255.411 20.1492C255.999 20.4544 256.226 21.1799 255.92 21.7689C255.705 22.1787 255.288 22.4145 254.855 22.4145C254.668 22.4145 254.478 22.3718 254.301 22.279H254.3ZM96.469 20.3925C96.1724 19.7992 96.4135 19.0768 97.0068 18.7813C97.599 18.4846 98.3203 18.7258 98.6159 19.318C98.9125 19.9112 98.6714 20.6336 98.0792 20.9292C97.9063 21.0156 97.7228 21.0561 97.5435 21.0561C97.1028 21.0561 96.6792 20.8118 96.4679 20.3925H96.469ZM250.032 20.13C249.436 19.8398 249.187 19.1217 249.478 18.5252C249.767 17.9277 250.487 17.6801 251.083 17.9703C251.679 18.2606 251.928 18.9787 251.637 19.5751C251.43 20.003 251.001 20.2516 250.557 20.2516C250.381 20.2516 250.203 20.2121 250.032 20.131V20.13ZM100.767 18.283C100.487 17.6812 100.749 16.9673 101.35 16.6878C101.95 16.4072 102.665 16.6686 102.945 17.2693C103.224 17.87 102.964 18.5849 102.362 18.8656C102.198 18.9403 102.027 18.9776 101.857 18.9776C101.404 18.9776 100.971 18.7205 100.768 18.283H100.767ZM245.706 18.1005C245.102 17.8274 244.835 17.1157 245.107 16.5117C245.38 15.9067 246.091 15.6389 246.695 15.9121H246.697C247.299 16.1852 247.568 16.8969 247.295 17.5008C247.094 17.9447 246.658 18.2061 246.2 18.2061C246.035 18.2061 245.866 18.172 245.706 18.1005ZM105.123 16.2941C104.859 15.6848 105.14 14.9784 105.748 14.7149C106.357 14.4524 107.063 14.7319 107.327 15.3412C107.589 15.9494 107.31 16.6568 106.7 16.9193C106.545 16.9876 106.383 17.0175 106.225 17.0175C105.761 17.0175 105.319 16.7465 105.123 16.293V16.2941ZM241.324 16.1916C240.714 15.9355 240.425 15.2324 240.681 14.6199C240.937 14.0074 241.64 13.7193 242.252 13.9776C242.863 14.2336 243.152 14.9368 242.895 15.5482C242.703 16.0092 242.257 16.2855 241.787 16.2855C241.632 16.2855 241.474 16.2546 241.323 16.1916H241.324ZM109.529 14.4268C109.283 13.8111 109.583 13.1133 110.198 12.8668C110.815 12.6203 111.514 12.9212 111.758 13.5369C112.005 14.1525 111.705 14.8504 111.088 15.0969C110.943 15.1545 110.793 15.1833 110.643 15.1833C110.166 15.1833 109.716 14.8973 109.528 14.4268H109.529ZM236.89 14.4054C236.272 14.1664 235.963 13.4707 236.202 12.8529C236.441 12.2351 237.136 11.9268 237.755 12.1658C238.373 12.4048 238.681 13.1005 238.442 13.7183C238.257 14.1952 237.803 14.4865 237.322 14.4865C237.178 14.4865 237.031 14.4599 236.89 14.4054ZM114 12.6779C113.772 12.0548 114.091 11.3655 114.713 11.1372H114.714C115.336 10.9078 116.025 11.2268 116.255 11.8499C116.483 12.472 116.164 13.1613 115.542 13.3907C115.405 13.4409 115.265 13.4643 115.128 13.4643C114.639 13.4643 114.178 13.1624 114 12.6769V12.6779ZM232.405 12.7441C231.781 12.5221 231.453 11.835 231.675 11.2108C231.897 10.5866 232.584 10.259 233.208 10.4809C233.833 10.7029 234.16 11.389 233.938 12.0142C233.763 12.5072 233.3 12.8134 232.806 12.8134C232.673 12.8134 232.537 12.791 232.405 12.7441ZM118.519 11.0529C118.309 10.4244 118.647 9.74364 119.275 9.53343C119.905 9.3211 120.585 9.66041 120.796 10.2899C121.006 10.9184 120.668 11.5992 120.039 11.8094C119.912 11.8521 119.783 11.8723 119.657 11.8723C119.155 11.8723 118.688 11.5554 118.518 11.0529H118.519ZM227.874 11.2076C227.244 11.0027 226.898 10.3273 227.102 9.69562C227.305 9.06501 227.982 8.7193 228.613 8.92203C229.243 9.1269 229.589 9.80339 229.386 10.434C229.221 10.943 228.75 11.2652 228.245 11.2652C228.122 11.2652 227.997 11.2471 227.874 11.2076ZM123.081 9.55584C122.888 8.92203 123.246 8.25088 123.88 8.05668C124.513 7.86355 125.185 8.21994 125.379 8.85481C125.572 9.48862 125.214 10.1598 124.581 10.354C124.463 10.3892 124.346 10.4073 124.23 10.4073C123.715 10.4073 123.239 10.0733 123.081 9.55584ZM223.317 9.80339C222.68 9.61773 222.316 8.94978 222.502 8.31277C222.689 7.67682 223.355 7.31297 223.992 7.49863C224.629 7.68429 224.993 8.35118 224.808 8.98712C224.654 9.51209 224.175 9.85141 223.655 9.85141C223.544 9.85141 223.43 9.8354 223.318 9.80232L223.317 9.80339ZM127.682 8.18686C127.507 7.54772 127.883 6.88723 128.522 6.71117C129.162 6.53512 129.823 6.91177 129.999 7.55092C130.175 8.19006 129.798 8.85054 129.159 9.0266C129.053 9.05648 128.945 9.06928 128.84 9.06928C128.313 9.06928 127.829 8.7193 127.682 8.18579V8.18686ZM218.724 8.5283C218.082 8.35971 217.699 7.7035 217.867 7.06329C218.035 6.42201 218.692 6.03789 219.334 6.20648C219.975 6.37507 220.358 7.03128 220.19 7.67362C220.048 8.21354 219.561 8.56885 219.03 8.56885C218.928 8.56885 218.827 8.55711 218.725 8.52937L218.724 8.5283ZM132.322 6.94805C132.164 6.30357 132.559 5.65376 133.202 5.49584C133.847 5.33792 134.496 5.73272 134.654 6.37613C134.812 7.02061 134.417 7.66935 133.774 7.82834C133.678 7.85181 133.582 7.86249 133.487 7.86249C132.946 7.86249 132.456 7.49543 132.322 6.94699V6.94805ZM214.096 7.3802C213.449 7.22975 213.048 6.5842 213.2 5.93972C213.35 5.29311 213.996 4.89191 214.642 5.04343H214.641C215.288 5.19387 215.688 5.83942 215.539 6.48603C215.409 7.03875 214.915 7.41327 214.37 7.41327C214.281 7.41327 214.188 7.40367 214.097 7.38126L214.096 7.3802ZM136.993 5.83729C136.855 5.18961 137.265 4.55046 137.914 4.41069C138.562 4.26984 139.2 4.68277 139.341 5.33045C139.479 5.9792 139.069 6.61728 138.42 6.75812C138.335 6.77626 138.25 6.7848 138.166 6.7848C137.613 6.7848 137.115 6.39961 136.993 5.83622V5.83729ZM209.437 6.36333C208.789 6.23209 208.368 5.59721 208.502 4.94739C208.634 4.29865 209.268 3.87824 209.917 4.01162C210.566 4.14393 210.987 4.77774 210.853 5.42755C210.738 5.99627 210.238 6.38787 209.678 6.38787C209.598 6.38787 209.518 6.3804 209.437 6.36333ZM141.693 4.85883C141.572 4.20689 142.002 3.58055 142.653 3.45891C143.305 3.33727 143.932 3.76728 144.053 4.41922C144.174 5.07117 143.744 5.69751 143.093 5.81915C143.019 5.83302 142.944 5.83835 142.871 5.83835C142.305 5.83835 141.8 5.43609 141.692 4.85777L141.693 4.85883ZM204.752 5.47664C204.099 5.36247 203.663 4.7404 203.777 4.08631C203.891 3.4333 204.513 2.99689 205.167 3.11106C205.82 3.22523 206.255 3.8473 206.142 4.50138C206.04 5.08397 205.533 5.49371 204.961 5.49371C204.892 5.49371 204.822 5.48837 204.752 5.47664ZM146.418 4.00949C146.315 3.35541 146.762 2.73974 147.417 2.63624C148.071 2.53273 148.687 2.97982 148.79 3.63497C148.894 4.29011 148.447 4.90471 147.791 5.00822C147.727 5.01889 147.665 5.02316 147.603 5.02316C147.021 5.02316 146.511 4.60168 146.418 4.00949ZM200.044 4.71905C199.388 4.62302 198.934 4.01376 199.031 3.35754C199.127 2.70132 199.736 2.24784 200.392 2.34387C201.047 2.43991 201.502 3.04917 201.406 3.70539C201.318 4.30292 200.805 4.73293 200.218 4.73293C200.161 4.73293 200.103 4.72759 200.043 4.71905H200.044ZM151.164 3.29459C151.079 2.6373 151.543 2.03444 152.201 1.95014C152.859 1.86372 153.462 2.32787 153.546 2.98622C153.632 3.6435 153.168 4.24636 152.51 4.33066C152.456 4.33813 152.405 4.34026 152.353 4.34026C151.759 4.34026 151.242 3.89959 151.163 3.29459H151.164ZM195.317 4.09378C194.659 4.01589 194.189 3.41943 194.265 2.76001C194.344 2.10166 194.941 1.63111 195.599 1.70793C196.258 1.78689 196.728 2.38442 196.65 3.0417C196.579 3.65204 196.06 4.10232 195.46 4.10232C195.412 4.10232 195.365 4.09912 195.317 4.09378ZM155.93 2.70986C155.863 2.04938 156.344 1.46145 157.002 1.39316C157.662 1.32701 158.251 1.80716 158.319 2.46658C158.385 3.12493 157.905 3.71499 157.246 3.78221C157.205 3.78755 157.164 3.78862 157.124 3.78862C156.515 3.78862 155.994 3.32766 155.931 2.70986H155.93ZM190.575 3.59869C189.914 3.53787 189.426 2.95421 189.487 2.29479C189.546 1.63431 190.13 1.14668 190.791 1.2075C191.452 1.26619 191.937 1.84985 191.878 2.5114C191.822 3.13453 191.298 3.60402 190.683 3.60402C190.648 3.60402 190.611 3.60189 190.574 3.59869H190.575ZM160.709 2.25638C160.66 1.59483 161.157 1.01971 161.817 0.970624C162.479 0.921541 163.055 1.41877 163.104 2.08032C163.152 2.7408 162.656 3.317 161.995 3.36608C161.965 3.36714 161.936 3.36821 161.906 3.36821C161.283 3.36821 160.756 2.88805 160.709 2.25638ZM185.82 3.23377H185.821C185.158 3.19215 184.656 2.6213 184.697 1.96082C184.738 1.29926 185.309 0.795633 185.971 0.837247C186.633 0.87886 187.136 1.44971 187.095 2.1102C187.054 2.74721 186.526 3.2359 185.898 3.2359C185.872 3.2359 185.847 3.23483 185.82 3.23377ZM165.5 1.93414C165.469 1.27259 165.981 0.711337 166.644 0.679327C167.306 0.64945 167.867 1.16055 167.898 1.82317C167.929 2.48579 167.417 3.04704 166.755 3.07798C166.736 3.07905 166.717 3.07905 166.699 3.07905C166.061 3.07905 165.53 2.57755 165.5 1.93414ZM181.058 2.99902C180.396 2.97555 179.878 2.4207 179.901 1.75808C179.925 1.09547 180.48 0.576894 181.142 0.600369C181.805 0.623843 182.323 1.17869 182.3 1.84131C182.276 2.49006 181.744 3.00009 181.102 3.00009C181.087 3.00009 181.072 3.00009 181.057 2.99902H181.058ZM170.298 1.74528C170.285 1.08159 170.812 0.533148 171.475 0.52141C172.139 0.508606 172.686 1.03571 172.699 1.69833C172.712 2.36201 172.185 2.90833 171.522 2.9222H171.498C170.845 2.9222 170.31 2.40043 170.298 1.74528ZM176.29 2.89552C175.628 2.89019 175.094 2.34921 175.1 1.68659C175.106 1.02291 175.648 0.489398 176.311 0.4958C176.974 0.501135 177.508 1.04211 177.502 1.70686C177.496 2.36521 176.959 2.89765 176.301 2.89659H176.292L176.29 2.89552Z" fill="url(#paint4_linear_413_42914)"/>
<defs>
<linearGradient id="paint0_linear_413_42914" x1="278.762" y1="288.101" x2="194.428" y2="22.2686" gradientUnits="userSpaceOnUse">
<stop stop-color="#745142" stop-opacity="0.9"/>
<stop offset="0.760282" stop-color="#F6D1A5"/>
<stop offset="1" stop-color="#9E5F35"/>
</linearGradient>
<linearGradient id="paint1_linear_413_42914" x1="283.763" y1="293.541" x2="195.373" y2="14.9202" gradientUnits="userSpaceOnUse">
<stop stop-color="#745142" stop-opacity="0.9"/>
<stop offset="0.760282" stop-color="#F6D1A5"/>
<stop offset="1" stop-color="#9E5F35"/>
</linearGradient>
<linearGradient id="paint2_linear_413_42914" x1="288.101" y1="298.267" x2="196.187" y2="8.54234" gradientUnits="userSpaceOnUse">
<stop stop-color="#745142" stop-opacity="0.9"/>
<stop offset="0.760282" stop-color="#F6D1A5"/>
<stop offset="1" stop-color="#9E5F35"/>
</linearGradient>
<linearGradient id="paint3_linear_413_42914" x1="310.895" y1="323.078" x2="200.48" y2="-24.9658" gradientUnits="userSpaceOnUse">
<stop stop-color="#745142" stop-opacity="0.9"/>
<stop offset="0.760282" stop-color="#F6D1A5"/>
<stop offset="1" stop-color="#9E5F35"/>
</linearGradient>
<linearGradient id="paint4_linear_413_42914" x1="315.787" y1="328.409" x2="201.395" y2="-32.1618" gradientUnits="userSpaceOnUse">
<stop stop-color="#745142" stop-opacity="0.9"/>
<stop offset="0.760282" stop-color="#F6D1A5"/>
<stop offset="1" stop-color="#9E5F35"/>
</linearGradient>
</defs>
</svg>
