<svg width="481" height="297" viewBox="0 0 481 297" fill="none" xmlns="http://www.w3.org/2000/svg">
<path d="M0.993318 295.282C0.299222 298.753 319.346 100.92 479.567 1.14331" stroke="url(#paint0_linear_701_39100)" stroke-opacity="0.8" stroke-width="0.5" stroke-dasharray="7 3"/>
<path fill-rule="evenodd" clip-rule="evenodd" d="M0.541992 0.398926H1.04199H480.042H480.542V0.898926V182.899V183.899V295.899V296.399H480.042H367.542H366.542H1.04199H0.541992V295.899V0.898926V0.398926ZM479.542 295.399H367.542V183.899H479.542V295.399ZM298.042 183.899H340.542V225.399H298.042V183.899ZM341.542 209.399V183.899H366.542V209.399H341.542ZM341.542 216.399V225.399H350.542V216.399H341.542ZM341.542 215.399H350.542V210.399H341.542V215.399ZM366.542 225.399H351.542V210.399H366.542V225.399ZM298.042 226.399V295.399H366.542V226.399H298.042ZM479.542 182.899V1.39893H298.042V182.899H479.542ZM1.54199 1.39893V295.399H297.042V1.39893H1.54199Z" fill="url(#paint1_linear_701_39100)"/>
<path d="M1.04248 296.406C1.04248 169.335 103.542 0.898926 298.542 0.898926C394.042 0.898926 480.042 71.1606 480.042 182.782C480.042 266.997 409.542 298.887 367.042 295.399C324.542 291.911 297.542 259.137 297.542 225.637C297.542 204.899 312.542 183.399 339.542 183.399C354.042 183.399 367.042 194.742 367.042 210.19C367.042 214.674 363.542 225.637 351.042 225.637C345.042 225.637 341.042 221.352 341.042 216.169C341.042 214.176 342.542 210.19 347.042 210.19C351.542 210.19 351.542 215.899 349.042 215.899C348.042 215.899 347.042 215.399 347.042 214.176C347.042 213.844 347.242 213.179 348.042 213.179C348.842 213.179 349.042 213.844 349.042 214.176" stroke="url(#paint2_linear_701_39100)"/>
<defs>
<linearGradient id="paint0_linear_701_39100" x1="412.31" y1="18.0656" x2="75.0465" y2="337.217" gradientUnits="userSpaceOnUse">
<stop stop-color="#745142" stop-opacity="0.9"/>
<stop offset="0.68125" stop-color="#F6D1A5"/>
<stop offset="1" stop-color="#9E5F35"/>
</linearGradient>
<linearGradient id="paint1_linear_701_39100" x1="318.542" y1="304.399" x2="190.689" y2="-41.9471" gradientUnits="userSpaceOnUse">
<stop stop-color="#745142" stop-opacity="0.9"/>
<stop offset="0.556017" stop-color="#F6D1A5"/>
<stop offset="1" stop-color="#9E5F35"/>
</linearGradient>
<linearGradient id="paint2_linear_701_39100" x1="403.542" y1="17.3989" x2="-48.8959" y2="353.34" gradientUnits="userSpaceOnUse">
<stop stop-color="#745142" stop-opacity="0.9"/>
<stop offset="0.68125" stop-color="#F6D1A5"/>
<stop offset="1" stop-color="#9E5F35"/>
</linearGradient>
</defs>
</svg>
