<svg width="60" height="60" viewBox="0 0 60 60" fill="none" xmlns="http://www.w3.org/2000/svg">
<path fill-rule="evenodd" clip-rule="evenodd" d="M29.9659 3.61862C15.3776 3.61862 3.55138 15.43 3.55138 30.0001C3.55137 44.5702 15.3776 56.3816 29.9659 56.3816C44.5543 56.3816 56.3805 44.5702 56.3805 30.0001C56.3805 15.43 44.5543 3.61862 29.9659 3.61862ZM29.9659 2.41946C14.7145 2.41946 2.35072 14.7677 2.35071 30.0001C2.35071 45.2325 14.7145 57.5808 29.9659 57.5808C45.2174 57.5808 57.5811 45.2325 57.5811 30.0001C57.5811 14.7677 45.2174 2.41947 29.9659 2.41946Z" fill="white"/>
<path fill-rule="evenodd" clip-rule="evenodd" d="M30 1.2C14.0942 1.2 1.2 14.0942 1.2 30C1.2 45.9058 14.0942 58.8 30 58.8C45.9058 58.8 58.8 45.9058 58.8 30C58.8 14.0942 45.9058 1.2 30 1.2ZM30 0C13.4315 -1.44847e-06 1.44847e-06 13.4315 0 30C-1.44847e-06 46.5685 13.4315 60 30 60C46.5685 60 60 46.5685 60 30C60 13.4315 46.5685 1.44847e-06 30 0Z" fill="url(#paint0_linear_443_44236)"/>
<path fill-rule="evenodd" clip-rule="evenodd" d="M5.01865 21.308C4.06806 24.0297 3.55138 26.9547 3.55138 30.0001C3.55138 33.0461 4.06823 35.9715 5.01913 38.6936L11.7315 31.9812C12.8251 30.8876 12.8251 29.1145 11.7315 28.0209L5.01865 21.308ZM5.48402 20.0761C8.20826 13.379 13.6073 8.0523 20.357 5.41851L27.1726 12.2342C28.7349 13.7965 31.2679 13.7965 32.8302 12.2342L39.6259 5.43848C46.4002 8.09819 51.8079 13.4727 54.5062 20.2207L47.5546 27.1722C45.9923 28.7345 45.9923 31.2675 47.5546 32.8298L54.5056 39.7808C51.8602 46.3957 46.6111 51.6906 40.0235 54.4019L32.8302 47.2086C31.2679 45.6463 28.7349 45.6463 27.1726 47.2086L19.9587 54.4225C13.3956 51.7372 8.15517 46.4896 5.48455 39.9255L12.5802 32.8298C14.1425 31.2675 14.1425 28.7345 12.5802 27.1722L5.48402 20.0761ZM21.1884 54.8901C23.9347 55.8561 26.8889 56.3816 29.9659 56.3816C33.0626 56.3816 36.0348 55.8494 38.7959 54.8716L31.9816 48.0573C30.888 46.9637 29.1149 46.9637 28.0212 48.0573L21.1884 54.8901ZM28.0212 11.3855L21.6037 4.96796C24.2317 4.09267 27.0434 3.61862 29.9659 3.61862C32.9082 3.61862 35.7382 4.09909 38.3814 4.98574L31.9816 11.3855C30.888 12.4791 29.1149 12.4791 28.0212 11.3855ZM56.3805 30.0001C56.3805 32.9899 55.8825 35.8635 54.9649 38.5428L48.4033 31.9812C47.3097 30.8876 47.3097 29.1145 48.4033 28.0209L54.9653 21.4588C55.8827 24.1377 56.3805 27.0108 56.3805 30.0001ZM29.9659 2.41946C14.7145 2.41946 2.35072 14.7677 2.35071 30.0001C2.35071 45.2325 14.7145 57.5808 29.9659 57.5808C45.2174 57.5808 57.5811 45.2325 57.5811 30.0001C57.5811 14.7677 45.2174 2.41947 29.9659 2.41946Z" fill="url(#paint1_linear_443_44236)"/>
<path d="M28.6864 29.9656C28.6864 29.2593 29.2589 28.6868 29.9652 28.6868C30.6714 28.6868 31.244 29.2593 31.244 29.9656C31.244 30.6718 30.6714 31.2444 29.9652 31.2444C29.2589 31.2444 28.6864 30.6718 28.6864 29.9656Z" fill="url(#paint2_linear_443_44236)"/>
<path fill-rule="evenodd" clip-rule="evenodd" d="M25.4058 38.9842L28.0206 41.599C29.1142 42.6926 30.8873 42.6926 31.981 41.599L34.6071 38.9729V36.6543C34.6071 35.5496 33.7115 34.654 32.6068 34.654L27.4061 34.654C26.3014 34.654 25.4058 35.5496 25.4058 36.6543L25.4058 38.9842ZM24.2057 37.7841V36.6543C24.2057 34.8868 25.6386 33.4539 27.4061 33.4539L32.6068 33.4539C34.3744 33.4539 35.8072 34.8868 35.8072 36.6543V37.7727L41.5989 31.9811C42.6925 30.8874 42.6925 29.1143 41.5989 28.0207L35.8072 22.2291V23.3464C35.8072 25.1139 34.3744 26.5468 32.6068 26.5468H27.4061C25.6386 26.5468 24.2057 25.1139 24.2057 23.3464V22.2177L18.4027 28.0207C17.3091 29.1143 17.3091 30.8874 18.4027 31.9811L24.2057 37.7841ZM31.981 18.4028L34.6071 21.0289V23.3464C34.6071 24.4511 33.7115 25.3466 32.6068 25.3466H27.4061C26.3014 25.3466 25.4058 24.4511 25.4058 23.3464V21.0176L28.0206 18.4028C29.1142 17.3092 30.8873 17.3092 31.981 18.4028ZM27.172 42.4477C28.7343 44.01 31.2673 44.01 32.8296 42.4477L42.4476 32.8297C44.0099 31.2674 44.0099 28.7344 42.4476 27.1721L32.8296 17.5541C31.2673 15.9918 28.7343 15.9918 27.172 17.5541L17.554 27.1721C15.9917 28.7344 15.9917 31.2674 17.554 32.8297L27.172 42.4477Z" fill="url(#paint3_linear_443_44236)"/>
<defs>
<linearGradient id="paint0_linear_443_44236" x1="-13.2106" y1="79.1428" x2="86.209" y2="4.72639" gradientUnits="userSpaceOnUse">
<stop stop-color="#E2A269"/>
<stop offset="0.494792" stop-color="#F6D1A5"/>
<stop offset="1" stop-color="#9E5F35"/>
</linearGradient>
<linearGradient id="paint1_linear_443_44236" x1="-13.2106" y1="79.1428" x2="86.209" y2="4.72639" gradientUnits="userSpaceOnUse">
<stop stop-color="#E2A269"/>
<stop offset="0.494792" stop-color="#F6D1A5"/>
<stop offset="1" stop-color="#9E5F35"/>
</linearGradient>
<linearGradient id="paint2_linear_443_44236" x1="-13.2106" y1="79.1428" x2="86.209" y2="4.72639" gradientUnits="userSpaceOnUse">
<stop stop-color="#E2A269"/>
<stop offset="0.494792" stop-color="#F6D1A5"/>
<stop offset="1" stop-color="#9E5F35"/>
</linearGradient>
<linearGradient id="paint3_linear_443_44236" x1="-13.2106" y1="79.1428" x2="86.209" y2="4.72639" gradientUnits="userSpaceOnUse">
<stop stop-color="#E2A269"/>
<stop offset="0.494792" stop-color="#F6D1A5"/>
<stop offset="1" stop-color="#9E5F35"/>
</linearGradient>
</defs>
</svg>
