<svg width="258" height="258" viewBox="0 0 258 258" fill="none" xmlns="http://www.w3.org/2000/svg">
<path d="M142.016 141.499L142.015 141.497C141.205 137.597 142.868 133.589 146.26 131.532C155.424 125.794 161.516 115.611 161.516 104.005C161.516 85.8156 146.526 71.095 128.244 71.5397L128.243 71.5397C111.031 71.9399 97.0181 85.9498 96.5733 103.16C96.2624 115.123 102.444 125.663 111.831 131.534L111.832 131.535C115.177 133.637 116.793 137.643 115.984 141.499L115.984 141.499L106.184 187.964C105.66 190.502 107.549 192.828 110.12 192.828H129H147.879C150.448 192.828 152.339 190.459 151.816 187.966L142.016 141.499ZM142.016 141.499L151.816 187.966L142.016 141.499ZM129 0.5C112.542 0.5 96.7625 3.5825 82.2968 9.24984C65.0663 15.9596 49.6502 26.2959 36.955 39.3515C14.3752 62.5169 0.5 94.1157 0.5 129.023C0.5 199.971 58.0393 257.5 129 257.5C199.96 257.5 257.5 199.971 257.5 129.023C257.5 58.0745 199.96 0.5 129 0.5Z" stroke="url(#paint0_linear_413_42908)"/>
<path d="M142.015 141.499L142.015 141.497C141.205 137.597 142.868 133.589 146.261 131.532C155.424 125.794 161.515 115.611 161.515 104.005C161.515 85.8156 146.525 71.095 128.244 71.5397L128.243 71.5397C111.031 71.94 97.018 85.9498 96.5732 103.16L96.5732 103.16C96.2623 115.123 102.443 125.663 111.831 131.534L111.832 131.535C115.177 133.637 116.793 137.643 115.984 141.499L115.984 141.499L106.184 187.964C106.184 187.965 106.184 187.965 106.184 187.966C105.66 190.503 107.55 192.828 110.12 192.828H129H147.879C150.448 192.828 152.339 190.459 151.816 187.966L142.015 141.499ZM142.015 141.499L151.816 187.966L142.015 141.499Z" fill="#1C1E27" stroke="url(#paint1_linear_413_42908)"/>
<defs>
<linearGradient id="paint0_linear_413_42908" x1="-55.3651" y1="338.676" x2="368.825" y2="21.1659" gradientUnits="userSpaceOnUse">
<stop stop-color="#E2A269"/>
<stop offset="0.494792" stop-color="#F6D1A5"/>
<stop offset="1" stop-color="#9E5F35"/>
</linearGradient>
<linearGradient id="paint1_linear_413_42908" x1="81.5406" y1="232.347" x2="228.163" y2="173.161" gradientUnits="userSpaceOnUse">
<stop stop-color="#E2A269"/>
<stop offset="0.494792" stop-color="#F6D1A5"/>
<stop offset="1" stop-color="#9E5F35"/>
</linearGradient>
</defs>
</svg>
