<svg width="511" height="443" viewBox="0 0 511 443" fill="none" xmlns="http://www.w3.org/2000/svg">
<g clip-path="url(#clip0_426_47323)">
<path opacity="0.49" d="M250.238 9.47274L253.884 3.15758L254.281 3.38675L255.707 0.916696L257.133 3.3868L257.53 3.15763L261.176 9.47279L260.78 9.70197L264.426 16.0171L264.823 15.7879L268.469 22.1031L268.072 22.3323L271.718 28.6474L272.115 28.4183L275.761 34.7334L275.364 34.9626L279.01 41.2777L279.407 41.0486L283.053 47.3637L282.656 47.5929L286.302 53.9081L286.699 53.6789L290.345 59.994L289.948 60.2232L293.594 66.5384L293.991 66.3092L297.637 72.6243L297.24 72.8535L300.886 79.1687L301.283 78.9395L304.929 85.2547L304.532 85.4838L308.178 91.799L308.575 91.5698L312.221 97.885L311.824 98.1141L315.47 104.429L315.867 104.2L319.513 110.515L319.116 110.744L322.763 117.06L323.159 116.83L326.806 123.146L326.409 123.375L330.055 129.69L330.452 129.461L334.098 135.776L333.701 136.005L337.347 142.32L337.744 142.091L341.39 148.406L340.993 148.635L344.639 154.951L345.036 154.721L348.682 161.037L348.285 161.266L351.931 167.581L352.328 167.352L355.974 173.667L355.577 173.896L359.223 180.211L359.62 179.982L363.266 186.297L362.869 186.526L366.515 192.841L366.912 192.612L370.558 198.927L370.161 199.157L373.807 205.472L374.204 205.243L377.85 211.558L377.453 211.787L381.099 218.102L381.496 217.873L385.142 224.188L384.745 224.417L388.392 230.732L388.788 230.503L392.435 236.818L392.038 237.048L395.684 243.363L396.081 243.134L399.727 249.449L399.33 249.678L402.976 255.993L403.373 255.764L407.019 262.079L406.622 262.308L410.268 268.623L410.665 268.394L414.311 274.709L413.914 274.939L417.56 281.254L417.957 281.025L421.603 287.34L421.206 287.569L424.852 293.884L425.249 293.655L428.895 299.97L428.498 300.199L432.144 306.514L432.541 306.285L436.187 312.6L435.79 312.829L439.436 319.145L439.833 318.915L443.479 325.231L443.082 325.46L446.728 331.775L447.125 331.546L450.771 337.861L450.375 338.09L454.021 344.405L454.418 344.176L458.064 350.491L457.667 350.72L461.313 357.036L461.71 356.806L465.356 363.122L464.959 363.351L468.605 369.666L469.002 369.437L472.648 375.752L472.251 375.981L475.897 382.296L476.294 382.067L479.94 388.382L479.543 388.611L483.189 394.927L483.586 394.697L487.232 401.013L486.835 401.242L490.481 407.557L490.878 407.328L494.524 413.643L494.127 413.872L497.773 420.187L498.17 419.958L501.816 426.273L501.419 426.502L505.065 432.817L505.462 432.588L509.108 438.903L508.711 439.133L510.138 441.603H507.285V442.061H499.993V441.603H492.701V442.061H485.409V441.603H478.117V442.061H470.825V441.603H463.533V442.061H456.24V441.603H448.948V442.061H441.656V441.603H434.364V442.061H427.072V441.603H419.78V442.061H412.488V441.603H405.196V442.061H397.904V441.603H390.611V442.061H383.319V441.603H376.027V442.061H368.735V441.603H361.443V442.061H354.151V441.603H346.859V442.061H339.567V441.603H332.275V442.061H324.982V441.603H317.69V442.061H310.398V441.603H303.106V442.061H295.814V441.603H288.522V442.061H281.23V441.603H273.938V442.061H266.646V441.603H259.353V442.061H252.061V441.603H244.769V442.061H237.477V441.603H230.185V442.061H222.893V441.603H215.601V442.061H208.309V441.603H201.016V442.061H193.724V441.603H186.432V442.061H179.14V441.603H171.848V442.061H164.556V441.603H157.264V442.061H149.972V441.603H142.68V442.061H135.387V441.603H128.095V442.061H120.803V441.603H113.511V442.061H106.219V441.603H98.9268V442.061H91.6348V441.603H84.3426V442.061H77.0505V441.603H69.7584V442.061H62.4663V441.603H55.1742V442.061H47.8821V441.603H40.5899V442.061H33.2978V441.603H26.0057V442.061H18.7136V441.603H11.4215V442.061H4.12936V441.603H1.27719L2.70332 439.133L2.30637 438.903L5.95244 432.588L6.34938 432.817L9.99543 426.502L9.5985 426.273L13.2446 419.958L13.6415 420.187L17.2875 413.872L16.8906 413.643L20.5367 407.328L20.9336 407.557L24.5797 401.242L24.1827 401.012L27.8288 394.697L28.2257 394.926L31.8718 388.611L31.4748 388.382L35.1209 382.067L35.5178 382.296L39.1639 375.981L38.767 375.752L42.413 369.437L42.8099 369.666L46.456 363.351L46.0591 363.121L49.7051 356.806L50.1021 357.036L53.7481 350.72L53.3512 350.491L56.9972 344.176L57.3942 344.405L61.0402 338.09L60.6433 337.861L64.2894 331.546L64.6863 331.775L68.3323 325.46L67.9354 325.231L71.5815 318.915L71.9784 319.145L75.6245 312.829L75.2275 312.6L78.8736 306.285L79.2705 306.514L82.9166 300.199L82.5196 299.97L86.1657 293.655L86.5626 293.884L90.2087 287.569L89.8118 287.34L93.4578 281.024L93.8548 281.254L97.5008 274.939L97.1039 274.709L100.75 268.394L101.147 268.623L104.793 262.308L104.396 262.079L108.042 255.764L108.439 255.993L112.085 249.678L111.688 249.449L115.334 243.134L115.731 243.363L119.377 237.048L118.98 236.818L122.626 230.503L123.023 230.732L126.669 224.417L126.272 224.188L129.918 217.873L130.315 218.102L133.961 211.787L133.564 211.558L137.21 205.243L137.607 205.472L141.253 199.157L140.857 198.927L144.503 192.612L144.9 192.841L148.546 186.526L148.149 186.297L151.795 179.982L152.192 180.211L155.838 173.896L155.441 173.667L159.087 167.352L159.484 167.581L163.13 161.266L162.733 161.036L166.379 154.721L166.776 154.951L170.422 148.635L170.025 148.406L173.671 142.091L174.068 142.32L177.714 136.005L177.317 135.776L180.963 129.461L181.36 129.69L185.006 123.375L184.609 123.146L188.255 116.83L188.652 117.06L192.298 110.744L191.901 110.515L195.547 104.2L195.944 104.429L199.59 98.1141L199.193 97.8849L202.84 91.5698L203.236 91.799L206.883 85.4838L206.486 85.2546L210.132 78.9395L210.529 79.1686L214.175 72.8535L213.778 72.6243L217.424 66.3091L217.821 66.5383L221.467 60.2232L221.07 59.994L224.716 53.6788L225.113 53.908L228.759 47.5928L228.362 47.3637L232.008 41.0485L232.405 41.2777L236.051 34.9625L235.654 34.7334L239.3 28.4182L239.697 28.6474L243.343 22.3322L242.946 22.1031L246.592 15.7879L246.989 16.0171L250.635 9.70191L250.238 9.47274Z" stroke="url(#paint0_linear_426_47323)" stroke-width="0.916692" stroke-dasharray="7.33 7.33"/>
<circle opacity="0.39" cx="207.166" cy="279.987" r="65.4064" transform="rotate(30.6327 207.166 279.987)" stroke="url(#paint1_linear_426_47323)" stroke-width="0.916692"/>
</g>
<defs>
<linearGradient id="paint0_linear_426_47323" x1="493.709" y1="553.788" x2="300.525" y2="-55.1556" gradientUnits="userSpaceOnUse">
<stop stop-color="#745142" stop-opacity="0.9"/>
<stop offset="0.760282" stop-color="#F6D1A5"/>
<stop offset="1" stop-color="#9E5F35"/>
</linearGradient>
<linearGradient id="paint1_linear_426_47323" x1="260.357" y1="337.89" x2="217.182" y2="201.796" gradientUnits="userSpaceOnUse">
<stop stop-color="#745142" stop-opacity="0.9"/>
<stop offset="0.760282" stop-color="#F6D1A5"/>
<stop offset="1" stop-color="#9E5F35"/>
</linearGradient>
<clipPath id="clip0_426_47323">
<rect width="511" height="443" fill="white"/>
</clipPath>
</defs>
</svg>
