<svg width="301" height="45" viewBox="0 0 301 45" fill="none" xmlns="http://www.w3.org/2000/svg">
<path fill-rule="evenodd" clip-rule="evenodd" d="M26.287 0L39.4189 22.0417L52.5507 44.0834H26.287H0L13.1319 22.0417L26.287 0Z" fill="#A67F63"/>
<path d="M80.2483 44.0834C92.9448 44.0834 103.237 34.215 103.237 22.0417C103.237 9.86841 92.9448 0 80.2483 0C67.5518 0 57.2593 9.86841 57.2593 22.0417C57.2593 34.215 67.5518 44.0834 80.2483 44.0834Z" fill="#A67F63"/>
<path d="M155.108 22.5347C155.126 10.1093 144.583 0.021931 131.559 0.00382342C118.536 -0.0142842 107.963 10.0438 107.945 22.4691C107.927 34.8945 118.471 44.9819 131.494 45C144.518 45.0181 155.09 34.96 155.108 22.5347Z" fill="#A67F63"/>
<path d="M131.527 0H107.946V44.9961H131.527V0Z" fill="#A67F63"/>
<path fill-rule="evenodd" clip-rule="evenodd" d="M159.816 0L182.702 12.3468L206.022 0V44.0834H159.816V0Z" fill="#A67F63"/>
<path fill-rule="evenodd" clip-rule="evenodd" d="M223.468 7.11893H219.159L218.334 9.01656H216.132L220.277 0.1572H222.397L226.553 9.01656H224.292L223.468 7.11893ZM222.797 5.55815L221.325 2.16712L219.853 5.55815H222.797ZM233.442 9.01656L231.652 6.54627H231.546H229.674V9.01656H227.519V0.1572H231.546C232.37 0.1572 233.088 0.291943 233.689 0.550201C234.289 0.808459 234.76 1.179 235.09 1.66183C235.42 2.14466 235.585 2.71732 235.585 3.36858C235.585 4.03107 235.42 4.59249 235.09 5.07532C234.76 5.55815 234.289 5.91747 233.677 6.17573L235.761 9.02779H233.442V9.01656ZM233.406 3.36858C233.406 2.87452 233.241 2.49275 232.9 2.22326C232.559 1.95378 232.076 1.81903 231.428 1.81903H229.674V4.9069H231.428C232.076 4.9069 232.57 4.77215 232.9 4.50267C233.23 4.23318 233.406 3.86264 233.406 3.36858ZM239.07 1.81903H236.091V0.1572H244.192V1.83026H241.213V9.01656H239.058V1.81903H239.07ZM253.612 9.16253C252.647 9.16253 251.775 8.96042 250.998 8.56742C250.221 8.17442 249.621 7.62422 249.185 6.92804C248.749 6.23187 248.526 5.44587 248.526 4.58127C248.526 3.71666 248.749 2.93066 249.185 2.23449C249.621 1.53832 250.233 0.988116 250.998 0.595115C251.775 0.202115 252.647 0 253.612 0C254.578 0 255.449 0.202115 256.215 0.595115C256.98 0.988116 257.592 1.53832 258.028 2.23449C258.475 2.93066 258.687 3.71666 258.687 4.58127C258.687 5.44587 258.464 6.23187 258.028 6.92804C257.581 7.62422 256.98 8.17442 256.215 8.56742C255.437 8.97165 254.578 9.16253 253.612 9.16253ZM253.612 7.4221C254.166 7.4221 254.66 7.29859 255.096 7.06279C255.543 6.82698 255.885 6.49013 256.144 6.05221C256.391 5.62553 256.521 5.13147 256.521 4.58127C256.521 4.03107 256.391 3.54824 256.144 3.11032C255.897 2.68363 255.543 2.34678 255.096 2.09975C254.649 1.86395 254.154 1.74043 253.612 1.74043C253.059 1.74043 252.564 1.86395 252.129 2.09975C251.681 2.33555 251.34 2.67241 251.081 3.11032C250.833 3.53701 250.704 4.03107 250.704 4.58127C250.704 5.13147 250.833 5.6143 251.081 6.05221C251.328 6.4789 251.681 6.81576 252.129 7.06279C252.564 7.29859 253.059 7.4221 253.612 7.4221ZM262.467 1.79658V4.14335H266.765V5.79395H262.467V9.02779H260.312V0.1572H267.33V1.8078H262.467V1.79658ZM217.345 17.6177H221.572C222.585 17.6177 223.468 17.7973 224.245 18.1679C225.022 18.5384 225.623 19.0549 226.047 19.7174C226.471 20.3799 226.695 21.1659 226.695 22.0417C226.695 22.9288 226.483 23.7036 226.047 24.3773C225.623 25.0398 225.011 25.5563 224.245 25.9268C223.468 26.2974 222.585 26.477 221.572 26.477H217.345V17.6177ZM221.466 24.7927C222.397 24.7927 223.138 24.5457 223.692 24.0516C224.245 23.5576 224.516 22.8839 224.516 22.0417C224.516 21.1996 224.245 20.5259 223.692 20.0318C223.138 19.5378 222.397 19.2907 221.466 19.2907H219.5V24.7815H221.466V24.7927ZM228.32 17.6177H230.474V26.477H228.32V17.6177ZM238.952 21.907H240.919V25.5001C240.412 25.8595 239.824 26.1402 239.164 26.3311C238.505 26.5219 237.834 26.623 237.163 26.623C236.197 26.623 235.326 26.4321 234.56 26.0391C233.795 25.6461 233.183 25.1071 232.747 24.411C232.311 23.7148 232.088 22.9288 232.088 22.053C232.088 21.1771 232.311 20.3911 232.747 19.695C233.183 18.9988 233.795 18.4486 234.572 18.0668C235.349 17.6738 236.232 17.4829 237.198 17.4829C238.01 17.4829 238.752 17.6177 239.412 17.8759C240.071 18.1342 240.636 18.516 241.084 19.01L239.706 20.2227C239.047 19.5602 238.246 19.2234 237.304 19.2234C236.715 19.2234 236.185 19.3469 235.726 19.5827C235.267 19.8185 234.902 20.1553 234.654 20.582C234.395 21.0087 234.266 21.5028 234.266 22.0642C234.266 22.6144 234.395 23.1084 234.654 23.5351C234.914 23.9618 235.267 24.2987 235.726 24.5457C236.185 24.7815 236.703 24.905 237.292 24.905C237.916 24.905 238.47 24.7815 238.964 24.5232V21.907H238.952ZM242.909 17.6177H245.064V26.477H242.909V17.6177ZM249.185 19.2795H246.206V17.6177H254.307V19.2907H251.328V26.477H249.173V19.2795H249.185ZM261.125 24.5794L261.949 26.477H264.21L260.053 17.6177H257.934L253.789 26.477H255.991L256.815 24.5794H261.125ZM260.454 23.0186H257.51L258.982 19.6276L260.454 23.0186ZM265.175 17.6177H267.33V24.804H271.993V26.477H265.187V17.6177H265.175ZM225.811 43.9375L225.8 38.6151L223.068 42.9943H222.102L219.382 38.7274V43.9263H217.369V35.0669H219.147L222.62 40.5689L226.047 35.0669H227.813L227.837 43.9263H225.811V43.9375ZM236.15 42.0399H231.84L231.016 43.9375H228.814L232.959 35.0781H235.078L239.235 43.9375H236.974L236.15 42.0399ZM235.479 40.4791L234.007 37.088L232.535 40.4791H235.479ZM246.123 43.9375L244.334 41.4672H244.228H242.355V43.9375H240.201V35.0781H244.228C245.052 35.0781 245.77 35.2129 246.371 35.4711C246.983 35.7294 247.442 36.0999 247.772 36.5828C248.102 37.0656 248.266 37.6382 248.266 38.2895C248.266 38.952 248.102 39.5134 247.772 39.9962C247.442 40.4791 246.971 40.8384 246.359 41.0967L248.443 43.9487H246.123V43.9375ZM246.076 38.2895C246.076 37.7954 245.911 37.4137 245.57 37.1442C245.229 36.8747 244.746 36.74 244.098 36.74H242.344V39.8278H244.098C244.746 39.8278 245.24 39.6931 245.57 39.4236C245.911 39.1541 246.076 38.7836 246.076 38.2895ZM253.342 40.4566L252.093 41.703V43.9487H249.95V35.0894H252.093V39.2327L256.215 35.0894H258.605L254.755 39.0418L258.829 43.9487H256.321L253.342 40.4566ZM266.977 42.2869V43.9375H259.782V35.0781H266.812V36.7287H261.926V38.6488H266.235V40.2433H261.926V42.2981H266.977V42.2869ZM270.616 36.74H267.636V35.0669H275.738V36.74H272.759V43.9263H270.604V36.74H270.616ZM276.903 35.0781H279.058V43.9375H276.903V35.0781ZM289.774 35.0781V43.9375H288.007L283.368 38.559V43.9375H281.248V35.0781H283.026L287.642 40.4566V35.0781H289.774ZM298.263 39.3675H300.23V42.9606C299.724 43.3199 299.147 43.6006 298.475 43.7915C297.816 43.9824 297.145 44.0835 296.474 44.0835C295.508 44.0835 294.637 43.8813 293.871 43.4996C293.106 43.1066 292.494 42.5676 292.058 41.8714C291.622 41.1753 291.399 40.3892 291.399 39.5134C291.399 38.6376 291.622 37.8516 292.058 37.1554C292.494 36.4592 293.106 35.909 293.883 35.516C294.66 35.123 295.543 34.9322 296.509 34.9322C297.321 34.9322 298.063 35.0669 298.723 35.3252C299.382 35.5834 299.947 35.9652 300.395 36.4592L299.017 37.6719C298.358 37.0094 297.557 36.6726 296.615 36.6726C296.026 36.6726 295.496 36.7961 295.037 37.0319C294.578 37.2677 294.213 37.6046 293.965 38.0312C293.706 38.4579 293.577 38.952 293.577 39.5134C293.577 40.0636 293.706 40.5577 293.965 40.9844C294.225 41.4111 294.578 41.7479 295.037 41.9949C295.496 42.2307 296.014 42.3543 296.603 42.3543C297.227 42.3543 297.781 42.2307 298.275 41.9725V39.3675H298.263Z" fill="#A67F63"/>
</svg>
