<svg width="240" height="53" viewBox="0 0 240 53" fill="none" xmlns="http://www.w3.org/2000/svg">
<g filter="url(#filter0_d_407_42918)">
<path d="M27.4372 24.753C27.4372 26.3585 26.8627 27.6807 25.7138 28.7195C24.5648 29.7395 23.0957 30.2495 21.3063 30.2495H13V11.55H19.6112C21.344 11.55 22.7566 12.0411 23.8491 13.0233C24.9604 13.9866 25.516 15.2333 25.516 16.7632C25.516 18.1421 25.0545 19.2659 24.1316 20.1348C26.3353 20.947 27.4372 22.4864 27.4372 24.753ZM19.3004 14.8366H16.6729V19.1148H19.3004C20.0726 19.1148 20.6659 18.9259 21.0803 18.5482C21.5135 18.1704 21.7301 17.6415 21.7301 16.9616C21.7301 16.3005 21.5135 15.781 21.0803 15.4033C20.6659 15.0255 20.0726 14.8366 19.3004 14.8366ZM23.6796 24.6113C23.6796 23.8936 23.4441 23.3269 22.9732 22.9114C22.5024 22.477 21.8525 22.2597 21.0238 22.2597H16.6729V26.9629H21.0238C21.8525 26.9629 22.5024 26.7552 22.9732 26.3396C23.4441 25.9241 23.6796 25.348 23.6796 24.6113ZM30.5476 30.2495V11.55H43.0919V15.0066H34.3618V18.8032H40.7751V22.0614H34.3618V26.7929H43.4309V30.2495H30.5476Z" fill="url(#paint0_linear_407_42918)"/>
<path d="M45.4419 26.4529L48.0694 24.4697C49.3879 26.2829 50.9135 27.1896 52.6464 27.1896C53.4751 27.1896 54.1249 27.0102 54.5958 26.6513C55.0667 26.2735 55.3021 25.7635 55.3021 25.1213C55.3021 24.5924 55.142 24.1863 54.8218 23.903C54.5016 23.6008 53.8706 23.2325 52.9289 22.7981L50.9229 21.8914C47.9093 20.5503 46.4025 18.7559 46.4025 16.5082C46.4025 14.9216 46.9864 13.6467 48.1542 12.6833C49.3219 11.7012 50.8005 11.2101 52.5899 11.2101C53.9837 11.2101 55.2079 11.5312 56.2627 12.1734C57.3175 12.7967 58.1462 13.6561 58.749 14.7516L56.1497 16.7632C55.1891 15.3277 54.0025 14.61 52.5899 14.61C51.9118 14.61 51.3561 14.7705 50.9229 15.0916C50.4897 15.4127 50.2731 15.8566 50.2731 16.4232C50.2731 16.8954 50.4238 17.2827 50.7252 17.5849C51.0454 17.8682 51.6198 18.1987 52.4486 18.5765L54.5675 19.5115C56.1685 20.2292 57.3363 21.0131 58.0709 21.8631C58.8055 22.6942 59.1728 23.733 59.1728 24.9797C59.1728 26.6607 58.5606 28.0207 57.3363 29.0595C56.112 30.0795 54.5487 30.5895 52.6464 30.5895C51.083 30.5895 49.6704 30.2212 48.4084 29.4845C47.1653 28.7479 46.1765 27.7374 45.4419 26.4529ZM66.7328 30.2495V15.0066H60.7715V11.55H76.5366V15.0066H70.547V30.2495H66.7328ZM75.665 27.9546C75.665 27.2179 75.9192 26.5946 76.4278 26.0846C76.9363 25.5746 77.5673 25.3196 78.3207 25.3196C79.0553 25.3196 79.6674 25.5746 80.1571 26.0846C80.6657 26.5946 80.92 27.2179 80.92 27.9546C80.92 28.7101 80.6751 29.3429 80.1854 29.8528C79.6957 30.3439 79.0741 30.5895 78.3207 30.5895C77.5673 30.5895 76.9363 30.3439 76.4278 29.8528C75.9192 29.3429 75.665 28.7101 75.665 27.9546ZM84.4026 30.2495V11.55H91.4093C93.3682 11.55 94.9786 12.1073 96.2405 13.2217C97.5025 14.3361 98.1335 15.7905 98.1335 17.5849C98.1335 19.3604 97.5025 20.8148 96.2405 21.9481C94.9786 23.0814 93.3682 23.648 91.4093 23.648H88.2167V30.2495H84.4026ZM88.2167 20.3048H91.4093C92.2945 20.3048 92.982 20.0592 93.4717 19.5681C93.9803 19.0582 94.2346 18.3971 94.2346 17.5849C94.2346 16.7916 93.9709 16.1494 93.4435 15.6583C92.9349 15.1672 92.2569 14.9216 91.4093 14.9216H88.2167V20.3048ZM113.447 24.5263H103.644C103.87 25.4141 104.322 26.1035 105 26.5946C105.697 27.0668 106.554 27.3029 107.571 27.3029C108.946 27.3029 110.245 26.8307 111.47 25.8863L113.052 28.4929C111.376 29.8906 109.511 30.5895 107.458 30.5895C105.311 30.6273 103.484 29.9284 101.977 28.4929C100.489 27.0385 99.7636 25.2913 99.8013 23.2514C99.7636 21.2303 100.47 19.4926 101.92 18.0382C103.371 16.5838 105.103 15.8755 107.119 15.9133C109.04 15.9133 110.613 16.5366 111.837 17.7832C113.08 19.0298 113.702 20.5787 113.702 22.4297C113.702 23.1097 113.617 23.8086 113.447 24.5263ZM103.644 21.8347H110.001C109.982 20.9848 109.68 20.3048 109.096 19.7948C108.531 19.2659 107.825 19.0015 106.978 19.0015C106.168 19.0015 105.461 19.2565 104.859 19.7665C104.256 20.2765 103.851 20.9659 103.644 21.8347ZM125.662 27.0479V30.2495C124.758 30.4762 123.882 30.5895 123.035 30.5895C121.245 30.5895 119.861 30.1456 118.881 29.2579C117.921 28.3701 117.44 27.0574 117.44 25.3196V19.4548H115.237V16.2249H117.44V12.6833H121.255V16.2249H125.21V19.4548H121.255V24.9797C121.255 25.773 121.452 26.3396 121.848 26.6796C122.262 27.0007 122.931 27.1613 123.854 27.1613C124.174 27.1613 124.777 27.1235 125.662 27.0479ZM141.01 24.5263H131.207C131.433 25.4141 131.885 26.1035 132.563 26.5946C133.26 27.0668 134.117 27.3029 135.134 27.3029C136.509 27.3029 137.808 26.8307 139.033 25.8863L140.615 28.4929C138.939 29.8906 137.074 30.5895 135.021 30.5895C132.874 30.6273 131.047 29.9284 129.54 28.4929C128.052 27.0385 127.327 25.2913 127.364 23.2514C127.327 21.2303 128.033 19.4926 129.483 18.0382C130.934 16.5838 132.666 15.8755 134.682 15.9133C136.603 15.9133 138.176 16.5366 139.4 17.7832C140.643 19.0298 141.265 20.5787 141.265 22.4297C141.265 23.1097 141.18 23.8086 141.01 24.5263ZM131.207 21.8347H137.564C137.545 20.9848 137.243 20.3048 136.659 19.7948C136.094 19.2659 135.388 19.0015 134.54 19.0015C133.731 19.0015 133.024 19.2565 132.422 19.7665C131.819 20.2765 131.414 20.9659 131.207 21.8347ZM152.83 16.2249V19.5965H151.813C150.645 19.5965 149.722 19.9081 149.044 20.5315C148.385 21.1548 148.055 22.0614 148.055 23.2514V30.2495H144.241V16.2249H147.744V17.8965C148.724 16.6688 150.005 16.0549 151.587 16.0549C152.058 16.0549 152.472 16.1116 152.83 16.2249ZM153.923 27.8696L155.844 25.5463C157.049 26.8118 158.359 27.4446 159.771 27.4446C160.299 27.4446 160.722 27.3501 161.043 27.1613C161.382 26.9535 161.551 26.6607 161.551 26.2829C161.551 25.9996 161.448 25.7824 161.24 25.6313C161.052 25.4613 160.675 25.2535 160.11 25.008L158.613 24.3847C157.276 23.8369 156.306 23.2419 155.703 22.5997C155.1 21.9386 154.799 21.1075 154.799 20.1065C154.799 18.8032 155.27 17.7832 156.211 17.0466C157.153 16.291 158.396 15.9133 159.941 15.9133C162.013 15.9133 163.689 16.6121 164.97 18.0099L163.049 20.3615C162.107 19.4737 161.061 19.0298 159.912 19.0298C158.914 19.0298 158.415 19.3604 158.415 20.0215C158.415 20.2859 158.519 20.5031 158.726 20.6731C158.933 20.8431 159.319 21.0414 159.884 21.2681L161.24 21.8347C162.634 22.4014 163.632 23.0058 164.235 23.648C164.857 24.2902 165.167 25.1119 165.167 26.113C165.167 27.5107 164.649 28.6062 163.614 29.3995C162.596 30.1928 161.297 30.5895 159.715 30.5895C157.21 30.5895 155.279 29.6829 153.923 27.8696ZM180.907 18.0099C182.187 19.3887 182.828 21.1359 182.828 23.2514C182.828 25.3669 182.187 27.1235 180.907 28.5212C179.626 29.9001 178.006 30.5895 176.047 30.5895C174.069 30.5895 172.572 29.9001 171.555 28.5212V30.2495H168.052V9.00012H171.866V17.5849C172.883 16.4705 174.277 15.9133 176.047 15.9133C178.006 15.9133 179.626 16.6121 180.907 18.0099ZM178.957 23.223C178.957 22.0897 178.609 21.1642 177.912 20.4465C177.234 19.7287 176.377 19.3698 175.341 19.3698C174.324 19.3698 173.476 19.7193 172.798 20.4181C172.139 21.0981 171.809 22.0425 171.809 23.2514C171.809 24.4602 172.139 25.4046 172.798 26.0846C173.476 26.7646 174.324 27.1046 175.341 27.1046C176.396 27.1046 177.262 26.7457 177.94 26.028C178.618 25.3102 178.957 24.3752 178.957 23.223ZM185.679 24.073V16.2249H189.493V24.3847C189.493 25.1969 189.738 25.8485 190.227 26.3396C190.736 26.8307 191.376 27.0763 192.148 27.0763C192.902 27.0763 193.523 26.8307 194.013 26.3396C194.503 25.8296 194.748 25.178 194.748 24.3847V16.2249H198.562V24.073C198.562 25.9996 197.95 27.5674 196.725 28.7762C195.52 29.9851 193.994 30.5895 192.148 30.5895C190.265 30.5895 188.711 29.9945 187.487 28.8045C186.281 27.5957 185.679 26.0185 185.679 24.073ZM210.798 16.2249V19.5965H209.781C208.613 19.5965 207.69 19.9081 207.012 20.5315C206.353 21.1548 206.023 22.0614 206.023 23.2514V30.2495H202.209V16.2249H205.712V17.8965C206.692 16.6688 207.972 16.0549 209.554 16.0549C210.025 16.0549 210.44 16.1116 210.798 16.2249ZM223.425 16.2249H226.928V28.6912C226.928 30.9389 226.278 32.6672 224.979 33.8761C223.679 35.0849 221.918 35.6893 219.695 35.6893C217.077 35.6893 214.789 34.8205 212.83 33.0828L214.836 30.4195C216.456 31.6283 217.972 32.2328 219.385 32.2328C220.534 32.2328 221.438 31.9495 222.097 31.3828C222.775 30.8162 223.114 29.9945 223.114 28.9179V28.1529C222.097 29.2673 220.675 29.8245 218.848 29.8245C216.908 29.8245 215.307 29.1729 214.045 27.8696C212.783 26.5663 212.152 24.8947 212.152 22.8547C212.152 20.7959 212.783 19.1243 214.045 17.8399C215.307 16.5555 216.908 15.9133 218.848 15.9133C220.882 15.9133 222.408 16.6027 223.425 17.9815V16.2249ZM223.17 22.7981C223.17 21.6459 222.831 20.7581 222.153 20.1348C221.494 19.4926 220.656 19.1715 219.639 19.1715C218.584 19.1715 217.718 19.502 217.04 20.1631C216.362 20.8242 216.023 21.712 216.023 22.8264C216.023 23.9408 216.362 24.8474 217.04 25.5463C217.737 26.2452 218.603 26.5946 219.639 26.5946C220.637 26.5946 221.475 26.2546 222.153 25.5746C222.831 24.8947 223.17 23.9691 223.17 22.7981Z" fill="#C9C9C9"/>
</g>
<defs>
<filter id="filter0_d_407_42918" x="0" y="0" width="239.928" height="52.6893" filterUnits="userSpaceOnUse" color-interpolation-filters="sRGB">
<feFlood flood-opacity="0" result="BackgroundImageFix"/>
<feColorMatrix in="SourceAlpha" type="matrix" values="0 0 0 0 0 0 0 0 0 0 0 0 0 0 0 0 0 0 127 0" result="hardAlpha"/>
<feOffset dy="4"/>
<feGaussianBlur stdDeviation="6.5"/>
<feComposite in2="hardAlpha" operator="out"/>
<feColorMatrix type="matrix" values="0 0 0 0 0.991667 0 0 0 0 0.818362 0 0 0 0 0.623924 0 0 0 0.37 0"/>
<feBlend mode="normal" in2="BackgroundImageFix" result="effect1_dropShadow_407_42918"/>
<feBlend mode="normal" in="SourceGraphic" in2="effect1_dropShadow_407_42918" result="shape"/>
</filter>
<linearGradient id="paint0_linear_407_42918" x1="40.5032" y1="29.1192" x2="36.5099" y2="8.63435" gradientUnits="userSpaceOnUse">
<stop stop-color="#745142" stop-opacity="0.9"/>
<stop offset="0.760282" stop-color="#F6D1A5"/>
<stop offset="1" stop-color="#9E5F35"/>
</linearGradient>
</defs>
</svg>
