<svg width="232" height="45" viewBox="0 0 232 45" fill="none" xmlns="http://www.w3.org/2000/svg">
<path fill-rule="evenodd" clip-rule="evenodd" d="M30.3962 0.389236V0.470451C24.0711 6.92703 21.3798 14.1958 21.4345 22.967C21.3798 31.5216 24.6585 38.7362 30.3689 44.8544H0V0.389236H30.3962Z" fill="#A67F63"/>
<path fill-rule="evenodd" clip-rule="evenodd" d="M42.1327 3.61078C45.7256 1.29616 49.865 0.13208 54.3869 0.13208C55.6437 0.13208 56.9005 0.172688 58.1437 0.172688V44.8002C56.8732 44.8002 55.6437 44.8679 54.3869 44.8679C49.5918 44.8679 45.3295 43.5685 41.5726 40.9831C40.4797 40.2251 39.4551 39.2912 38.4715 38.3166C34.0589 33.9445 31.8595 28.6656 31.8595 22.4662C31.8595 16.3209 34.0589 11.0825 38.4715 6.76462C39.6054 5.51933 40.8349 4.46354 42.1327 3.61078Z" fill="#A67F63"/>
<path d="M83.9773 0.161442C83.4769 0.697471 82.9224 1.3005 82.3003 1.95714C81.6781 2.61378 81.0154 3.29721 80.3391 3.98065C79.6629 4.67749 78.9867 5.34753 78.3104 6.01756C77.6342 6.6876 76.9985 7.30403 76.4034 7.88027C77.0932 8.36269 77.8235 8.93892 78.5944 9.64916C79.3654 10.346 80.1228 11.0964 80.8531 11.8871C81.597 12.6777 82.2867 13.4952 82.9359 14.3126C83.5851 15.1435 84.1261 15.9207 84.5589 16.6711H81.8134C81.3265 15.9207 80.7855 15.1703 80.1498 14.4198C79.5277 13.6694 78.8649 12.9457 78.1616 12.2489C77.4583 11.5521 76.7551 10.9222 76.0518 10.3326C75.3349 9.74297 74.6452 9.24714 73.9689 8.83172V16.6711H71.6291V0.161442H73.9689V7.45144C74.537 6.92881 75.1456 6.33918 75.8218 5.66914C76.4981 5.01251 77.1608 4.34247 77.8235 3.68584C78.4862 3.0158 79.1084 2.37256 79.69 1.76953C80.2715 1.1531 80.7719 0.617067 81.1642 0.161442H83.9773Z" fill="#A67F63"/>
<path d="M95.5666 11.6315C95.242 12.3686 94.9174 13.052 94.5657 13.6953C94.2141 14.3385 93.8083 14.9013 93.3349 15.3703C92.8616 15.8528 92.2935 16.2146 91.6308 16.496C90.9681 16.764 90.1431 16.898 89.1693 16.898C88.9799 16.898 88.7771 16.8846 88.5742 16.8578C88.3713 16.831 88.1684 16.8042 87.9791 16.764C87.7897 16.7238 87.6139 16.6836 87.4787 16.63C87.3299 16.5764 87.2352 16.5362 87.1676 16.4826L87.5733 14.5261C87.7762 14.6065 88.0332 14.6869 88.3307 14.7673C88.6283 14.8477 88.9394 14.8879 89.2504 14.8879C89.7373 14.8879 90.1566 14.8343 90.5082 14.7137C90.8734 14.5931 91.198 14.4323 91.482 14.2179C91.7661 14.0035 92.023 13.7355 92.253 13.4272C92.4829 13.119 92.6993 12.7706 92.9021 12.3954C92.1989 11.2697 91.5361 10.1441 90.9005 9.01839C90.2783 7.89273 89.6968 6.82067 89.1693 5.76202C88.6418 4.71676 88.1549 3.7117 87.7221 2.77365C87.2893 1.8222 86.9106 0.964554 86.5725 0.16051H89.2234C89.7509 1.54079 90.4271 3.08187 91.2521 4.78376C92.0771 6.48566 92.9968 8.26795 94.0112 10.1173C94.6469 8.66998 95.269 7.07529 95.8506 5.33319C96.4322 3.5911 96.9867 1.8624 97.5006 0.147109H100.03C99.6646 1.28617 99.2859 2.37163 98.9208 3.37669C98.5556 4.38174 98.1769 5.35999 97.8117 6.28464C97.4465 7.2093 97.0678 8.12054 96.7027 9.00499C96.3375 9.90284 95.9588 10.7739 95.5666 11.6315Z" fill="#A67F63"/>
<path d="M107.886 2.14435C107.845 3.0288 107.818 3.89985 107.791 4.73069C107.764 5.56154 107.71 6.37898 107.643 7.15623C107.575 7.94687 107.48 8.71071 107.359 9.46115C107.237 10.2116 107.047 10.9352 106.831 11.6589C106.601 12.3691 106.331 13.0391 106.006 13.669C105.681 14.2988 105.262 14.8482 104.775 15.3173C104.288 15.7863 103.707 16.1615 103.044 16.4429C102.381 16.7243 101.597 16.8852 100.704 16.9254L100.434 14.9286C101.556 14.808 102.422 14.4462 103.044 13.8834C103.666 13.3072 104.167 12.4361 104.572 11.2568C105.019 9.91677 105.303 8.30869 105.424 6.43259C105.546 4.55648 105.6 2.46597 105.6 0.174443H115.054V16.6975H112.714V2.14435H107.886Z" fill="#A67F63"/>
<path d="M132.451 11.5119C132.451 13.2942 131.802 14.6208 130.503 15.5187C129.205 16.4031 127.379 16.8588 125.012 16.8588C124.336 16.8588 123.606 16.832 122.794 16.7784C121.996 16.7247 121.252 16.6175 120.576 16.4567V0.161442H122.916V6.16497C123.241 6.13817 123.565 6.11137 123.89 6.11137C124.214 6.09797 124.539 6.09797 124.864 6.09797C129.922 6.09797 132.451 7.90707 132.451 11.5119ZM129.99 11.5119C129.99 10.8418 129.854 10.2924 129.611 9.85017C129.354 9.40795 129.002 9.05953 128.542 8.80491C128.083 8.5503 127.542 8.37609 126.906 8.26889C126.27 8.16168 125.567 8.10808 124.796 8.10808C124.485 8.10808 124.187 8.10808 123.863 8.10808C123.552 8.10808 123.227 8.12148 122.916 8.16168V14.7682C123.2 14.795 123.525 14.8218 123.89 14.8218C124.255 14.8352 124.688 14.8352 125.202 14.8352C125.824 14.8352 126.432 14.7816 127.001 14.6878C127.582 14.594 128.083 14.4198 128.529 14.1652C128.975 13.9106 129.327 13.5756 129.584 13.1468C129.854 12.7179 129.99 12.1819 129.99 11.5119Z" fill="#A67F63"/>
<path d="M147.934 0.161442V2.15815H142.686V16.6711H140.346V2.17155H135.098V0.161442H147.934Z" fill="#A67F63"/>
<path d="M159.678 11.6315C159.354 12.3686 159.029 13.052 158.677 13.6953C158.326 14.3385 157.92 14.9013 157.447 15.3703C156.973 15.8528 156.405 16.2146 155.742 16.496C155.08 16.764 154.255 16.898 153.281 16.898C153.092 16.898 152.889 16.8846 152.686 16.8578C152.483 16.831 152.28 16.8042 152.091 16.764C151.901 16.7238 151.726 16.6836 151.59 16.63C151.441 16.5764 151.347 16.5362 151.279 16.4826L151.685 14.5261C151.888 14.6065 152.145 14.6869 152.442 14.7673C152.74 14.8477 153.051 14.8879 153.376 14.8879C153.862 14.8879 154.282 14.8343 154.633 14.7137C154.999 14.5931 155.323 14.4323 155.607 14.2179C155.891 14.0035 156.148 13.7355 156.378 13.4272C156.608 13.119 156.824 12.7706 157.027 12.3954C156.324 11.2697 155.661 10.1441 155.026 9.01839C154.403 7.89273 153.822 6.82067 153.294 5.76202C152.767 4.71676 152.28 3.7117 151.847 2.77365C151.414 1.8222 151.036 0.964554 150.698 0.16051H153.348C153.876 1.54079 154.552 3.08187 155.377 4.78376C156.202 6.48566 157.122 8.26795 158.136 10.1173C158.772 8.66998 159.394 7.07529 159.976 5.33319C160.557 3.5911 161.112 1.8624 161.626 0.147109H164.155C163.79 1.28617 163.411 2.37163 163.046 3.37669C162.681 4.38174 162.302 5.35999 161.937 6.28464C161.572 7.2093 161.193 8.12054 160.828 9.00499C160.436 9.90284 160.057 10.7739 159.678 11.6315Z" fill="#A67F63"/>
<path d="M172.195 0C174.535 0 176.334 0.442224 177.592 1.32667C178.85 2.21112 179.485 3.52439 179.485 5.26649C179.485 6.21794 179.309 7.03538 178.971 7.70542C178.633 8.37546 178.133 8.92489 177.484 9.35371C176.834 9.76913 176.05 10.0774 175.117 10.265C174.183 10.4526 173.142 10.5464 171.965 10.5464H170.112V16.6705H167.773V0.402022C168.435 0.241213 169.166 0.134007 169.977 0.0804044C170.789 0.0268015 171.519 0 172.195 0ZM172.398 2.02351C171.397 2.02351 170.64 2.05031 170.112 2.09051V8.57647H171.871C172.669 8.57647 173.399 8.52287 174.035 8.41566C174.67 8.30845 175.211 8.13424 175.658 7.89303C176.104 7.65182 176.442 7.3034 176.686 6.87458C176.929 6.44575 177.051 5.89632 177.051 5.22629C177.051 4.59645 176.929 4.06042 176.672 3.6584C176.429 3.24298 176.09 2.92136 175.658 2.66675C175.238 2.42553 174.738 2.25132 174.183 2.15752C173.615 2.07711 173.02 2.02351 172.398 2.02351Z" fill="#A67F63"/>
<path d="M194.286 0.161442H196.626V16.6845H194.286V9.05953H186.131V16.6845H183.791V0.161442H186.131V7.04942H194.286V0.161442Z" fill="#A67F63"/>
<path d="M213.286 16.6838C213.016 15.9736 212.759 15.2634 212.515 14.5799C212.272 13.8831 212.028 13.1863 211.771 12.476H204.224L202.71 16.6972H200.275C200.911 14.9551 201.519 13.3337 202.074 11.8462C202.628 10.3587 203.183 8.95162 203.724 7.61155C204.265 6.27147 204.792 4.9984 205.32 3.79234C205.847 2.57287 206.402 1.36681 206.983 0.18754H209.12C209.702 1.38021 210.257 2.58627 210.784 3.79234C211.311 5.0118 211.839 6.28487 212.38 7.61155C212.921 8.95162 213.462 10.3587 214.03 11.8462C214.598 13.3337 215.193 14.9551 215.829 16.6972H213.286V16.6838ZM211.095 10.5597C210.581 9.17943 210.067 7.83936 209.567 6.53949C209.066 5.23962 208.539 4.00675 207.998 2.81408C207.43 4.00675 206.902 5.25302 206.402 6.53949C205.901 7.83936 205.401 9.17943 204.901 10.5597H211.095Z" fill="#A67F63"/>
<path d="M226.547 0C226.885 0 227.25 0.0134007 227.629 0.0268015C228.008 0.0402022 228.4 0.0670037 228.792 0.0938051C229.184 0.120607 229.577 0.160809 229.955 0.214412C230.334 0.268015 230.699 0.321618 231.01 0.402022V16.6839H228.671V10.2248H226.669C226.439 10.2248 226.209 10.2248 225.966 10.2114C225.722 10.198 225.384 10.1712 224.965 10.131C224.681 10.5062 224.37 10.9618 224.031 11.471C223.693 11.9803 223.355 12.5163 223.017 13.0925C222.679 13.6687 222.341 14.2584 222.016 14.8748C221.692 15.4912 221.381 16.0943 221.11 16.6839H218.662C218.919 16.0675 219.23 15.4242 219.582 14.7542C219.933 14.0842 220.299 13.4543 220.677 12.8513C221.056 12.2483 221.421 11.6854 221.759 11.1762C222.097 10.667 222.408 10.2382 222.665 9.90314C222.3 9.79594 221.908 9.63513 221.516 9.42072C221.11 9.2197 220.745 8.92489 220.407 8.56307C220.069 8.20125 219.798 7.74562 219.582 7.19619C219.365 6.64676 219.257 5.99013 219.257 5.22629C219.257 4.36864 219.419 3.6182 219.758 2.96156C220.096 2.30493 220.583 1.7689 221.218 1.32667C221.854 0.884448 222.611 0.562831 223.518 0.335018C224.41 0.107206 225.425 0 226.547 0ZM226.358 2.02351C225.749 2.02351 225.168 2.07711 224.613 2.17092C224.059 2.26472 223.572 2.43893 223.139 2.66675C222.706 2.90796 222.354 3.22958 222.111 3.645C221.854 4.06042 221.732 4.56965 221.732 5.19948C221.732 6.37875 222.111 7.19619 222.868 7.63842C223.626 8.09404 224.775 8.32186 226.29 8.32186H228.698V2.09051C228.522 2.09051 228.319 2.07711 228.075 2.06371C227.873 2.05031 227.629 2.03691 227.345 2.02351C227.048 2.02351 226.723 2.02351 226.358 2.02351Z" fill="#A67F63"/>
<path d="M78.9035 43.9144C77.7268 43.9144 76.6719 43.7268 75.6981 43.3382C74.7378 42.963 73.9128 42.4001 73.223 41.6765C72.5332 40.9395 72.0058 40.0416 71.6271 38.9695C71.2484 37.8975 71.059 36.6646 71.059 35.2843C71.059 33.9041 71.2754 32.6712 71.6947 31.5991C72.114 30.5271 72.6956 29.6292 73.4124 28.8922C74.1292 28.1552 74.9813 27.6057 75.9415 27.2305C76.9018 26.8553 77.9297 26.6543 79.0252 26.6543C79.715 26.6543 80.3371 26.7079 80.8916 26.8017C81.4462 26.8955 81.9195 27.0027 82.3388 27.1367C82.7445 27.2573 83.0827 27.3913 83.3396 27.5119C83.5966 27.6325 83.7724 27.7397 83.8671 27.7933L83.1909 29.6962C83.0421 29.6024 82.8392 29.4952 82.5687 29.388C82.2982 29.2808 81.9872 29.1602 81.649 29.053C81.3109 28.9458 80.9322 28.852 80.5129 28.785C80.1072 28.718 79.6879 28.6778 79.2686 28.6778C78.3895 28.6778 77.5916 28.8252 76.8883 29.1334C76.185 29.4416 75.5763 29.8704 75.0894 30.4467C74.589 31.0229 74.2103 31.7197 73.9534 32.5372C73.6829 33.3546 73.5611 34.2793 73.5611 35.2843C73.5611 36.276 73.6829 37.1738 73.9128 37.9779C74.1427 38.7819 74.4944 39.4788 74.9542 40.0684C75.414 40.6446 75.9956 41.1003 76.6989 41.4085C77.4022 41.7301 78.2137 41.8909 79.1469 41.8909C80.2154 41.8909 81.108 41.7837 81.8113 41.5559C82.5146 41.3281 83.0421 41.1405 83.3937 40.9663L83.9888 42.8692C83.8806 42.9496 83.6778 43.0434 83.3937 43.164C83.1097 43.2846 82.7446 43.4052 82.3118 43.5124C81.879 43.6196 81.3785 43.7134 80.797 43.7938C80.2019 43.8742 79.5662 43.9144 78.9035 43.9144Z" fill="#A67F63"/>
<path d="M99.5767 27.0427V29.0394H94.329V43.5524H91.9892V29.0394H86.7416V27.0427H99.5767Z" fill="#A67F63"/>
<path d="M102.111 35.2843C102.111 33.8639 102.328 32.6176 102.747 31.5455C103.166 30.4601 103.748 29.5622 104.478 28.8386C105.209 28.1149 106.061 27.5655 107.034 27.2037C108.008 26.8419 109.036 26.6543 110.132 26.6543C111.2 26.6543 112.214 26.8419 113.175 27.2037C114.135 27.5655 114.96 28.1149 115.69 28.8386C116.407 29.5622 116.989 30.4601 117.408 31.5455C117.827 32.631 118.044 33.8773 118.044 35.2843C118.044 36.7048 117.827 37.9511 117.408 39.0231C116.989 40.1086 116.407 41.0064 115.69 41.7301C114.974 42.4537 114.135 43.0032 113.175 43.365C112.214 43.7268 111.2 43.9144 110.132 43.9144C109.036 43.9144 108.008 43.7268 107.034 43.365C106.061 43.0032 105.209 42.4537 104.478 41.7301C103.748 41.0064 103.166 40.1086 102.747 39.0231C102.314 37.9511 102.111 36.7048 102.111 35.2843ZM104.559 35.2843C104.559 36.2894 104.681 37.2006 104.938 38.0181C105.195 38.8355 105.56 39.5324 106.034 40.1086C106.507 40.6848 107.088 41.1271 107.765 41.4353C108.441 41.7435 109.212 41.9043 110.064 41.9043C110.916 41.9043 111.673 41.7435 112.35 41.4353C113.026 41.1271 113.594 40.6848 114.067 40.1086C114.541 39.5324 114.906 38.8355 115.163 38.0181C115.42 37.2006 115.542 36.2894 115.542 35.2843C115.542 34.2793 115.406 33.368 115.163 32.5506C114.906 31.7331 114.541 31.0363 114.067 30.4601C113.594 29.8838 113.026 29.4416 112.35 29.1334C111.673 28.8252 110.916 28.6644 110.064 28.6644C109.212 28.6644 108.455 28.8252 107.765 29.1334C107.088 29.4416 106.507 29.8838 106.034 30.4601C105.56 31.0363 105.195 31.7331 104.938 32.5506C104.695 33.3814 104.559 34.2927 104.559 35.2843Z" fill="#A67F63"/>
<path d="M128.041 29.0259C128.014 29.9103 127.973 30.7814 127.946 31.6122C127.919 32.4431 127.865 33.2605 127.798 34.0378C127.73 34.8284 127.635 35.5922 127.514 36.3427C127.392 37.0931 127.202 37.8168 126.986 38.5404C126.756 39.2506 126.486 39.9207 126.161 40.5505C125.836 41.1803 125.417 41.7298 124.93 42.1988C124.443 42.6678 123.862 43.043 123.199 43.3245C122.536 43.6059 121.752 43.7667 120.859 43.8069L120.589 41.8102C121.711 41.6896 122.577 41.3277 123.199 40.7649C123.821 40.1887 124.322 39.3176 124.727 38.1384C125.174 36.7983 125.458 35.1902 125.58 33.3141C125.701 31.438 125.755 29.3475 125.755 27.056H135.209V43.5523H132.869V29.0259H128.041Z" fill="#A67F63"/>
<path d="M140.736 27.043H143.022V39.2644C143.536 38.4202 144.158 37.4553 144.915 36.3833C145.659 35.2978 146.457 34.199 147.296 33.0867C148.134 31.961 148.986 30.8756 149.852 29.8169C150.704 28.7583 151.515 27.8336 152.273 27.043H154.126V43.5527H151.84V30.6612C151.394 31.1704 150.907 31.76 150.379 32.4301C149.852 33.1001 149.311 33.8103 148.743 34.5608C148.175 35.3112 147.62 36.1019 147.052 36.9059C146.484 37.71 145.93 38.514 145.402 39.3046C144.875 40.0953 144.374 40.8457 143.928 41.5828C143.468 42.3198 143.062 42.9764 142.711 43.5661H140.736V27.043Z" fill="#A67F63"/>
<path d="M172.318 41.5828H174.414V45H172.196V43.5527H159.645V27.043H161.985V41.5828H169.991V27.043H172.331V41.5828H172.318Z" fill="#A67F63"/>
<path d="M190.051 43.5523C189.781 42.842 189.524 42.1318 189.28 41.4484C189.037 40.7515 188.794 40.0547 188.537 39.3444H180.99L179.475 43.5657H177.04C177.676 41.8236 178.285 40.2021 178.839 38.7146C179.394 37.2271 179.948 35.8201 180.489 34.48C181.03 33.1399 181.558 31.8668 182.085 30.6608C182.613 29.4413 183.167 28.2352 183.749 27.056H185.886C186.467 28.2486 187.022 29.4547 187.549 30.6608C188.077 31.8802 188.604 33.1533 189.145 34.48C189.686 35.8201 190.227 37.2271 190.795 38.7146C191.363 40.2021 191.958 41.8236 192.594 43.5657H190.051V43.5523ZM187.86 37.4281C187.346 36.0479 186.832 34.7078 186.332 33.4079C185.832 32.108 185.304 30.8752 184.763 29.6825C184.195 30.8752 183.668 32.1215 183.167 33.4079C182.667 34.7078 182.166 36.0479 181.666 37.4281H187.86Z" fill="#A67F63"/>
</svg>
