<svg width="297" height="63" viewBox="0 0 297 63" fill="none" xmlns="http://www.w3.org/2000/svg">
<path d="M37.3653 0C21.7419 0 7.52058 12.1877 5.67166 27.1783L5.51758 28.3708H16.796L16.9501 27.1783C18.0594 18.2118 26.6107 10.9178 36.0094 10.9178H57.1796L56.4092 17.1897H45.3619C41.2634 17.1897 37.5194 20.4109 37.0263 24.3753L36.5641 28.1075H66.3472L69.8293 0H37.3653Z" fill="#A67F63"/>
<path d="M53.0024 34.2L52.8484 35.3924C51.739 44.3589 43.1877 51.6529 33.789 51.6529H12.6343L13.4047 45.381H23.7586C28.2423 45.381 32.3253 41.8656 32.8646 37.5295L33.2498 34.4632H3.48214L0 62.5862H32.4486C48.072 62.5862 62.2933 50.3986 64.1422 35.4079L64.2963 34.2154H53.0024V34.2Z" fill="#A67F63"/>
<path d="M89.8325 31.2503C89.7448 26.7427 91.3664 22.8517 94.6971 19.5774C98.0278 16.3031 101.957 14.7027 106.471 14.7761C112.359 14.7761 116.785 17.2281 119.721 22.1175L114.988 25.847C112.768 22.6314 109.948 21.0163 106.545 21.0163C103.725 21.0163 101.373 22.0001 99.5033 23.9823C97.6188 25.9498 96.6838 28.3871 96.6838 31.2503C96.6838 34.1722 97.6188 36.6096 99.5033 38.5917C101.388 40.5593 103.725 41.5577 106.545 41.5577C109.875 41.5577 112.695 39.9719 114.988 36.8004L119.721 40.4712C118.319 42.7911 116.464 44.5824 114.156 45.8745C111.847 47.1666 109.291 47.8126 106.471 47.8126C101.826 47.8126 97.8817 46.1975 94.6533 42.9819C91.454 39.7517 89.8325 35.846 89.8325 31.2503Z" fill="#A67F63"/>
<path d="M193.624 33.5115H170.192C170.615 36.081 171.755 38.1072 173.61 39.5902C175.465 41.0732 177.744 41.8073 180.432 41.8073C183.763 41.8073 186.816 40.5593 189.592 38.0778L192.791 42.7176C189.241 46.1094 185.063 47.7979 180.242 47.7979C175.465 47.7979 171.448 46.2268 168.205 43.07C164.962 39.9132 163.34 36.0076 163.34 31.3237C163.253 26.772 164.83 22.8664 168.074 19.5774C171.317 16.3031 175.159 14.7027 179.6 14.7761C183.734 14.7761 187.196 16.1563 189.971 18.9314C192.747 21.6917 194.135 25.1422 194.135 29.2534C194.135 30.5015 193.96 31.9257 193.624 33.5115ZM170.309 28.2256H187.4C187.357 25.8617 186.568 23.9823 185.034 22.6021C183.5 21.2072 181.601 20.5171 179.337 20.5171C177.116 20.5171 175.188 21.2219 173.537 22.6021C171.901 23.997 170.82 25.8764 170.309 28.2256Z" fill="#A67F63"/>
<path d="M209.366 15.5103C215.794 15.5103 221.126 15.4956 227.553 15.4956V47.0932H220.834V21.3394C218.584 21.4128 217.225 21.266 214.976 21.3541C214.742 22.4112 210.944 35.8901 207.993 42.1597C207.291 43.6427 206.342 45.2284 204.604 46.3003C203.333 47.0785 201.828 47.4749 200.09 47.4749C199.198 47.4749 198.38 47.3428 197.65 47.0932V41.4256C198.337 41.5137 198.76 41.5577 198.935 41.5577C201.112 41.5577 202.368 38.5771 202.967 37.3144C205.685 31.5146 209.132 16.9492 209.366 15.5103Z" fill="#A67F63"/>
<path d="M237.408 47.0785V15.4956H244.201V47.0932H237.408V47.0785ZM252.396 29.8995L266.23 47.0785H258.035L244.464 30.1491L257.071 15.4956H265.003L252.396 29.8995Z" fill="#A67F63"/>
<path d="M296.621 27.9711V47.0883H290.354V43.5497C288.002 46.3835 284.657 47.793 280.304 47.793C277.017 47.793 274.373 46.9561 272.371 45.2823C270.37 43.6084 269.362 41.406 269.362 38.6603C269.362 35.9146 270.414 33.7268 272.503 32.097C274.592 30.4672 277.411 29.645 280.961 29.645H289.857V27.5894C289.857 25.4016 289.273 23.7278 288.09 22.5678C286.921 21.4079 285.256 20.8352 283.123 20.8352C279.924 20.8352 277.017 22.4063 274.416 25.5338L270.516 21.54C273.584 17.0324 278.01 14.7859 283.766 14.7859C287.695 14.7859 290.822 15.9458 293.144 18.2657C295.467 20.5709 296.621 23.8012 296.621 27.9711ZM289.843 35.107V34.5344H281.779C278.068 34.5344 276.213 35.8265 276.213 38.396C276.213 39.6881 276.71 40.7012 277.718 41.45C278.726 42.1989 280.055 42.5806 281.721 42.5806C284.029 42.5806 285.957 41.8758 287.52 40.4516C289.054 39.042 289.843 37.2507 289.843 35.107Z" fill="#A67F63"/>
<path d="M159.814 41.0479H123.468V47.3468H159.814V41.0479Z" fill="#A67F63"/>
<path d="M137.387 15.3665C143.815 15.3665 149.147 15.3518 155.574 15.3518V46.9494H148.854V21.2103C146.605 21.2837 145.246 21.1369 142.996 21.225C142.763 22.2821 138.965 35.761 136.014 42.0306C135.312 43.5136 134.363 45.0993 132.625 46.1712C131.354 46.9494 129.849 47.3458 128.111 47.3458C127.219 47.3458 126.401 47.2137 125.671 46.964V41.2965C126.357 41.3846 126.781 41.4286 126.956 41.4286C129.133 41.4286 130.389 38.448 130.988 37.1853C133.72 31.3855 137.168 16.8054 137.387 15.3665Z" fill="#A67F63"/>
</svg>
