<svg width="243" height="45" viewBox="0 0 243 45" fill="none" xmlns="http://www.w3.org/2000/svg">
<path fill-rule="evenodd" clip-rule="evenodd" d="M220.644 39.0465C217.594 39.0465 214.846 38.194 212.411 36.4887C209.976 34.7716 208.075 32.4707 206.719 29.5502C205.361 26.6422 204.678 23.4649 204.678 19.9958C204.678 16.5502 205.374 13.3612 206.741 10.4412C208.109 7.5211 210 5.20831 212.422 3.503C214.846 1.7861 217.571 0.93335 220.586 0.93335C222.985 0.93335 225.085 1.31874 226.882 2.07835C228.679 2.83735 230.105 3.95878 231.15 5.4184V2.12492H242.895V37.82H231.114V34.6079C230.071 36.0445 228.656 37.1425 226.871 37.9019C225.073 38.6727 223.01 39.0465 220.644 39.0465ZM171.992 22.787L173.147 11.5266L175.883 12.0275L174.246 2.12452H130.73V23.5465C130.73 24.8315 130.499 25.7775 130.035 26.3848C129.571 27.004 128.91 27.3191 128.052 27.3191H126.244V37.82H128.83C131.252 37.82 133.549 37.3524 135.728 36.4299C137.897 35.5073 139.682 34.0238 141.062 31.9793C142.442 29.9478 143.126 27.3546 143.126 24.2004V12.5667H153.191V37.82H156.225L159.628 14.496L166.836 15.9553L169.465 10.753L166.727 10.2307L174.246 2.12452H178.087V13.2795H179.757L186.413 2.12452H200.988L189.67 18.5941L202.078 37.82H187.294L180.569 25.7071H178.087V37.82C170.8 37.82 163.512 37.82 156.225 37.82L164.87 21.3625L171.992 22.787ZM43.8337 27.4828C45.1675 25.731 46.2689 23.5116 47.1153 20.8484C47.9618 18.1739 48.5413 14.9148 48.8662 11.06L49.5734 2.12492H79.234V27.4828H82.4575V44.9333H70.1318V37.82H53.4812V44.9333H41.1901V27.4828H43.8337ZM66.8965 12.4973H60.6122L60.3454 15.3356C60.0901 17.9868 59.6265 20.253 58.954 22.1453C58.2698 24.0374 57.3889 25.8244 56.2988 27.4828H66.8965V12.4973ZM19.6212 39.0231C15.9686 39.0231 12.7339 38.1586 9.88119 36.4533C7.04058 34.7363 4.83735 32.4352 3.26039 29.5271C1.68381 26.6185 0.89502 23.4416 0.89502 19.9958C0.89502 16.5502 1.68381 13.373 3.26039 10.4648C4.83735 7.55608 7.04058 5.23189 9.88119 3.5148C12.7339 1.79789 15.9686 0.93335 19.6212 0.93335C22.9493 0.93335 25.9174 1.599 28.5382 2.95408C31.1467 4.29719 33.2921 6.13123 34.9733 8.45542C36.6431 10.7916 37.7678 13.4198 38.336 16.3633H25.7668C24.7924 13.7818 22.7638 12.4973 19.6907 12.4973C18.5312 12.4973 17.4529 12.7772 16.456 13.3499C15.4587 13.922 14.6699 14.7629 14.0789 15.8841C13.4876 17.0057 13.1975 18.3604 13.1975 19.9608C13.1975 21.5725 13.4993 22.9511 14.1019 24.0843C14.6933 25.2055 15.4934 26.0698 16.479 26.6422C17.4646 27.226 18.5312 27.5178 19.6907 27.5178C21.1634 27.5178 22.4154 27.1674 23.471 26.4782C24.5259 25.7775 25.2912 24.5859 25.7668 22.9044H38.336C37.8143 25.9995 36.7243 28.7793 35.0544 31.2205C33.3964 33.6617 31.2396 35.5658 28.5843 36.944C25.9409 38.3224 22.9493 39.0231 19.6212 39.0231ZM123.088 19.9958C123.088 20.9304 123.007 21.9346 122.844 22.9978H98.1237C98.7958 26.6302 100.895 28.4407 104.408 28.4407C107.006 28.4407 108.652 27.5531 109.325 25.7775H122.474C121.998 27.9852 120.978 30.0993 119.401 32.1198C117.824 34.1411 115.771 35.7995 113.232 37.0841C110.704 38.3693 107.84 39.0231 104.64 39.0231C100.953 39.0231 97.6598 38.1586 94.7724 36.4533C91.8855 34.7363 89.6475 32.4352 88.0477 29.5271C86.4473 26.6185 85.6472 23.4416 85.6472 19.9958C85.6472 16.5266 86.4473 13.3381 88.0477 10.4294C89.6475 7.5211 91.8855 5.20831 94.7612 3.503C97.6365 1.7861 100.93 0.93335 104.64 0.93335C108.351 0.93335 111.609 1.7861 114.403 3.47942C117.209 5.18513 119.354 7.47453 120.85 10.3712C122.346 13.2677 123.088 16.48 123.088 19.9958ZM110.38 15.2303C110.229 13.9102 109.614 12.8475 108.548 12.0297C107.481 11.224 106.228 10.8152 104.779 10.8152C103.376 10.8152 102.124 11.1654 101.046 11.8428C99.9559 12.5321 99.1324 13.6653 98.5645 15.2303H110.38ZM223.775 27.5531C225.062 27.5531 226.233 27.226 227.276 26.5603C228.321 25.8943 229.131 24.9835 229.722 23.8268C230.302 22.6588 230.604 21.3742 230.604 19.9608C230.604 18.5941 230.302 17.3326 229.699 16.1764C229.097 15.0202 228.285 14.1091 227.242 13.4434C226.197 12.7658 225.051 12.4269 223.809 12.4269C222.545 12.4269 221.385 12.7192 220.367 13.3031C219.333 13.8872 218.509 14.7397 217.896 15.8727C217.281 16.9939 216.98 18.3604 216.98 19.9608C216.98 21.6429 217.292 23.0561 217.918 24.2008C218.534 25.3456 219.368 26.1865 220.389 26.7354C221.421 27.2846 222.558 27.5531 223.775 27.5531Z" fill="#A67F63"/>
</svg>
