<svg width="242" height="45" viewBox="0 0 242 45" fill="none" xmlns="http://www.w3.org/2000/svg">
<path d="M25.6703 0.798096C14.9372 0.798096 5.16731 9.25111 3.89712 19.6482L3.79127 20.4752H11.5394L11.6453 19.6482C12.4074 13.4293 18.282 8.37036 24.7388 8.37036H39.2825L38.7533 12.7204H31.1639C28.3483 12.7204 25.7762 14.9545 25.4374 17.7041L25.1199 20.2927H45.5805L47.9727 0.798096H25.6703Z" fill="#A67F63"/>
<path d="M36.4121 24.5141L36.3063 25.3411C35.5442 31.5601 29.6695 36.619 23.2127 36.619H8.67964L9.20888 32.269H16.322C19.4022 32.269 22.2072 29.8308 22.5776 26.8234L22.8423 24.6967H2.39219L0 44.202H22.2919C33.025 44.202 42.7949 35.749 44.065 25.3519L44.1709 24.5248H36.4121V24.5141Z" fill="#A67F63"/>
<path d="M59.398 22.4622C59.3206 18.4825 60.7522 15.0472 63.6929 12.1564C66.6335 9.2656 70.103 7.8526 74.0883 7.91742C79.286 7.91742 83.1939 10.0823 85.7864 14.3991L81.6075 17.6917C79.6471 14.8528 77.1579 13.4268 74.1528 13.4268C71.6635 13.4268 69.587 14.2954 67.9362 16.0454C66.2724 17.7825 65.4469 19.9344 65.4469 22.4622C65.4469 25.0419 66.2724 27.1938 67.9362 28.9439C69.5999 30.6809 71.6635 31.5625 74.1528 31.5625C77.0934 31.5625 79.5826 30.1624 81.6075 27.3623L85.7864 30.6032C84.5482 32.6514 82.9102 34.2329 80.8724 35.3737C78.8346 36.5144 76.5775 37.0848 74.0883 37.0848C69.9869 37.0848 66.5045 35.6588 63.6542 32.8199C60.8296 29.968 59.398 26.5197 59.398 22.4622Z" fill="#A67F63"/>
<path d="M151.032 24.4586H130.344C130.719 26.7271 131.725 28.5161 133.363 29.8254C135 31.1347 137.013 31.7828 139.386 31.7828C142.326 31.7828 145.022 30.6809 147.472 28.4902L150.297 32.5866C147.163 35.5811 143.474 37.0719 139.218 37.0719C135 37.0719 131.454 35.6848 128.59 32.8977C125.727 30.1106 124.296 26.6623 124.296 22.527C124.218 18.5084 125.611 15.0602 128.474 12.1564C131.338 9.2656 134.73 7.8526 138.65 7.91742C142.3 7.91742 145.357 9.13596 147.808 11.586C150.258 14.0231 151.484 17.0695 151.484 20.6992C151.484 21.8011 151.329 23.0585 151.032 24.4586ZM130.448 19.7918H145.538C145.499 17.7047 144.803 16.0454 143.448 14.8268C142.094 13.5953 140.417 12.9861 138.418 12.9861C136.458 12.9861 134.755 13.6083 133.298 14.8268C131.853 16.0584 130.899 17.7177 130.448 19.7918Z" fill="#A67F63"/>
<path d="M164.933 8.56545C170.608 8.56545 175.315 8.55249 180.99 8.55249V36.4495H175.057V13.7119C173.071 13.7767 171.872 13.6471 169.885 13.7248C169.679 14.6582 166.326 26.5585 163.72 32.0938C163.101 33.4031 162.263 34.8031 160.728 35.7495C159.606 36.4365 158.278 36.7865 156.743 36.7865C155.956 36.7865 155.234 36.6699 154.589 36.4495V31.4457C155.195 31.5234 155.569 31.5623 155.724 31.5623C157.646 31.5623 158.755 28.9308 159.284 27.8159C161.683 22.6954 164.726 9.83586 164.933 8.56545Z" fill="#A67F63"/>
<path d="M189.689 36.4365V8.55249H195.686V36.4495H189.689V36.4365ZM202.922 21.2695L215.136 36.4365H207.9L195.918 21.4898L207.049 8.55249H214.052L202.922 21.2695Z" fill="#A67F63"/>
<path d="M241.968 19.5722V36.4504H236.435V33.3262C234.358 35.8281 231.405 37.0726 227.561 37.0726C224.659 37.0726 222.325 36.3337 220.558 34.8559C218.791 33.3781 217.901 31.4336 217.901 29.0095C217.901 26.5853 218.83 24.6538 220.674 23.2149C222.518 21.7759 225.007 21.05 228.142 21.05H235.996V19.2351C235.996 17.3036 235.48 15.8258 234.436 14.8017C233.404 13.7776 231.933 13.272 230.05 13.272C227.226 13.272 224.659 14.6591 222.363 17.4203L218.92 13.8943C221.628 9.91453 225.536 7.93115 230.618 7.93115C234.087 7.93115 236.847 8.95525 238.898 11.0035C240.949 13.0387 241.968 15.8906 241.968 19.5722ZM235.983 25.8723V25.3668H228.864C225.588 25.3668 223.95 26.5075 223.95 28.7761C223.95 29.9169 224.388 30.8114 225.278 31.4725C226.168 32.1336 227.342 32.4707 228.812 32.4707C230.85 32.4707 232.553 31.8484 233.933 30.591C235.287 29.3465 235.983 27.765 235.983 25.8723Z" fill="#A67F63"/>
<path d="M121.181 31.1089H89.0918V36.6701H121.181V31.1089Z" fill="#A67F63"/>
<path d="M101.383 8.43533C107.058 8.43533 111.766 8.42236 117.441 8.42236V36.3194H111.508V13.5947C109.522 13.6595 108.322 13.5299 106.336 13.6077C106.13 14.541 102.776 26.4413 100.171 31.9767C99.5519 33.2859 98.7136 34.686 97.1788 35.6323C96.0567 36.3194 94.7282 36.6694 93.1934 36.6694C92.4067 36.6694 91.6844 36.5527 91.0396 36.3323V31.3285C91.6457 31.4063 92.0198 31.4452 92.1745 31.4452C94.0963 31.4452 95.2055 28.8136 95.7343 27.6988C98.1461 22.5783 101.19 9.70573 101.383 8.43533Z" fill="#A67F63"/>
</svg>
