<svg width="264" height="72" viewBox="0 0 264 72" fill="none" xmlns="http://www.w3.org/2000/svg">
<g filter="url(#filter0_d_407_42922)">
<g clip-path="url(#clip0_407_42922)">
<path fill-rule="evenodd" clip-rule="evenodd" d="M21.9879 10.3091C17.6316 10.3091 14.1001 13.8502 14.1001 18.2183V45.3897C14.1001 49.7578 17.6316 53.2989 21.9879 53.2989H49.0856C53.442 53.2989 56.9735 49.7578 56.9735 45.3897V18.2183C56.9735 13.8502 53.442 10.3091 49.0856 10.3091H21.9879Z" fill="url(#paint0_linear_407_42922)"/>
<path d="M23.7114 40.0782C23.6583 39.9258 23.631 39.7655 23.6308 39.604V34.5259C23.6308 34.1378 23.7846 33.7655 24.0583 33.491C24.3321 33.2165 24.7033 33.0623 25.0904 33.0623C25.4776 33.0623 25.8488 33.2165 26.1225 33.491C26.3963 33.7655 26.5501 34.1378 26.5501 34.5259V38.9097L29.119 37.8559C29.0028 37.676 28.9274 37.4726 28.8984 37.2602C28.8694 37.0478 28.8874 36.8316 28.9511 36.627C29.0148 36.4223 29.1227 36.2342 29.267 36.0761C29.4114 35.918 29.5887 35.7937 29.7864 35.712C29.9841 35.6303 30.1973 35.5933 30.4108 35.6036C30.6244 35.6139 30.833 35.6712 31.022 35.7714C31.211 35.8717 31.3757 36.0124 31.5043 36.1837C31.6329 36.3549 31.7223 36.5525 31.7662 36.7623L34.1285 35.7881V34.5259C34.1392 34.1457 34.2974 33.7846 34.5694 33.5195C34.8414 33.2544 35.2058 33.106 35.5852 33.106C35.9645 33.106 36.3289 33.2544 36.6009 33.5195C36.8729 33.7846 37.0311 34.1457 37.0419 34.5259V35.7799L39.4041 36.7553C39.4484 36.5458 39.538 36.3486 39.6667 36.1777C39.7954 36.0069 39.96 35.8665 40.1488 35.7665C40.3377 35.6665 40.5462 35.6094 40.7595 35.5992C40.9728 35.589 41.1857 35.626 41.3832 35.7076C41.5806 35.7891 41.7578 35.9132 41.9021 36.0711C42.0464 36.2289 42.1543 36.4166 42.2182 36.621C42.282 36.8253 42.3003 37.0412 42.2717 37.2534C42.243 37.4656 42.1682 37.6689 42.0525 37.8489L44.6214 38.9027V34.5259C44.6214 34.1387 44.7748 33.7673 45.0479 33.4935C45.321 33.2197 45.6914 33.0658 46.0775 33.0658C46.4637 33.0658 46.8341 33.2197 47.1072 33.4935C47.3803 33.7673 47.5337 34.1387 47.5337 34.5259V39.604C47.5328 39.7634 47.5059 39.9216 47.4543 40.0724L55.8372 43.5323V18.2859C55.8371 17.4033 55.6634 16.5295 55.3261 15.7143C54.9888 14.8991 54.4945 14.1586 53.8716 13.5351C53.2486 12.9117 52.5092 12.4175 51.6955 12.0808C50.8819 11.7442 50.0101 11.5717 49.1299 11.5733H22.0392C21.1593 11.572 20.2878 11.7447 19.4745 12.0815C18.6612 12.4183 17.9221 12.9126 17.2995 13.536C16.6769 14.1595 16.1829 14.8999 15.8459 15.7149C15.5089 16.5299 15.3354 17.4036 15.3354 18.2859V43.5358L23.7114 40.0782ZM46.0624 28.8823C46.3504 28.8823 46.6319 28.9679 46.8713 29.1284C47.1108 29.2888 47.2974 29.5168 47.4077 29.7836C47.5179 30.0504 47.5467 30.344 47.4905 30.6272C47.4343 30.9105 47.2956 31.1706 47.092 31.3748C46.8884 31.579 46.6289 31.7181 46.3464 31.7744C46.064 31.8308 45.7712 31.8018 45.5051 31.6913C45.2391 31.5808 45.0116 31.3937 44.8516 31.1536C44.6916 30.9135 44.6062 30.6312 44.6062 30.3424C44.6062 30.1506 44.6439 29.9608 44.7171 29.7836C44.7903 29.6065 44.8975 29.4455 45.0327 29.31C45.1679 29.1744 45.3285 29.0668 45.5051 28.9934C45.6818 28.9201 45.8712 28.8823 46.0624 28.8823ZM40.8182 22.165C41.1065 22.1648 41.3885 22.2503 41.6283 22.4108C41.8681 22.5712 42.0551 22.7994 42.1655 23.0665C42.276 23.3336 42.3049 23.6275 42.2487 23.911C42.1925 24.1946 42.0537 24.4551 41.8498 24.6595C41.646 24.8639 41.3862 25.0031 41.1034 25.0595C40.8206 25.1158 40.5275 25.0868 40.2612 24.976C39.9948 24.8653 39.7672 24.6778 39.6072 24.4373C39.4472 24.1969 39.3619 23.9142 39.3621 23.6251C39.3621 23.2378 39.5155 22.8665 39.7886 22.5926C40.0617 22.3188 40.432 22.165 40.8182 22.165V22.165ZM39.3621 27.8098C39.3621 27.4225 39.5155 27.0512 39.7886 26.7773C40.0617 26.5035 40.432 26.3497 40.8182 26.3497C41.2044 26.3497 41.5748 26.5035 41.8479 26.7773C42.1209 27.0512 42.2743 27.4225 42.2743 27.8098V32.8867C42.2743 33.2739 42.1209 33.6453 41.8479 33.9191C41.5748 34.193 41.2044 34.3468 40.8182 34.3468C40.432 34.3468 40.0617 34.193 39.7886 33.9191C39.5155 33.6453 39.3621 33.2739 39.3621 32.8867V27.8098ZM35.5752 15.4489C35.8632 15.4491 36.1446 15.5349 36.3839 15.6955C36.6232 15.8561 36.8097 16.0842 36.9197 16.351C37.0297 16.6178 37.0584 16.9113 37.0021 17.1945C36.9458 17.4776 36.807 17.7377 36.6033 17.9418C36.3996 18.1459 36.1401 18.2848 35.8577 18.341C35.5753 18.3973 35.2826 18.3683 35.0166 18.2578C34.7506 18.1472 34.5232 17.9601 34.3633 17.72C34.2033 17.4799 34.1179 17.1977 34.1179 16.9089C34.1179 16.7171 34.1556 16.5271 34.2289 16.3499C34.3021 16.1727 34.4095 16.0117 34.5448 15.8761C34.6802 15.7405 34.8408 15.633 35.0176 15.5597C35.1944 15.4863 35.3839 15.4487 35.5752 15.4489ZM34.1179 21.0925C34.1287 20.7122 34.2869 20.3512 34.5589 20.086C34.8309 19.8209 35.1953 19.6726 35.5747 19.6726C35.954 19.6726 36.3184 19.8209 36.5904 20.086C36.8624 20.3512 37.0206 20.7122 37.0314 21.0925V26.1706C37.0206 26.5508 36.8624 26.9118 36.5904 27.177C36.3184 27.4421 35.954 27.5905 35.5747 27.5905C35.1953 27.5905 34.8309 27.4421 34.5589 27.177C34.2869 26.9118 34.1287 26.5508 34.1179 26.1706V21.0925ZM35.5752 28.8823C35.8632 28.8825 36.1446 28.9684 36.3839 29.1289C36.6232 29.2895 36.8097 29.5176 36.9197 29.7844C37.0297 30.0513 37.0584 30.3448 37.0021 30.628C36.9458 30.9111 36.807 31.1712 36.6033 31.3752C36.3996 31.5793 36.1401 31.7183 35.8577 31.7745C35.5753 31.8307 35.2826 31.8018 35.0166 31.6912C34.7506 31.5807 34.5232 31.3935 34.3633 31.1534C34.2033 30.9134 34.1179 30.6311 34.1179 30.3424C34.1179 30.1505 34.1556 29.9606 34.2289 29.7834C34.3021 29.6061 34.4095 29.4451 34.5448 29.3095C34.6802 29.1739 34.8408 29.0664 35.0176 28.9931C35.1944 28.9198 35.3839 28.8822 35.5752 28.8823ZM30.3299 22.165C30.6182 22.1648 30.9002 22.2503 31.14 22.4108C31.3798 22.5712 31.5668 22.7994 31.6772 23.0665C31.7877 23.3336 31.8166 23.6275 31.7604 23.911C31.7042 24.1946 31.5654 24.4551 31.3615 24.6595C31.1577 24.8639 30.8979 25.0031 30.6151 25.0595C30.3323 25.1158 30.0392 25.0868 29.7729 24.976C29.5065 24.8653 29.2789 24.6778 29.1189 24.4373C28.9589 24.1969 28.8736 23.9142 28.8738 23.6251C28.8738 23.2378 29.0272 22.8665 29.3003 22.5926C29.5734 22.3188 29.9437 22.165 30.3299 22.165V22.165ZM28.8738 27.8098C28.8738 27.4225 29.0272 27.0512 29.3003 26.7773C29.5734 26.5035 29.9437 26.3497 30.3299 26.3497C30.7161 26.3497 31.0865 26.5035 31.3596 26.7773C31.6326 27.0512 31.786 27.4225 31.786 27.8098V32.8867C31.786 33.2739 31.6326 33.6453 31.3596 33.9191C31.0865 34.193 30.7161 34.3468 30.3299 34.3468C29.9437 34.3468 29.5734 34.193 29.3003 33.9191C29.0272 33.6453 28.8738 33.2739 28.8738 32.8867V27.8098ZM25.0869 28.8823C25.3749 28.8823 25.6565 28.9679 25.8959 29.1284C26.1354 29.2888 26.322 29.5168 26.4322 29.7836C26.5424 30.0504 26.5713 30.344 26.5151 30.6272C26.4589 30.9105 26.3202 31.1706 26.1166 31.3748C25.9129 31.579 25.6535 31.7181 25.371 31.7744C25.0885 31.8308 24.7958 31.8018 24.5297 31.6913C24.2636 31.5808 24.0362 31.3937 23.8762 31.1536C23.7162 30.9135 23.6308 30.6312 23.6308 30.3424C23.6308 29.9551 23.7842 29.5838 24.0573 29.31C24.3304 29.0361 24.7007 28.8823 25.0869 28.8823Z" fill="#1C1E27"/>
<path fill-rule="evenodd" clip-rule="evenodd" d="M55.7791 44.3594L35.9759 36.1851V52.1675H49.0846C52.7819 52.1675 55.7791 49.1622 55.7791 45.4549V44.3594ZM35.1808 52.1675V36.1851L15.2925 44.3945V45.4549C15.2925 49.1622 18.2897 52.1675 21.9869 52.1675H35.1808Z" fill="#1C1E27"/>
</g>
</g>
<path d="M83.2265 31.853V17.214H71.5234V31.853H73.4807V18.9266H81.2692V31.853H83.2265ZM87.8074 22.6577V21.1897H85.9725V36.0531H87.8074V30.6501H87.8482C87.9298 30.8132 88.0725 30.9967 88.2356 31.1802C88.3987 31.3637 88.6026 31.5268 88.8676 31.6695C89.0919 31.8326 89.3774 31.955 89.6832 32.0365C89.989 32.1385 90.3152 32.1792 90.6618 32.1792C91.3755 32.1792 92.0075 32.0773 92.5988 31.853C93.1697 31.6288 93.659 31.2821 94.0668 30.7928C94.4949 30.3035 94.8007 29.6918 95.025 28.9171C95.2493 28.1423 95.3512 27.2248 95.3512 26.1238C95.3512 25.2471 95.2289 24.4927 94.9842 23.8199C94.76 23.1675 94.4338 22.617 94.026 22.1684C93.6182 21.7402 93.1697 21.414 92.6395 21.1897C92.1094 20.9655 91.5589 20.8635 90.9881 20.8635C90.5599 20.8635 90.1725 20.9043 89.8463 21.0063C89.4997 21.0878 89.2143 21.2305 88.9696 21.3732C88.7045 21.5567 88.4803 21.7402 88.2968 21.9645C88.1133 22.1684 87.9705 22.4131 87.8482 22.6577H87.8074ZM87.7667 26.5724C87.7667 25.9607 87.8278 25.4306 87.9298 24.9209C88.0521 24.4112 88.2152 23.983 88.4599 23.616C88.6841 23.249 88.99 22.9636 89.357 22.7597C89.7036 22.5558 90.1114 22.4538 90.6007 22.4538C91.1104 22.4538 91.5386 22.5558 91.9259 22.7597C92.2929 22.9636 92.5784 23.249 92.823 23.616C93.0677 23.983 93.2308 24.4112 93.3532 24.9209C93.4551 25.4306 93.5163 25.9607 93.5163 26.5724C93.5163 27.1636 93.4551 27.6733 93.3532 28.1627C93.2308 28.652 93.0677 29.0802 92.823 29.4472C92.5784 29.7938 92.2929 30.0792 91.9259 30.2831C91.5386 30.487 91.1104 30.5889 90.6007 30.5889C90.1114 30.5889 89.7036 30.487 89.357 30.2831C88.99 30.0792 88.6841 29.7938 88.4599 29.4472C88.2152 29.0802 88.0521 28.652 87.9298 28.1627C87.8278 27.6733 87.7667 27.1636 87.7667 26.5724ZM99.2386 29.3656V21.1897H97.4036V31.853H99.5037L104.723 23.6772H104.764V31.853H106.619V21.1897H104.519L99.2794 29.3656H99.2386ZM112.308 25.349L112.389 22.7801H116.467V31.853H118.302V21.1897H110.636L110.555 25.1248C110.534 25.8995 110.493 26.552 110.453 27.1229C110.412 27.6733 110.33 28.1423 110.269 28.5297C110.188 28.9171 110.086 29.2433 110.004 29.4879C109.902 29.7326 109.78 29.9161 109.678 30.0588C109.555 30.1812 109.433 30.2627 109.311 30.3239C109.188 30.3647 109.046 30.385 108.903 30.385C108.699 30.385 108.475 30.3443 108.21 30.2423V31.853C108.291 31.9142 108.393 31.9754 108.536 32.0365C108.658 32.0773 108.821 32.1181 109.005 32.1181C109.515 32.1181 109.963 31.9957 110.351 31.7919C110.738 31.5676 111.085 31.2006 111.35 30.6705C111.635 30.1404 111.839 29.4472 112.002 28.5705C112.165 27.7141 112.267 26.6335 112.308 25.349ZM130.275 26.5112C130.275 25.6345 130.173 24.8597 129.928 24.1665C129.704 23.4733 129.398 22.882 128.97 22.3927C128.542 21.9034 128.012 21.516 127.4 21.2509C126.788 20.9859 126.095 20.8635 125.32 20.8635C124.546 20.8635 123.852 20.9859 123.241 21.2509C122.629 21.516 122.119 21.9034 121.691 22.3927C121.263 22.882 120.937 23.4733 120.713 24.1665C120.488 24.8597 120.366 25.6345 120.366 26.5112C120.366 27.3879 120.488 28.1627 120.713 28.8763C120.937 29.5695 121.263 30.1608 121.691 30.6501C122.119 31.1394 122.629 31.5268 123.241 31.7919C123.852 32.0569 124.546 32.1792 125.32 32.1792C126.095 32.1792 126.788 32.0569 127.4 31.7919C128.012 31.5268 128.542 31.1394 128.97 30.6501C129.398 30.1608 129.704 29.5695 129.928 28.8763C130.173 28.1627 130.275 27.3879 130.275 26.5112ZM128.44 26.5112C128.44 27.1025 128.379 27.653 128.236 28.1423C128.114 28.652 127.91 29.0802 127.645 29.4472C127.38 29.7938 127.053 30.0792 126.666 30.2831C126.279 30.487 125.83 30.5889 125.32 30.5889C124.811 30.5889 124.362 30.487 123.975 30.2831C123.587 30.0792 123.261 29.7938 122.996 29.4472C122.731 29.0802 122.527 28.652 122.405 28.1423C122.262 27.653 122.201 27.1025 122.201 26.5112C122.201 25.9199 122.262 25.3694 122.405 24.8801C122.527 24.3908 122.731 23.9626 122.996 23.5956C123.261 23.249 123.587 22.9636 123.975 22.7597C124.362 22.5558 124.811 22.4538 125.32 22.4538C125.83 22.4538 126.279 22.5558 126.666 22.7597C127.053 22.9636 127.38 23.249 127.645 23.5956C127.91 23.9626 128.114 24.3908 128.236 24.8801C128.379 25.3694 128.44 25.9199 128.44 26.5112ZM144.295 21.1897L140.789 25.5529H139.871V21.1897H138.036V25.5529H137.098L133.652 21.1897H131.43L135.61 26.2461L131.206 31.853H133.469L137.098 27.0005H138.036V31.853H139.871V27.0005H140.789L144.397 31.853H146.66L142.318 26.2461L146.497 21.1897H144.295ZM157.309 28.4481H155.535C155.433 28.6928 155.331 28.9374 155.188 29.2025C155.046 29.4472 154.883 29.6714 154.658 29.8753C154.434 30.0996 154.169 30.2627 153.843 30.385C153.517 30.5278 153.109 30.5889 152.64 30.5889C152.171 30.5889 151.763 30.5074 151.396 30.3443C151.029 30.1812 150.703 29.9569 150.458 29.6511C150.193 29.3452 149.989 28.9986 149.867 28.5705C149.724 28.1423 149.643 27.6733 149.643 27.1636H157.431V26.2461C157.431 25.349 157.309 24.5539 157.085 23.8607C156.82 23.2082 156.493 22.6373 156.065 22.1888C155.617 21.7402 155.107 21.414 154.495 21.1897C153.884 20.9655 153.231 20.8635 152.497 20.8635C152.151 20.8635 151.784 20.9043 151.417 21.0063C151.05 21.1082 150.683 21.2509 150.336 21.4344C149.969 21.6383 149.643 21.883 149.317 22.1888C149.011 22.4946 148.725 22.8616 148.481 23.2694C148.236 23.6772 148.052 24.1461 147.91 24.6762C147.747 25.2063 147.685 25.7976 147.685 26.45C147.685 27.4083 147.808 28.2646 148.073 28.9782C148.318 29.6918 148.664 30.2831 149.113 30.752C149.541 31.2414 150.071 31.588 150.683 31.8326C151.294 32.0569 151.947 32.1792 152.66 32.1792C153.313 32.1792 153.924 32.0773 154.475 31.853C155.005 31.6491 155.474 31.3637 155.861 30.9967C156.269 30.6501 156.595 30.2627 156.84 29.8142C157.085 29.3656 157.248 28.9171 157.309 28.4481ZM155.596 25.6956H149.643C149.663 25.2267 149.765 24.7985 149.928 24.3908C150.091 24.0034 150.295 23.6568 150.56 23.3713C150.825 23.0859 151.131 22.8616 151.498 22.6985C151.845 22.5354 152.232 22.4538 152.64 22.4538C153.088 22.4538 153.476 22.515 153.843 22.6577C154.189 22.8208 154.516 23.0247 154.76 23.2898C155.005 23.5752 155.209 23.9014 155.372 24.3092C155.494 24.717 155.576 25.1859 155.596 25.6956ZM161.4 25.4918V21.1897H159.565V31.853H161.4V27.0821H166.375V31.853H168.21V21.1897H166.375V25.4918H161.4ZM172.729 29.3656V21.1897H170.894V31.853H172.994L178.214 23.6772H178.255V31.853H180.11V21.1897H178.01L172.77 29.3656H172.729ZM191.854 28.4481H190.08C189.978 28.6928 189.876 28.9374 189.734 29.2025C189.591 29.4472 189.428 29.6714 189.204 29.8753C188.979 30.0996 188.714 30.2627 188.388 30.385C188.062 30.5278 187.654 30.5889 187.185 30.5889C186.716 30.5889 186.308 30.5074 185.941 30.3443C185.574 30.1812 185.248 29.9569 185.004 29.6511C184.739 29.3452 184.535 28.9986 184.412 28.5705C184.27 28.1423 184.188 27.6733 184.188 27.1636H191.977V26.2461C191.977 25.349 191.854 24.5539 191.63 23.8607C191.365 23.2082 191.039 22.6373 190.61 22.1888C190.162 21.7402 189.652 21.414 189.041 21.1897C188.429 20.9655 187.776 20.8635 187.042 20.8635C186.696 20.8635 186.329 20.9043 185.962 21.0063C185.595 21.1082 185.228 21.2509 184.881 21.4344C184.514 21.6383 184.188 21.883 183.862 22.1888C183.556 22.4946 183.271 22.8616 183.026 23.2694C182.781 23.6772 182.598 24.1461 182.455 24.6762C182.292 25.2063 182.231 25.7976 182.231 26.45C182.231 27.4083 182.353 28.2646 182.618 28.9782C182.863 29.6918 183.209 30.2831 183.658 30.752C184.086 31.2414 184.616 31.588 185.228 31.8326C185.84 32.0569 186.492 32.1792 187.206 32.1792C187.858 32.1792 188.47 32.0773 189.02 31.853C189.55 31.6491 190.019 31.3637 190.407 30.9967C190.814 30.6501 191.141 30.2627 191.385 29.8142C191.63 29.3656 191.793 28.9171 191.854 28.4481ZM190.142 25.6956H184.188C184.208 25.2267 184.31 24.7985 184.473 24.3908C184.637 24.0034 184.84 23.6568 185.106 23.3713C185.371 23.0859 185.676 22.8616 186.043 22.6985C186.39 22.5354 186.777 22.4538 187.185 22.4538C187.634 22.4538 188.021 22.515 188.388 22.6577C188.735 22.8208 189.061 23.0247 189.306 23.2898C189.55 23.5752 189.754 23.9014 189.917 24.3092C190.04 24.717 190.121 25.1859 190.142 25.6956ZM77.9866 42.7801V41.1897H71.3603V51.853H73.1953V42.7801H77.9866ZM88.8603 46.5112C88.8603 45.6345 88.7584 44.8597 88.5137 44.1665C88.2894 43.4733 87.9836 42.882 87.5554 42.3927C87.1273 41.9034 86.5972 41.516 85.9855 41.2509C85.3739 40.9859 84.6806 40.8635 83.9059 40.8635C83.1311 40.8635 82.4379 40.9859 81.8262 41.2509C81.2146 41.516 80.7048 41.9034 80.2767 42.3927C79.8485 42.882 79.5223 43.4733 79.298 44.1665C79.0738 44.8597 78.9514 45.6345 78.9514 46.5112C78.9514 47.3879 79.0738 48.1627 79.298 48.8763C79.5223 49.5695 79.8485 50.1608 80.2767 50.6501C80.7048 51.1394 81.2146 51.5268 81.8262 51.7919C82.4379 52.0569 83.1311 52.1792 83.9059 52.1792C84.6806 52.1792 85.3739 52.0569 85.9855 51.7919C86.5972 51.5268 87.1273 51.1394 87.5554 50.6501C87.9836 50.1608 88.2894 49.5695 88.5137 48.8763C88.7584 48.1627 88.8603 47.3879 88.8603 46.5112ZM87.0253 46.5112C87.0253 47.1025 86.9642 47.653 86.8214 48.1423C86.6991 48.652 86.4952 49.0802 86.2302 49.4472C85.9651 49.7938 85.6389 50.0792 85.2515 50.2831C84.8641 50.487 84.4156 50.5889 83.9059 50.5889C83.3962 50.5889 82.9476 50.487 82.5602 50.2831C82.1728 50.0792 81.8466 49.7938 81.5816 49.4472C81.3165 49.0802 81.1126 48.652 80.9903 48.1423C80.8476 47.653 80.7864 47.1025 80.7864 46.5112C80.7864 45.9199 80.8476 45.3694 80.9903 44.8801C81.1126 44.3908 81.3165 43.9626 81.5816 43.5956C81.8466 43.249 82.1728 42.9636 82.5602 42.7597C82.9476 42.5558 83.3962 42.4538 83.9059 42.4538C84.4156 42.4538 84.8641 42.5558 85.2515 42.7597C85.6389 42.9636 85.9651 43.249 86.2302 43.5956C86.4952 43.9626 86.6991 44.3908 86.8214 44.8801C86.9642 45.3694 87.0253 45.9199 87.0253 46.5112ZM92.6458 42.6577V41.1897H90.8108V56.0531H92.6458V50.6501H92.6865C92.7681 50.8132 92.9108 50.9967 93.0739 51.1802C93.237 51.3637 93.4409 51.5268 93.706 51.6695C93.9302 51.8326 94.2157 51.955 94.5215 52.0365C94.8273 52.1385 95.1536 52.1792 95.5002 52.1792C96.2138 52.1792 96.8458 52.0773 97.4371 51.853C98.008 51.6288 98.4973 51.2821 98.9051 50.7928C99.3332 50.3035 99.6391 49.6918 99.8634 48.9171C100.088 48.1423 100.19 47.2248 100.19 46.1238C100.19 45.2471 100.067 44.4927 99.8226 43.8199C99.5983 43.1675 99.2721 42.617 98.8643 42.1684C98.4565 41.7402 98.008 41.414 97.4779 41.1897C96.9478 40.9655 96.3973 40.8635 95.8264 40.8635C95.3982 40.8635 95.0108 40.9043 94.6846 41.0063C94.338 41.0878 94.0526 41.2305 93.8079 41.3732C93.5429 41.5567 93.3186 41.7402 93.1351 41.9645C92.9516 42.1684 92.8089 42.4131 92.6865 42.6577H92.6458ZM92.605 46.5724C92.605 45.9607 92.6661 45.4306 92.7681 44.9209C92.8904 44.4112 93.0535 43.983 93.2982 43.616C93.5225 43.249 93.8283 42.9636 94.1953 42.7597C94.5419 42.5558 94.9497 42.4538 95.439 42.4538C95.9487 42.4538 96.3769 42.5558 96.7643 42.7597C97.1313 42.9636 97.4167 43.249 97.6614 43.616C97.906 43.983 98.0691 44.4112 98.1915 44.9209C98.2934 45.4306 98.3546 45.9607 98.3546 46.5724C98.3546 47.1636 98.2934 47.6733 98.1915 48.1627C98.0691 48.652 97.906 49.0802 97.6614 49.4472C97.4167 49.7938 97.1313 50.0792 96.7643 50.2831C96.3769 50.487 95.9487 50.5889 95.439 50.5889C94.9497 50.5889 94.5419 50.487 94.1953 50.2831C93.8283 50.0792 93.5225 49.7938 93.2982 49.4472C93.0535 49.0802 92.8904 48.652 92.7681 48.1627C92.6661 47.6733 92.605 47.1636 92.605 46.5724ZM111.519 46.5112C111.519 45.6345 111.417 44.8597 111.172 44.1665C110.948 43.4733 110.642 42.882 110.214 42.3927C109.786 41.9034 109.256 41.516 108.644 41.2509C108.032 40.9859 107.339 40.8635 106.564 40.8635C105.79 40.8635 105.096 40.9859 104.485 41.2509C103.873 41.516 103.363 41.9034 102.935 42.3927C102.507 42.882 102.181 43.4733 101.957 44.1665C101.732 44.8597 101.61 45.6345 101.61 46.5112C101.61 47.3879 101.732 48.1627 101.957 48.8763C102.181 49.5695 102.507 50.1608 102.935 50.6501C103.363 51.1394 103.873 51.5268 104.485 51.7919C105.096 52.0569 105.79 52.1792 106.564 52.1792C107.339 52.1792 108.032 52.0569 108.644 51.7919C109.256 51.5268 109.786 51.1394 110.214 50.6501C110.642 50.1608 110.948 49.5695 111.172 48.8763C111.417 48.1627 111.519 47.3879 111.519 46.5112ZM109.684 46.5112C109.684 47.1025 109.623 47.653 109.48 48.1423C109.358 48.652 109.154 49.0802 108.889 49.4472C108.624 49.7938 108.297 50.0792 107.91 50.2831C107.523 50.487 107.074 50.5889 106.564 50.5889C106.055 50.5889 105.606 50.487 105.219 50.2831C104.831 50.0792 104.505 49.7938 104.24 49.4472C103.975 49.0802 103.771 48.652 103.649 48.1423C103.506 47.653 103.445 47.1025 103.445 46.5112C103.445 45.9199 103.506 45.3694 103.649 44.8801C103.771 44.3908 103.975 43.9626 104.24 43.5956C104.505 43.249 104.831 42.9636 105.219 42.7597C105.606 42.5558 106.055 42.4538 106.564 42.4538C107.074 42.4538 107.523 42.5558 107.91 42.7597C108.297 42.9636 108.624 43.249 108.889 43.5956C109.154 43.9626 109.358 44.3908 109.48 44.8801C109.623 45.3694 109.684 45.9199 109.684 46.5112ZM114.224 54.4628V51.853H122.461V54.4628H124.173V50.2627H122.665V41.1897H115.223C115.223 41.9645 115.202 42.7393 115.182 43.5141C115.162 44.2684 115.1 45.0432 114.998 45.7976C114.917 46.5724 114.774 47.3064 114.611 48.0607C114.428 48.8151 114.203 49.5491 113.918 50.2627H112.511V54.4628H114.224ZM116.976 42.7801H120.83V50.2627H115.773C115.997 49.6918 116.161 49.0802 116.303 48.4481C116.446 47.8365 116.548 47.2044 116.63 46.552C116.711 45.9199 116.793 45.2879 116.833 44.6354C116.895 44.0034 116.915 43.3917 116.976 42.7801ZM134.316 48.1015H132.603C132.542 48.5093 132.419 48.8763 132.256 49.2025C132.114 49.5287 131.91 49.7938 131.685 50.018C131.461 50.2423 131.217 50.4258 130.931 50.5278C130.625 50.6501 130.34 50.7113 130.014 50.7113C129.565 50.7113 129.157 50.6297 128.811 50.4666C128.444 50.3239 128.158 50.0792 127.914 49.7326C127.648 49.4064 127.465 48.9986 127.343 48.4889C127.2 47.9792 127.139 47.3879 127.139 46.6743C127.139 46.0423 127.2 45.4918 127.322 44.9617C127.445 44.4315 127.628 43.983 127.893 43.616C128.138 43.249 128.444 42.9636 128.831 42.7597C129.198 42.5558 129.626 42.4538 130.136 42.4538C130.87 42.4538 131.441 42.6577 131.849 43.0655C132.256 43.4733 132.521 44.0442 132.603 44.7782H134.316C134.295 44.5131 134.254 44.2073 134.193 43.9218C134.112 43.616 134.01 43.3306 133.887 43.0247C133.745 42.7393 133.561 42.4742 133.337 42.2092C133.113 41.9441 132.848 41.7199 132.542 41.516C132.216 41.3121 131.849 41.1694 131.42 41.047C130.992 40.9247 130.503 40.8635 129.932 40.8635C129.32 40.8635 128.729 40.9859 128.179 41.2509C127.608 41.5364 127.118 41.9034 126.711 42.3927C126.282 42.882 125.936 43.4733 125.691 44.1869C125.447 44.9005 125.304 45.6956 125.304 46.5724C125.304 47.286 125.385 47.9384 125.508 48.4685C125.63 49.0394 125.814 49.5287 126.038 49.9365C126.262 50.3647 126.527 50.7113 126.813 50.9967C127.118 51.2821 127.424 51.5064 127.75 51.6899C128.077 51.853 128.403 51.9957 128.77 52.0773C129.116 52.1385 129.443 52.1792 129.749 52.1792C130.319 52.1792 130.829 52.1181 131.278 51.9957C131.726 51.853 132.114 51.6899 132.44 51.4656C132.766 51.2618 133.051 50.9967 133.276 50.7317C133.5 50.4462 133.684 50.1608 133.826 49.8549C133.969 49.5491 134.091 49.2637 134.173 48.9374C134.234 48.6316 134.295 48.3666 134.316 48.1015ZM137.965 46.3481V41.1897H136.13V51.853H137.965V48.1423L139.311 47.0209L143.47 51.853H145.835L140.738 45.8995L145.754 41.1897H143.348L137.965 46.3481ZM149.135 49.3656V41.1897H147.3V51.853H149.4L154.62 43.6772H154.66V51.853H156.516V41.1897H154.416L149.176 49.3656H149.135ZM158.045 51.853H160.308L162.816 47.8772L165.528 51.853H167.832L164.06 46.3889L167.669 41.1897H165.467L163.061 44.9005L160.533 41.1897H158.229L161.776 46.3889L158.045 51.853ZM183.436 48.1015H181.723C181.662 48.5093 181.539 48.8763 181.376 49.2025C181.234 49.5287 181.03 49.7938 180.805 50.018C180.581 50.2423 180.336 50.4258 180.051 50.5278C179.745 50.6501 179.46 50.7113 179.134 50.7113C178.685 50.7113 178.277 50.6297 177.931 50.4666C177.564 50.3239 177.278 50.0792 177.034 49.7326C176.768 49.4064 176.585 48.9986 176.463 48.4889C176.32 47.9792 176.259 47.3879 176.259 46.6743C176.259 46.0423 176.32 45.4918 176.442 44.9617C176.565 44.4315 176.748 43.983 177.013 43.616C177.258 43.249 177.564 42.9636 177.951 42.7597C178.318 42.5558 178.746 42.4538 179.256 42.4538C179.99 42.4538 180.561 42.6577 180.969 43.0655C181.376 43.4733 181.641 44.0442 181.723 44.7782H183.436C183.415 44.5131 183.374 44.2073 183.313 43.9218C183.232 43.616 183.13 43.3306 183.007 43.0247C182.865 42.7393 182.681 42.4742 182.457 42.2092C182.233 41.9441 181.968 41.7199 181.662 41.516C181.336 41.3121 180.969 41.1694 180.54 41.047C180.112 40.9247 179.623 40.8635 179.052 40.8635C178.44 40.8635 177.849 40.9859 177.299 41.2509C176.728 41.5364 176.238 41.9034 175.831 42.3927C175.402 42.882 175.056 43.4733 174.811 44.1869C174.566 44.9005 174.424 45.6956 174.424 46.5724C174.424 47.286 174.505 47.9384 174.628 48.4685C174.75 49.0394 174.933 49.5287 175.158 49.9365C175.382 50.3647 175.647 50.7113 175.933 50.9967C176.238 51.2821 176.544 51.5064 176.87 51.6899C177.197 51.853 177.523 51.9957 177.89 52.0773C178.236 52.1385 178.563 52.1792 178.869 52.1792C179.439 52.1792 179.949 52.1181 180.398 51.9957C180.846 51.853 181.234 51.6899 181.56 51.4656C181.886 51.2618 182.171 50.9967 182.396 50.7317C182.62 50.4462 182.804 50.1608 182.946 49.8549C183.089 49.5491 183.211 49.2637 183.293 48.9374C183.354 48.6316 183.415 48.3666 183.436 48.1015ZM194.323 48.4481H192.549C192.447 48.6928 192.345 48.9374 192.203 49.2025C192.06 49.4472 191.897 49.6714 191.673 49.8753C191.448 50.0996 191.183 50.2627 190.857 50.385C190.531 50.5278 190.123 50.5889 189.654 50.5889C189.185 50.5889 188.777 50.5074 188.41 50.3443C188.043 50.1812 187.717 49.9569 187.473 49.6511C187.207 49.3452 187.004 48.9986 186.881 48.5705C186.739 48.1423 186.657 47.6733 186.657 47.1636H194.445V46.2461C194.445 45.349 194.323 44.5539 194.099 43.8607C193.834 43.2082 193.508 42.6373 193.079 42.1888C192.631 41.7402 192.121 41.414 191.509 41.1897C190.898 40.9655 190.245 40.8635 189.511 40.8635C189.165 40.8635 188.798 40.9043 188.431 41.0063C188.064 41.1082 187.697 41.2509 187.35 41.4344C186.983 41.6383 186.657 41.883 186.331 42.1888C186.025 42.4946 185.739 42.8616 185.495 43.2694C185.25 43.6772 185.067 44.1461 184.924 44.6762C184.761 45.2063 184.7 45.7976 184.7 46.45C184.7 47.4083 184.822 48.2646 185.087 48.9782C185.332 49.6918 185.678 50.2831 186.127 50.752C186.555 51.2414 187.085 51.588 187.697 51.8326C188.308 52.0569 188.961 52.1792 189.675 52.1792C190.327 52.1792 190.939 52.0773 191.489 51.853C192.019 51.6491 192.488 51.3637 192.876 50.9967C193.283 50.6501 193.61 50.2627 193.854 49.8142C194.099 49.3656 194.262 48.9171 194.323 48.4481ZM192.61 45.6956H186.657C186.677 45.2267 186.779 44.7985 186.942 44.3908C187.106 44.0034 187.309 43.6568 187.574 43.3713C187.84 43.0859 188.145 42.8616 188.512 42.6985C188.859 42.5354 189.246 42.4538 189.654 42.4538C190.103 42.4538 190.49 42.515 190.857 42.6577C191.204 42.8208 191.53 43.0247 191.775 43.2898C192.019 43.5752 192.223 43.9014 192.386 44.3092C192.509 44.717 192.59 45.1859 192.61 45.6956ZM198.312 42.6577V41.1897H196.477V56.0531H198.312V50.6501H198.353C198.435 50.8132 198.578 50.9967 198.741 51.1802C198.904 51.3637 199.108 51.5268 199.373 51.6695C199.597 51.8326 199.882 51.955 200.188 52.0365C200.494 52.1385 200.82 52.1792 201.167 52.1792C201.88 52.1792 202.513 52.0773 203.104 51.853C203.675 51.6288 204.164 51.2821 204.572 50.7928C205 50.3035 205.306 49.6918 205.53 48.9171C205.754 48.1423 205.856 47.2248 205.856 46.1238C205.856 45.2471 205.734 44.4927 205.489 43.8199C205.265 43.1675 204.939 42.617 204.531 42.1684C204.123 41.7402 203.675 41.414 203.145 41.1897C202.614 40.9655 202.064 40.8635 201.493 40.8635C201.065 40.8635 200.678 40.9043 200.351 41.0063C200.005 41.0878 199.719 41.2305 199.475 41.3732C199.21 41.5567 198.985 41.7402 198.802 41.9645C198.618 42.1684 198.476 42.4131 198.353 42.6577H198.312ZM198.272 46.5724C198.272 45.9607 198.333 45.4306 198.435 44.9209C198.557 44.4112 198.72 43.983 198.965 43.616C199.189 43.249 199.495 42.9636 199.862 42.7597C200.209 42.5558 200.616 42.4538 201.106 42.4538C201.615 42.4538 202.044 42.5558 202.431 42.7597C202.798 42.9636 203.083 43.249 203.328 43.616C203.573 43.983 203.736 44.4112 203.858 44.9209C203.96 45.4306 204.021 45.9607 204.021 46.5724C204.021 47.1636 203.96 47.6733 203.858 48.1627C203.736 48.652 203.573 49.0802 203.328 49.4472C203.083 49.7938 202.798 50.0792 202.431 50.2831C202.044 50.487 201.615 50.5889 201.106 50.5889C200.616 50.5889 200.209 50.487 199.862 50.2831C199.495 50.0792 199.189 49.7938 198.965 49.4472C198.72 49.0802 198.557 48.652 198.435 48.1627C198.333 47.6733 198.272 47.1636 198.272 46.5724ZM212.455 41.1897H207.909V51.853H212.741C213.434 51.853 214.066 51.7715 214.596 51.6288C215.106 51.4656 215.534 51.2618 215.881 50.9967C216.207 50.7113 216.452 50.3647 216.635 49.9773C216.798 49.5695 216.88 49.1209 216.88 48.6316C216.88 47.9996 216.717 47.4899 216.37 47.0821C216.044 46.6947 215.595 46.3685 215.045 46.1646C215.432 45.8995 215.738 45.6141 215.983 45.2675C216.227 44.9413 216.329 44.5131 216.329 44.0238C216.329 43.1063 216.023 42.4131 215.371 41.9237C214.718 41.4344 213.76 41.1897 212.455 41.1897ZM212.517 45.6956H209.744V42.6577H212.761C212.965 42.6577 213.189 42.6781 213.393 42.7189C213.618 42.7801 213.781 42.8616 213.964 42.984C214.127 43.1063 214.25 43.2694 214.351 43.4529C214.453 43.6568 214.515 43.9014 214.515 44.1869C214.515 44.6966 214.331 45.084 213.964 45.3287C213.618 45.5733 213.128 45.6956 212.517 45.6956ZM212.517 50.385H209.744V47.0413H212.517C213.006 47.0413 213.414 47.0821 213.74 47.1636C214.066 47.2248 214.311 47.3471 214.515 47.4899C214.698 47.6326 214.841 47.7957 214.922 48.02C215.004 48.2238 215.045 48.4481 215.045 48.7132C215.045 48.9782 215.004 49.2025 214.922 49.4064C214.841 49.6307 214.698 49.7938 214.515 49.9365C214.311 50.0996 214.066 50.2015 213.74 50.2627C213.414 50.3443 213.006 50.385 212.517 50.385ZM220.914 49.3656V41.1897H219.079V51.853H221.179L226.398 43.6772H226.439V51.853H228.294V41.1897H226.194L220.954 49.3656H220.914ZM239.345 48.1015H237.633C237.571 48.5093 237.449 48.8763 237.286 49.2025C237.143 49.5287 236.939 49.7938 236.715 50.018C236.491 50.2423 236.246 50.4258 235.961 50.5278C235.655 50.6501 235.369 50.7113 235.043 50.7113C234.595 50.7113 234.187 50.6297 233.84 50.4666C233.473 50.3239 233.188 50.0792 232.943 49.7326C232.678 49.4064 232.495 48.9986 232.372 48.4889C232.23 47.9792 232.168 47.3879 232.168 46.6743C232.168 46.0423 232.23 45.4918 232.352 44.9617C232.474 44.4315 232.658 43.983 232.923 43.616C233.167 43.249 233.473 42.9636 233.861 42.7597C234.228 42.5558 234.656 42.4538 235.165 42.4538C235.899 42.4538 236.47 42.6577 236.878 43.0655C237.286 43.4733 237.551 44.0442 237.633 44.7782H239.345C239.325 44.5131 239.284 44.2073 239.223 43.9218C239.141 43.616 239.039 43.3306 238.917 43.0247C238.774 42.7393 238.591 42.4742 238.366 42.2092C238.142 41.9441 237.877 41.7199 237.571 41.516C237.245 41.3121 236.878 41.1694 236.45 41.047C236.022 40.9247 235.532 40.8635 234.962 40.8635C234.35 40.8635 233.759 40.9859 233.208 41.2509C232.637 41.5364 232.148 41.9034 231.74 42.3927C231.312 42.882 230.965 43.4733 230.721 44.1869C230.476 44.9005 230.333 45.6956 230.333 46.5724C230.333 47.286 230.415 47.9384 230.537 48.4685C230.66 49.0394 230.843 49.5287 231.067 49.9365C231.292 50.3647 231.557 50.7113 231.842 50.9967C232.148 51.2821 232.454 51.5064 232.78 51.6899C233.106 51.853 233.432 51.9957 233.799 52.0773C234.146 52.1385 234.472 52.1792 234.778 52.1792C235.349 52.1792 235.859 52.1181 236.307 51.9957C236.756 51.853 237.143 51.6899 237.469 51.4656C237.796 51.2618 238.081 50.9967 238.305 50.7317C238.53 50.4462 238.713 50.1608 238.856 49.8549C238.999 49.5491 239.121 49.2637 239.202 48.9374C239.264 48.6316 239.325 48.3666 239.345 48.1015ZM250.437 46.5112C250.437 45.6345 250.335 44.8597 250.09 44.1665C249.866 43.4733 249.56 42.882 249.132 42.3927C248.704 41.9034 248.173 41.516 247.562 41.2509C246.95 40.9859 246.257 40.8635 245.482 40.8635C244.707 40.8635 244.014 40.9859 243.402 41.2509C242.791 41.516 242.281 41.9034 241.853 42.3927C241.425 42.882 241.099 43.4733 240.874 44.1665C240.65 44.8597 240.528 45.6345 240.528 46.5112C240.528 47.3879 240.65 48.1627 240.874 48.8763C241.099 49.5695 241.425 50.1608 241.853 50.6501C242.281 51.1394 242.791 51.5268 243.402 51.7919C244.014 52.0569 244.707 52.1792 245.482 52.1792C246.257 52.1792 246.95 52.0569 247.562 51.7919C248.173 51.5268 248.704 51.1394 249.132 50.6501C249.56 50.1608 249.866 49.5695 250.09 48.8763C250.335 48.1627 250.437 47.3879 250.437 46.5112ZM248.602 46.5112C248.602 47.1025 248.54 47.653 248.398 48.1423C248.275 48.652 248.072 49.0802 247.806 49.4472C247.541 49.7938 247.215 50.0792 246.828 50.2831C246.44 50.487 245.992 50.5889 245.482 50.5889C244.972 50.5889 244.524 50.487 244.136 50.2831C243.749 50.0792 243.423 49.7938 243.158 49.4472C242.893 49.0802 242.689 48.652 242.567 48.1423C242.424 47.653 242.363 47.1025 242.363 46.5112C242.363 45.9199 242.424 45.3694 242.567 44.8801C242.689 44.3908 242.893 43.9626 243.158 43.5956C243.423 43.249 243.749 42.9636 244.136 42.7597C244.524 42.5558 244.972 42.4538 245.482 42.4538C245.992 42.4538 246.44 42.5558 246.828 42.7597C247.215 42.9636 247.541 43.249 247.806 43.5956C248.072 43.9626 248.275 44.3908 248.398 44.8801C248.54 45.3694 248.602 45.9199 248.602 46.5112ZM257.036 41.1897H252.489V51.853H257.321C258.014 51.853 258.646 51.7715 259.176 51.6288C259.686 51.4656 260.114 51.2618 260.461 50.9967C260.787 50.7113 261.032 50.3647 261.215 49.9773C261.378 49.5695 261.46 49.1209 261.46 48.6316C261.46 47.9996 261.297 47.4899 260.95 47.0821C260.624 46.6947 260.176 46.3685 259.625 46.1646C260.012 45.8995 260.318 45.6141 260.563 45.2675C260.808 44.9413 260.91 44.5131 260.91 44.0238C260.91 43.1063 260.604 42.4131 259.951 41.9237C259.299 41.4344 258.341 41.1897 257.036 41.1897ZM257.097 45.6956H254.324V42.6577H257.341C257.545 42.6577 257.77 42.6781 257.974 42.7189C258.198 42.7801 258.361 42.8616 258.544 42.984C258.708 43.1063 258.83 43.2694 258.932 43.4529C259.034 43.6568 259.095 43.9014 259.095 44.1869C259.095 44.6966 258.911 45.084 258.544 45.3287C258.198 45.5733 257.708 45.6956 257.097 45.6956ZM257.097 50.385H254.324V47.0413H257.097C257.586 47.0413 257.994 47.0821 258.32 47.1636C258.646 47.2248 258.891 47.3471 259.095 47.4899C259.278 47.6326 259.421 47.7957 259.503 48.02C259.584 48.2238 259.625 48.4481 259.625 48.7132C259.625 48.9782 259.584 49.2025 259.503 49.4064C259.421 49.6307 259.278 49.7938 259.095 49.9365C258.891 50.0996 258.646 50.2015 258.32 50.2627C257.994 50.3443 257.586 50.385 257.097 50.385Z" fill="#C9C9C9"/>
<defs>
<filter id="filter0_d_407_42922" x="-0.00367069" y="0.613989" width="71.0957" height="71.0955" filterUnits="userSpaceOnUse" color-interpolation-filters="sRGB">
<feFlood flood-opacity="0" result="BackgroundImageFix"/>
<feColorMatrix in="SourceAlpha" type="matrix" values="0 0 0 0 0 0 0 0 0 0 0 0 0 0 0 0 0 0 127 0" result="hardAlpha"/>
<feOffset dy="4.30882"/>
<feGaussianBlur stdDeviation="7.00184"/>
<feComposite in2="hardAlpha" operator="out"/>
<feColorMatrix type="matrix" values="0 0 0 0 0.991667 0 0 0 0 0.818362 0 0 0 0 0.623924 0 0 0 0.37 0"/>
<feBlend mode="normal" in2="BackgroundImageFix" result="effect1_dropShadow_407_42922"/>
<feBlend mode="normal" in="SourceGraphic" in2="effect1_dropShadow_407_42922" result="shape"/>
</filter>
<linearGradient id="paint0_linear_407_42922" x1="52.8487" y1="50.7005" x2="38.7273" y2="6.30831" gradientUnits="userSpaceOnUse">
<stop stop-color="#745142" stop-opacity="0.9"/>
<stop offset="0.760282" stop-color="#F6D1A5"/>
<stop offset="1" stop-color="#9E5F35"/>
</linearGradient>
<clipPath id="clip0_407_42922">
<rect x="14" y="10.3088" width="43.0882" height="43.0882" rx="8" fill="white"/>
</clipPath>
</defs>
</svg>
