<svg width="28" height="28" viewBox="0 0 28 28" fill="none" xmlns="http://www.w3.org/2000/svg">
<g clip-path="url(#clip0_441_44235)">
<path d="M12.6488 13.9637C12.6488 13.2376 13.2373 12.6491 13.9634 12.6491C14.6894 12.6491 15.278 13.2376 15.278 13.9637C15.278 14.6897 14.6894 15.2783 13.9634 15.2783C13.2373 15.2783 12.6488 14.6897 12.6488 13.9637Z" fill="url(#paint0_linear_441_44235)"/>
<path fill-rule="evenodd" clip-rule="evenodd" d="M9.27633 23.235L11.9644 25.923C13.0886 27.0473 14.9114 27.0473 16.0356 25.923L18.7353 23.2233V20.8398C18.7353 19.7041 17.8147 18.7835 16.679 18.7835H11.3326C10.197 18.7835 9.27632 19.7041 9.27632 20.8398L9.27633 23.235ZM8.04254 22.0012V20.8398C8.04254 19.0227 9.51556 17.5497 11.3326 17.5497H16.679C18.4961 17.5497 19.9691 19.0227 19.9691 20.8398V21.9896L22.9461 19.0126L25.923 16.0356C27.0473 14.9114 27.0473 13.0886 25.923 11.9644L19.9691 6.01045V7.15904C19.9691 8.9761 18.4961 10.4491 16.679 10.4491H11.3326C9.51556 10.4491 8.04254 8.9761 8.04254 7.15904V5.99879L2.07697 11.9644C0.95272 13.0886 0.95272 14.9114 2.07697 16.0356L8.04254 22.0012ZM16.0356 2.07697L18.7353 4.77666V7.15904C18.7353 8.2947 17.8147 9.21534 16.679 9.21534H11.3326C10.197 9.21534 9.27632 8.2947 9.27632 7.15904V4.76501L11.9644 2.07697C13.0886 0.952719 14.9114 0.952717 16.0356 2.07697ZM11.0919 26.7954C12.698 28.4015 15.302 28.4015 16.9081 26.7954L26.7954 16.9081C28.4015 15.302 28.4015 12.698 26.7954 11.0919L16.908 1.20456C15.302 -0.401518 12.698 -0.401519 11.0919 1.20456L1.20456 11.0919C-0.401519 12.698 -0.401519 15.302 1.20456 16.9081L11.0919 26.7954Z" fill="url(#paint1_linear_441_44235)"/>
</g>
<defs>
<linearGradient id="paint0_linear_441_44235" x1="-6.16494" y1="36.9333" x2="40.2309" y2="2.20565" gradientUnits="userSpaceOnUse">
<stop stop-color="#E2A269"/>
<stop offset="0.494792" stop-color="#F6D1A5"/>
<stop offset="1" stop-color="#9E5F35"/>
</linearGradient>
<linearGradient id="paint1_linear_441_44235" x1="-6.16494" y1="36.9333" x2="40.2309" y2="2.20565" gradientUnits="userSpaceOnUse">
<stop stop-color="#E2A269"/>
<stop offset="0.494792" stop-color="#F6D1A5"/>
<stop offset="1" stop-color="#9E5F35"/>
</linearGradient>
<clipPath id="clip0_441_44235">
<rect width="28" height="28" fill="white"/>
</clipPath>
</defs>
</svg>
