<svg width="317" height="45" viewBox="0 0 317 45" fill="none" xmlns="http://www.w3.org/2000/svg">
<path d="M8.32485 0.125542C10.1563 0.0627712 11.9809 0 13.8054 0C28.1796 0 29.6295 8.04867 29.6295 11.536C29.6295 16.732 25.5296 21.6142 18.724 22.7511C23.6426 30.5487 32.7791 42.0149 39.0228 44.6164C34.6106 44.9303 32.9109 45 32.2172 45C24.9676 45 15.1374 28.9654 11.1622 21.4887C15.6993 21.0423 22.38 18.4478 22.38 12.1079C22.38 9.25527 21.3116 4.69389 13.5556 4.69389C11.9809 4.69389 10.7807 4.75666 9.33078 5.14027V38.2835C9.33078 40.055 9.33078 42.5938 12.2306 44.6234H0C2.89982 42.5938 2.89983 40.062 2.89983 38.2835V6.59098C2.89983 4.81944 2.89982 2.28069 0 0.251085C2.78189 0.251085 5.5499 0.188314 8.32485 0.125542Z" fill="#A67F63"/>
<path d="M34.8934 22.7511C41.6989 21.6073 45.7989 16.732 45.7989 11.536C45.7989 8.04867 44.349 0 29.9748 0C28.171 0 26.3673 0.0627712 24.5636 0.125542C26.6934 1.18568 28.511 2.76193 29.8013 4.69389C37.481 4.72877 38.5494 9.26224 38.5494 12.1079C38.5494 18.4478 31.8687 21.0423 27.3316 21.4887C31.2998 28.9654 41.137 45 48.3866 45C49.0803 45 50.78 44.9372 55.1921 44.6164C48.9485 42.0149 39.812 30.5417 34.8934 22.7511Z" fill="#A67F63"/>
<path d="M81.9669 2.20925C82.7358 2.18124 83.5046 2.15324 84.2791 2.15324C90.3352 2.15324 90.9425 5.54204 90.9425 7.01519C90.9425 9.2053 89.2154 11.261 86.3461 11.7427C88.4187 15.0251 92.2685 19.859 94.8983 20.9569C93.0374 21.0913 92.3187 21.1193 92.029 21.1193C88.9758 21.1193 84.8306 14.3641 83.1592 11.2106C85.0702 11.0257 87.8838 9.92788 87.8838 7.26165C87.8838 6.05736 87.4325 4.13611 84.1676 4.13611C83.5046 4.13611 82.9976 4.16411 82.3904 4.32095V18.2851C82.3904 19.03 82.3904 20.0999 83.6105 20.9569H78.4625C79.6826 20.0999 79.6826 19.0356 79.6826 18.2851V4.9371C79.6826 4.19212 79.6826 3.12226 78.4625 2.26526C79.6325 2.25966 80.7969 2.23165 81.9669 2.20925Z" fill="#A67F63"/>
<path d="M101.538 2.25915C100.318 3.11055 100.318 4.1804 100.318 4.93097V18.2789C100.318 19.0239 100.318 20.0938 101.538 20.9508H96.3842C97.6043 20.0938 97.6044 19.0295 97.6044 18.2789V4.93097C97.6044 4.186 97.6043 3.11615 96.3842 2.25915H101.538Z" fill="#A67F63"/>
<path d="M118.562 5.83846C118.06 5.49118 116.094 4.13006 113.302 4.13006C109.826 4.13006 106.344 6.45461 106.344 11.0197C106.344 14.9182 108.572 19.0856 113.938 19.0856C117.604 19.0856 119.381 17.7749 120.178 17.1083L118.372 20.6876C116.807 21.1973 115.475 21.3541 113.726 21.3541C105.759 21.3541 103.291 15.8816 103.291 11.7423C103.291 6.61704 106.901 1.86152 113.62 1.86152C115.241 1.86152 116.194 2.10238 117.074 2.28722C117.604 2.42165 117.977 2.50007 118.562 2.57849V5.83846Z" fill="#A67F63"/>
<path d="M136.111 9.63051V4.931C136.111 4.05159 136.083 3.11617 134.891 2.25917H140.044C138.852 3.11057 138.824 4.04599 138.824 4.931V18.2789C138.824 19.1583 138.852 20.0938 140.044 20.9508H134.891C136.083 20.0938 136.111 19.164 136.111 18.2789V11.7646H125.887V18.2789C125.887 19.1583 125.915 20.0938 127.108 20.9508H121.954C123.146 20.0938 123.174 19.164 123.174 18.2789V4.931C123.174 4.05159 123.146 3.11617 121.954 2.25917H127.108C125.91 3.11057 125.887 4.04599 125.887 4.931V9.63051H136.111Z" fill="#A67F63"/>
<path d="M147.531 2.25915C147.742 2.71285 147.904 2.9257 147.926 2.95371L158.791 16.5705V4.93098C158.791 4.186 158.791 3.11615 157.57 2.25915H162.083C160.863 3.11055 160.863 4.1804 160.863 4.93098V21.6957C158.685 21.0796 157.648 19.6961 156.718 18.5198L146.862 6.12966V18.2789C146.862 19.0239 146.862 20.0938 148.082 20.9508H143.569C144.79 20.0938 144.79 19.0295 144.79 18.2789V4.93098C144.79 4.186 144.79 3.11615 143.569 2.25915H147.531Z" fill="#A67F63"/>
<path d="M174.25 5.32801C173.743 4.73987 173.03 4.34218 171.459 4.37018L167.871 4.4486V9.78667H171.693C172.038 9.78667 172.356 9.75866 172.645 9.70825V12.6209C172.144 12.1112 171.559 11.9264 170.628 11.9264H167.865V18.6256C169.486 18.788 170.784 18.8104 171.319 18.8104C174.239 18.8104 175.704 18.2223 176.869 17.1804L175.515 20.9445H163.937C165.157 20.0875 165.157 18.9672 165.157 18.2727V4.92471C165.157 4.23015 165.157 3.10989 163.937 2.25288H174.25V5.32801Z" fill="#A67F63"/>
<path d="M190.293 5.5696C188.432 4.02363 186.839 3.83319 185.752 3.83319C182.749 3.83319 182.114 5.51358 182.114 6.52742C182.114 8.1294 183.574 8.87998 186.789 10.3195C189.925 11.7366 191.808 12.7225 191.808 15.6072C191.808 19.6401 188.22 21.3485 184.348 21.3485C182.593 21.3485 181 21.1357 179.273 20.5475L178.504 17.0243C179.484 17.8757 181.373 19.2144 184.504 19.2144C187.134 19.2144 188.833 18.1446 188.833 16.3577C188.833 14.1956 186.683 13.4226 184.343 12.3528C181.317 10.9637 179.055 9.78739 179.055 6.8523C179.055 4.55576 180.487 1.86152 186.014 1.86152C187.557 1.86152 188.911 2.04637 190.293 2.44966V5.5696Z" fill="#A67F63"/>
<path d="M206.304 5.5696C204.443 4.02363 202.849 3.83319 201.763 3.83319C198.76 3.83319 198.125 5.51358 198.125 6.52742C198.125 8.1294 199.585 8.87998 202.799 10.3195C205.93 11.7367 207.819 12.7225 207.819 15.6072C207.819 19.6401 204.231 21.3485 200.353 21.3485C198.598 21.3485 197.005 21.1357 195.283 20.5475L194.515 17.0243C195.495 17.8757 197.384 19.2144 200.515 19.2144C203.145 19.2144 204.844 18.1446 204.844 16.3577C204.844 14.1956 202.693 13.4226 200.353 12.3528C197.328 10.9637 195.066 9.78739 195.066 6.8523C195.066 4.55576 196.498 1.86152 202.025 1.86152C203.568 1.86152 204.922 2.04637 206.304 2.44966V5.5696Z" fill="#A67F63"/>
<path d="M221.442 2.20925C222.211 2.18124 222.986 2.15324 223.754 2.15324C229.811 2.15324 230.418 5.54204 230.418 7.01519C230.418 9.2053 228.691 11.261 225.821 11.7427C227.894 15.0251 231.744 19.859 234.374 20.9569C232.513 21.0913 231.8 21.1193 231.504 21.1193C228.451 21.1193 224.306 14.3641 222.635 11.2106C224.546 11.0257 227.365 9.92788 227.365 7.26165C227.365 6.05736 226.913 4.13611 223.649 4.13611C222.986 4.13611 222.479 4.16411 221.871 4.32095V18.2851C221.871 19.03 221.871 20.0999 223.091 20.9569H217.938C219.158 20.0999 219.158 19.0356 219.158 18.2851V4.9371C219.158 4.19212 219.158 3.12226 217.938 2.26526C219.108 2.25966 220.272 2.23165 221.442 2.20925Z" fill="#A67F63"/>
<path d="M246.726 5.32801C246.224 4.73987 245.506 4.34218 243.94 4.37018L240.358 4.4486V9.78667H244.18C244.525 9.78667 244.843 9.75866 245.138 9.70825V12.6209C244.631 12.1112 244.046 11.9264 243.121 11.9264H240.358V18.6256C241.979 18.788 243.277 18.8104 243.812 18.8104C246.731 18.8104 248.191 18.2223 249.361 17.1804L248.007 20.9445H236.43C237.65 20.0875 237.65 18.9672 237.65 18.2727V4.92471C237.65 4.23015 237.65 3.10989 236.43 2.25288H246.726V5.32801Z" fill="#A67F63"/>
<path d="M256.816 12.0615H262.577L259.679 4.69014L256.816 12.0615ZM261.54 2.25917L267.942 18.2005C268.365 19.2424 268.895 20.2562 270.198 20.9508H264.488C265.736 20.3906 265.524 19.4832 265.284 18.8671L263.267 13.8483H256.125L254.453 18.0381C254.08 18.9735 253.846 20.0658 255.089 20.9508H250.069C251.45 20.0434 251.98 18.8391 252.487 17.562L257.802 4.05159C257.908 3.78272 258.281 2.76888 257.189 2.26477H261.54V2.25917Z" fill="#A67F63"/>
<path d="M277.184 2.25915C275.881 3.08814 275.831 4.25882 275.831 4.93097V18.5758C276.705 18.6822 278.009 18.8167 278.884 18.8167C280.611 18.8167 283.135 18.4974 284.806 17.0802L283.319 20.9508H271.897C273.117 20.0938 273.117 19.0295 273.117 18.2789V4.93097C273.117 4.186 273.117 3.11615 271.897 2.25915H277.184Z" fill="#A67F63"/>
<path d="M291.842 18.2788C291.842 19.0237 291.842 20.0936 293.062 20.9506H287.908C289.128 20.0936 289.128 19.0293 289.128 18.2788V4.39307L285.969 4.36507C285.334 4.36507 284.192 4.47149 283.206 5.48533L284.27 2.14694C284.911 2.25337 285.279 2.25337 285.969 2.25337H296.249C296.806 2.25337 297.391 2.20295 297.87 2.14694L296.94 5.27248C296.433 4.36507 295.48 4.36507 294.817 4.36507L291.842 4.39307V18.2788Z" fill="#A67F63"/>
<path d="M302.597 2.20847C302.886 2.20847 303.104 2.23647 303.365 2.3429L308.435 10.4088L312.101 4.69546C312.313 4.34818 312.475 3.97289 312.475 3.6256C312.475 3.00946 312.023 2.50534 311.572 2.26448H316.169L309.316 12.5989V18.2843C309.316 19.0293 309.316 20.0991 310.536 20.9561H305.382C306.602 20.0991 306.602 19.0349 306.602 18.2843V12.5709L301.131 4.07931C300.468 3.03747 299.722 2.52774 299.142 2.26448L302.597 2.20847Z" fill="#A67F63"/>
<path d="M80.3478 35.7045H79.0719V43.0086H80.3478V35.7045Z" fill="#A67F63"/>
<path d="M90.5935 35.7045H91.7802L95.6691 40.7569V35.7045H96.9282V43.0086H95.8585L91.8526 37.8106V43.0086H90.5935V35.7045Z" fill="#A67F63"/>
<path d="M106.478 35.7045H107.888L110.083 41.3171L112.262 35.7045H113.643L110.618 43.0591H109.498L106.478 35.7045Z" fill="#A67F63"/>
<path d="M123.204 35.7045H128.591V36.8528H124.48V38.7516H128.123V39.8999H124.48V41.8604H128.641V43.0086H123.204V35.7045Z" fill="#A67F63"/>
<path d="M137.958 41.9445L138.727 41.0259C139.424 41.6308 140.12 41.9781 141.023 41.9781C141.808 41.9781 142.31 41.614 142.31 41.0371C142.31 40.5162 142.02 40.2305 140.672 39.9112C139.123 39.5471 138.254 39.0878 138.254 37.7211C138.254 36.4664 139.29 35.6038 140.733 35.6038C141.792 35.6038 142.633 35.9287 143.368 36.5224L142.683 37.4914C142.031 36.9985 141.374 36.7409 140.711 36.7409C139.964 36.7409 139.53 37.1274 139.53 37.6259C139.53 38.1916 139.864 38.4381 141.251 38.7741C142.789 39.1494 143.586 39.704 143.586 40.9363C143.586 42.303 142.516 43.1152 140.989 43.1152C139.881 43.1152 138.833 42.7287 137.958 41.9445Z" fill="#A67F63"/>
<path d="M155.029 36.892H152.728V35.7045H158.622V36.892H156.321V43.0086H155.029V36.892Z" fill="#A67F63"/>
<path d="M168.282 35.7045H169.641L171.853 39.1549L174.065 35.7045H175.424V43.0086H174.149V37.7714L171.853 41.2106H171.808L169.535 37.7882V43.0086H168.282V35.7045Z" fill="#A67F63"/>
<path d="M185.594 35.7045H190.982V36.8528H186.87V38.7516H190.514V39.8999H186.87V41.8604H191.032V43.0087H185.594V35.7045Z" fill="#A67F63"/>
<path d="M200.857 35.7045H202.038L205.932 40.7569V35.7045H207.191V43.0087H206.122L202.11 37.8106V43.0087H200.857V35.7045Z" fill="#A67F63"/>
<path d="M219.139 36.892H216.833V35.7045H222.727V36.892H220.426V43.0086H219.139V36.892Z" fill="#A67F63"/>
<path d="M243.485 39.3575C243.485 37.3131 245.039 35.5767 247.234 35.5767C248.499 35.5767 249.279 35.9295 250.026 36.5681L249.218 37.5371C248.655 37.0554 248.109 36.7529 247.184 36.7529C245.842 36.7529 244.828 37.9292 244.828 39.3519C244.828 40.8531 245.814 41.9622 247.296 41.9622C247.981 41.9622 248.605 41.7437 249.051 41.4076V40.0409H247.19V38.9262H250.282V41.9958C249.563 42.6119 248.538 43.1328 247.251 43.1328C244.978 43.1328 243.485 41.5085 243.485 39.3575Z" fill="#A67F63"/>
<path d="M263.404 39.323C264.317 39.323 264.897 38.8413 264.897 38.0795C264.897 37.2953 264.334 36.8696 263.393 36.8696H261.532V39.323H263.404ZM260.256 35.7045H263.493C265.198 35.7045 266.189 36.6231 266.189 38.0347C266.189 39.2333 265.471 39.9559 264.457 40.2472L266.418 43.0142H264.914L263.108 40.4656H261.532V43.0142H260.256V35.7045Z" fill="#A67F63"/>
<path d="M282.004 39.3576C282.004 37.9348 280.973 36.7586 279.53 36.7586C278.087 36.7586 277.079 37.918 277.079 39.3576C277.079 40.7747 278.104 41.9566 279.547 41.9566C280.996 41.9566 282.004 40.7971 282.004 39.3576ZM275.742 39.3576C275.742 37.3019 277.319 35.5767 279.553 35.5767C281.781 35.5767 283.341 37.2795 283.341 39.3576C283.341 41.4133 281.765 43.1385 279.53 43.1385C277.296 43.1329 275.742 41.4357 275.742 39.3576Z" fill="#A67F63"/>
<path d="M293.083 39.9111V35.7045H294.359V39.8607C294.359 41.2162 295.055 41.95 296.197 41.95C297.328 41.95 298.025 41.261 298.025 39.9167V35.7101H299.301V39.8551C299.301 42.0396 298.075 43.1318 296.175 43.1318C294.286 43.1206 293.083 42.0284 293.083 39.9111Z" fill="#A67F63"/>
<path d="M312.121 39.5022C313.085 39.5022 313.687 38.9589 313.687 38.1747C313.687 37.3177 313.074 36.8696 312.121 36.8696H310.639V39.5022H312.121ZM309.358 35.7045H312.222C313.915 35.7045 314.985 36.6736 314.985 38.1691C314.985 39.8047 313.676 40.6617 312.077 40.6617H310.634V43.0087H309.358V35.7045Z" fill="#A67F63"/>
</svg>
