<svg width="349" height="90" viewBox="0 0 349 90" fill="none" xmlns="http://www.w3.org/2000/svg">
<path d="M77.1177 2.01904C76.2555 2.16402 75.6286 2.29205 74.9942 2.36924C74.5292 2.42573 74.053 2.39748 73.5861 2.44267C71.7149 2.62718 70.6024 3.76062 69.9454 5.42312C69.6574 6.15176 69.3806 6.88981 69.183 7.64669C68.9533 8.52595 69.2733 8.93075 70.1619 9.10962C71.346 9.34873 72.5169 9.6688 73.7085 9.85332C74.9697 10.0472 76.2498 10.2205 77.5224 10.228C79.4708 10.2393 80.9994 7.24566 80.4967 5.61517C79.7814 3.29181 74.8775 2.89642 74.9942 2.37113C75.1505 1.67073 77.8311 1.94373 77.1177 2.02093C77.1177 2.02093 84.2241 2.96232 85.6096 6.52267C86.0426 7.63728 86.0105 9.26777 85.4138 10.6441C85.2048 11.1242 84.9168 11.5855 84.5328 12.0242C83.2301 13.5135 81.8051 14.8935 79.563 14.3908C78.6858 14.195 77.8556 13.7959 76.9953 13.5172C76.5793 13.3817 76.1482 13.2838 75.7171 13.2103C74.3504 12.9806 73.2397 13.762 72.9254 15.1063C72.6543 16.2642 72.3173 17.4071 72.05 18.5668C71.9032 19.2051 71.8316 19.8622 71.7394 20.5118C71.6283 21.2875 71.5869 22.0764 71.4194 22.837C70.4988 27.0093 70.064 31.2455 69.8946 35.4987C69.6216 42.3295 69.4729 49.164 69.2922 55.9985C69.247 57.7175 69.3599 59.4421 69.2602 61.1555C69.1359 63.3094 68.8648 65.4557 68.6615 67.6059C68.4883 69.4435 68.366 71.2886 68.142 73.1206C67.6713 76.9822 66.0524 80.2318 62.7034 82.365C60.9452 83.4853 59.0966 84.5735 57.1407 85.2457C54.9438 86.0007 52.5813 86.2756 50.2903 86.7482C50.0155 86.8047 49.7143 86.7519 49.4507 86.8329C46.0867 87.8534 42.5702 87.7536 39.1422 88.2619C31.36 89.4161 23.5514 88.9209 15.7504 88.951C14.4533 88.9567 13.1563 88.5895 11.8593 88.3862C11.1778 88.2808 10.5039 88.1057 9.81865 88.0548C7.93993 87.9136 6.39628 86.9195 4.79805 86.0967C4.14671 85.7616 3.45019 85.2796 3.08498 84.6771C2.28681 83.3554 1.65806 81.9282 1.01989 80.5161C0.686693 79.7762 0.498444 78.9723 0.212305 78.2097C-0.444684 76.4606 0.564331 75.1144 1.32109 73.7306C1.61664 73.1921 2.13056 72.7779 2.51083 72.2808C3.31841 71.2284 4.39332 71.1756 5.56799 71.3884C7.16811 71.6765 8.76634 71.9834 10.3759 72.2074C12.2188 72.4635 13.9564 71.4863 14.6491 69.5433C15.2478 67.8676 16.0629 66.2484 15.9217 64.3072C15.8313 63.0495 16.5674 61.7523 16.6295 60.4588C16.7989 56.955 16.8159 53.4417 16.8742 49.9322C16.8893 49.0247 16.8498 48.1134 16.797 47.2059C16.6013 43.8282 16.3264 40.4523 16.1984 37.0709C16.061 33.4352 16.1495 29.7901 15.965 26.1582C15.7767 22.4492 16.3603 18.838 17.0775 15.2475C17.4484 13.393 18.1826 11.6043 18.8113 9.80813C19.2537 8.54666 19.7168 7.28143 20.3098 6.08774C21.1607 4.37253 22.4483 3.43302 24.5529 3.45373C28.9278 3.49515 33.2368 3.90936 37.5157 4.81686C39.5582 5.24991 41.6421 5.65659 43.7185 5.71495C46.5121 5.79591 49.2418 5.16895 51.8904 4.22755C55.4879 2.94914 59.0928 1.69144 62.7147 0.482692C63.5675 0.198391 64.4956 0.0101124 65.3916 0.004464C68.4601 -0.0181294 71.5304 0.0496509 74.6008 0.104252C75.7453 0.124962 76.3364 0.945857 77.1177 2.01904V2.01904ZM48.6488 68.8372C47.8525 67.9919 47.0336 68.4249 46.2994 68.3402C45.7648 68.278 45.185 68.2103 44.7332 67.9542C44.2136 67.6624 43.7449 67.2124 43.3853 66.7304C43.118 66.3727 42.9241 65.8474 42.9599 65.4181C42.9825 65.1488 43.4512 64.7798 43.7807 64.6951C44.6579 64.471 45.5634 64.3167 46.4651 64.2564C46.9338 64.2263 47.4534 64.3844 47.8901 64.584C48.3815 64.8099 48.5264 65.2129 48.18 65.7438C47.6868 66.5007 47.7697 66.6513 48.6921 66.721C49.3058 66.768 49.7858 66.9337 49.9759 67.5965C50.3543 68.9125 50.9887 69.1309 52.2914 68.519C52.8166 68.2724 53.4134 68.1538 53.9894 68.0521C55.0041 67.8714 56.0413 67.8036 57.0466 67.5871C58.3568 67.3065 59.635 66.8754 60.9471 66.6174C61.3782 66.5327 61.8751 66.7793 62.342 66.8735C62.2403 67.3611 62.2404 67.9015 62.0163 68.3232C61.653 69.0086 61.0958 69.5885 60.7005 70.2587C59.1681 72.8532 58.9366 75.6943 59.202 78.6145C59.2622 79.2754 59.6218 79.6877 60.3466 79.7593C61.6059 79.8854 62.6997 79.2716 63.4395 78.0365C64.4617 76.327 64.9191 74.4159 65.0622 72.4992C65.29 69.4416 65.2542 66.3632 65.2956 63.2924C65.3107 62.2192 64.6048 61.7184 63.5656 61.8803C62.7411 62.0084 61.9015 62.0272 61.0694 62.1044C60.4501 62.1627 59.8082 62.1533 59.2227 62.3284C58.5394 62.5318 57.9614 62.577 57.617 61.869C57.3045 61.2289 57.7356 60.4682 58.4961 60.1406C58.7879 60.0145 59.0608 59.845 59.219 59.7603C58.7672 58.9149 58.4471 58.1355 57.9577 57.4878C57.7563 57.2223 57.1877 57.1734 56.7792 57.1489C56.5308 57.1338 56.2785 57.3993 56.0112 57.4633C55.3768 57.6139 54.5861 57.1338 54.4807 56.5257C54.3452 55.7406 54.8572 55.5579 55.501 55.3621C57.5492 54.7446 59.7385 55.5297 61.7584 54.6843C61.9448 54.6071 62.2403 54.7634 62.4775 54.8368C64.1398 55.3565 64.6763 54.9216 64.5953 53.1725C64.4975 51.043 64.424 48.9136 64.3563 46.7842C64.185 41.358 64.1831 35.9374 64.6876 30.5225C64.8645 28.619 64.938 26.7042 64.9888 24.7932C65.0245 23.4696 64.6161 23.2286 63.3209 23.3567C62.7016 23.4188 62.0276 23.27 61.4252 23.0724C60.5555 22.7862 59.7423 22.3343 58.882 22.018C58.1309 21.7412 57.9257 21.2404 58.3869 20.5908C59.0552 19.6476 62.1952 18.8681 63.2249 19.3915C63.3077 19.4348 63.383 19.4932 63.464 19.5421C64.6066 20.2689 65.3163 19.9996 65.5008 18.6309C65.8133 16.3075 65.9997 13.9672 66.2764 11.6401C66.5569 9.28472 66.6322 6.87475 67.7937 4.72084C68.2154 3.93572 68.7877 3.23344 69.2394 2.46338C69.6969 1.68203 69.5388 1.46174 68.5938 1.45986C65.7343 1.45233 63.0385 2.341 60.3277 3.05834C55.8662 4.23885 51.6796 6.30238 47.1221 7.20988C45.6349 7.50548 44.1892 7.78978 42.6662 7.50737C40.9155 7.18353 39.1121 7.07809 37.399 6.62434C35.428 6.10281 34.9329 6.11975 33.5606 7.67117C32.977 8.33014 32.3106 8.77448 31.3694 8.73118C30.0027 8.66904 28.6341 8.66716 27.2656 8.63327C26.7347 8.62009 26.4937 8.75565 26.5201 9.39203C26.5352 9.75541 26.1869 10.4257 25.9346 10.4615C24.472 10.6629 22.9716 11.0903 21.428 10.2167C21.3508 10.5085 21.1814 10.7947 21.2585 10.9736C21.3225 11.1242 21.6708 11.1863 21.9042 11.224C22.4502 11.3144 23.0206 11.3049 23.5439 11.4631C23.7679 11.5309 24.0446 11.9225 24.0258 12.1428C24.0089 12.3424 23.638 12.6267 23.3895 12.6662C22.4784 12.8131 21.5503 12.8432 20.6392 12.9882C20.3775 13.0296 20.018 13.263 19.9389 13.489C19.5436 14.6337 19.0485 15.786 18.9186 16.9702C18.6701 19.239 18.5591 21.5341 18.5478 23.8179C18.5252 28.2406 18.6475 32.6633 18.6419 37.0859C18.6306 45.5566 18.6419 54.0291 18.4913 62.4979C18.4442 65.13 17.9567 67.7697 16.4996 70.0893C15.7824 71.2302 16.0365 71.7668 17.3825 71.8177C18.7925 71.8723 20.2081 71.9457 21.6162 71.8949C26.5013 71.7141 31.3882 71.5221 36.2695 71.2397C37.6324 71.1606 38.9652 70.6635 40.3282 70.5091C42.717 70.238 45.1436 70.2267 47.4346 69.3663C47.8167 69.2213 48.1876 69.0406 48.6601 68.8335L48.6488 68.8372ZM22.9434 84.7788C28.2369 84.5133 32.8151 84.3928 37.3745 84.0238C41.8624 83.6623 46.3333 83.0786 50.8023 82.5307C52.6604 82.3029 54.5033 81.9358 56.3387 81.5667C56.7115 81.4914 57.1727 81.1883 57.3139 80.8682C57.4212 80.6253 57.0974 80.1791 56.9393 79.8365C56.7868 79.5051 56.5119 79.2057 56.446 78.8631C56.2917 78.0685 56.1091 77.2476 56.1599 76.4512C56.2653 74.7661 56.0131 72.9775 57.2612 71.5334C57.4155 71.3545 57.5153 71.0834 57.536 70.8462C57.5624 70.5506 57.5793 70.0705 57.4249 69.9857C57.184 69.852 56.7849 69.9368 56.4762 70.0159C56.1185 70.1062 55.7985 70.3453 55.4408 70.4263C53.5508 70.8518 51.6608 71.2867 49.7557 71.6463C45.5765 72.4333 41.4162 73.4839 37.1976 73.8624C31.5558 74.3689 25.8688 74.4479 20.1987 74.4969C16.8253 74.5251 13.4293 74.3048 10.0803 73.8887C7.90416 73.6176 6.19486 73.8906 4.90724 75.7678C4.54203 76.3006 4.00176 76.3364 3.3956 76.1085C2.51836 75.7772 2.02514 76.0822 2.06279 76.9916C2.14374 78.9628 2.89109 80.5839 4.59851 81.7305C7.02127 83.3554 9.77347 83.9937 12.5821 84.2459C16.2605 84.5773 19.9634 84.6394 22.9434 84.7825V84.7788ZM62.4154 57.0623L62.3928 57.3146C62.8955 57.4445 63.3924 57.6384 63.9007 57.6761C64.1097 57.6911 64.3431 57.3729 64.5652 57.2073C64.3563 57.0755 64.1454 56.8288 63.9402 56.8345C63.4301 56.8495 62.9237 56.9794 62.4154 57.0623V57.0623ZM21.7969 9.06819C22.3956 9.00041 22.8455 8.94958 23.4705 8.87992C22.6139 8.0722 22.3334 8.10232 21.7969 9.06819Z" fill="#A67F63"/>
<path d="M62.4181 57.0624C62.9264 56.9795 63.4328 56.8496 63.9429 56.8346C64.1481 56.8289 64.3589 57.0756 64.5679 57.2074C64.3458 57.373 64.1123 57.6931 63.9034 57.6762C63.3951 57.6385 62.8981 57.4446 62.3955 57.3147L62.4181 57.0624V57.0624Z" fill="white"/>
<path d="M21.7949 9.06817C22.3314 8.1023 22.6119 8.07029 23.4685 8.87989C22.8435 8.94955 22.3936 9.00039 21.7949 9.06817Z" fill="white"/>
<path d="M41.2557 36.5053C40.8622 36.8385 40.5704 37.1097 40.2561 37.345C39.5049 37.9061 38.7463 37.9946 37.9124 37.4599C37.3194 37.0795 36.6944 36.7858 36.188 37.6914C36.0619 37.9193 35.5988 37.9965 35.2731 38.0661C34.6519 38.1998 34.0194 38.3316 33.3887 38.3542C33.1195 38.3636 32.615 38.1207 32.6 37.9569C32.4983 36.8611 32.3327 35.7239 32.519 34.6602C32.6828 33.7244 33.769 33.4119 34.6444 33.8411C35.3842 34.2045 36.0543 34.63 36.2369 35.5469C36.2821 35.7691 36.5852 36.1231 36.7302 36.1043C37.0276 36.0666 37.3909 35.8858 37.5641 35.6449C38.6974 34.0633 38.8931 34.0181 40.753 34.7411C40.9902 34.8334 41.5098 34.5867 41.6999 34.342C42.3983 33.4476 43.3189 33.4119 43.9664 34.3325C44.0549 34.4587 44.1698 34.6922 44.2488 34.6827C45.6757 34.5208 47.001 36.0722 48.5014 34.9237C48.7084 34.7656 49.373 34.7995 49.3937 34.8691C49.5217 35.3135 49.7212 35.8934 49.5405 36.2417C48.9569 37.3657 48.1964 38.3975 47.5563 39.4933C47.3549 39.8378 47.1347 40.3405 47.2476 40.6531C47.3945 41.0579 47.835 41.57 48.2077 41.6227C48.6237 41.6811 49.2035 41.376 49.5367 41.0503C49.9866 40.6135 50.4535 40.2238 50.9862 40.589C51.3138 40.8131 51.4832 41.3949 51.534 41.8373C51.5604 42.0595 51.2084 42.4097 50.9467 42.566C49.7645 43.2682 49.5725 43.9856 50.286 45.1925C50.5213 45.5916 50.8055 45.9983 50.8921 46.4351C50.9618 46.7834 50.8733 47.3972 50.6549 47.5102C50.3556 47.6664 49.7814 47.5874 49.4803 47.3821C48.8854 46.9755 48.3489 47.0395 47.7051 47.1788C47.2514 47.2767 46.7431 47.1167 46.2593 47.0715C46.3158 46.4897 46.3026 45.8872 46.4551 45.3299C46.5605 44.942 47.0594 44.6314 47.0933 44.2605C47.1591 43.5205 46.6979 43.0894 45.9487 42.903C44.2243 42.4775 43.8855 41.4288 45.0376 40.0468C45.5741 39.4048 45.8885 38.7383 45.7228 37.9061C45.6795 37.6858 45.5402 37.4843 45.4461 37.2735C45.2352 37.3827 44.9886 37.4542 44.8211 37.6124C44.6197 37.8006 44.5293 38.1207 44.3128 38.277C43.9062 38.5745 43.3678 39.0753 43.0233 38.9811C42.5056 38.8381 42.0369 38.3128 41.6867 37.8439C41.4307 37.4994 41.3987 36.9892 41.2519 36.5053H41.2557Z" fill="#A67F63"/>
<path d="M26.699 28.0344C27.5706 27.8763 28.4478 27.7464 29.31 27.5506C30.095 27.3717 30.4207 27.7671 30.5506 28.4374C30.7859 29.6517 30.7445 29.5746 31.8137 29.1396C32.9055 28.6953 34.0501 28.3507 35.2022 28.106C36.3543 27.8631 37.0056 28.3357 37.0659 29.4898C37.111 30.3408 37.4536 30.6929 38.2085 30.932C38.5794 31.0507 39.0218 31.4065 39.1328 31.7529C39.2439 32.1013 39.1027 32.6755 38.8523 32.9485C38.6622 33.1556 38.1125 33.1217 37.7473 33.0558C36.6592 32.8638 35.5561 32.6811 34.5113 32.3366C34.0237 32.1747 33.6604 31.6437 33.2293 31.2935C32.9281 31.0469 32.5272 30.5705 32.3182 30.6402C31.9737 30.7569 31.6349 31.1862 31.4974 31.559C31.1417 32.5173 30.511 32.7583 29.711 32.1238C29.5171 31.9713 29.3627 31.7661 29.2027 31.5741C28.7434 31.0187 28.348 30.9546 27.8548 31.5929C27.6365 31.8772 27.1884 31.9845 26.8439 32.1728C26.6613 31.8188 26.4373 31.4799 26.3055 31.109C26.0872 30.4952 25.9065 29.8664 25.7483 29.2357C25.5092 28.2848 25.8462 27.7784 26.6971 28.0326L26.699 28.0344Z" fill="#A67F63"/>
<path d="M56.0783 29.919C56.6694 30.0903 57.2172 30.0979 57.5165 30.3746C57.8685 30.7003 58.1791 31.2576 58.1772 31.7152C58.1772 32.0352 57.6803 32.5022 57.3056 32.6453C55.8034 33.2195 54.3181 33.1932 52.9326 32.231C52.7538 32.1068 52.43 31.9995 52.2681 32.0785C50.9353 32.73 49.5479 32.3515 48.2057 32.2631C47.0047 32.184 45.2521 29.8248 45.3255 28.7178C45.3744 27.9665 45.7679 27.7142 46.4493 27.8498C47.319 28.0249 48.1172 28.5351 49.0923 28.2395C49.2505 28.1925 49.7399 28.8289 49.8849 29.2205C50.2952 30.3294 50.9522 30.9018 52.046 30.8679C52.206 30.8623 52.4394 30.6777 52.4978 30.5215C52.6182 30.2052 52.6427 29.8512 52.7067 29.5123C52.991 27.9797 54.369 27.059 55.8787 27.413C56.6581 27.5975 56.5734 28.2057 56.4642 28.7686C56.3889 29.1565 56.2157 29.5236 56.0801 29.9171L56.0783 29.919Z" fill="#A67F63"/>
<path d="M38.4124 46.5351C37.8382 46.1811 37.298 45.9533 36.8951 45.5767C36.1308 44.8632 35.5774 43.8898 34.3311 43.8559C34.1994 43.8521 34.0469 43.2854 33.9678 42.9634C33.8681 42.5624 33.8172 42.1444 33.7796 41.7321C33.7438 41.3311 33.5894 40.7342 33.7833 40.5666C34.0638 40.3256 34.6775 40.2259 35.0314 40.3671C35.8353 40.6871 36.5864 41.1578 37.3205 41.6248C38.322 42.263 38.4594 42.2066 39.1748 41.2802C39.427 40.9545 40.0633 40.6457 40.4059 40.7436C40.8144 40.8604 41.2512 41.3744 41.3848 41.8074C41.5166 42.2348 41.398 42.826 41.1928 43.2534C40.7768 44.1213 40.2855 44.9686 39.7151 45.7405C39.459 46.0851 38.9338 46.2301 38.4105 46.5332L38.4124 46.5351Z" fill="#A67F63"/>
<path d="M32.2045 66.5568C32.2591 64.9433 32.5678 64.4707 33.4959 64.3144C34.6856 64.1149 35.5102 64.6044 36.026 65.7491C36.2029 66.1426 36.5004 66.4834 36.7432 66.8468C37.0312 66.4966 37.3795 66.1784 37.5979 65.7906C38.2115 64.6948 38.8177 64.3954 39.7815 64.804C40.608 65.1542 41.0635 66.0428 40.8376 66.8694C40.5101 68.0687 39.7721 68.5846 38.6351 68.37C38.3 68.3078 37.9762 68.1723 37.6543 68.0555C37.0143 67.824 36.5474 68.0442 35.9356 68.3511C35.0678 68.7879 34.0061 68.8727 33.0121 68.9913C32.8464 69.012 32.5114 68.4641 32.4267 68.1346C32.2723 67.534 32.2478 66.9014 32.2026 66.5568H32.2045Z" fill="#A67F63"/>
<path d="M33.4703 59.4677C33.4854 59.4206 33.5795 59.1947 33.6379 58.9593C33.7734 58.4039 33.8694 57.8391 34.0276 57.2912C34.133 56.9221 34.2309 56.4891 34.4831 56.2387C35.0761 55.6531 35.3735 55.8113 35.575 56.6341C35.6446 56.9165 35.8875 57.3043 36.1209 57.3627C36.4051 57.4343 36.7929 57.261 37.081 57.0972C37.5911 56.8092 38.0222 56.3498 38.5549 56.1427C39.5734 55.7511 40.2774 56.3535 40.2718 57.4305C40.268 57.9709 40.4261 58.5112 40.4845 59.0553C40.5297 59.4827 40.6125 59.9327 40.5259 60.3375C40.4657 60.6199 40.1682 61.021 39.9329 61.0549C39.6393 61.0963 39.2006 60.8929 39.0067 60.6501C38.683 60.2453 38.5211 59.7162 38.2575 59.2568C37.8998 58.6355 37.4951 58.6279 36.9887 59.1438C36.424 59.72 35.8649 60.345 35.1872 60.7555C34.2403 61.3279 33.459 60.78 33.4703 59.4658V59.4677Z" fill="#A67F63"/>
<path d="M21.6095 42.5221C21.6208 42.2717 21.5512 41.9723 21.6641 41.7841C21.875 41.432 22.1912 41.1458 22.4642 40.8333C22.7127 41.1157 22.9706 41.3906 23.2059 41.6843C23.4412 41.9799 23.6332 42.5221 23.8761 42.5409C24.1735 42.5635 24.5782 42.2133 24.806 41.9215C25.2973 41.2945 25.8056 40.7466 26.6791 40.965C27.6072 41.1966 27.8161 41.9479 27.8481 42.7819C27.8801 43.5915 27.9328 44.4011 27.9215 45.2088C27.914 45.7134 27.7069 46.2368 27.1026 46.0825C26.792 46.0034 26.5266 45.5609 26.3402 45.2258C26.1012 44.7984 26.0485 43.9926 25.7661 43.9191C25.0526 43.7327 24.3222 43.9342 23.765 44.6082C23.4092 45.0375 22.9009 45.431 22.3832 45.6023C22.0595 45.7097 21.4947 45.4781 21.2067 45.2145C20.8095 44.8511 20.8396 44.3559 21.2105 43.8664C21.4834 43.5049 21.6095 43.0305 21.8016 42.6068L21.6114 42.5221H21.6095Z" fill="#A67F63"/>
<path d="M53.3378 35.3095C53.3284 35.3829 53.3302 35.5467 53.2813 35.6917C53.0818 36.2848 53.0366 36.9475 53.7557 37.0605C54.3731 37.1565 55.0414 36.9099 55.3294 36.1643C55.4932 35.7407 55.6457 35.1137 55.9638 34.9913C56.4797 34.7917 57.2345 34.7277 57.6939 34.9725C58.4318 35.366 58.6332 36.5729 58.2661 37.2413C57.8708 37.9586 57.2138 38.0094 56.5606 37.7402C56.0467 37.5274 55.8396 37.7232 55.5855 38.1149C54.8908 39.1862 53.6427 39.4046 52.7354 38.5328C51.8092 37.6442 51.2294 36.5465 51.2557 35.1947C51.2708 34.4284 51.6078 33.9125 52.3401 33.76C52.8502 33.6527 53.3415 34.4265 53.3397 35.3114L53.3378 35.3095Z" fill="#A67F63"/>
<path d="M27.3886 59.402C26.9198 60.5166 26.5301 60.7614 25.5531 60.4168C24.1846 59.9367 23.0099 59.2194 22.6729 57.6265C22.607 57.3178 22.2983 57.0673 22.1515 56.7661C22.0159 56.4893 21.7938 56.0958 21.8955 55.9038C22.0122 55.6816 22.4301 55.5498 22.735 55.5046C23.4203 55.403 24.1168 55.3728 24.8095 55.3201C25.1522 55.2938 25.5042 55.2241 25.8355 55.2749C26.4172 55.3634 26.6261 55.9772 26.2553 56.4008C25.2557 57.5437 25.3875 58.2573 26.724 58.984C26.9405 59.1026 27.142 59.2457 27.3886 59.402V59.402Z" fill="#A67F63"/>
<path d="M49.7925 61.7849C48.9736 61.9111 48.4239 61.5703 48.1924 60.8078C47.9966 60.1563 47.8441 59.4804 47.782 58.8064C47.7349 58.2848 49.9807 56.5131 50.3855 56.7805C50.9427 57.1476 51.5413 57.6955 51.7446 58.2942C52.0119 59.0794 51.9743 59.9944 51.931 60.8454C51.9178 61.0977 51.4773 61.4197 51.1667 61.542C50.7413 61.7077 50.2518 61.7134 49.7906 61.7887L49.7925 61.7849Z" fill="#A67F63"/>
<path d="M28.9459 49.2948C29.3506 49.1743 29.7516 49.0388 30.1601 48.9409C30.578 48.8411 31.0016 48.7281 31.427 48.7112C32.005 48.6867 32.2026 49.035 32.0652 49.5754C32.02 49.7561 31.9353 49.9274 31.8619 50.1007C31.2633 51.5033 31.2915 51.4713 32.4586 52.5257C32.7429 52.7818 32.7768 53.3146 32.9255 53.7213C32.5019 53.8342 32.005 54.143 31.668 54.0187C30.8322 53.71 30.0396 53.2468 29.2923 52.7497C29.025 52.5728 28.9271 52.1284 28.7765 51.7952C28.5976 51.4036 28.4508 50.995 28.2776 50.6015C28.1214 50.2438 27.7468 49.8258 27.8371 49.5584C27.9256 49.293 28.4734 49.18 28.8217 49.0011L28.9497 49.2967L28.9459 49.2948Z" fill="#A67F63"/>
<path d="M31.8498 22.2364C31.6145 22.5885 31.4902 22.9387 31.2417 23.1157C30.5207 23.6278 30.6902 24.0439 31.2719 24.509C31.59 24.7631 31.8837 25.0493 32.1642 25.3449C32.503 25.7027 32.7929 26.0811 32.3016 26.5499C31.7914 27.0375 31.0234 27.0884 30.6262 26.6384C30.5452 26.5461 30.5226 26.3597 30.4323 26.324C29.1597 25.8326 28.3239 25.006 28.1356 23.5864C28.1149 23.4264 27.6349 23.3623 27.441 23.1778C27.2565 23.0027 27.04 22.7071 27.072 22.5019C27.1003 22.3212 27.4353 22.1178 27.6688 22.0576C27.9624 21.9804 28.305 22.0934 28.6006 22.0218C29.1164 21.8994 29.6115 21.6829 30.1217 21.5323C30.4869 21.425 30.9104 21.2179 31.2191 21.3214C31.4827 21.4099 31.6201 21.8768 31.8517 22.2327L31.8498 22.2364Z" fill="#A67F63"/>
<path d="M46.2219 59.2068C46.2501 60.2631 45.9865 60.5192 44.9116 60.6378C44.6274 60.6698 44.3412 60.8599 44.0928 61.0313C43.4697 61.4643 42.871 61.4041 42.6508 60.698C42.3326 59.6775 42.1369 58.6025 42.0559 57.5387C42.0333 57.2431 42.5416 56.7253 42.903 56.6124C44.6669 56.0532 46.171 57.2657 46.2219 59.2068V59.2068Z" fill="#A67F63"/>
<path d="M30.5955 59.9922C29.1818 59.8943 27.9318 58.4277 28.1163 57.0137C28.1276 56.9214 28.1295 56.7859 28.1859 56.7482C28.9973 56.2154 29.8124 55.6882 30.6445 55.1874C30.7461 55.1271 30.9513 55.21 31.0982 55.2589C31.966 55.5508 32.2314 56.2643 32.3519 57.0777C32.4818 57.9457 32.7284 58.8776 31.9716 59.546C31.6403 59.8379 31.0624 59.851 30.5955 59.9922Z" fill="#A67F63"/>
<path d="M37.9931 53.2667C36.2329 53.2723 35.254 52.5098 34.8418 50.8078C34.7985 50.627 34.7269 50.4387 34.7458 50.2618C34.8135 49.6404 35.896 48.9796 37.0085 48.861C37.7841 48.7781 38.3357 49.0361 38.6011 49.8325C38.7875 50.3898 39.083 50.9113 39.2788 51.4667C39.7042 52.6736 39.2713 53.261 37.9912 53.2648L37.9931 53.2667Z" fill="#A67F63"/>
<path d="M45.429 24.8981C45.1598 26.329 45.0092 27.1462 43.4128 26.4006C42.8594 26.1407 42.2193 26.0353 41.6075 25.9431C40.751 25.815 40.2295 25.3161 40.2992 24.4538C40.3462 23.8682 40.4686 23.2695 40.6945 22.7329C40.7623 22.5729 41.312 22.5145 41.6075 22.5748C42.3963 22.7329 43.1568 23.0304 43.9474 23.1791C44.8322 23.3448 45.4346 23.9831 45.429 24.8981V24.8981Z" fill="#A67F63"/>
<path d="M46.1619 52.8317C46.1751 53.9877 45.6743 54.3492 44.6616 54.1101C43.7937 53.9049 42.909 53.7769 42.0355 53.598C41.0227 53.389 41.0585 52.5079 40.8891 51.7623C40.7253 51.0374 41.0679 50.2692 41.6552 50.2636C42.7678 50.2523 43.9368 50.4763 44.9797 50.8717C45.4767 51.06 45.7553 51.8564 46.0998 52.3987C46.1901 52.5418 46.1563 52.7639 46.1638 52.8317H46.1619Z" fill="#A67F63"/>
<path d="M24.3095 66.399C25.0926 65.5838 25.8738 64.7685 26.6607 63.9589C26.6927 63.925 26.7982 63.9194 26.8415 63.9458C27.89 64.616 28.9498 65.2712 29.9513 66.0055C30.0323 66.0658 29.7913 66.7511 29.556 67.0147C29.155 67.4628 28.6091 67.7753 28.178 68.2008C27.5643 68.8071 27.105 68.7826 26.7661 67.99C26.4687 67.2952 26.0677 67.009 25.3072 67.2707C24.6728 67.4892 24.4488 67.1239 24.3076 66.3971L24.3095 66.399Z" fill="#A67F63"/>
<path d="M33.676 23.8044C33.6158 22.3358 33.676 22.2982 35.6658 21.8896C36.7313 21.6712 37.0946 21.9405 37.5577 23.136C37.7008 23.505 37.9869 23.8176 38.1846 24.1678C38.6684 25.0282 38.1959 26.1315 37.2264 26.0845C36.24 26.0355 35.2121 25.738 34.3198 25.3088C33.949 25.1299 33.8793 24.3241 33.6723 23.8044H33.676Z" fill="#A67F63"/>
<path d="M27.0356 33.3909C27.1805 33.4022 27.3273 33.372 27.4252 33.4285C28.2422 33.8992 29.0988 34.3228 29.8461 34.8877C30.3581 35.2755 30.0588 35.7707 29.6955 36.1812C29.2494 36.6839 28.8126 37.1979 28.3947 37.725C27.9297 38.3106 27.2822 38.2635 26.9019 37.5161C26.5085 36.7441 26.1753 36.0663 25.1549 36.7611C25.0985 36.7987 24.5036 36.2132 24.5281 36.1793C25.1869 35.2473 25.8854 34.3454 26.6026 33.4568C26.6722 33.3702 26.9 33.4078 27.0356 33.3909V33.3909Z" fill="#A67F63"/>
<path d="M32.6358 43.9691C32.6358 45.4584 32.1878 45.8632 31.0112 45.7408C30.7947 45.7183 30.5783 45.6674 30.3599 45.6618C28.8501 45.6166 28.2044 44.5039 28.9066 43.1238C29.1457 42.6512 29.3753 42.1485 29.7255 41.7644C30.0286 41.433 30.6347 40.9567 30.8625 41.064C31.4329 41.3314 32.0108 41.8152 32.3139 42.3612C32.6132 42.9035 32.5793 43.6284 32.6377 43.9691H32.6358Z" fill="#A67F63"/>
<path d="M22.0456 53.136C21.8065 53.0174 21.2079 52.9063 21.1269 52.6371C21.0196 52.2775 21.189 51.6919 21.4545 51.3907C22.1303 50.6206 22.9172 49.9485 23.6739 49.2537C23.8076 49.1313 24.0052 49.0805 24.1728 48.9939C24.7356 48.7058 25.2533 48.9073 25.4378 49.4043C25.7522 50.2478 26.9796 50.7882 26.3358 51.9555C26.2793 52.0572 26.1626 52.1664 26.0553 52.1927C24.7883 52.4996 23.5177 52.7934 22.0456 53.136V53.136Z" fill="#A67F63"/>
<path d="M21.3405 25.7544C21.2201 25.6377 20.8793 25.4343 20.7626 25.1425C20.6836 24.9429 20.8473 24.5569 21.0243 24.363C21.7509 23.5628 22.5284 22.806 23.2814 22.0265C23.7915 21.4993 24.2716 21.7855 24.6876 22.1206C25.1714 22.5122 25.6138 22.9622 26.0336 23.4216C26.6172 24.0618 26.3931 24.7979 25.5441 25.0822C25.2486 25.182 24.9455 25.2743 24.6387 25.3195C23.6221 25.4663 22.6018 25.5887 21.3405 25.7525V25.7544Z" fill="#A67F63"/>
<path d="M51.7585 43.6572C51.7811 42.9323 52.9087 41.3244 53.6165 41.1983C53.9873 41.1324 54.4937 41.2811 54.7912 41.5184C55.0491 41.7255 55.2204 42.1924 55.2166 42.5445C55.211 43.3672 55.1225 44.1976 54.9775 45.0072C54.8985 45.444 54.7403 45.9768 54.4278 46.2347C53.9497 46.632 53.3661 46.4588 52.92 46.005C52.2762 45.3498 51.6869 44.6664 51.7566 43.6591L51.7585 43.6572Z" fill="#A67F63"/>
<path d="M22.5862 32.576C21.3042 32.6927 20.0675 31.3183 20.9918 29.7782C21.2327 29.3771 21.3946 28.9309 21.6036 28.5111C22.0685 27.5753 22.509 27.3626 23.2922 27.6826C23.9699 27.9594 24.4066 28.8443 24.032 29.5617C23.6442 30.3072 23.4446 30.953 23.6611 31.821C23.8494 32.5703 23.1416 32.5929 22.5843 32.5779L22.5862 32.576Z" fill="#A67F63"/>
<path d="M20.5762 67.4757C20.4877 65.0186 21.141 64.2862 22.8578 63.7817C23.1402 63.6988 23.5769 63.7628 23.7877 63.9417C23.9233 64.0584 23.8649 64.5498 23.7388 64.7946C23.5185 65.2257 23.2644 65.7661 22.8766 65.9544C22.0916 66.3366 22.1707 66.7866 22.5039 67.3778C22.5811 67.5133 22.7166 67.6282 22.7505 67.7713C22.8597 68.2156 23.1251 68.7635 22.9651 69.0911C22.8333 69.3585 22.1217 69.5543 21.7697 69.447C21.348 69.3189 20.9282 68.8953 20.7042 68.4905C20.5103 68.1403 20.5932 67.6357 20.5781 67.4738L20.5762 67.4757Z" fill="#A67F63"/>
<path d="M21.8906 39.1648C21.4482 38.6753 20.8647 38.327 20.7837 37.8864C20.5296 36.4951 20.458 35.0415 21.5499 33.91C21.8869 33.5617 22.4328 33.3395 22.9185 33.2397C23.2027 33.1813 23.7223 33.4016 23.839 33.6408C23.9538 33.8799 23.7675 34.3411 23.5886 34.6292C23.3608 34.9945 23.0126 35.2863 22.7076 35.5988C22.2483 36.0714 22.1278 36.4442 22.7076 37.0034C22.9938 37.2802 23.0427 37.958 22.9561 38.408C22.9072 38.6697 22.3763 38.8391 21.8906 39.1648V39.1648Z" fill="#A67F63"/>
<path d="M42.9992 29.1384C42.794 30.5373 42.137 30.9929 40.9849 30.5147C40.439 30.2888 39.878 30.0704 39.3848 29.7522C39.1137 29.5771 38.7975 29.1911 38.8125 28.92C38.8314 28.5999 39.1514 28.0708 39.4036 28.0294C40.2978 27.8863 41.2391 27.7903 42.1219 27.9334C42.4702 27.9899 42.7093 28.7166 42.9973 29.1384H42.9992Z" fill="#A67F63"/>
<path d="M54.9015 24.6423C54.1768 25.2184 53.5499 25.755 52.876 26.2238C52.7084 26.3405 52.2999 26.3424 52.1493 26.2182C51.2363 25.465 51.2175 23.731 52.1305 22.9553C52.3395 22.7783 52.78 22.7369 53.068 22.8122C54.0619 23.072 54.557 23.6218 54.8996 24.6423H54.9015Z" fill="#A67F63"/>
<path d="M50.7995 52.2572C50.7995 53.031 50.8334 53.8067 50.7769 54.5749C50.7619 54.782 50.4494 55.1398 50.2988 55.1266C49.9731 55.0983 49.5289 54.959 49.3801 54.7161C49.0601 54.1908 48.8587 53.5808 48.678 52.9858C48.4257 52.1442 49.1749 50.9524 50.056 50.8545C50.2931 50.8282 50.6602 51.1049 50.8014 51.3403C50.9464 51.5813 50.888 51.9447 50.9181 52.2553L50.7976 52.2591L50.7995 52.2572Z" fill="#A67F63"/>
<path d="M47.1709 24.1571C47.602 23.4378 47.8768 22.7864 48.3343 22.3063C48.5413 22.0898 49.108 22.2178 49.5127 22.1895C49.5221 22.5266 49.5522 22.8655 49.5372 23.2006C49.524 23.4981 49.4506 23.7918 49.428 24.0874C49.3809 24.7087 49.3772 25.3357 49.268 25.9438C49.2586 25.9984 48.4435 26.0813 48.2759 25.8986C47.8505 25.4374 47.5813 24.833 47.1709 24.1552V24.1571Z" fill="#A67F63"/>
<path d="M55.7877 52.1707C55.7312 52.4512 55.6615 52.8184 55.5806 53.1818C55.4206 53.9066 54.9669 54.2512 54.2271 54.1608C53.4082 54.061 53.3254 53.4303 53.4383 52.8278C53.5437 52.2611 53.7659 51.6887 54.0633 51.1935C54.2403 50.8979 54.7617 50.5082 54.9443 50.5873C55.2775 50.7304 55.4996 51.1766 55.718 51.5268C55.8065 51.668 55.7632 51.892 55.7895 52.1707H55.7877Z" fill="#A67F63"/>
<path d="M97.0118 37.0811C94.9664 37.0811 93.2599 36.4164 91.892 35.0869C90.537 33.7447 89.8595 32.0765 89.8595 30.0823C89.8595 28.0881 90.537 26.4262 91.892 25.0968C93.2599 23.7545 94.9664 23.0834 97.0118 23.0834C98.354 23.0834 99.5684 23.3902 100.655 24.0038C101.754 24.6046 102.611 25.4419 103.224 26.5157C103.838 27.5767 104.145 28.7656 104.145 30.0823C104.145 32.0892 103.467 33.7575 102.112 35.0869C100.757 36.4164 99.0571 37.0811 97.0118 37.0811ZM97.0118 34.3391C97.8043 34.3391 98.5202 34.1601 99.1593 33.8022C99.7985 33.4315 100.297 32.9202 100.655 32.2682C101.026 31.6163 101.211 30.8876 101.211 30.0823C101.211 28.8679 100.808 27.858 100.003 27.0526C99.2105 26.2345 98.2134 25.8254 97.0118 25.8254C95.8229 25.8254 94.8194 26.2345 94.0013 27.0526C93.1959 27.858 92.7933 28.8679 92.7933 30.0823C92.7933 31.2967 93.1959 32.313 94.0013 33.1311C94.8194 33.9364 95.8229 34.3391 97.0118 34.3391Z" fill="#A67F63"/>
<path d="M111.704 28.2223C112.561 28.2223 113.321 28.4077 113.986 28.7784C114.651 29.1363 115.169 29.6412 115.539 30.2932C115.91 30.9451 116.095 31.6802 116.095 32.4983C116.095 33.7511 115.68 34.7801 114.849 35.5855C114.031 36.3908 112.983 36.7935 111.704 36.7935H106.431V23.371H115.041V26.0172H109.288V28.2223H111.704ZM111.455 34.1282C111.941 34.1282 112.337 33.9748 112.644 33.668C112.964 33.3612 113.123 32.9713 113.123 32.4983C113.123 32.2682 113.079 32.0509 112.989 31.8464C112.912 31.6418 112.804 31.4693 112.663 31.3286C112.523 31.188 112.344 31.0794 112.126 31.0027C111.922 30.9132 111.698 30.8684 111.455 30.8684H109.288V34.1282H111.455Z" fill="#A67F63"/>
<path d="M133.893 34.0898H135.216V39.1712H132.532V36.7935H118.285V23.371H121.199V34.0898H124.67V23.371H127.508V34.0898H130.978V23.371H133.893V34.0898Z" fill="#A67F63"/>
<path d="M140.486 34.0898H145.836V36.7935H137.572V23.371H145.625V26.0555H140.486V28.7017H145.127V31.3286H140.486V34.0898Z" fill="#A67F63"/>
<path d="M154.232 37.0811C152.941 37.0811 151.765 36.7807 150.704 36.1799C149.643 35.5663 148.812 34.729 148.211 33.668C147.61 32.5942 147.31 31.4053 147.31 30.1014C147.31 28.1072 147.968 26.439 149.285 25.0968C150.614 23.7545 152.263 23.0834 154.232 23.0834C155.868 23.0834 157.281 23.5756 158.47 24.5599C159.659 25.5442 160.413 26.8353 160.732 28.4332H157.818C157.639 27.9091 157.377 27.4553 157.032 27.0718C156.686 26.6755 156.271 26.3751 155.785 26.1706C155.312 25.9533 154.795 25.8446 154.232 25.8446C153.094 25.8446 152.142 26.2537 151.375 27.0718C150.621 27.8771 150.244 28.887 150.244 30.1014C150.244 31.3031 150.621 32.3066 151.375 33.1119C152.142 33.9173 153.094 34.3199 154.232 34.3199C155.114 34.3199 155.875 34.0707 156.514 33.5721C157.153 33.0736 157.594 32.396 157.837 31.5396H160.771C160.464 33.2014 159.71 34.5436 158.508 35.5663C157.319 36.5762 155.894 37.0811 154.232 37.0811Z" fill="#A67F63"/>
<path d="M171.907 23.371V26.0747H168.168V36.7935H165.253V26.0747H161.533V23.371H171.907Z" fill="#A67F63"/>
<path d="M181.916 29.7179C182.504 30.0247 182.958 30.4594 183.277 31.0218C183.61 31.5715 183.776 32.2043 183.776 32.9202C183.776 33.994 183.36 34.908 182.529 35.6622C181.711 36.4164 180.721 36.7935 179.557 36.7935H173.843V23.371H179.404C180.554 23.371 181.513 23.7034 182.28 24.3681C183.047 25.0201 183.431 25.8382 183.431 26.8225C183.431 27.3978 183.297 27.9411 183.028 28.4524C182.76 28.9637 182.389 29.3856 181.916 29.7179ZM180.612 27.2827C180.612 27.0654 180.574 26.8737 180.497 26.7075C180.433 26.5285 180.337 26.3751 180.209 26.2473C180.081 26.1194 179.922 26.0236 179.73 25.9596C179.551 25.8829 179.346 25.8446 179.116 25.8446H176.7V28.7017H179.116C179.577 28.7017 179.941 28.5738 180.209 28.3182C180.478 28.0497 180.612 27.7046 180.612 27.2827ZM179.27 34.1282C179.743 34.1282 180.126 33.9876 180.42 33.7063C180.714 33.4251 180.861 33.0608 180.861 32.6134C180.861 32.1787 180.714 31.8208 180.42 31.5396C180.126 31.2583 179.743 31.1177 179.27 31.1177H176.7V34.1282H179.27Z" fill="#A67F63"/>
<path d="M192.512 37.0811C190.467 37.0811 188.76 36.4164 187.392 35.0869C186.037 33.7447 185.36 32.0765 185.36 30.0823C185.36 28.0881 186.037 26.4262 187.392 25.0968C188.76 23.7545 190.467 23.0834 192.512 23.0834C193.854 23.0834 195.069 23.3902 196.155 24.0038C197.255 24.6046 198.111 25.4419 198.725 26.5157C199.338 27.5767 199.645 28.7656 199.645 30.0823C199.645 32.0892 198.968 33.7575 197.613 35.0869C196.258 36.4164 194.557 37.0811 192.512 37.0811ZM192.512 34.3391C193.305 34.3391 194.02 34.1601 194.66 33.8022C195.299 33.4315 195.797 32.9202 196.155 32.2682C196.526 31.6163 196.711 30.8876 196.711 30.0823C196.711 28.8679 196.309 27.858 195.503 27.0526C194.711 26.2345 193.714 25.8254 192.512 25.8254C191.323 25.8254 190.32 26.2345 189.502 27.0526C188.696 27.858 188.294 28.8679 188.294 30.0823C188.294 31.2967 188.696 32.313 189.502 33.1311C190.32 33.9364 191.323 34.3391 192.512 34.3391Z" fill="#A67F63"/>
<path d="M209.031 23.371H217.948V36.7935H215.052V26.0747H211.562L210.93 31.8847C210.751 33.5465 210.271 34.7865 209.491 35.6047C208.724 36.4228 207.638 36.8319 206.232 36.8319H205.484V33.994H206.251C207.286 33.994 207.881 33.3356 208.034 32.0189L209.031 23.371Z" fill="#A67F63"/>
<path d="M232.23 23.0834C234.212 23.0834 235.842 23.7417 237.12 25.0584C238.411 26.3751 239.057 28.0497 239.057 30.0823C239.057 32.1276 238.417 33.8086 237.139 35.1253C235.861 36.4292 234.224 37.0811 232.23 37.0811C230.479 37.0811 228.983 36.5634 227.743 35.528C226.516 34.4797 225.768 33.1055 225.5 31.4053H223.927V36.7935H221.013V23.371H223.927V28.7208H225.5C225.781 27.0334 226.535 25.672 227.762 24.6366C228.99 23.6011 230.479 23.0834 232.23 23.0834ZM232.134 34.3199C233.323 34.3199 234.288 33.9237 235.03 33.1311C235.784 32.3385 236.161 31.3222 236.161 30.0823C236.161 28.8551 235.784 27.8388 235.03 27.0334C234.276 26.2281 233.31 25.8254 232.134 25.8254C231.367 25.8254 230.677 26.0108 230.063 26.3815C229.45 26.7394 228.964 27.2444 228.606 27.8963C228.261 28.5483 228.088 29.2769 228.088 30.0823C228.088 31.3095 228.472 32.3257 229.239 33.1311C230.006 33.9237 230.971 34.3199 232.134 34.3199Z" fill="#A67F63"/>
<path d="M246.622 28.2223C247.478 28.2223 248.239 28.4077 248.904 28.7784C249.568 29.1363 250.086 29.6412 250.457 30.2932C250.828 30.9451 251.013 31.6802 251.013 32.4983C251.013 33.7511 250.598 34.7801 249.767 35.5855C248.948 36.3908 247.9 36.7935 246.622 36.7935H241.349V23.371H249.958V26.0172H244.206V28.2223H246.622ZM246.373 34.1282C246.858 34.1282 247.255 33.9748 247.561 33.668C247.881 33.3612 248.041 32.9713 248.041 32.4983C248.041 32.2682 247.996 32.0509 247.907 31.8464C247.83 31.6418 247.721 31.4693 247.581 31.3286C247.44 31.188 247.261 31.0794 247.044 31.0027C246.839 30.9132 246.616 30.8684 246.373 30.8684H244.206V34.1282H246.373Z" fill="#A67F63"/>
<path d="M262.233 23.371H264.343V36.7935H261.428V28.7208L255.215 36.7935H253.202V23.371H256.117V31.3478L262.233 23.371Z" fill="#A67F63"/>
<path d="M276.676 23.371V26.0747H272.937V36.7935H270.023V26.0747H266.303V23.371H276.676Z" fill="#A67F63"/>
<path d="M281.527 34.0898H286.877V36.7935H278.613V23.371H286.666V26.0555H281.527V28.7017H286.168V31.3286H281.527V34.0898Z" fill="#A67F63"/>
<path d="M291.836 23.371H300.752V36.7935H297.857V26.0747H294.367L293.734 31.8847C293.555 33.5465 293.076 34.7865 292.296 35.6047C291.529 36.4228 290.442 36.8319 289.036 36.8319H288.288V33.994H289.055C290.091 33.994 290.685 33.3356 290.838 32.0189L291.836 23.371Z" fill="#A67F63"/>
<path d="M306.732 34.0898H312.082V36.7935H303.817V23.371H311.871V26.0555H306.732V28.7017H311.372V31.3286H306.732V34.0898Z" fill="#A67F63"/>
<path d="M317.117 21.8946V19.7278H322.888V21.8946H317.117ZM323.56 23.371H325.669V36.7935H322.754V28.7208L316.542 36.7935H314.528V23.371H317.443V31.3478L323.56 23.371Z" fill="#A67F63"/>
<path d="M101.633 64.2219H102.937V69.3033H100.252V66.9256H92.3139V69.3033H89.6294V64.2219H90.7032C90.8949 64.0685 91.0547 63.9023 91.1826 63.7234C91.3232 63.5444 91.451 63.2632 91.5661 62.8797C91.6939 62.4834 91.7962 62.0807 91.8729 61.6717C91.9496 61.2498 92.0327 60.6043 92.1221 59.735C92.2244 58.8657 92.3139 58.0028 92.3906 57.1464C92.4673 56.2771 92.5696 55.0627 92.6974 53.5031H101.633V64.2219ZM95.2093 56.2068C95.0559 58.6868 94.8705 60.5084 94.6532 61.6717C94.4359 62.8222 94.1163 63.6722 93.6945 64.2219H98.7375V56.2068H95.2093Z" fill="#A67F63"/>
<path d="M110.447 53.5031C111.802 53.5031 112.933 53.9441 113.841 54.8262C114.749 55.6955 115.202 56.7948 115.202 58.1243C115.202 59.441 114.749 60.5403 113.841 61.4224C112.933 62.2917 111.802 62.7263 110.447 62.7263H108.204V66.9256H105.289V53.5031H110.447ZM110.332 60.0418C110.907 60.0418 111.367 59.8628 111.713 59.5049C112.071 59.147 112.25 58.6868 112.25 58.1243C112.25 57.5618 112.071 57.1016 111.713 56.7437C111.367 56.373 110.907 56.1876 110.332 56.1876H108.204V60.0418H110.332Z" fill="#A67F63"/>
<path d="M120.132 64.2219H125.482V66.9256H117.217V53.5031H125.271V56.1876H120.132V58.8338H124.772V61.4607H120.132V64.2219Z" fill="#A67F63"/>
<path d="M136.001 59.85C136.589 60.1568 137.043 60.5915 137.362 61.1539C137.695 61.7036 137.861 62.3364 137.861 63.0523C137.861 64.1261 137.445 65.0401 136.614 65.7943C135.796 66.5485 134.806 66.9256 133.642 66.9256H127.928V53.5031H133.489C134.639 53.5031 135.598 53.8355 136.365 54.5002C137.132 55.1522 137.516 55.9703 137.516 56.9546C137.516 57.5299 137.381 58.0732 137.113 58.5845C136.845 59.0958 136.474 59.5177 136.001 59.85ZM134.697 57.4148C134.697 57.1975 134.659 57.0058 134.582 56.8396C134.518 56.6606 134.422 56.5072 134.294 56.3794C134.166 56.2515 134.007 56.1557 133.815 56.0917C133.636 56.015 133.431 55.9767 133.201 55.9767H130.785V58.8338H133.201C133.662 58.8338 134.026 58.7059 134.294 58.4503C134.563 58.1818 134.697 57.8367 134.697 57.4148ZM133.355 64.2603C133.828 64.2603 134.211 64.1197 134.505 63.8384C134.799 63.5572 134.946 63.1929 134.946 62.7455C134.946 62.3108 134.799 61.9529 134.505 61.6717C134.211 61.3904 133.828 61.2498 133.355 61.2498H130.785V64.2603H133.355Z" fill="#A67F63"/>
<path d="M148.189 53.5031H151.084V66.9256H148.189V61.384H143.145V66.9256H140.231V53.5031H143.145V58.6804H148.189V53.5031Z" fill="#A67F63"/>
<path d="M157.077 64.2219H162.427V66.9256H154.163V53.5031H162.216V56.1876H157.077V58.8338H161.718V61.4607H157.077V64.2219Z" fill="#A67F63"/>
<path d="M167.462 52.0267V49.8599H173.234V52.0267H167.462ZM173.905 53.5031H176.014V66.9256H173.1V58.8529L166.887 66.9256H164.874V53.5031H167.788V61.4799L173.905 53.5031Z" fill="#A67F63"/>
<path d="M183.674 53.5031H194.125V66.9256H191.229V56.2068H186.589V66.9256H183.674V53.5031Z" fill="#A67F63"/>
<path d="M206.225 53.5031H208.335V66.9256H205.42V58.8529L199.207 66.9256H197.194V53.5031H200.109V61.4799L206.225 53.5031Z" fill="#A67F63"/>
<path d="M217.562 67.2132C216.271 67.2132 215.095 66.9128 214.034 66.312C212.973 65.6984 212.142 64.8611 211.541 63.8001C210.94 62.7263 210.64 61.5374 210.64 60.2335C210.64 58.2393 211.298 56.5711 212.615 55.2289C213.944 53.8866 215.593 53.2155 217.562 53.2155C219.198 53.2155 220.611 53.7077 221.8 54.692C222.988 55.6763 223.743 56.9674 224.062 58.5653H221.148C220.969 58.0412 220.707 57.5874 220.361 57.2039C220.016 56.8076 219.601 56.5072 219.115 56.3027C218.642 56.0854 218.124 55.9767 217.562 55.9767C216.424 55.9767 215.472 56.3858 214.705 57.2039C213.951 58.0092 213.573 59.0191 213.573 60.2335C213.573 61.4352 213.951 62.4387 214.705 63.244C215.472 64.0494 216.424 64.452 217.562 64.452C218.444 64.452 219.204 64.2028 219.844 63.7042C220.483 63.2057 220.924 62.5281 221.167 61.6717H224.1C223.794 63.3335 223.039 64.6757 221.838 65.6984C220.649 66.7083 219.224 67.2132 217.562 67.2132Z" fill="#A67F63"/>
<path d="M231.415 57.5682C232.349 57.5682 233.18 57.7664 233.908 58.1626C234.65 58.5589 235.225 59.115 235.634 59.8309C236.056 60.5339 236.267 61.3393 236.267 62.2469C236.267 63.6147 235.813 64.7397 234.905 65.6217C233.998 66.491 232.834 66.9256 231.415 66.9256H226.2V53.5031H229.114V57.5682H231.415ZM231.205 64.2028C231.818 64.2028 232.317 64.0238 232.7 63.6659C233.096 63.2951 233.295 62.8222 233.295 62.2469C233.295 61.8634 233.205 61.5247 233.026 61.2306C232.86 60.9366 232.617 60.7065 232.297 60.5403C231.978 60.3742 231.614 60.2911 231.205 60.2911H229.114V64.2028H231.205Z" fill="#A67F63"/>
<path d="M254.749 66.9256H251.796L250.473 58.1626L246.465 66.9064H245.756L241.748 58.1626L240.425 66.9256H237.453L239.562 53.5031H242.477L246.101 61.7292L249.744 53.5031H252.659L254.749 66.9256Z" fill="#A67F63"/>
<path d="M259.899 64.2219H265.249V66.9256H256.985V53.5031H265.038V56.1876H259.899V58.8338H264.54V61.4607H259.899V64.2219Z" fill="#A67F63"/>
<path d="M275.653 53.5031H278.549V66.9256H275.653V61.384H270.61V66.9256H267.696V53.5031H270.61V58.6804H275.653V53.5031Z" fill="#A67F63"/>
<path d="M289.585 53.5031H292.48V66.9256H289.585V61.384H284.542V66.9256H281.627V53.5031H284.542V58.6804H289.585V53.5031Z" fill="#A67F63"/>
<path d="M301.925 67.2132C299.88 67.2132 298.173 66.5485 296.806 65.219C295.451 63.8768 294.773 62.2086 294.773 60.2144C294.773 58.2202 295.451 56.5583 296.806 55.2289C298.173 53.8866 299.88 53.2155 301.925 53.2155C303.268 53.2155 304.482 53.5223 305.569 54.1359C306.668 54.7367 307.524 55.574 308.138 56.6478C308.752 57.7088 309.058 58.8977 309.058 60.2144C309.058 62.2213 308.381 63.8896 307.026 65.219C305.671 66.5485 303.971 67.2132 301.925 67.2132ZM301.925 64.4712C302.718 64.4712 303.434 64.2922 304.073 63.9343C304.712 63.5636 305.211 63.0523 305.569 62.4003C305.939 61.7484 306.125 61.0197 306.125 60.2144C306.125 58.9999 305.722 57.9901 304.917 57.1847C304.124 56.3666 303.127 55.9575 301.925 55.9575C300.736 55.9575 299.733 56.3666 298.915 57.1847C298.11 57.9901 297.707 58.9999 297.707 60.2144C297.707 61.4288 298.11 62.4451 298.915 63.2632C299.733 64.0685 300.736 64.4712 301.925 64.4712Z" fill="#A67F63"/>
<path d="M317.5 67.2132C316.209 67.2132 315.033 66.9128 313.972 66.312C312.911 65.6984 312.08 64.8611 311.479 63.8001C310.878 62.7263 310.578 61.5374 310.578 60.2335C310.578 58.2393 311.236 56.5711 312.553 55.2289C313.882 53.8866 315.531 53.2155 317.5 53.2155C319.136 53.2155 320.549 53.7077 321.738 54.692C322.927 55.6763 323.681 56.9674 324 58.5653H321.086C320.907 58.0412 320.645 57.5874 320.3 57.2039C319.954 56.8076 319.539 56.5072 319.053 56.3027C318.58 56.0854 318.062 55.9767 317.5 55.9767C316.362 55.9767 315.41 56.3858 314.643 57.2039C313.889 58.0092 313.512 59.0191 313.512 60.2335C313.512 61.4352 313.889 62.4387 314.643 63.244C315.41 64.0494 316.362 64.452 317.5 64.452C318.382 64.452 319.143 64.2028 319.782 63.7042C320.421 63.2057 320.862 62.5281 321.105 61.6717H324.039C323.732 63.3335 322.978 64.6757 321.776 65.6984C320.587 66.7083 319.162 67.2132 317.5 67.2132Z" fill="#A67F63"/>
<path d="M335.175 53.5031V56.2068H331.436V66.9256H328.521V56.2068H324.801V53.5031H335.175Z" fill="#A67F63"/>
<path d="M346.143 53.5031H348.252V66.9256H345.337V58.8529L339.125 66.9256H337.111V53.5031H340.026V61.4799L346.143 53.5031Z" fill="#A67F63"/>
</svg>
